%TF.GenerationSoftware,KiCad,Pcbnew,(6.0.0)*%
%TF.CreationDate,2022-01-04T00:39:42-05:00*%
%TF.ProjectId,wii mini usb esd board,77696920-6d69-46e6-9920-757362206573,rev?*%
%TF.SameCoordinates,Original*%
%TF.FileFunction,Copper,L2,Bot*%
%TF.FilePolarity,Positive*%
%FSLAX46Y46*%
G04 Gerber Fmt 4.6, Leading zero omitted, Abs format (unit mm)*
G04 Created by KiCad (PCBNEW (6.0.0)) date 2022-01-04 00:39:42*
%MOMM*%
%LPD*%
G01*
G04 APERTURE LIST*
%TA.AperFunction,ComponentPad*%
%ADD10R,1.700000X1.700000*%
%TD*%
%TA.AperFunction,ComponentPad*%
%ADD11O,1.700000X1.700000*%
%TD*%
%TA.AperFunction,ComponentPad*%
%ADD12R,1.428000X1.428000*%
%TD*%
%TA.AperFunction,ComponentPad*%
%ADD13C,1.428000*%
%TD*%
%TA.AperFunction,ComponentPad*%
%ADD14C,3.276000*%
%TD*%
%TA.AperFunction,ViaPad*%
%ADD15C,0.800000*%
%TD*%
G04 APERTURE END LIST*
D10*
%TO.P,J2,1,Pin_1*%
%TO.N,/5V*%
X137668000Y-84582000D03*
D11*
%TO.P,J2,2,Pin_2*%
%TO.N,/D-_F*%
X137668000Y-87122000D03*
%TO.P,J2,3,Pin_3*%
%TO.N,/D+_F*%
X137668000Y-89662000D03*
%TO.P,J2,4,Pin_4*%
%TO.N,GND*%
X137668000Y-92202000D03*
%TD*%
D12*
%TO.P,J1,1,VBUS*%
%TO.N,Net-(D1-Pad5)*%
X121511500Y-85492500D03*
D13*
%TO.P,J1,2,D-*%
%TO.N,Net-(J1-Pad2)*%
X121511500Y-87992500D03*
%TO.P,J1,3,D+*%
%TO.N,Net-(D1-Pad1)*%
X121511500Y-89992500D03*
%TO.P,J1,4,GND*%
%TO.N,GND*%
X121511500Y-92492500D03*
D14*
%TO.P,J1,S1*%
%TO.N,N/C*%
X118801500Y-82422500D03*
%TO.P,J1,S2*%
X118801500Y-95562500D03*
%TD*%
D15*
%TO.N,GND*%
X125730000Y-92202000D03*
%TD*%
%TA.AperFunction,Conductor*%
%TO.N,GND*%
G36*
X135840604Y-72897983D02*
G01*
X135859940Y-72899483D01*
X135874852Y-72901804D01*
X135874854Y-72901804D01*
X135883730Y-72903186D01*
X135902411Y-72900743D01*
X135925342Y-72899852D01*
X136228557Y-72915743D01*
X136241665Y-72917120D01*
X136480548Y-72954955D01*
X136570002Y-72969123D01*
X136582902Y-72971865D01*
X136904000Y-73057903D01*
X136916536Y-73061977D01*
X137146231Y-73150148D01*
X137226876Y-73181105D01*
X137238924Y-73186469D01*
X137535120Y-73337388D01*
X137546536Y-73343979D01*
X137825334Y-73525033D01*
X137835996Y-73532779D01*
X138094344Y-73741984D01*
X138104145Y-73750810D01*
X138339190Y-73985855D01*
X138348015Y-73995655D01*
X138499693Y-74182962D01*
X138557221Y-74254004D01*
X138564967Y-74264666D01*
X138746018Y-74543459D01*
X138752612Y-74554880D01*
X138903531Y-74851076D01*
X138908895Y-74863124D01*
X139028021Y-75173456D01*
X139032097Y-75186000D01*
X139118135Y-75507098D01*
X139120877Y-75519998D01*
X139140522Y-75644030D01*
X139172879Y-75848329D01*
X139174257Y-75861443D01*
X139180840Y-75987049D01*
X139189764Y-76157330D01*
X139188436Y-76183312D01*
X139188195Y-76184856D01*
X139188195Y-76184860D01*
X139186814Y-76193730D01*
X139187978Y-76202632D01*
X139187978Y-76202635D01*
X139190936Y-76225251D01*
X139192000Y-76241589D01*
X139192000Y-83405139D01*
X139171998Y-83473260D01*
X139118342Y-83519753D01*
X139048068Y-83529857D01*
X138983488Y-83500363D01*
X138965174Y-83480704D01*
X138886642Y-83375919D01*
X138881261Y-83368739D01*
X138764705Y-83281385D01*
X138628316Y-83230255D01*
X138566134Y-83223500D01*
X136769866Y-83223500D01*
X136707684Y-83230255D01*
X136571295Y-83281385D01*
X136454739Y-83368739D01*
X136367385Y-83485295D01*
X136316255Y-83621684D01*
X136309500Y-83683866D01*
X136309500Y-85480134D01*
X136316255Y-85542316D01*
X136367385Y-85678705D01*
X136454739Y-85795261D01*
X136571295Y-85882615D01*
X136579704Y-85885767D01*
X136579705Y-85885768D01*
X136688451Y-85926535D01*
X136745216Y-85969176D01*
X136769916Y-86035738D01*
X136754709Y-86105087D01*
X136735316Y-86131568D01*
X136620977Y-86251217D01*
X136608629Y-86264138D01*
X136605715Y-86268410D01*
X136605714Y-86268411D01*
X136567647Y-86324215D01*
X136482743Y-86448680D01*
X136467003Y-86482590D01*
X136424042Y-86575142D01*
X136388688Y-86651305D01*
X136328989Y-86866570D01*
X136305251Y-87088695D01*
X136305548Y-87093848D01*
X136305548Y-87093851D01*
X136317812Y-87306547D01*
X136318110Y-87311715D01*
X136319247Y-87316761D01*
X136319248Y-87316767D01*
X136332239Y-87374410D01*
X136367222Y-87529639D01*
X136451266Y-87736616D01*
X136567987Y-87927088D01*
X136714250Y-88095938D01*
X136886126Y-88238632D01*
X136956595Y-88279811D01*
X136959445Y-88281476D01*
X137008169Y-88333114D01*
X137021240Y-88402897D01*
X136994509Y-88468669D01*
X136954055Y-88502027D01*
X136941607Y-88508507D01*
X136937474Y-88511610D01*
X136937471Y-88511612D01*
X136913247Y-88529800D01*
X136762965Y-88642635D01*
X136608629Y-88804138D01*
X136482743Y-88988680D01*
X136388688Y-89191305D01*
X136328989Y-89406570D01*
X136305251Y-89628695D01*
X136305548Y-89633848D01*
X136305548Y-89633851D01*
X136317812Y-89846547D01*
X136318110Y-89851715D01*
X136319247Y-89856761D01*
X136319248Y-89856767D01*
X136340275Y-89950069D01*
X136367222Y-90069639D01*
X136451266Y-90276616D01*
X136567987Y-90467088D01*
X136714250Y-90635938D01*
X136886126Y-90778632D01*
X136959955Y-90821774D01*
X137008679Y-90873412D01*
X137021750Y-90943195D01*
X136995019Y-91008967D01*
X136954562Y-91042327D01*
X136946457Y-91046546D01*
X136937738Y-91052036D01*
X136767433Y-91179905D01*
X136759726Y-91186748D01*
X136612590Y-91340717D01*
X136606104Y-91348727D01*
X136486098Y-91524649D01*
X136481000Y-91533623D01*
X136391338Y-91726783D01*
X136387775Y-91736470D01*
X136332389Y-91936183D01*
X136333912Y-91944607D01*
X136346292Y-91948000D01*
X137796000Y-91948000D01*
X137864121Y-91968002D01*
X137910614Y-92021658D01*
X137922000Y-92074000D01*
X137922000Y-93520517D01*
X137926064Y-93534359D01*
X137939478Y-93536393D01*
X137946184Y-93535534D01*
X137956262Y-93533392D01*
X138160255Y-93472191D01*
X138169842Y-93468433D01*
X138361095Y-93374739D01*
X138369945Y-93369464D01*
X138543328Y-93245792D01*
X138551200Y-93239139D01*
X138702052Y-93088812D01*
X138708730Y-93080965D01*
X138833003Y-92908020D01*
X138838313Y-92899183D01*
X138932670Y-92708267D01*
X138936469Y-92698672D01*
X138945442Y-92669139D01*
X138984383Y-92609775D01*
X139049237Y-92580888D01*
X139119413Y-92591649D01*
X139172631Y-92638643D01*
X139192000Y-92705768D01*
X139192000Y-102058672D01*
X139190500Y-102078056D01*
X139186814Y-102101730D01*
X139189257Y-102120410D01*
X139190148Y-102143343D01*
X139174257Y-102446554D01*
X139172880Y-102459665D01*
X139159656Y-102543159D01*
X139120877Y-102788002D01*
X139118135Y-102800902D01*
X139032097Y-103122000D01*
X139028021Y-103134544D01*
X138908895Y-103444876D01*
X138903531Y-103456924D01*
X138752612Y-103753120D01*
X138746021Y-103764536D01*
X138564967Y-104043334D01*
X138557224Y-104053992D01*
X138348016Y-104312344D01*
X138339190Y-104322145D01*
X138104145Y-104557190D01*
X138094344Y-104566016D01*
X137835996Y-104775221D01*
X137825334Y-104782967D01*
X137546536Y-104964021D01*
X137535120Y-104970612D01*
X137238924Y-105121531D01*
X137226875Y-105126895D01*
X136916536Y-105246023D01*
X136904000Y-105250097D01*
X136582902Y-105336135D01*
X136570002Y-105338877D01*
X136481285Y-105352928D01*
X136241665Y-105390880D01*
X136228557Y-105392257D01*
X135932666Y-105407764D01*
X135906688Y-105406436D01*
X135905144Y-105406195D01*
X135905140Y-105406195D01*
X135896270Y-105404814D01*
X135887368Y-105405978D01*
X135887365Y-105405978D01*
X135864749Y-105408936D01*
X135848411Y-105410000D01*
X112317328Y-105410000D01*
X112297943Y-105408500D01*
X112283142Y-105406195D01*
X112283139Y-105406195D01*
X112274270Y-105404814D01*
X112255589Y-105407257D01*
X112232658Y-105408148D01*
X111929443Y-105392257D01*
X111916335Y-105390880D01*
X111676715Y-105352928D01*
X111587998Y-105338877D01*
X111575098Y-105336135D01*
X111254000Y-105250097D01*
X111241464Y-105246023D01*
X110931125Y-105126895D01*
X110919076Y-105121531D01*
X110622880Y-104970612D01*
X110611464Y-104964021D01*
X110332666Y-104782967D01*
X110322004Y-104775221D01*
X110063656Y-104566016D01*
X110053855Y-104557190D01*
X109818810Y-104322145D01*
X109809984Y-104312344D01*
X109600776Y-104053992D01*
X109593033Y-104043334D01*
X109411979Y-103764536D01*
X109405388Y-103753120D01*
X109254469Y-103456924D01*
X109249105Y-103444876D01*
X109129979Y-103134544D01*
X109125903Y-103122000D01*
X109039865Y-102800902D01*
X109037123Y-102788002D01*
X108998344Y-102543159D01*
X108985120Y-102459665D01*
X108983743Y-102446554D01*
X108973887Y-102258488D01*
X108972955Y-102240703D01*
X110158743Y-102240703D01*
X110196268Y-102525734D01*
X110272129Y-102803036D01*
X110273813Y-102806984D01*
X110314460Y-102902278D01*
X110384923Y-103067476D01*
X110532561Y-103314161D01*
X110712313Y-103538528D01*
X110920851Y-103736423D01*
X111154317Y-103904186D01*
X111158112Y-103906195D01*
X111158113Y-103906196D01*
X111179869Y-103917715D01*
X111408392Y-104038712D01*
X111678373Y-104137511D01*
X111959264Y-104198755D01*
X111987841Y-104201004D01*
X112182282Y-104216307D01*
X112182291Y-104216307D01*
X112184739Y-104216500D01*
X112340271Y-104216500D01*
X112342407Y-104216354D01*
X112342418Y-104216354D01*
X112550548Y-104202165D01*
X112550554Y-104202164D01*
X112554825Y-104201873D01*
X112559020Y-104201004D01*
X112559022Y-104201004D01*
X112695583Y-104172724D01*
X112836342Y-104143574D01*
X113107343Y-104047607D01*
X113362812Y-103915750D01*
X113366313Y-103913289D01*
X113366317Y-103913287D01*
X113480417Y-103833096D01*
X113598023Y-103750441D01*
X113808622Y-103554740D01*
X113990713Y-103332268D01*
X114140927Y-103087142D01*
X114256483Y-102823898D01*
X114335244Y-102547406D01*
X114375751Y-102262784D01*
X114375845Y-102244951D01*
X114375867Y-102240703D01*
X133780743Y-102240703D01*
X133818268Y-102525734D01*
X133894129Y-102803036D01*
X133895813Y-102806984D01*
X133936460Y-102902278D01*
X134006923Y-103067476D01*
X134154561Y-103314161D01*
X134334313Y-103538528D01*
X134542851Y-103736423D01*
X134776317Y-103904186D01*
X134780112Y-103906195D01*
X134780113Y-103906196D01*
X134801869Y-103917715D01*
X135030392Y-104038712D01*
X135300373Y-104137511D01*
X135581264Y-104198755D01*
X135609841Y-104201004D01*
X135804282Y-104216307D01*
X135804291Y-104216307D01*
X135806739Y-104216500D01*
X135962271Y-104216500D01*
X135964407Y-104216354D01*
X135964418Y-104216354D01*
X136172548Y-104202165D01*
X136172554Y-104202164D01*
X136176825Y-104201873D01*
X136181020Y-104201004D01*
X136181022Y-104201004D01*
X136317583Y-104172724D01*
X136458342Y-104143574D01*
X136729343Y-104047607D01*
X136984812Y-103915750D01*
X136988313Y-103913289D01*
X136988317Y-103913287D01*
X137102417Y-103833096D01*
X137220023Y-103750441D01*
X137430622Y-103554740D01*
X137612713Y-103332268D01*
X137762927Y-103087142D01*
X137878483Y-102823898D01*
X137957244Y-102547406D01*
X137997751Y-102262784D01*
X137997845Y-102244951D01*
X137999235Y-101979583D01*
X137999235Y-101979576D01*
X137999257Y-101975297D01*
X137961732Y-101690266D01*
X137885871Y-101412964D01*
X137773077Y-101148524D01*
X137625439Y-100901839D01*
X137445687Y-100677472D01*
X137237149Y-100479577D01*
X137003683Y-100311814D01*
X136981843Y-100300250D01*
X136958654Y-100287972D01*
X136749608Y-100177288D01*
X136479627Y-100078489D01*
X136198736Y-100017245D01*
X136167685Y-100014801D01*
X135975718Y-99999693D01*
X135975709Y-99999693D01*
X135973261Y-99999500D01*
X135817729Y-99999500D01*
X135815593Y-99999646D01*
X135815582Y-99999646D01*
X135607452Y-100013835D01*
X135607446Y-100013836D01*
X135603175Y-100014127D01*
X135598980Y-100014996D01*
X135598978Y-100014996D01*
X135462416Y-100043277D01*
X135321658Y-100072426D01*
X135050657Y-100168393D01*
X134795188Y-100300250D01*
X134791687Y-100302711D01*
X134791683Y-100302713D01*
X134781594Y-100309804D01*
X134559977Y-100465559D01*
X134349378Y-100661260D01*
X134167287Y-100883732D01*
X134017073Y-101128858D01*
X133901517Y-101392102D01*
X133822756Y-101668594D01*
X133782249Y-101953216D01*
X133782227Y-101957505D01*
X133782226Y-101957512D01*
X133780765Y-102236417D01*
X133780743Y-102240703D01*
X114375867Y-102240703D01*
X114377235Y-101979583D01*
X114377235Y-101979576D01*
X114377257Y-101975297D01*
X114339732Y-101690266D01*
X114263871Y-101412964D01*
X114151077Y-101148524D01*
X114003439Y-100901839D01*
X113823687Y-100677472D01*
X113615149Y-100479577D01*
X113381683Y-100311814D01*
X113359843Y-100300250D01*
X113336654Y-100287972D01*
X113127608Y-100177288D01*
X112857627Y-100078489D01*
X112576736Y-100017245D01*
X112545685Y-100014801D01*
X112353718Y-99999693D01*
X112353709Y-99999693D01*
X112351261Y-99999500D01*
X112195729Y-99999500D01*
X112193593Y-99999646D01*
X112193582Y-99999646D01*
X111985452Y-100013835D01*
X111985446Y-100013836D01*
X111981175Y-100014127D01*
X111976980Y-100014996D01*
X111976978Y-100014996D01*
X111840416Y-100043277D01*
X111699658Y-100072426D01*
X111428657Y-100168393D01*
X111173188Y-100300250D01*
X111169687Y-100302711D01*
X111169683Y-100302713D01*
X111159594Y-100309804D01*
X110937977Y-100465559D01*
X110727378Y-100661260D01*
X110545287Y-100883732D01*
X110395073Y-101128858D01*
X110279517Y-101392102D01*
X110200756Y-101668594D01*
X110160249Y-101953216D01*
X110160227Y-101957505D01*
X110160226Y-101957512D01*
X110158765Y-102236417D01*
X110158743Y-102240703D01*
X108972955Y-102240703D01*
X108968236Y-102150666D01*
X108969564Y-102124688D01*
X108969805Y-102123144D01*
X108969805Y-102123140D01*
X108971186Y-102114270D01*
X108969547Y-102101730D01*
X108967064Y-102082749D01*
X108966000Y-102066411D01*
X108966000Y-95539970D01*
X116650102Y-95539970D01*
X116666949Y-95832156D01*
X116667774Y-95836361D01*
X116667775Y-95836369D01*
X116679238Y-95894795D01*
X116723295Y-96119353D01*
X116724682Y-96123403D01*
X116724683Y-96123408D01*
X116816708Y-96392190D01*
X116818097Y-96396246D01*
X116949600Y-96657711D01*
X116952026Y-96661240D01*
X116952029Y-96661246D01*
X117112940Y-96895372D01*
X117115371Y-96898909D01*
X117312343Y-97115379D01*
X117315624Y-97118122D01*
X117533579Y-97300361D01*
X117533584Y-97300365D01*
X117536871Y-97303113D01*
X117594603Y-97339328D01*
X117781159Y-97456355D01*
X117781163Y-97456357D01*
X117784799Y-97458638D01*
X117788709Y-97460403D01*
X117788710Y-97460404D01*
X118047630Y-97577311D01*
X118047634Y-97577313D01*
X118051542Y-97579077D01*
X118332161Y-97662201D01*
X118421732Y-97675907D01*
X118617223Y-97705821D01*
X118617227Y-97705821D01*
X118621466Y-97706470D01*
X118770473Y-97708811D01*
X118909811Y-97711000D01*
X118909817Y-97711000D01*
X118914102Y-97711067D01*
X119204654Y-97675907D01*
X119487746Y-97601639D01*
X119758140Y-97489638D01*
X120010831Y-97341977D01*
X120241145Y-97161388D01*
X120444819Y-96951213D01*
X120447352Y-96947765D01*
X120447356Y-96947760D01*
X120615547Y-96718795D01*
X120618085Y-96715340D01*
X120757736Y-96458135D01*
X120861188Y-96184357D01*
X120926527Y-95899071D01*
X120952544Y-95607558D01*
X120953016Y-95562500D01*
X120933110Y-95270506D01*
X120873760Y-94983915D01*
X120776064Y-94708030D01*
X120641830Y-94447957D01*
X120630989Y-94432531D01*
X120476005Y-94212012D01*
X120473542Y-94208507D01*
X120274314Y-93994112D01*
X120047833Y-93808740D01*
X119798289Y-93655819D01*
X119777320Y-93646614D01*
X119534232Y-93539906D01*
X119530300Y-93538180D01*
X119516887Y-93534359D01*
X119455290Y-93516813D01*
X120851742Y-93516813D01*
X120861036Y-93528827D01*
X120893654Y-93551667D01*
X120903156Y-93557153D01*
X121086973Y-93642868D01*
X121097265Y-93646614D01*
X121293176Y-93699108D01*
X121303971Y-93701011D01*
X121506025Y-93718689D01*
X121516975Y-93718689D01*
X121719029Y-93701011D01*
X121729824Y-93699108D01*
X121925735Y-93646614D01*
X121936027Y-93642868D01*
X122119844Y-93557153D01*
X122129346Y-93551667D01*
X122162800Y-93528241D01*
X122171175Y-93517764D01*
X122164106Y-93504316D01*
X121524312Y-92864522D01*
X121510368Y-92856908D01*
X121508535Y-92857039D01*
X121501920Y-92861290D01*
X120858172Y-93505038D01*
X120851742Y-93516813D01*
X119455290Y-93516813D01*
X119436916Y-93511579D01*
X119248825Y-93458000D01*
X119244583Y-93457396D01*
X119244577Y-93457395D01*
X118963324Y-93417367D01*
X118959073Y-93416762D01*
X118805528Y-93415958D01*
X118670692Y-93415252D01*
X118670686Y-93415252D01*
X118666405Y-93415230D01*
X118662161Y-93415789D01*
X118662157Y-93415789D01*
X118567287Y-93428279D01*
X118376237Y-93453431D01*
X118372097Y-93454564D01*
X118372095Y-93454564D01*
X118098083Y-93529525D01*
X118093938Y-93530659D01*
X118031824Y-93557153D01*
X117828674Y-93643803D01*
X117828667Y-93643807D01*
X117824732Y-93645485D01*
X117735135Y-93699108D01*
X117577283Y-93793580D01*
X117577279Y-93793583D01*
X117573601Y-93795784D01*
X117345191Y-93978775D01*
X117342247Y-93981877D01*
X117342243Y-93981881D01*
X117327654Y-93997255D01*
X117143728Y-94191072D01*
X116972942Y-94428746D01*
X116835992Y-94687400D01*
X116834520Y-94691423D01*
X116834518Y-94691427D01*
X116736888Y-94958215D01*
X116735413Y-94962246D01*
X116673065Y-95248200D01*
X116650102Y-95539970D01*
X108966000Y-95539970D01*
X108966000Y-92497975D01*
X120285311Y-92497975D01*
X120302989Y-92700029D01*
X120304892Y-92710824D01*
X120357386Y-92906735D01*
X120361132Y-92917027D01*
X120446847Y-93100844D01*
X120452333Y-93110346D01*
X120475759Y-93143800D01*
X120486236Y-93152175D01*
X120499684Y-93145106D01*
X121139478Y-92505312D01*
X121145856Y-92493632D01*
X121875908Y-92493632D01*
X121876039Y-92495465D01*
X121880290Y-92502080D01*
X122524038Y-93145828D01*
X122535813Y-93152258D01*
X122547827Y-93142964D01*
X122570667Y-93110346D01*
X122576153Y-93100844D01*
X122661868Y-92917027D01*
X122665614Y-92906735D01*
X122718108Y-92710824D01*
X122720011Y-92700029D01*
X122737689Y-92497975D01*
X122737689Y-92487025D01*
X122736196Y-92469966D01*
X136336257Y-92469966D01*
X136366565Y-92604446D01*
X136369645Y-92614275D01*
X136449770Y-92811603D01*
X136454413Y-92820794D01*
X136565694Y-93002388D01*
X136571777Y-93010699D01*
X136711213Y-93171667D01*
X136718580Y-93178883D01*
X136882434Y-93314916D01*
X136890881Y-93320831D01*
X137074756Y-93428279D01*
X137084042Y-93432729D01*
X137283001Y-93508703D01*
X137292899Y-93511579D01*
X137396250Y-93532606D01*
X137410299Y-93531410D01*
X137414000Y-93521065D01*
X137414000Y-92474115D01*
X137409525Y-92458876D01*
X137408135Y-92457671D01*
X137400452Y-92456000D01*
X136351225Y-92456000D01*
X136337694Y-92459973D01*
X136336257Y-92469966D01*
X122736196Y-92469966D01*
X122720011Y-92284971D01*
X122718108Y-92274176D01*
X122665614Y-92078265D01*
X122661868Y-92067973D01*
X122576153Y-91884156D01*
X122570667Y-91874654D01*
X122547241Y-91841200D01*
X122536764Y-91832825D01*
X122523316Y-91839894D01*
X121883522Y-92479688D01*
X121875908Y-92493632D01*
X121145856Y-92493632D01*
X121147092Y-92491368D01*
X121146961Y-92489535D01*
X121142710Y-92482920D01*
X120498962Y-91839172D01*
X120487187Y-91832742D01*
X120475173Y-91842036D01*
X120452333Y-91874654D01*
X120446847Y-91884156D01*
X120361132Y-92067973D01*
X120357386Y-92078265D01*
X120304892Y-92274176D01*
X120302989Y-92284971D01*
X120285311Y-92487025D01*
X120285311Y-92497975D01*
X108966000Y-92497975D01*
X108966000Y-89992500D01*
X120284330Y-89992500D01*
X120302973Y-90205596D01*
X120358337Y-90412217D01*
X120360659Y-90417197D01*
X120360660Y-90417199D01*
X120385744Y-90470990D01*
X120448740Y-90606085D01*
X120571433Y-90781310D01*
X120722690Y-90932567D01*
X120897915Y-91055260D01*
X120902893Y-91057581D01*
X120902896Y-91057583D01*
X121055151Y-91128581D01*
X121108436Y-91175499D01*
X121127897Y-91243776D01*
X121107355Y-91311736D01*
X121055151Y-91356971D01*
X120903156Y-91427847D01*
X120893654Y-91433333D01*
X120860200Y-91456759D01*
X120851825Y-91467236D01*
X120858894Y-91480684D01*
X121498688Y-92120478D01*
X121512632Y-92128092D01*
X121514465Y-92127961D01*
X121521080Y-92123710D01*
X122164828Y-91479962D01*
X122171258Y-91468187D01*
X122161964Y-91456173D01*
X122129346Y-91433333D01*
X122119844Y-91427847D01*
X121967849Y-91356971D01*
X121914564Y-91310054D01*
X121895103Y-91241777D01*
X121915645Y-91173817D01*
X121967849Y-91128581D01*
X122120104Y-91057583D01*
X122120107Y-91057581D01*
X122125085Y-91055260D01*
X122300310Y-90932567D01*
X122451567Y-90781310D01*
X122574260Y-90606085D01*
X122637257Y-90470990D01*
X122662340Y-90417199D01*
X122662341Y-90417197D01*
X122664663Y-90412217D01*
X122720027Y-90205596D01*
X122738670Y-89992500D01*
X122720027Y-89779404D01*
X122664663Y-89572783D01*
X122602447Y-89439361D01*
X122576583Y-89383896D01*
X122576581Y-89383893D01*
X122574260Y-89378915D01*
X122451567Y-89203690D01*
X122329472Y-89081595D01*
X122295446Y-89019283D01*
X122300511Y-88948468D01*
X122329472Y-88903405D01*
X122451567Y-88781310D01*
X122574260Y-88606085D01*
X122664663Y-88412217D01*
X122670302Y-88391174D01*
X122699695Y-88281476D01*
X122720027Y-88205596D01*
X122738670Y-87992500D01*
X122720027Y-87779404D01*
X122664663Y-87572783D01*
X122646776Y-87534425D01*
X122576583Y-87383896D01*
X122576581Y-87383893D01*
X122574260Y-87378915D01*
X122451567Y-87203690D01*
X122300310Y-87052433D01*
X122145755Y-86944213D01*
X122101426Y-86888756D01*
X122094117Y-86818137D01*
X122126147Y-86754776D01*
X122187349Y-86718791D01*
X122218025Y-86715000D01*
X122273634Y-86715000D01*
X122335816Y-86708245D01*
X122472205Y-86657115D01*
X122588761Y-86569761D01*
X122676115Y-86453205D01*
X122727245Y-86316816D01*
X122734000Y-86254634D01*
X122734000Y-84730366D01*
X122727245Y-84668184D01*
X122676115Y-84531795D01*
X122588761Y-84415239D01*
X122472205Y-84327885D01*
X122335816Y-84276755D01*
X122273634Y-84270000D01*
X120749366Y-84270000D01*
X120687184Y-84276755D01*
X120550795Y-84327885D01*
X120434239Y-84415239D01*
X120346885Y-84531795D01*
X120295755Y-84668184D01*
X120289000Y-84730366D01*
X120289000Y-86254634D01*
X120295755Y-86316816D01*
X120346885Y-86453205D01*
X120434239Y-86569761D01*
X120550795Y-86657115D01*
X120687184Y-86708245D01*
X120749366Y-86715000D01*
X120804975Y-86715000D01*
X120873096Y-86735002D01*
X120919589Y-86788658D01*
X120929693Y-86858932D01*
X120900199Y-86923512D01*
X120877245Y-86944213D01*
X120722690Y-87052433D01*
X120571433Y-87203690D01*
X120448740Y-87378915D01*
X120446419Y-87383893D01*
X120446417Y-87383896D01*
X120376224Y-87534425D01*
X120358337Y-87572783D01*
X120302973Y-87779404D01*
X120284330Y-87992500D01*
X120302973Y-88205596D01*
X120323305Y-88281476D01*
X120352699Y-88391174D01*
X120358337Y-88412217D01*
X120448740Y-88606085D01*
X120571433Y-88781310D01*
X120693528Y-88903405D01*
X120727554Y-88965717D01*
X120722489Y-89036532D01*
X120693528Y-89081595D01*
X120571433Y-89203690D01*
X120448740Y-89378915D01*
X120446419Y-89383893D01*
X120446417Y-89383896D01*
X120420553Y-89439361D01*
X120358337Y-89572783D01*
X120302973Y-89779404D01*
X120284330Y-89992500D01*
X108966000Y-89992500D01*
X108966000Y-82399970D01*
X116650102Y-82399970D01*
X116666949Y-82692156D01*
X116667774Y-82696361D01*
X116667775Y-82696369D01*
X116679238Y-82754795D01*
X116723295Y-82979353D01*
X116724682Y-82983403D01*
X116724683Y-82983408D01*
X116806885Y-83223500D01*
X116818097Y-83256246D01*
X116847203Y-83314117D01*
X116927244Y-83473260D01*
X116949600Y-83517711D01*
X116952026Y-83521240D01*
X116952029Y-83521246D01*
X117063795Y-83683866D01*
X117115371Y-83758909D01*
X117312343Y-83975379D01*
X117315624Y-83978122D01*
X117533579Y-84160361D01*
X117533584Y-84160365D01*
X117536871Y-84163113D01*
X117594603Y-84199328D01*
X117781159Y-84316355D01*
X117781163Y-84316357D01*
X117784799Y-84318638D01*
X117788709Y-84320403D01*
X117788710Y-84320404D01*
X118047630Y-84437311D01*
X118047634Y-84437313D01*
X118051542Y-84439077D01*
X118332161Y-84522201D01*
X118421732Y-84535907D01*
X118617223Y-84565821D01*
X118617227Y-84565821D01*
X118621466Y-84566470D01*
X118770473Y-84568811D01*
X118909811Y-84571000D01*
X118909817Y-84571000D01*
X118914102Y-84571067D01*
X119204654Y-84535907D01*
X119487746Y-84461639D01*
X119758140Y-84349638D01*
X120010831Y-84201977D01*
X120241145Y-84021388D01*
X120444819Y-83811213D01*
X120447352Y-83807765D01*
X120447356Y-83807760D01*
X120615547Y-83578795D01*
X120618085Y-83575340D01*
X120662410Y-83493703D01*
X120755686Y-83321911D01*
X120755687Y-83321909D01*
X120757736Y-83318135D01*
X120861188Y-83044357D01*
X120926527Y-82759071D01*
X120952544Y-82467558D01*
X120953016Y-82422500D01*
X120933110Y-82130506D01*
X120873760Y-81843915D01*
X120776064Y-81568030D01*
X120641830Y-81307957D01*
X120630989Y-81292531D01*
X120476005Y-81072012D01*
X120473542Y-81068507D01*
X120274314Y-80854112D01*
X120047833Y-80668740D01*
X119798289Y-80515819D01*
X119530300Y-80398180D01*
X119509813Y-80392344D01*
X119479369Y-80383672D01*
X119248825Y-80318000D01*
X119244583Y-80317396D01*
X119244577Y-80317395D01*
X118963324Y-80277367D01*
X118959073Y-80276762D01*
X118805528Y-80275958D01*
X118670692Y-80275252D01*
X118670686Y-80275252D01*
X118666405Y-80275230D01*
X118662161Y-80275789D01*
X118662157Y-80275789D01*
X118534640Y-80292577D01*
X118376237Y-80313431D01*
X118093938Y-80390659D01*
X118072259Y-80399906D01*
X117828674Y-80503803D01*
X117828667Y-80503807D01*
X117824732Y-80505485D01*
X117673300Y-80596116D01*
X117577283Y-80653580D01*
X117577279Y-80653583D01*
X117573601Y-80655784D01*
X117345191Y-80838775D01*
X117342247Y-80841877D01*
X117342243Y-80841881D01*
X117327654Y-80857255D01*
X117143728Y-81051072D01*
X116972942Y-81288746D01*
X116835992Y-81547400D01*
X116834520Y-81551423D01*
X116834518Y-81551427D01*
X116736888Y-81818215D01*
X116735413Y-81822246D01*
X116673065Y-82108200D01*
X116650102Y-82399970D01*
X108966000Y-82399970D01*
X108966000Y-76256703D01*
X110158743Y-76256703D01*
X110196268Y-76541734D01*
X110272129Y-76819036D01*
X110384923Y-77083476D01*
X110532561Y-77330161D01*
X110712313Y-77554528D01*
X110920851Y-77752423D01*
X111154317Y-77920186D01*
X111158112Y-77922195D01*
X111158113Y-77922196D01*
X111179869Y-77933715D01*
X111408392Y-78054712D01*
X111678373Y-78153511D01*
X111959264Y-78214755D01*
X111987841Y-78217004D01*
X112182282Y-78232307D01*
X112182291Y-78232307D01*
X112184739Y-78232500D01*
X112340271Y-78232500D01*
X112342407Y-78232354D01*
X112342418Y-78232354D01*
X112550548Y-78218165D01*
X112550554Y-78218164D01*
X112554825Y-78217873D01*
X112559020Y-78217004D01*
X112559022Y-78217004D01*
X112695584Y-78188723D01*
X112836342Y-78159574D01*
X113107343Y-78063607D01*
X113362812Y-77931750D01*
X113366313Y-77929289D01*
X113366317Y-77929287D01*
X113480417Y-77849096D01*
X113598023Y-77766441D01*
X113808622Y-77570740D01*
X113990713Y-77348268D01*
X114140927Y-77103142D01*
X114256483Y-76839898D01*
X114335244Y-76563406D01*
X114375751Y-76278784D01*
X114375845Y-76260951D01*
X114375867Y-76256703D01*
X133780743Y-76256703D01*
X133818268Y-76541734D01*
X133894129Y-76819036D01*
X134006923Y-77083476D01*
X134154561Y-77330161D01*
X134334313Y-77554528D01*
X134542851Y-77752423D01*
X134776317Y-77920186D01*
X134780112Y-77922195D01*
X134780113Y-77922196D01*
X134801869Y-77933715D01*
X135030392Y-78054712D01*
X135300373Y-78153511D01*
X135581264Y-78214755D01*
X135609841Y-78217004D01*
X135804282Y-78232307D01*
X135804291Y-78232307D01*
X135806739Y-78232500D01*
X135962271Y-78232500D01*
X135964407Y-78232354D01*
X135964418Y-78232354D01*
X136172548Y-78218165D01*
X136172554Y-78218164D01*
X136176825Y-78217873D01*
X136181020Y-78217004D01*
X136181022Y-78217004D01*
X136317584Y-78188723D01*
X136458342Y-78159574D01*
X136729343Y-78063607D01*
X136984812Y-77931750D01*
X136988313Y-77929289D01*
X136988317Y-77929287D01*
X137102417Y-77849096D01*
X137220023Y-77766441D01*
X137430622Y-77570740D01*
X137612713Y-77348268D01*
X137762927Y-77103142D01*
X137878483Y-76839898D01*
X137957244Y-76563406D01*
X137997751Y-76278784D01*
X137997845Y-76260951D01*
X137999235Y-75995583D01*
X137999235Y-75995576D01*
X137999257Y-75991297D01*
X137998612Y-75986393D01*
X137962292Y-75710522D01*
X137961732Y-75706266D01*
X137885871Y-75428964D01*
X137839455Y-75320143D01*
X137774763Y-75168476D01*
X137774761Y-75168472D01*
X137773077Y-75164524D01*
X137625439Y-74917839D01*
X137445687Y-74693472D01*
X137237149Y-74495577D01*
X137003683Y-74327814D01*
X136981843Y-74316250D01*
X136864280Y-74254004D01*
X136749608Y-74193288D01*
X136479627Y-74094489D01*
X136198736Y-74033245D01*
X136167685Y-74030801D01*
X135975718Y-74015693D01*
X135975709Y-74015693D01*
X135973261Y-74015500D01*
X135817729Y-74015500D01*
X135815593Y-74015646D01*
X135815582Y-74015646D01*
X135607452Y-74029835D01*
X135607446Y-74029836D01*
X135603175Y-74030127D01*
X135598980Y-74030996D01*
X135598978Y-74030996D01*
X135462417Y-74059276D01*
X135321658Y-74088426D01*
X135050657Y-74184393D01*
X134795188Y-74316250D01*
X134791687Y-74318711D01*
X134791683Y-74318713D01*
X134781594Y-74325804D01*
X134559977Y-74481559D01*
X134349378Y-74677260D01*
X134167287Y-74899732D01*
X134017073Y-75144858D01*
X133901517Y-75408102D01*
X133900342Y-75412229D01*
X133900341Y-75412230D01*
X133866451Y-75531203D01*
X133822756Y-75684594D01*
X133782249Y-75969216D01*
X133782227Y-75973505D01*
X133782226Y-75973512D01*
X133780865Y-76233388D01*
X133780743Y-76256703D01*
X114375867Y-76256703D01*
X114377235Y-75995583D01*
X114377235Y-75995576D01*
X114377257Y-75991297D01*
X114376612Y-75986393D01*
X114340292Y-75710522D01*
X114339732Y-75706266D01*
X114263871Y-75428964D01*
X114217455Y-75320143D01*
X114152763Y-75168476D01*
X114152761Y-75168472D01*
X114151077Y-75164524D01*
X114003439Y-74917839D01*
X113823687Y-74693472D01*
X113615149Y-74495577D01*
X113381683Y-74327814D01*
X113359843Y-74316250D01*
X113242280Y-74254004D01*
X113127608Y-74193288D01*
X112857627Y-74094489D01*
X112576736Y-74033245D01*
X112545685Y-74030801D01*
X112353718Y-74015693D01*
X112353709Y-74015693D01*
X112351261Y-74015500D01*
X112195729Y-74015500D01*
X112193593Y-74015646D01*
X112193582Y-74015646D01*
X111985452Y-74029835D01*
X111985446Y-74029836D01*
X111981175Y-74030127D01*
X111976980Y-74030996D01*
X111976978Y-74030996D01*
X111840417Y-74059276D01*
X111699658Y-74088426D01*
X111428657Y-74184393D01*
X111173188Y-74316250D01*
X111169687Y-74318711D01*
X111169683Y-74318713D01*
X111159594Y-74325804D01*
X110937977Y-74481559D01*
X110727378Y-74677260D01*
X110545287Y-74899732D01*
X110395073Y-75144858D01*
X110279517Y-75408102D01*
X110278342Y-75412229D01*
X110278341Y-75412230D01*
X110244451Y-75531203D01*
X110200756Y-75684594D01*
X110160249Y-75969216D01*
X110160227Y-75973505D01*
X110160226Y-75973512D01*
X110158865Y-76233388D01*
X110158743Y-76256703D01*
X108966000Y-76256703D01*
X108966000Y-76016539D01*
X108967377Y-76004134D01*
X108966958Y-76004101D01*
X108967665Y-75995148D01*
X108969632Y-75986393D01*
X108968410Y-75967160D01*
X108969013Y-75944498D01*
X108998987Y-75688841D01*
X109002781Y-75656481D01*
X109004878Y-75644030D01*
X109073597Y-75332325D01*
X109076931Y-75320143D01*
X109176513Y-75016879D01*
X109181050Y-75005092D01*
X109310490Y-74713326D01*
X109316184Y-74702052D01*
X109443201Y-74479096D01*
X109474187Y-74424704D01*
X109480980Y-74414059D01*
X109665952Y-74153928D01*
X109673778Y-74144014D01*
X109883868Y-73903703D01*
X109892647Y-73894623D01*
X110125733Y-73676558D01*
X110135377Y-73668402D01*
X110389135Y-73474759D01*
X110399539Y-73467616D01*
X110671405Y-73300352D01*
X110682480Y-73294282D01*
X110695701Y-73287875D01*
X110969730Y-73155075D01*
X110981341Y-73150151D01*
X111281078Y-73040403D01*
X111293142Y-73036660D01*
X111602362Y-72957471D01*
X111614737Y-72954955D01*
X111930327Y-72907122D01*
X111942880Y-72905859D01*
X112225154Y-72891693D01*
X112250855Y-72893036D01*
X112252855Y-72893348D01*
X112252861Y-72893348D01*
X112261730Y-72894729D01*
X112270631Y-72893565D01*
X112270635Y-72893565D01*
X112293136Y-72890622D01*
X112309519Y-72889558D01*
X135840604Y-72897983D01*
G37*
%TD.AperFunction*%
%TD*%
M02*
