%TF.GenerationSoftware,KiCad,Pcbnew,(6.0.0)*%
%TF.CreationDate,2022-01-04T00:39:42-05:00*%
%TF.ProjectId,wii mini usb esd board,77696920-6d69-46e6-9920-757362206573,rev?*%
%TF.SameCoordinates,Original*%
%TF.FileFunction,Legend,Top*%
%TF.FilePolarity,Positive*%
%FSLAX46Y46*%
G04 Gerber Fmt 4.6, Leading zero omitted, Abs format (unit mm)*
G04 Created by KiCad (PCBNEW (6.0.0)) date 2022-01-04 00:39:42*
%MOMM*%
%LPD*%
G01*
G04 APERTURE LIST*
%ADD10C,0.150000*%
%ADD11C,0.120000*%
%ADD12C,0.127000*%
%ADD13C,0.200000*%
G04 APERTURE END LIST*
D10*
X134231142Y-91702000D02*
X134135904Y-91654380D01*
X133993047Y-91654380D01*
X133850190Y-91702000D01*
X133754952Y-91797238D01*
X133707333Y-91892476D01*
X133659714Y-92082952D01*
X133659714Y-92225809D01*
X133707333Y-92416285D01*
X133754952Y-92511523D01*
X133850190Y-92606761D01*
X133993047Y-92654380D01*
X134088285Y-92654380D01*
X134231142Y-92606761D01*
X134278761Y-92559142D01*
X134278761Y-92225809D01*
X134088285Y-92225809D01*
X134707333Y-91987714D02*
X134707333Y-92654380D01*
X134707333Y-92082952D02*
X134754952Y-92035333D01*
X134850190Y-91987714D01*
X134993047Y-91987714D01*
X135088285Y-92035333D01*
X135135904Y-92130571D01*
X135135904Y-92654380D01*
X136040666Y-92654380D02*
X136040666Y-91654380D01*
X136040666Y-92606761D02*
X135945428Y-92654380D01*
X135754952Y-92654380D01*
X135659714Y-92606761D01*
X135612095Y-92559142D01*
X135564476Y-92463904D01*
X135564476Y-92178190D01*
X135612095Y-92082952D01*
X135659714Y-92035333D01*
X135754952Y-91987714D01*
X135945428Y-91987714D01*
X136040666Y-92035333D01*
X115348857Y-79446380D02*
X115348857Y-78922571D01*
X115301238Y-78827333D01*
X115206000Y-78779714D01*
X115015523Y-78779714D01*
X114920285Y-78827333D01*
X115348857Y-79398761D02*
X115253619Y-79446380D01*
X115015523Y-79446380D01*
X114920285Y-79398761D01*
X114872666Y-79303523D01*
X114872666Y-79208285D01*
X114920285Y-79113047D01*
X115015523Y-79065428D01*
X115253619Y-79065428D01*
X115348857Y-79017809D01*
X115825047Y-79446380D02*
X115825047Y-78446380D01*
X115825047Y-78827333D02*
X115920285Y-78779714D01*
X116110761Y-78779714D01*
X116206000Y-78827333D01*
X116253619Y-78874952D01*
X116301238Y-78970190D01*
X116301238Y-79255904D01*
X116253619Y-79351142D01*
X116206000Y-79398761D01*
X116110761Y-79446380D01*
X115920285Y-79446380D01*
X115825047Y-79398761D01*
X116634571Y-78779714D02*
X117158380Y-78779714D01*
X116634571Y-79446380D01*
X117158380Y-79446380D01*
X117539333Y-79446380D02*
X117539333Y-78779714D01*
X117539333Y-78874952D02*
X117586952Y-78827333D01*
X117682190Y-78779714D01*
X117825047Y-78779714D01*
X117920285Y-78827333D01*
X117967904Y-78922571D01*
X117967904Y-79446380D01*
X117967904Y-78922571D02*
X118015523Y-78827333D01*
X118110761Y-78779714D01*
X118253619Y-78779714D01*
X118348857Y-78827333D01*
X118396476Y-78922571D01*
X118396476Y-79446380D01*
X119301238Y-79446380D02*
X119301238Y-78922571D01*
X119253619Y-78827333D01*
X119158380Y-78779714D01*
X118967904Y-78779714D01*
X118872666Y-78827333D01*
X119301238Y-79398761D02*
X119206000Y-79446380D01*
X118967904Y-79446380D01*
X118872666Y-79398761D01*
X118825047Y-79303523D01*
X118825047Y-79208285D01*
X118872666Y-79113047D01*
X118967904Y-79065428D01*
X119206000Y-79065428D01*
X119301238Y-79017809D01*
X119777428Y-78779714D02*
X119777428Y-79446380D01*
X119777428Y-78874952D02*
X119825047Y-78827333D01*
X119920285Y-78779714D01*
X120063142Y-78779714D01*
X120158380Y-78827333D01*
X120206000Y-78922571D01*
X120206000Y-79446380D01*
X120634571Y-78541619D02*
X120682190Y-78494000D01*
X120777428Y-78446380D01*
X121015523Y-78446380D01*
X121110761Y-78494000D01*
X121158380Y-78541619D01*
X121206000Y-78636857D01*
X121206000Y-78732095D01*
X121158380Y-78874952D01*
X120586952Y-79446380D01*
X121206000Y-79446380D01*
X121634571Y-79446380D02*
X121634571Y-78446380D01*
X121729809Y-79065428D02*
X122015523Y-79446380D01*
X122015523Y-78779714D02*
X121634571Y-79160666D01*
X122444095Y-79351142D02*
X122491714Y-79398761D01*
X122444095Y-79446380D01*
X122396476Y-79398761D01*
X122444095Y-79351142D01*
X122444095Y-79446380D01*
X122825047Y-78779714D02*
X123015523Y-79446380D01*
X123206000Y-78970190D01*
X123396476Y-79446380D01*
X123586952Y-78779714D01*
X124110761Y-79446380D02*
X124015523Y-79398761D01*
X123967904Y-79351142D01*
X123920285Y-79255904D01*
X123920285Y-78970190D01*
X123967904Y-78874952D01*
X124015523Y-78827333D01*
X124110761Y-78779714D01*
X124253619Y-78779714D01*
X124348857Y-78827333D01*
X124396476Y-78874952D01*
X124444095Y-78970190D01*
X124444095Y-79255904D01*
X124396476Y-79351142D01*
X124348857Y-79398761D01*
X124253619Y-79446380D01*
X124110761Y-79446380D01*
X124872666Y-79446380D02*
X124872666Y-78779714D01*
X124872666Y-78970190D02*
X124920285Y-78874952D01*
X124967904Y-78827333D01*
X125063142Y-78779714D01*
X125158380Y-78779714D01*
X125920285Y-79446380D02*
X125920285Y-78446380D01*
X125920285Y-79398761D02*
X125825047Y-79446380D01*
X125634571Y-79446380D01*
X125539333Y-79398761D01*
X125491714Y-79351142D01*
X125444095Y-79255904D01*
X125444095Y-78970190D01*
X125491714Y-78874952D01*
X125539333Y-78827333D01*
X125634571Y-78779714D01*
X125825047Y-78779714D01*
X125920285Y-78827333D01*
X126396476Y-78779714D02*
X126396476Y-79779714D01*
X126396476Y-78827333D02*
X126491714Y-78779714D01*
X126682190Y-78779714D01*
X126777428Y-78827333D01*
X126825047Y-78874952D01*
X126872666Y-78970190D01*
X126872666Y-79255904D01*
X126825047Y-79351142D01*
X126777428Y-79398761D01*
X126682190Y-79446380D01*
X126491714Y-79446380D01*
X126396476Y-79398761D01*
X127301238Y-79446380D02*
X127301238Y-78779714D01*
X127301238Y-78970190D02*
X127348857Y-78874952D01*
X127396476Y-78827333D01*
X127491714Y-78779714D01*
X127586952Y-78779714D01*
X128301238Y-79398761D02*
X128206000Y-79446380D01*
X128015523Y-79446380D01*
X127920285Y-79398761D01*
X127872666Y-79303523D01*
X127872666Y-78922571D01*
X127920285Y-78827333D01*
X128015523Y-78779714D01*
X128206000Y-78779714D01*
X128301238Y-78827333D01*
X128348857Y-78922571D01*
X128348857Y-79017809D01*
X127872666Y-79113047D01*
X128729809Y-79398761D02*
X128825047Y-79446380D01*
X129015523Y-79446380D01*
X129110761Y-79398761D01*
X129158380Y-79303523D01*
X129158380Y-79255904D01*
X129110761Y-79160666D01*
X129015523Y-79113047D01*
X128872666Y-79113047D01*
X128777428Y-79065428D01*
X128729809Y-78970190D01*
X128729809Y-78922571D01*
X128777428Y-78827333D01*
X128872666Y-78779714D01*
X129015523Y-78779714D01*
X129110761Y-78827333D01*
X129539333Y-79398761D02*
X129634571Y-79446380D01*
X129825047Y-79446380D01*
X129920285Y-79398761D01*
X129967904Y-79303523D01*
X129967904Y-79255904D01*
X129920285Y-79160666D01*
X129825047Y-79113047D01*
X129682190Y-79113047D01*
X129586952Y-79065428D01*
X129539333Y-78970190D01*
X129539333Y-78922571D01*
X129586952Y-78827333D01*
X129682190Y-78779714D01*
X129825047Y-78779714D01*
X129920285Y-78827333D01*
X130396476Y-79351142D02*
X130444095Y-79398761D01*
X130396476Y-79446380D01*
X130348857Y-79398761D01*
X130396476Y-79351142D01*
X130396476Y-79446380D01*
X131301238Y-79398761D02*
X131206000Y-79446380D01*
X131015523Y-79446380D01*
X130920285Y-79398761D01*
X130872666Y-79351142D01*
X130825047Y-79255904D01*
X130825047Y-78970190D01*
X130872666Y-78874952D01*
X130920285Y-78827333D01*
X131015523Y-78779714D01*
X131206000Y-78779714D01*
X131301238Y-78827333D01*
X131872666Y-79446380D02*
X131777428Y-79398761D01*
X131729809Y-79351142D01*
X131682190Y-79255904D01*
X131682190Y-78970190D01*
X131729809Y-78874952D01*
X131777428Y-78827333D01*
X131872666Y-78779714D01*
X132015523Y-78779714D01*
X132110761Y-78827333D01*
X132158380Y-78874952D01*
X132206000Y-78970190D01*
X132206000Y-79255904D01*
X132158380Y-79351142D01*
X132110761Y-79398761D01*
X132015523Y-79446380D01*
X131872666Y-79446380D01*
X132634571Y-79446380D02*
X132634571Y-78779714D01*
X132634571Y-78874952D02*
X132682190Y-78827333D01*
X132777428Y-78779714D01*
X132920285Y-78779714D01*
X133015523Y-78827333D01*
X133063142Y-78922571D01*
X133063142Y-79446380D01*
X133063142Y-78922571D02*
X133110761Y-78827333D01*
X133206000Y-78779714D01*
X133348857Y-78779714D01*
X133444095Y-78827333D01*
X133491714Y-78922571D01*
X133491714Y-79446380D01*
X134247047Y-89860380D02*
X134247047Y-88860380D01*
X134485142Y-88860380D01*
X134628000Y-88908000D01*
X134723238Y-89003238D01*
X134770857Y-89098476D01*
X134818476Y-89288952D01*
X134818476Y-89431809D01*
X134770857Y-89622285D01*
X134723238Y-89717523D01*
X134628000Y-89812761D01*
X134485142Y-89860380D01*
X134247047Y-89860380D01*
X135247047Y-89479428D02*
X136008952Y-89479428D01*
X135628000Y-89860380D02*
X135628000Y-89098476D01*
X114975809Y-98258380D02*
X115213904Y-99258380D01*
X115404380Y-98544095D01*
X115594857Y-99258380D01*
X115832952Y-98258380D01*
X116213904Y-99258380D02*
X116213904Y-98591714D01*
X116213904Y-98258380D02*
X116166285Y-98306000D01*
X116213904Y-98353619D01*
X116261523Y-98306000D01*
X116213904Y-98258380D01*
X116213904Y-98353619D01*
X116690095Y-99258380D02*
X116690095Y-98591714D01*
X116690095Y-98258380D02*
X116642476Y-98306000D01*
X116690095Y-98353619D01*
X116737714Y-98306000D01*
X116690095Y-98258380D01*
X116690095Y-98353619D01*
X117928190Y-99258380D02*
X117928190Y-98258380D01*
X118261523Y-98972666D01*
X118594857Y-98258380D01*
X118594857Y-99258380D01*
X119071047Y-99258380D02*
X119071047Y-98591714D01*
X119071047Y-98258380D02*
X119023428Y-98306000D01*
X119071047Y-98353619D01*
X119118666Y-98306000D01*
X119071047Y-98258380D01*
X119071047Y-98353619D01*
X119547238Y-98591714D02*
X119547238Y-99258380D01*
X119547238Y-98686952D02*
X119594857Y-98639333D01*
X119690095Y-98591714D01*
X119832952Y-98591714D01*
X119928190Y-98639333D01*
X119975809Y-98734571D01*
X119975809Y-99258380D01*
X120451999Y-99258380D02*
X120451999Y-98591714D01*
X120451999Y-98258380D02*
X120404380Y-98306000D01*
X120451999Y-98353619D01*
X120499619Y-98306000D01*
X120451999Y-98258380D01*
X120451999Y-98353619D01*
X121690095Y-98258380D02*
X121690095Y-99067904D01*
X121737714Y-99163142D01*
X121785333Y-99210761D01*
X121880571Y-99258380D01*
X122071047Y-99258380D01*
X122166285Y-99210761D01*
X122213904Y-99163142D01*
X122261523Y-99067904D01*
X122261523Y-98258380D01*
X122690095Y-99210761D02*
X122832952Y-99258380D01*
X123071047Y-99258380D01*
X123166285Y-99210761D01*
X123213904Y-99163142D01*
X123261523Y-99067904D01*
X123261523Y-98972666D01*
X123213904Y-98877428D01*
X123166285Y-98829809D01*
X123071047Y-98782190D01*
X122880571Y-98734571D01*
X122785333Y-98686952D01*
X122737714Y-98639333D01*
X122690095Y-98544095D01*
X122690095Y-98448857D01*
X122737714Y-98353619D01*
X122785333Y-98306000D01*
X122880571Y-98258380D01*
X123118666Y-98258380D01*
X123261523Y-98306000D01*
X124023428Y-98734571D02*
X124166285Y-98782190D01*
X124213904Y-98829809D01*
X124261523Y-98925047D01*
X124261523Y-99067904D01*
X124213904Y-99163142D01*
X124166285Y-99210761D01*
X124071047Y-99258380D01*
X123690095Y-99258380D01*
X123690095Y-98258380D01*
X124023428Y-98258380D01*
X124118666Y-98306000D01*
X124166285Y-98353619D01*
X124213904Y-98448857D01*
X124213904Y-98544095D01*
X124166285Y-98639333D01*
X124118666Y-98686952D01*
X124023428Y-98734571D01*
X123690095Y-98734571D01*
X125451999Y-98734571D02*
X125785333Y-98734571D01*
X125928190Y-99258380D02*
X125451999Y-99258380D01*
X125451999Y-98258380D01*
X125928190Y-98258380D01*
X126309142Y-99210761D02*
X126451999Y-99258380D01*
X126690095Y-99258380D01*
X126785333Y-99210761D01*
X126832952Y-99163142D01*
X126880571Y-99067904D01*
X126880571Y-98972666D01*
X126832952Y-98877428D01*
X126785333Y-98829809D01*
X126690095Y-98782190D01*
X126499619Y-98734571D01*
X126404380Y-98686952D01*
X126356761Y-98639333D01*
X126309142Y-98544095D01*
X126309142Y-98448857D01*
X126356761Y-98353619D01*
X126404380Y-98306000D01*
X126499619Y-98258380D01*
X126737714Y-98258380D01*
X126880571Y-98306000D01*
X127309142Y-99258380D02*
X127309142Y-98258380D01*
X127547238Y-98258380D01*
X127690095Y-98306000D01*
X127785333Y-98401238D01*
X127832952Y-98496476D01*
X127880571Y-98686952D01*
X127880571Y-98829809D01*
X127832952Y-99020285D01*
X127785333Y-99115523D01*
X127690095Y-99210761D01*
X127547238Y-99258380D01*
X127309142Y-99258380D01*
X129071047Y-99258380D02*
X129071047Y-98258380D01*
X129071047Y-98639333D02*
X129166285Y-98591714D01*
X129356761Y-98591714D01*
X129451999Y-98639333D01*
X129499619Y-98686952D01*
X129547238Y-98782190D01*
X129547238Y-99067904D01*
X129499619Y-99163142D01*
X129451999Y-99210761D01*
X129356761Y-99258380D01*
X129166285Y-99258380D01*
X129071047Y-99210761D01*
X130118666Y-99258380D02*
X130023428Y-99210761D01*
X129975809Y-99163142D01*
X129928190Y-99067904D01*
X129928190Y-98782190D01*
X129975809Y-98686952D01*
X130023428Y-98639333D01*
X130118666Y-98591714D01*
X130261523Y-98591714D01*
X130356761Y-98639333D01*
X130404380Y-98686952D01*
X130451999Y-98782190D01*
X130451999Y-99067904D01*
X130404380Y-99163142D01*
X130356761Y-99210761D01*
X130261523Y-99258380D01*
X130118666Y-99258380D01*
X131309142Y-99258380D02*
X131309142Y-98734571D01*
X131261523Y-98639333D01*
X131166285Y-98591714D01*
X130975809Y-98591714D01*
X130880571Y-98639333D01*
X131309142Y-99210761D02*
X131213904Y-99258380D01*
X130975809Y-99258380D01*
X130880571Y-99210761D01*
X130832952Y-99115523D01*
X130832952Y-99020285D01*
X130880571Y-98925047D01*
X130975809Y-98877428D01*
X131213904Y-98877428D01*
X131309142Y-98829809D01*
X131785333Y-99258380D02*
X131785333Y-98591714D01*
X131785333Y-98782190D02*
X131832952Y-98686952D01*
X131880571Y-98639333D01*
X131975809Y-98591714D01*
X132071047Y-98591714D01*
X132832952Y-99258380D02*
X132832952Y-98258380D01*
X132832952Y-99210761D02*
X132737714Y-99258380D01*
X132547238Y-99258380D01*
X132451999Y-99210761D01*
X132404380Y-99163142D01*
X132356761Y-99067904D01*
X132356761Y-98782190D01*
X132404380Y-98686952D01*
X132451999Y-98639333D01*
X132547238Y-98591714D01*
X132737714Y-98591714D01*
X132832952Y-98639333D01*
X124206000Y-91035142D02*
X124253619Y-91082761D01*
X124206000Y-91130380D01*
X124158380Y-91082761D01*
X124206000Y-91035142D01*
X124206000Y-91130380D01*
X134731142Y-84034380D02*
X134254952Y-84034380D01*
X134207333Y-84510571D01*
X134254952Y-84462952D01*
X134350190Y-84415333D01*
X134588285Y-84415333D01*
X134683523Y-84462952D01*
X134731142Y-84510571D01*
X134778761Y-84605809D01*
X134778761Y-84843904D01*
X134731142Y-84939142D01*
X134683523Y-84986761D01*
X134588285Y-85034380D01*
X134350190Y-85034380D01*
X134254952Y-84986761D01*
X134207333Y-84939142D01*
X135112095Y-84367714D02*
X135350190Y-85034380D01*
X135588285Y-84367714D01*
X134247047Y-87574380D02*
X134247047Y-86574380D01*
X134485142Y-86574380D01*
X134628000Y-86622000D01*
X134723238Y-86717238D01*
X134770857Y-86812476D01*
X134818476Y-87002952D01*
X134818476Y-87145809D01*
X134770857Y-87336285D01*
X134723238Y-87431523D01*
X134628000Y-87526761D01*
X134485142Y-87574380D01*
X134247047Y-87574380D01*
X135247047Y-87193428D02*
X136008952Y-87193428D01*
D11*
%TO.C,D1*%
X125375714Y-89117142D02*
X125375714Y-88637142D01*
X125490000Y-88637142D01*
X125558571Y-88660000D01*
X125604285Y-88705714D01*
X125627142Y-88751428D01*
X125650000Y-88842857D01*
X125650000Y-88911428D01*
X125627142Y-89002857D01*
X125604285Y-89048571D01*
X125558571Y-89094285D01*
X125490000Y-89117142D01*
X125375714Y-89117142D01*
X126107142Y-89117142D02*
X125832857Y-89117142D01*
X125970000Y-89117142D02*
X125970000Y-88637142D01*
X125924285Y-88705714D01*
X125878571Y-88751428D01*
X125832857Y-88774285D01*
D10*
%TO.C,FL1*%
X130591619Y-90378285D02*
X130378285Y-90378285D01*
X130378285Y-90713523D02*
X130378285Y-90073523D01*
X130683047Y-90073523D01*
X131231619Y-90713523D02*
X130926857Y-90713523D01*
X130926857Y-90073523D01*
X131780190Y-90713523D02*
X131414476Y-90713523D01*
X131597333Y-90713523D02*
X131597333Y-90073523D01*
X131536380Y-90164952D01*
X131475428Y-90225904D01*
X131414476Y-90256380D01*
%TO.C,FB1*%
X130484666Y-84096571D02*
X130151333Y-84096571D01*
X130151333Y-84620380D02*
X130151333Y-83620380D01*
X130627523Y-83620380D01*
X131341809Y-84096571D02*
X131484666Y-84144190D01*
X131532285Y-84191809D01*
X131579904Y-84287047D01*
X131579904Y-84429904D01*
X131532285Y-84525142D01*
X131484666Y-84572761D01*
X131389428Y-84620380D01*
X131008476Y-84620380D01*
X131008476Y-83620380D01*
X131341809Y-83620380D01*
X131437047Y-83668000D01*
X131484666Y-83715619D01*
X131532285Y-83810857D01*
X131532285Y-83906095D01*
X131484666Y-84001333D01*
X131437047Y-84048952D01*
X131341809Y-84096571D01*
X131008476Y-84096571D01*
X132532285Y-84620380D02*
X131960857Y-84620380D01*
X132246571Y-84620380D02*
X132246571Y-83620380D01*
X132151333Y-83763238D01*
X132056095Y-83858476D01*
X131960857Y-83906095D01*
D11*
%TO.C,J2*%
X138998000Y-85852000D02*
X138998000Y-93532000D01*
X136338000Y-85852000D02*
X138998000Y-85852000D01*
X136338000Y-83252000D02*
X137668000Y-83252000D01*
X136338000Y-84582000D02*
X136338000Y-83252000D01*
X136338000Y-85852000D02*
X136338000Y-93532000D01*
X136338000Y-93532000D02*
X138998000Y-93532000D01*
D12*
%TO.C,D1*%
X124280000Y-88100000D02*
X124280000Y-89700000D01*
X127180000Y-89700000D02*
X127180000Y-88100000D01*
X124540000Y-89470000D02*
G75*
G03*
X124540000Y-89470000I-20000J0D01*
G01*
%TO.C,FL1*%
X129718000Y-87526000D02*
X132918000Y-87526000D01*
X132918000Y-89766000D02*
X129718000Y-89766000D01*
D13*
X129068000Y-89096000D02*
G75*
G03*
X129068000Y-89096000I-100000J0D01*
G01*
%TO.C,J1*%
X116431500Y-95892500D02*
X108521500Y-95892500D01*
X122681500Y-82092500D02*
X121021500Y-82092500D01*
X116431500Y-82092500D02*
X108521500Y-82092500D01*
X122681500Y-95892500D02*
X122681500Y-82092500D01*
X108521500Y-82092500D02*
X108521500Y-95892500D01*
X122681500Y-95892500D02*
X121021500Y-95892500D01*
X123301500Y-85392500D02*
G75*
G03*
X123301500Y-85392500I-100000J0D01*
G01*
D11*
%TO.C,FB1*%
X131177420Y-85088000D02*
X131458580Y-85088000D01*
X131177420Y-86108000D02*
X131458580Y-86108000D01*
%TO.C,G\u002A\u002A\u002A*%
G36*
X125090051Y-76629937D02*
G01*
X125536245Y-76630347D01*
X125575309Y-76679643D01*
X125596961Y-76706886D01*
X125616167Y-76730910D01*
X125628763Y-76746508D01*
X125639877Y-76760210D01*
X125659148Y-76784100D01*
X125684640Y-76815769D01*
X125714418Y-76852806D01*
X125746547Y-76892801D01*
X125779093Y-76933344D01*
X125810121Y-76972025D01*
X125837696Y-77006434D01*
X125859883Y-77034160D01*
X125874746Y-77052794D01*
X125880157Y-77059656D01*
X125875764Y-77067835D01*
X125859643Y-77087309D01*
X125832534Y-77117294D01*
X125795179Y-77157004D01*
X125748320Y-77205655D01*
X125692697Y-77262463D01*
X125629053Y-77326643D01*
X125607386Y-77348337D01*
X125327717Y-77627908D01*
X125175898Y-77505599D01*
X125130922Y-77469347D01*
X125089653Y-77436046D01*
X125054306Y-77407486D01*
X125027094Y-77385456D01*
X125010231Y-77371745D01*
X125006686Y-77368832D01*
X124992508Y-77357249D01*
X124968712Y-77338016D01*
X124939248Y-77314318D01*
X124921647Y-77300208D01*
X124854000Y-77246045D01*
X124778444Y-77284326D01*
X124738514Y-77304184D01*
X124697580Y-77323928D01*
X124662601Y-77340220D01*
X124652820Y-77344591D01*
X124602751Y-77366575D01*
X124346007Y-77110269D01*
X124291277Y-77055448D01*
X124240722Y-77004451D01*
X124195595Y-76958568D01*
X124157146Y-76919090D01*
X124126630Y-76887304D01*
X124105297Y-76864503D01*
X124094402Y-76851976D01*
X124093269Y-76849957D01*
X124103287Y-76846624D01*
X124125511Y-76841860D01*
X124152679Y-76837102D01*
X124281993Y-76807751D01*
X124409178Y-76761530D01*
X124533033Y-76698905D01*
X124577885Y-76671601D01*
X124643858Y-76629526D01*
X125090051Y-76629937D01*
G37*
G36*
X122804335Y-75838527D02*
G01*
X122809414Y-75857466D01*
X122810458Y-75863446D01*
X122838590Y-75995415D01*
X122880231Y-76121660D01*
X122934255Y-76239138D01*
X122976190Y-76310462D01*
X123014475Y-76369644D01*
X123014475Y-77278787D01*
X122985834Y-77303558D01*
X122960552Y-77324902D01*
X122931804Y-77348459D01*
X122922898Y-77355595D01*
X122905701Y-77369331D01*
X122877625Y-77391827D01*
X122841317Y-77420961D01*
X122799424Y-77454607D01*
X122754593Y-77490643D01*
X122745370Y-77498060D01*
X122702303Y-77532679D01*
X122663548Y-77563793D01*
X122631245Y-77589690D01*
X122607529Y-77608657D01*
X122594539Y-77618981D01*
X122593026Y-77620157D01*
X122584847Y-77615764D01*
X122565372Y-77599643D01*
X122535388Y-77572534D01*
X122495678Y-77535179D01*
X122447026Y-77488320D01*
X122390218Y-77432697D01*
X122326038Y-77369053D01*
X122304344Y-77347386D01*
X122024774Y-77067717D01*
X122147082Y-76915898D01*
X122183335Y-76870922D01*
X122216636Y-76829653D01*
X122245196Y-76794306D01*
X122267226Y-76767094D01*
X122280936Y-76750231D01*
X122283850Y-76746686D01*
X122295433Y-76732508D01*
X122314666Y-76708712D01*
X122338363Y-76679248D01*
X122352473Y-76661647D01*
X122406637Y-76594000D01*
X122368355Y-76518444D01*
X122348361Y-76478217D01*
X122328356Y-76436696D01*
X122311746Y-76400989D01*
X122307364Y-76391176D01*
X122284653Y-76339463D01*
X122538829Y-76085178D01*
X122593554Y-76030573D01*
X122644531Y-75979987D01*
X122690445Y-75934702D01*
X122729985Y-75895999D01*
X122761836Y-75865163D01*
X122784687Y-75843474D01*
X122797224Y-75832216D01*
X122799177Y-75830893D01*
X122804335Y-75838527D01*
G37*
G36*
X125607386Y-74044344D02*
G01*
X125673412Y-74110691D01*
X125731650Y-74169914D01*
X125781359Y-74221228D01*
X125821798Y-74263850D01*
X125852226Y-74296993D01*
X125871901Y-74319875D01*
X125880081Y-74331709D01*
X125880157Y-74333026D01*
X125872559Y-74342655D01*
X125856029Y-74363371D01*
X125832523Y-74392735D01*
X125803999Y-74428313D01*
X125772413Y-74467668D01*
X125739723Y-74508363D01*
X125707885Y-74547962D01*
X125678857Y-74584029D01*
X125654595Y-74614128D01*
X125637056Y-74635821D01*
X125628763Y-74645995D01*
X125617205Y-74660179D01*
X125597996Y-74683974D01*
X125574322Y-74713426D01*
X125560303Y-74730917D01*
X125506234Y-74798447D01*
X125552728Y-74891481D01*
X125572311Y-74931476D01*
X125590017Y-74969103D01*
X125603741Y-74999804D01*
X125610810Y-75017341D01*
X125622397Y-75050166D01*
X125371038Y-75301637D01*
X125316643Y-75355923D01*
X125266023Y-75406185D01*
X125220496Y-75451133D01*
X125181381Y-75489478D01*
X125149993Y-75519931D01*
X125127652Y-75541202D01*
X125115674Y-75552003D01*
X125114041Y-75553108D01*
X125106518Y-75546224D01*
X125103134Y-75539376D01*
X125098758Y-75519365D01*
X125097865Y-75506288D01*
X125095187Y-75484138D01*
X125087934Y-75449975D01*
X125077275Y-75408170D01*
X125064381Y-75363092D01*
X125050420Y-75319113D01*
X125039529Y-75288343D01*
X125009099Y-75214207D01*
X124975524Y-75147571D01*
X124935988Y-75081904D01*
X124898207Y-75023038D01*
X124898207Y-74113895D01*
X124926847Y-74089123D01*
X124952112Y-74067779D01*
X124980846Y-74044197D01*
X124989783Y-74037018D01*
X125006658Y-74023504D01*
X125034517Y-74001119D01*
X125070834Y-73971896D01*
X125113081Y-73937870D01*
X125158733Y-73901073D01*
X125175898Y-73887230D01*
X125327717Y-73764774D01*
X125607386Y-74044344D01*
G37*
G36*
X124354529Y-73389420D02*
G01*
X124357364Y-73411651D01*
X124361266Y-73445914D01*
X124365654Y-73486954D01*
X124368757Y-73517462D01*
X124374149Y-73569369D01*
X124380705Y-73629018D01*
X124387369Y-73686929D01*
X124390475Y-73712780D01*
X124396273Y-73762838D01*
X124401928Y-73816312D01*
X124406622Y-73865277D01*
X124408648Y-73889320D01*
X124412438Y-73925289D01*
X124417264Y-73952435D01*
X124422418Y-73967136D01*
X124424188Y-73968677D01*
X124449913Y-73976428D01*
X124485708Y-73988049D01*
X124526794Y-74001895D01*
X124568397Y-74016318D01*
X124605739Y-74029674D01*
X124634044Y-74040315D01*
X124644294Y-74044531D01*
X124681187Y-74060824D01*
X124681187Y-74425011D01*
X124681137Y-74502622D01*
X124680994Y-74574574D01*
X124680770Y-74639074D01*
X124680473Y-74694329D01*
X124680117Y-74738546D01*
X124679710Y-74769930D01*
X124679264Y-74786690D01*
X124679017Y-74789030D01*
X124671435Y-74784347D01*
X124652792Y-74771881D01*
X124626270Y-74753776D01*
X124607400Y-74740755D01*
X124491310Y-74670675D01*
X124365706Y-74614275D01*
X124232993Y-74572608D01*
X124212424Y-74567648D01*
X124147318Y-74552563D01*
X123823944Y-74230359D01*
X123500569Y-73908154D01*
X123505419Y-73864722D01*
X123508397Y-73838377D01*
X123512754Y-73800232D01*
X123517868Y-73755732D01*
X123522327Y-73717120D01*
X123528396Y-73663411D01*
X123534918Y-73603621D01*
X123540925Y-73546705D01*
X123543900Y-73517462D01*
X123548287Y-73474796D01*
X123552603Y-73435163D01*
X123556265Y-73403815D01*
X123558152Y-73389420D01*
X123562891Y-73356867D01*
X124349791Y-73356867D01*
X124354529Y-73389420D01*
G37*
G36*
X125780143Y-75244576D02*
G01*
X125809968Y-75247882D01*
X125851141Y-75252542D01*
X125897770Y-75257885D01*
X125935562Y-75262261D01*
X125989268Y-75268358D01*
X126049055Y-75274902D01*
X126105969Y-75280922D01*
X126135220Y-75283900D01*
X126177885Y-75288287D01*
X126217518Y-75292603D01*
X126248867Y-75296265D01*
X126263261Y-75298152D01*
X126295814Y-75302891D01*
X126295814Y-76089791D01*
X126263261Y-76094529D01*
X126241030Y-76097364D01*
X126206768Y-76101266D01*
X126165727Y-76105654D01*
X126135220Y-76108757D01*
X126083312Y-76114149D01*
X126023664Y-76120705D01*
X125965753Y-76127369D01*
X125939902Y-76130475D01*
X125889843Y-76136273D01*
X125836369Y-76141928D01*
X125787404Y-76146622D01*
X125763362Y-76148648D01*
X125727411Y-76152436D01*
X125700259Y-76157262D01*
X125685536Y-76162413D01*
X125683983Y-76164188D01*
X125674236Y-76196643D01*
X125660543Y-76238966D01*
X125645054Y-76284770D01*
X125629917Y-76327666D01*
X125620156Y-76353911D01*
X125597603Y-76412506D01*
X125234884Y-76412506D01*
X125157427Y-76412415D01*
X125085625Y-76412156D01*
X125021278Y-76411748D01*
X124966183Y-76411211D01*
X124922137Y-76410563D01*
X124890940Y-76409825D01*
X124874387Y-76409016D01*
X124872164Y-76408582D01*
X124876786Y-76400113D01*
X124889032Y-76381212D01*
X124906474Y-76355602D01*
X124910742Y-76349471D01*
X124956905Y-76276605D01*
X124999866Y-76196100D01*
X125035020Y-76116711D01*
X125039745Y-76104338D01*
X125053314Y-76065143D01*
X125066879Y-76021289D01*
X125079274Y-75977114D01*
X125089337Y-75936955D01*
X125095903Y-75905149D01*
X125097865Y-75887809D01*
X125104001Y-75876983D01*
X125122443Y-75854569D01*
X125153242Y-75820513D01*
X125196450Y-75774761D01*
X125252118Y-75717258D01*
X125320298Y-75647950D01*
X125401041Y-75566783D01*
X125413379Y-75554442D01*
X125728894Y-75239016D01*
X125780143Y-75244576D01*
G37*
G36*
X123254492Y-76617189D02*
G01*
X123276321Y-76632119D01*
X123303311Y-76650838D01*
X123305796Y-76652574D01*
X123374943Y-76696323D01*
X123452439Y-76737821D01*
X123529436Y-76772426D01*
X123548343Y-76779745D01*
X123584061Y-76792119D01*
X123625303Y-76804990D01*
X123667759Y-76817177D01*
X123707119Y-76827502D01*
X123739073Y-76834782D01*
X123759311Y-76837837D01*
X123760532Y-76837865D01*
X123769124Y-76843842D01*
X123788736Y-76861008D01*
X123818174Y-76888216D01*
X123856240Y-76924318D01*
X123901740Y-76968168D01*
X123953477Y-77018618D01*
X124010255Y-77074520D01*
X124070880Y-77134728D01*
X124093620Y-77157441D01*
X124413108Y-77477016D01*
X124407761Y-77524204D01*
X124404565Y-77552214D01*
X124400018Y-77591812D01*
X124394772Y-77637338D01*
X124390354Y-77675562D01*
X124384285Y-77729271D01*
X124377764Y-77789060D01*
X124371756Y-77845977D01*
X124368782Y-77875220D01*
X124364394Y-77917885D01*
X124360078Y-77957518D01*
X124356417Y-77988867D01*
X124354529Y-78003261D01*
X124349791Y-78035814D01*
X123562891Y-78035814D01*
X123558152Y-78003261D01*
X123555318Y-77981030D01*
X123551415Y-77946768D01*
X123547027Y-77905727D01*
X123543925Y-77875220D01*
X123538532Y-77823312D01*
X123531977Y-77763664D01*
X123525313Y-77705753D01*
X123522207Y-77679902D01*
X123516408Y-77629843D01*
X123510754Y-77576369D01*
X123506060Y-77527404D01*
X123504034Y-77503362D01*
X123500244Y-77467393D01*
X123495417Y-77440247D01*
X123490264Y-77425545D01*
X123488493Y-77424004D01*
X123462768Y-77416254D01*
X123426974Y-77404632D01*
X123385887Y-77390787D01*
X123344284Y-77376363D01*
X123306942Y-77363008D01*
X123278637Y-77352367D01*
X123268388Y-77348151D01*
X123231495Y-77331858D01*
X123231495Y-76967158D01*
X123231591Y-76875036D01*
X123231906Y-76799002D01*
X123232478Y-76737781D01*
X123233346Y-76690100D01*
X123234548Y-76654686D01*
X123236123Y-76630265D01*
X123238110Y-76615565D01*
X123240546Y-76609310D01*
X123242346Y-76609143D01*
X123254492Y-76617189D01*
G37*
G36*
X122777645Y-74971591D02*
G01*
X122853680Y-74971906D01*
X122914901Y-74972478D01*
X122962582Y-74973346D01*
X122997996Y-74974548D01*
X123022416Y-74976123D01*
X123037117Y-74978110D01*
X123043371Y-74980546D01*
X123043538Y-74982346D01*
X123035493Y-74994492D01*
X123020563Y-75016321D01*
X123001843Y-75043311D01*
X123000108Y-75045796D01*
X122956358Y-75114943D01*
X122914861Y-75192439D01*
X122880255Y-75269436D01*
X122872936Y-75288343D01*
X122860563Y-75324061D01*
X122847692Y-75365303D01*
X122835504Y-75407759D01*
X122825180Y-75447119D01*
X122817900Y-75479073D01*
X122814844Y-75499311D01*
X122814816Y-75500532D01*
X122808796Y-75510052D01*
X122791674Y-75530154D01*
X122764862Y-75559439D01*
X122729772Y-75596505D01*
X122687813Y-75639954D01*
X122640396Y-75688385D01*
X122588934Y-75740400D01*
X122534836Y-75794597D01*
X122479513Y-75849578D01*
X122424377Y-75903943D01*
X122370838Y-75956292D01*
X122320307Y-76005225D01*
X122274196Y-76049343D01*
X122233914Y-76087246D01*
X122200874Y-76117534D01*
X122176485Y-76138807D01*
X122162159Y-76149666D01*
X122159373Y-76150782D01*
X122137774Y-76148805D01*
X122116013Y-76146464D01*
X122038079Y-76137458D01*
X121974492Y-76130164D01*
X121922357Y-76124261D01*
X121878779Y-76119427D01*
X121840864Y-76115340D01*
X121805716Y-76111678D01*
X121777462Y-76108820D01*
X121734797Y-76104417D01*
X121695165Y-76100088D01*
X121663816Y-76096419D01*
X121649420Y-76094529D01*
X121616867Y-76089791D01*
X121616867Y-75302891D01*
X121649420Y-75298152D01*
X121671651Y-75295318D01*
X121705914Y-75291415D01*
X121746954Y-75287027D01*
X121777462Y-75283925D01*
X121829369Y-75278532D01*
X121889018Y-75271977D01*
X121946929Y-75265313D01*
X121972780Y-75262207D01*
X122022838Y-75256408D01*
X122076312Y-75250754D01*
X122125277Y-75246060D01*
X122149320Y-75244034D01*
X122185289Y-75240244D01*
X122212435Y-75235417D01*
X122227136Y-75230264D01*
X122228677Y-75228493D01*
X122236428Y-75202768D01*
X122248049Y-75166974D01*
X122261895Y-75125887D01*
X122276318Y-75084284D01*
X122289674Y-75046942D01*
X122300315Y-75018637D01*
X122304531Y-75008388D01*
X122320824Y-74971495D01*
X122685523Y-74971495D01*
X122777645Y-74971591D01*
G37*
G36*
X123437479Y-75369170D02*
G01*
X123482915Y-75290627D01*
X123542703Y-75216349D01*
X123561365Y-75196742D01*
X123634627Y-75131793D01*
X123712991Y-75081972D01*
X123800082Y-75045108D01*
X123830393Y-75035691D01*
X123868888Y-75025276D01*
X123900279Y-75018919D01*
X123930898Y-75015961D01*
X123967080Y-75015736D01*
X124007094Y-75017209D01*
X124083080Y-75024002D01*
X124148180Y-75037862D01*
X124208005Y-75060449D01*
X124268167Y-75093419D01*
X124271036Y-75095214D01*
X124336465Y-75146327D01*
X124392304Y-75210467D01*
X124436966Y-75285253D01*
X124468860Y-75368304D01*
X124478162Y-75405534D01*
X124484673Y-75448089D01*
X124488166Y-75496630D01*
X124488775Y-75546999D01*
X124486633Y-75595038D01*
X124481876Y-75636590D01*
X124474636Y-75667497D01*
X124469355Y-75678905D01*
X124455086Y-75700681D01*
X123656853Y-75700681D01*
X123657158Y-75737575D01*
X123665673Y-75820333D01*
X123689001Y-75897712D01*
X123725917Y-75967660D01*
X123775197Y-76028123D01*
X123835617Y-76077049D01*
X123871920Y-76097690D01*
X123900396Y-76111478D01*
X123922778Y-76120715D01*
X123943826Y-76126312D01*
X123968302Y-76129181D01*
X124000966Y-76130233D01*
X124042685Y-76130380D01*
X124088502Y-76130056D01*
X124121514Y-76128620D01*
X124146274Y-76125375D01*
X124167332Y-76119626D01*
X124189242Y-76110676D01*
X124198023Y-76106626D01*
X124234029Y-76086771D01*
X124275747Y-76059265D01*
X124317452Y-76028290D01*
X124353418Y-75998027D01*
X124372194Y-75979417D01*
X124389853Y-75965128D01*
X124408374Y-75963219D01*
X124431019Y-75974277D01*
X124456209Y-75994542D01*
X124493888Y-76027979D01*
X124463836Y-76077656D01*
X124405496Y-76158246D01*
X124336021Y-76226289D01*
X124256735Y-76280702D01*
X124168965Y-76320405D01*
X124164349Y-76321994D01*
X124128336Y-76333109D01*
X124094676Y-76340480D01*
X124057496Y-76344992D01*
X124010925Y-76347533D01*
X123991064Y-76348126D01*
X123945101Y-76348519D01*
X123900701Y-76347520D01*
X123863441Y-76345331D01*
X123841948Y-76342755D01*
X123770983Y-76324088D01*
X123697402Y-76294187D01*
X123628505Y-76256074D01*
X123621732Y-76251647D01*
X123552831Y-76195628D01*
X123494071Y-76126762D01*
X123446009Y-76046683D01*
X123409204Y-75957020D01*
X123384215Y-75859408D01*
X123371601Y-75755477D01*
X123371920Y-75646859D01*
X123382605Y-75553108D01*
X123384564Y-75544427D01*
X123656523Y-75544427D01*
X123893240Y-75544378D01*
X123959461Y-75544044D01*
X124020483Y-75543122D01*
X124073809Y-75541695D01*
X124116943Y-75539846D01*
X124147387Y-75537656D01*
X124161617Y-75535536D01*
X124193190Y-75520391D01*
X124213398Y-75494702D01*
X124223229Y-75456768D01*
X124224557Y-75427236D01*
X124215583Y-75365517D01*
X124190921Y-75308158D01*
X124152132Y-75257575D01*
X124100782Y-75216184D01*
X124080402Y-75204458D01*
X124035130Y-75188932D01*
X123981764Y-75183305D01*
X123926386Y-75187451D01*
X123875078Y-75201245D01*
X123857764Y-75209067D01*
X123800567Y-75247970D01*
X123750713Y-75300330D01*
X123710478Y-75362999D01*
X123682141Y-75432827D01*
X123674611Y-75462233D01*
X123668280Y-75491636D01*
X123662773Y-75516802D01*
X123660962Y-75524895D01*
X123656523Y-75544427D01*
X123384564Y-75544427D01*
X123404630Y-75455491D01*
X123437479Y-75369170D01*
G37*
G36*
X122638039Y-73806436D02*
G01*
X122659745Y-73823380D01*
X122691924Y-73848852D01*
X122731637Y-73880493D01*
X122775947Y-73915943D01*
X122821915Y-73952845D01*
X122866603Y-73988837D01*
X122907074Y-74021561D01*
X122940389Y-74048657D01*
X122963609Y-74067766D01*
X122966660Y-74070318D01*
X122983377Y-74083992D01*
X123007250Y-74103099D01*
X123022881Y-74115454D01*
X123061670Y-74145942D01*
X123122710Y-74112960D01*
X123162563Y-74092444D01*
X123208624Y-74070224D01*
X123250994Y-74051075D01*
X123251406Y-74050898D01*
X123319062Y-74021817D01*
X123574765Y-74277411D01*
X123629525Y-74332287D01*
X123680271Y-74383411D01*
X123725723Y-74429474D01*
X123764603Y-74469168D01*
X123795632Y-74501185D01*
X123817533Y-74524216D01*
X123829025Y-74536953D01*
X123830469Y-74539038D01*
X123822716Y-74543601D01*
X123802983Y-74548453D01*
X123789235Y-74550664D01*
X123753307Y-74557141D01*
X123706734Y-74567772D01*
X123655279Y-74581030D01*
X123604702Y-74595387D01*
X123560765Y-74609316D01*
X123540640Y-74616578D01*
X123488897Y-74638823D01*
X123431151Y-74667198D01*
X123375039Y-74697761D01*
X123330425Y-74725083D01*
X123286123Y-74754475D01*
X122365412Y-74754475D01*
X122351990Y-74733991D01*
X122337597Y-74714040D01*
X122326957Y-74701438D01*
X122317649Y-74690665D01*
X122299724Y-74669006D01*
X122275383Y-74639155D01*
X122246828Y-74603803D01*
X122231895Y-74585199D01*
X122198581Y-74543657D01*
X122165064Y-74501937D01*
X122134702Y-74464214D01*
X122110853Y-74434662D01*
X122105627Y-74428208D01*
X122082144Y-74398827D01*
X122060527Y-74371078D01*
X122045185Y-74350627D01*
X122044374Y-74349494D01*
X122025937Y-74323602D01*
X122584775Y-73765540D01*
X122638039Y-73806436D01*
G37*
G36*
X127885497Y-96521197D02*
G01*
X127903051Y-96489966D01*
X127914538Y-96477071D01*
X127931312Y-96463137D01*
X127949137Y-96452814D01*
X127970320Y-96445508D01*
X127997170Y-96440623D01*
X128031996Y-96437565D01*
X128074765Y-96435805D01*
X128166975Y-96433179D01*
X128166975Y-96399065D01*
X128165762Y-96377354D01*
X128162660Y-96359205D01*
X128160220Y-96352331D01*
X128146268Y-96338349D01*
X128122852Y-96328125D01*
X128092706Y-96322657D01*
X128077310Y-96322014D01*
X128042413Y-96323474D01*
X128016847Y-96328342D01*
X127997730Y-96337351D01*
X127988723Y-96344518D01*
X127972834Y-96359244D01*
X127935496Y-96330248D01*
X127917604Y-96315767D01*
X127904389Y-96303955D01*
X127898307Y-96297031D01*
X127898159Y-96296491D01*
X127902539Y-96290123D01*
X127913830Y-96278729D01*
X127924560Y-96269132D01*
X127950909Y-96250543D01*
X127980575Y-96238034D01*
X128015985Y-96231008D01*
X128059568Y-96228870D01*
X128085980Y-96229479D01*
X128118514Y-96231268D01*
X128142330Y-96233986D01*
X128161213Y-96238373D01*
X128178947Y-96245171D01*
X128188099Y-96249477D01*
X128222718Y-96271763D01*
X128247557Y-96300681D01*
X128261002Y-96328265D01*
X128263708Y-96339811D01*
X128265988Y-96359444D01*
X128267887Y-96388040D01*
X128269452Y-96426473D01*
X128270725Y-96475620D01*
X128271753Y-96536355D01*
X128271792Y-96539255D01*
X128274349Y-96728364D01*
X128166975Y-96728364D01*
X128166975Y-96689743D01*
X128148026Y-96705687D01*
X128128683Y-96718380D01*
X128107309Y-96727657D01*
X128105828Y-96728088D01*
X128076599Y-96732875D01*
X128041582Y-96733812D01*
X128006842Y-96731020D01*
X127981455Y-96725616D01*
X127941089Y-96707586D01*
X127908420Y-96681802D01*
X127885078Y-96649757D01*
X127876723Y-96629740D01*
X127871322Y-96595167D01*
X127872501Y-96581599D01*
X127967257Y-96581599D01*
X127974156Y-96602733D01*
X127989535Y-96620711D01*
X128012359Y-96632911D01*
X128020418Y-96635036D01*
X128039672Y-96637214D01*
X128065293Y-96637796D01*
X128092829Y-96636946D01*
X128117831Y-96634827D01*
X128135845Y-96631600D01*
X128138549Y-96630712D01*
X128151665Y-96619439D01*
X128161275Y-96598494D01*
X128166396Y-96570452D01*
X128166975Y-96556272D01*
X128166975Y-96521094D01*
X128083063Y-96523141D01*
X128048897Y-96524111D01*
X128024852Y-96525340D01*
X128008551Y-96527238D01*
X127997613Y-96530213D01*
X127989659Y-96534676D01*
X127983039Y-96540344D01*
X127969873Y-96559929D01*
X127967257Y-96581599D01*
X127872501Y-96581599D01*
X127874583Y-96557625D01*
X127885497Y-96521197D01*
G37*
G36*
X128720236Y-96484554D02*
G01*
X128720534Y-96433432D01*
X128721735Y-96392955D01*
X128724295Y-96361270D01*
X128728671Y-96336528D01*
X128735322Y-96316877D01*
X128744704Y-96300465D01*
X128757274Y-96285443D01*
X128773188Y-96270230D01*
X128804730Y-96246925D01*
X128838105Y-96233481D01*
X128877283Y-96228433D01*
X128886627Y-96228302D01*
X128914083Y-96231443D01*
X128943133Y-96239674D01*
X128969405Y-96251342D01*
X128988526Y-96264796D01*
X128991380Y-96267881D01*
X129000540Y-96276273D01*
X129005314Y-96278253D01*
X129007033Y-96272315D01*
X129008695Y-96255758D01*
X129010193Y-96230464D01*
X129011420Y-96198317D01*
X129012268Y-96161201D01*
X129012363Y-96154785D01*
X129014058Y-96031317D01*
X129062508Y-96029491D01*
X129110957Y-96027665D01*
X129110957Y-96728364D01*
X129010932Y-96728364D01*
X129010932Y-96706483D01*
X129009274Y-96690086D01*
X129003775Y-96685470D01*
X128993648Y-96692290D01*
X128989171Y-96696975D01*
X128972795Y-96709019D01*
X128948305Y-96720148D01*
X128920078Y-96728859D01*
X128892487Y-96733651D01*
X128880978Y-96734122D01*
X128856154Y-96731683D01*
X128831202Y-96726243D01*
X128825795Y-96724505D01*
X128792657Y-96707135D01*
X128762302Y-96681005D01*
X128738805Y-96649791D01*
X128734851Y-96642388D01*
X128729907Y-96631724D01*
X128726223Y-96621291D01*
X128723615Y-96609095D01*
X128721897Y-96593143D01*
X128720886Y-96571442D01*
X128720396Y-96541999D01*
X128720278Y-96511486D01*
X128818056Y-96511486D01*
X128822603Y-96553552D01*
X128832300Y-96585685D01*
X128847431Y-96608740D01*
X128868281Y-96623566D01*
X128874451Y-96626097D01*
X128907227Y-96633449D01*
X128938004Y-96629832D01*
X128958365Y-96621811D01*
X128976363Y-96611296D01*
X128989519Y-96598413D01*
X128998537Y-96581164D01*
X129004121Y-96557550D01*
X129006976Y-96525573D01*
X129007804Y-96483233D01*
X129007805Y-96481428D01*
X129007546Y-96446439D01*
X129006547Y-96421222D01*
X129004476Y-96403052D01*
X129001003Y-96389206D01*
X128995794Y-96376958D01*
X128994875Y-96375152D01*
X128976249Y-96351231D01*
X128951259Y-96335665D01*
X128922662Y-96328486D01*
X128893212Y-96329724D01*
X128865665Y-96339411D01*
X128842776Y-96357578D01*
X128832028Y-96373312D01*
X128825445Y-96392902D01*
X128820862Y-96423000D01*
X128818372Y-96458638D01*
X128818056Y-96511486D01*
X128720278Y-96511486D01*
X128720244Y-96502820D01*
X128720236Y-96484554D01*
G37*
G36*
X127504312Y-95446798D02*
G01*
X127504312Y-95495965D01*
X127535362Y-95475070D01*
X127575543Y-95454547D01*
X127617145Y-95444892D01*
X127658346Y-95445514D01*
X127697328Y-95455821D01*
X127732270Y-95475222D01*
X127761352Y-95503125D01*
X127782756Y-95538939D01*
X127789452Y-95557668D01*
X127793827Y-95580517D01*
X127796986Y-95612754D01*
X127798928Y-95651334D01*
X127799651Y-95693209D01*
X127799156Y-95735333D01*
X127797441Y-95774661D01*
X127794505Y-95808146D01*
X127790348Y-95832742D01*
X127789536Y-95835763D01*
X127772086Y-95874746D01*
X127745496Y-95906870D01*
X127711758Y-95930972D01*
X127672864Y-95945887D01*
X127630806Y-95950451D01*
X127599771Y-95946693D01*
X127577560Y-95939327D01*
X127552338Y-95927433D01*
X127537132Y-95918443D01*
X127504312Y-95896781D01*
X127504312Y-96087886D01*
X127504410Y-96143612D01*
X127504734Y-96187893D01*
X127505329Y-96221785D01*
X127506239Y-96246346D01*
X127507508Y-96262631D01*
X127509180Y-96271698D01*
X127511299Y-96274602D01*
X127512126Y-96274376D01*
X127522225Y-96267746D01*
X127536666Y-96257586D01*
X127538695Y-96256116D01*
X127574462Y-96237430D01*
X127614609Y-96228657D01*
X127656208Y-96229566D01*
X127696329Y-96239927D01*
X127732044Y-96259508D01*
X127747206Y-96272557D01*
X127759897Y-96285460D01*
X127770116Y-96297126D01*
X127778145Y-96309054D01*
X127784265Y-96322744D01*
X127788760Y-96339694D01*
X127791912Y-96361404D01*
X127794002Y-96389373D01*
X127795314Y-96425100D01*
X127796129Y-96470085D01*
X127796729Y-96525827D01*
X127796827Y-96536129D01*
X127798646Y-96728364D01*
X127698109Y-96728364D01*
X127698100Y-96564261D01*
X127697966Y-96509995D01*
X127697397Y-96466721D01*
X127696127Y-96432927D01*
X127693893Y-96407103D01*
X127690429Y-96387738D01*
X127685472Y-96373322D01*
X127678756Y-96362344D01*
X127670018Y-96353294D01*
X127659751Y-96345214D01*
X127632380Y-96332325D01*
X127601479Y-96329062D01*
X127570488Y-96334771D01*
X127542851Y-96348799D01*
X127522008Y-96370494D01*
X127521397Y-96371461D01*
X127517203Y-96378706D01*
X127513920Y-96386412D01*
X127511413Y-96396172D01*
X127509549Y-96409577D01*
X127508195Y-96428222D01*
X127507217Y-96453697D01*
X127506481Y-96487597D01*
X127505855Y-96531512D01*
X127505502Y-96561135D01*
X127503566Y-96728364D01*
X127404287Y-96728364D01*
X127404287Y-95709623D01*
X127503912Y-95709623D01*
X127507243Y-95749414D01*
X127515033Y-95785046D01*
X127527301Y-95813379D01*
X127533296Y-95821764D01*
X127553881Y-95837372D01*
X127581349Y-95846293D01*
X127611777Y-95848127D01*
X127641244Y-95842480D01*
X127658309Y-95834429D01*
X127671924Y-95824073D01*
X127681790Y-95811347D01*
X127688468Y-95794193D01*
X127692518Y-95770556D01*
X127694502Y-95738380D01*
X127694984Y-95699986D01*
X127694699Y-95662724D01*
X127693677Y-95635514D01*
X127691669Y-95615916D01*
X127688425Y-95601489D01*
X127683714Y-95589828D01*
X127667298Y-95566914D01*
X127644605Y-95553064D01*
X127614142Y-95547596D01*
X127591847Y-95548032D01*
X127569125Y-95550336D01*
X127554522Y-95554372D01*
X127543655Y-95561959D01*
X127534800Y-95571694D01*
X127520484Y-95596709D01*
X127510551Y-95630130D01*
X127505021Y-95668815D01*
X127503912Y-95709623D01*
X127404287Y-95709623D01*
X127404287Y-95446798D01*
X127504312Y-95446798D01*
G37*
G36*
X131071509Y-95442847D02*
G01*
X131095168Y-95446973D01*
X131105236Y-95449443D01*
X131145930Y-95463886D01*
X131184014Y-95484751D01*
X131214813Y-95509425D01*
X131217551Y-95512254D01*
X131227071Y-95523261D01*
X131228440Y-95530479D01*
X131222160Y-95539144D01*
X131220316Y-95541195D01*
X131207847Y-95553426D01*
X131191083Y-95568039D01*
X131185342Y-95572697D01*
X131162336Y-95590942D01*
X131133527Y-95570636D01*
X131114529Y-95558754D01*
X131096578Y-95552086D01*
X131074017Y-95548829D01*
X131062761Y-95548096D01*
X131022789Y-95549986D01*
X130990968Y-95560800D01*
X130966104Y-95581155D01*
X130949468Y-95606574D01*
X130941785Y-95623631D01*
X130937075Y-95640228D01*
X130934651Y-95660334D01*
X130933823Y-95687915D01*
X130933784Y-95696860D01*
X130934284Y-95727618D01*
X130936301Y-95749822D01*
X130940469Y-95767391D01*
X130947424Y-95784244D01*
X130948192Y-95785825D01*
X130968541Y-95814264D01*
X130996235Y-95834349D01*
X131028967Y-95845672D01*
X131064431Y-95847831D01*
X131100322Y-95840417D01*
X131134332Y-95823027D01*
X131139273Y-95819423D01*
X131161728Y-95802296D01*
X131185038Y-95820782D01*
X131202005Y-95835044D01*
X131216622Y-95848658D01*
X131220257Y-95852459D01*
X131228232Y-95862513D01*
X131227684Y-95869808D01*
X131220257Y-95878882D01*
X131195455Y-95900747D01*
X131163092Y-95921273D01*
X131128013Y-95937538D01*
X131116201Y-95941619D01*
X131087901Y-95949074D01*
X131062670Y-95951908D01*
X131034978Y-95950394D01*
X131010997Y-95946867D01*
X130973084Y-95935771D01*
X130934798Y-95916577D01*
X130901687Y-95892200D01*
X130895283Y-95886062D01*
X130868355Y-95850354D01*
X130848320Y-95806106D01*
X130835743Y-95755558D01*
X130831187Y-95700952D01*
X130834978Y-95646132D01*
X130848010Y-95589468D01*
X130869298Y-95542168D01*
X130898973Y-95504091D01*
X130937166Y-95475097D01*
X130984008Y-95455047D01*
X131022129Y-95446238D01*
X131049430Y-95442690D01*
X131071509Y-95442847D01*
G37*
G36*
X131266994Y-95615537D02*
G01*
X131284106Y-95562495D01*
X131309239Y-95518780D01*
X131342169Y-95484633D01*
X131382671Y-95460291D01*
X131425267Y-95446995D01*
X131474392Y-95443200D01*
X131522096Y-95451477D01*
X131566916Y-95471394D01*
X131604516Y-95499789D01*
X131628249Y-95525071D01*
X131645270Y-95551451D01*
X131656639Y-95581731D01*
X131663417Y-95618718D01*
X131666622Y-95664039D01*
X131669186Y-95734369D01*
X131361511Y-95734369D01*
X131361511Y-95751799D01*
X131365703Y-95773144D01*
X131376490Y-95797823D01*
X131391184Y-95820790D01*
X131406750Y-95836748D01*
X131426254Y-95845555D01*
X131453149Y-95850956D01*
X131482681Y-95852513D01*
X131510095Y-95849786D01*
X131519955Y-95847217D01*
X131540103Y-95838624D01*
X131561265Y-95826850D01*
X131564816Y-95824524D01*
X131587443Y-95809169D01*
X131621388Y-95838170D01*
X131638093Y-95853098D01*
X131650211Y-95865179D01*
X131655302Y-95871966D01*
X131655333Y-95872207D01*
X131650910Y-95878868D01*
X131639731Y-95889882D01*
X131633250Y-95895447D01*
X131587918Y-95924941D01*
X131537452Y-95943787D01*
X131484105Y-95951426D01*
X131430130Y-95947295D01*
X131427152Y-95946708D01*
X131378788Y-95931074D01*
X131338048Y-95905624D01*
X131305298Y-95870724D01*
X131280903Y-95826741D01*
X131268300Y-95787969D01*
X131264012Y-95761379D01*
X131261549Y-95727025D01*
X131260946Y-95689519D01*
X131262238Y-95653472D01*
X131262278Y-95653099D01*
X131361511Y-95653099D01*
X131569203Y-95653099D01*
X131564909Y-95629656D01*
X131553114Y-95593713D01*
X131533028Y-95566311D01*
X131505667Y-95548359D01*
X131472051Y-95540768D01*
X131465202Y-95540571D01*
X131436697Y-95543620D01*
X131412480Y-95551698D01*
X131411581Y-95552170D01*
X131392437Y-95567933D01*
X131375765Y-95591124D01*
X131364550Y-95616786D01*
X131361511Y-95635328D01*
X131361511Y-95653099D01*
X131262278Y-95653099D01*
X131265460Y-95623494D01*
X131266994Y-95615537D01*
G37*
G36*
X129274993Y-95444866D02*
G01*
X129310637Y-95450275D01*
X129343668Y-95457958D01*
X129366464Y-95465902D01*
X129390117Y-95477462D01*
X129411322Y-95489807D01*
X129427357Y-95501151D01*
X129435498Y-95509712D01*
X129435994Y-95511442D01*
X129432224Y-95518483D01*
X129422270Y-95532032D01*
X129408238Y-95549233D01*
X129407362Y-95550261D01*
X129378687Y-95583826D01*
X129343984Y-95564241D01*
X129313154Y-95551083D01*
X129278288Y-95542912D01*
X129243299Y-95540109D01*
X129212099Y-95543058D01*
X129193074Y-95549511D01*
X129173593Y-95564755D01*
X129163470Y-95583678D01*
X129162969Y-95603409D01*
X129172354Y-95621077D01*
X129185585Y-95631017D01*
X129200993Y-95636231D01*
X129223941Y-95640876D01*
X129249470Y-95643950D01*
X129249572Y-95643958D01*
X129301511Y-95649225D01*
X129342705Y-95656565D01*
X129374838Y-95666699D01*
X129399596Y-95680351D01*
X129418663Y-95698241D01*
X129433725Y-95721092D01*
X129434924Y-95723383D01*
X129446066Y-95755406D01*
X129450401Y-95791819D01*
X129447763Y-95827604D01*
X129439302Y-95855098D01*
X129417979Y-95886060D01*
X129386943Y-95911812D01*
X129348152Y-95931634D01*
X129303563Y-95944800D01*
X129255133Y-95950589D01*
X129204821Y-95948276D01*
X129192227Y-95946356D01*
X129167655Y-95940252D01*
X129139134Y-95930572D01*
X129118164Y-95921800D01*
X129095295Y-95909956D01*
X129072422Y-95896200D01*
X129052168Y-95882355D01*
X129037159Y-95870242D01*
X129030020Y-95861685D01*
X129029766Y-95860437D01*
X129034172Y-95854578D01*
X129045719Y-95842995D01*
X129062020Y-95828063D01*
X129064092Y-95826239D01*
X129098338Y-95796204D01*
X129126459Y-95815552D01*
X129164532Y-95837264D01*
X129203364Y-95849304D01*
X129247777Y-95853144D01*
X129249478Y-95853148D01*
X129290015Y-95850206D01*
X129319687Y-95841297D01*
X129338679Y-95826300D01*
X129347179Y-95805094D01*
X129347327Y-95789399D01*
X129343565Y-95774105D01*
X129334649Y-95762542D01*
X129318918Y-95753940D01*
X129294711Y-95747525D01*
X129260366Y-95742527D01*
X129242439Y-95740656D01*
X129191491Y-95733892D01*
X129151236Y-95724022D01*
X129120083Y-95710253D01*
X129096437Y-95691793D01*
X129078707Y-95667849D01*
X129072760Y-95656225D01*
X129065509Y-95633819D01*
X129061411Y-95608215D01*
X129061082Y-95600686D01*
X129066006Y-95556007D01*
X129081189Y-95518461D01*
X129106596Y-95488083D01*
X129142194Y-95464908D01*
X129187948Y-95448969D01*
X129214966Y-95443672D01*
X129241511Y-95442432D01*
X129274993Y-95444866D01*
G37*
G36*
X129882160Y-96539731D02*
G01*
X129899204Y-96502661D01*
X129926470Y-96472461D01*
X129961166Y-96450873D01*
X129974641Y-96445518D01*
X129989849Y-96441665D01*
X130009330Y-96438992D01*
X130035625Y-96437178D01*
X130071272Y-96435901D01*
X130081508Y-96435639D01*
X130173718Y-96433395D01*
X130173718Y-96397151D01*
X130171906Y-96370354D01*
X130166080Y-96352986D01*
X130162778Y-96348416D01*
X130143483Y-96334661D01*
X130116317Y-96325843D01*
X130084722Y-96321950D01*
X130052142Y-96322970D01*
X130022017Y-96328890D01*
X129997791Y-96339698D01*
X129987083Y-96349041D01*
X129981803Y-96353568D01*
X129975094Y-96353431D01*
X129964425Y-96347615D01*
X129947263Y-96335106D01*
X129941759Y-96330889D01*
X129923957Y-96316545D01*
X129910878Y-96304775D01*
X129905007Y-96297840D01*
X129904902Y-96297369D01*
X129910034Y-96287735D01*
X129923395Y-96274921D01*
X129941931Y-96261137D01*
X129962592Y-96248593D01*
X129982323Y-96239500D01*
X129986934Y-96237971D01*
X130020419Y-96231434D01*
X130060894Y-96228642D01*
X130103431Y-96229574D01*
X130143099Y-96234206D01*
X130163603Y-96238788D01*
X130196910Y-96252802D01*
X130226988Y-96274037D01*
X130250895Y-96299853D01*
X130265686Y-96327610D01*
X130266832Y-96331391D01*
X130268948Y-96345792D01*
X130270719Y-96371654D01*
X130272110Y-96407939D01*
X130273087Y-96453609D01*
X130273618Y-96507627D01*
X130273708Y-96542380D01*
X130273743Y-96728364D01*
X130173718Y-96728364D01*
X130173718Y-96689743D01*
X130154770Y-96705687D01*
X130135426Y-96718380D01*
X130114052Y-96727657D01*
X130112572Y-96728088D01*
X130081789Y-96733122D01*
X130045335Y-96733914D01*
X130009050Y-96730670D01*
X129978775Y-96723592D01*
X129978277Y-96723415D01*
X129938546Y-96703309D01*
X129907830Y-96675522D01*
X129886896Y-96641519D01*
X129876511Y-96602767D01*
X129877018Y-96579890D01*
X129973868Y-96579890D01*
X129978943Y-96604406D01*
X129993430Y-96622436D01*
X130012582Y-96631062D01*
X130030019Y-96634948D01*
X130039310Y-96637129D01*
X130057551Y-96638973D01*
X130081875Y-96638227D01*
X130107737Y-96635400D01*
X130130592Y-96631004D01*
X130145897Y-96625552D01*
X130146727Y-96625041D01*
X130162007Y-96609765D01*
X130170746Y-96587220D01*
X130173708Y-96555370D01*
X130173718Y-96552914D01*
X130173718Y-96522063D01*
X130095163Y-96522063D01*
X130052674Y-96522933D01*
X130021100Y-96526020D01*
X129998942Y-96532037D01*
X129984704Y-96541699D01*
X129976887Y-96555719D01*
X129973994Y-96574813D01*
X129973868Y-96579890D01*
X129877018Y-96579890D01*
X129877442Y-96560733D01*
X129882160Y-96539731D01*
G37*
G36*
X130674657Y-96239579D02*
G01*
X130710685Y-96258426D01*
X130713377Y-96263283D01*
X130710490Y-96271879D01*
X130701049Y-96285992D01*
X130684080Y-96307397D01*
X130683301Y-96308346D01*
X130647206Y-96352221D01*
X130622728Y-96339462D01*
X130591401Y-96329525D01*
X130559879Y-96330753D01*
X130530887Y-96342292D01*
X130507153Y-96363290D01*
X130497245Y-96378722D01*
X130493882Y-96386595D01*
X130491277Y-96396474D01*
X130489335Y-96409944D01*
X130487964Y-96428591D01*
X130487070Y-96454000D01*
X130486559Y-96487757D01*
X130486338Y-96531446D01*
X130486305Y-96564261D01*
X130486295Y-96728364D01*
X130386271Y-96728364D01*
X130386271Y-96234492D01*
X130486295Y-96234492D01*
X130486295Y-96278889D01*
X130508163Y-96262210D01*
X130546140Y-96240756D01*
X130588323Y-96229800D01*
X130632050Y-96229391D01*
X130674657Y-96239579D01*
G37*
G36*
X129351147Y-91733406D02*
G01*
X129401844Y-91733508D01*
X129442396Y-91733748D01*
X129473982Y-91734181D01*
X129497781Y-91734864D01*
X129514972Y-91735854D01*
X129526734Y-91737207D01*
X129534246Y-91738980D01*
X129538686Y-91741228D01*
X129541235Y-91744010D01*
X129542108Y-91745505D01*
X129544678Y-91754210D01*
X129549204Y-91773795D01*
X129555398Y-91802839D01*
X129562971Y-91839921D01*
X129571633Y-91883621D01*
X129581095Y-91932520D01*
X129591068Y-91985196D01*
X129592715Y-91994004D01*
X129602763Y-92046967D01*
X129612416Y-92096209D01*
X129621379Y-92140339D01*
X129629355Y-92177968D01*
X129636050Y-92207705D01*
X129641165Y-92228161D01*
X129644407Y-92237946D01*
X129644759Y-92238457D01*
X129653050Y-92243406D01*
X129671149Y-92252103D01*
X129697202Y-92263788D01*
X129729352Y-92277700D01*
X129765746Y-92293079D01*
X129804530Y-92309166D01*
X129843848Y-92325200D01*
X129881846Y-92340422D01*
X129916669Y-92354071D01*
X129946463Y-92365387D01*
X129969374Y-92373611D01*
X129983546Y-92377981D01*
X129986449Y-92378485D01*
X129995327Y-92375783D01*
X130012018Y-92367093D01*
X130036931Y-92352158D01*
X130070477Y-92330719D01*
X130113064Y-92302517D01*
X130165103Y-92267294D01*
X130195329Y-92246601D01*
X130247697Y-92210641D01*
X130290738Y-92181134D01*
X130325437Y-92157465D01*
X130352782Y-92139019D01*
X130373759Y-92125181D01*
X130389353Y-92115336D01*
X130400552Y-92108870D01*
X130408342Y-92105169D01*
X130413709Y-92103616D01*
X130417639Y-92103597D01*
X130421120Y-92104499D01*
X130422570Y-92104967D01*
X130430560Y-92110500D01*
X130445784Y-92123775D01*
X130467068Y-92143596D01*
X130493237Y-92168767D01*
X130523115Y-92198092D01*
X130555527Y-92230373D01*
X130589298Y-92264415D01*
X130623254Y-92299023D01*
X130656218Y-92332999D01*
X130687015Y-92365147D01*
X130714472Y-92394271D01*
X130737411Y-92419176D01*
X130754659Y-92438664D01*
X130765040Y-92451539D01*
X130767615Y-92456199D01*
X130764175Y-92464076D01*
X130754375Y-92481008D01*
X130738993Y-92505784D01*
X130718809Y-92537195D01*
X130694600Y-92574031D01*
X130667147Y-92615082D01*
X130637227Y-92659138D01*
X130633207Y-92665009D01*
X130592854Y-92724317D01*
X130559586Y-92774165D01*
X130533476Y-92814440D01*
X130514595Y-92845026D01*
X130503018Y-92865809D01*
X130498815Y-92876674D01*
X130498798Y-92877039D01*
X130501265Y-92888109D01*
X130508147Y-92908451D01*
X130518667Y-92936271D01*
X130532049Y-92969776D01*
X130547517Y-93007174D01*
X130564294Y-93046672D01*
X130581604Y-93086476D01*
X130598669Y-93124794D01*
X130614714Y-93159833D01*
X130628962Y-93189799D01*
X130640636Y-93212900D01*
X130648960Y-93227343D01*
X130652200Y-93231235D01*
X130661142Y-93234301D01*
X130680912Y-93239253D01*
X130710031Y-93245780D01*
X130747017Y-93253570D01*
X130790392Y-93262311D01*
X130838676Y-93271689D01*
X130886633Y-93280699D01*
X130938208Y-93290325D01*
X130986311Y-93299474D01*
X131029453Y-93307851D01*
X131066144Y-93315158D01*
X131094892Y-93321099D01*
X131114209Y-93325378D01*
X131122389Y-93327600D01*
X131136455Y-93333510D01*
X131136455Y-93583037D01*
X131136424Y-93645644D01*
X131136298Y-93696903D01*
X131136026Y-93737969D01*
X131135559Y-93769997D01*
X131134848Y-93794144D01*
X131133842Y-93811563D01*
X131132492Y-93823409D01*
X131130748Y-93830839D01*
X131128561Y-93835007D01*
X131125881Y-93837069D01*
X131125515Y-93837233D01*
X131117027Y-93839428D01*
X131097696Y-93843615D01*
X131068973Y-93849504D01*
X131032310Y-93856806D01*
X130989156Y-93865233D01*
X130940964Y-93874496D01*
X130889886Y-93884173D01*
X130827302Y-93896073D01*
X130776124Y-93906106D01*
X130735429Y-93914480D01*
X130704294Y-93921406D01*
X130681796Y-93927095D01*
X130667011Y-93931757D01*
X130659017Y-93935601D01*
X130657399Y-93937108D01*
X130653171Y-93945448D01*
X130644987Y-93963875D01*
X130633493Y-93990850D01*
X130619333Y-94024836D01*
X130603154Y-94064294D01*
X130585600Y-94107684D01*
X130579757Y-94122250D01*
X130556766Y-94180390D01*
X130538743Y-94227565D01*
X130525535Y-94264215D01*
X130516988Y-94290780D01*
X130512947Y-94307701D01*
X130512675Y-94313813D01*
X130516784Y-94322820D01*
X130527228Y-94340777D01*
X130543175Y-94366391D01*
X130563791Y-94398366D01*
X130588245Y-94435409D01*
X130615704Y-94476226D01*
X130641526Y-94514001D01*
X130670757Y-94556746D01*
X130697592Y-94596557D01*
X130721223Y-94632192D01*
X130740844Y-94662411D01*
X130755648Y-94685972D01*
X130764828Y-94701635D01*
X130767615Y-94707948D01*
X130763317Y-94714628D01*
X130751062Y-94729065D01*
X130731804Y-94750246D01*
X130706498Y-94777158D01*
X130676098Y-94808790D01*
X130641561Y-94844130D01*
X130603840Y-94882165D01*
X130593656Y-94892343D01*
X130548398Y-94937362D01*
X130511083Y-94974140D01*
X130480928Y-95003390D01*
X130457149Y-95025827D01*
X130438962Y-95042161D01*
X130425583Y-95053106D01*
X130416229Y-95059376D01*
X130410115Y-95061681D01*
X130407673Y-95061458D01*
X130399838Y-95056975D01*
X130382983Y-95046229D01*
X130358375Y-95030066D01*
X130327281Y-95009330D01*
X130290970Y-94984865D01*
X130250708Y-94957514D01*
X130214985Y-94933082D01*
X130172442Y-94904128D01*
X130132776Y-94877574D01*
X130097250Y-94854232D01*
X130067128Y-94834915D01*
X130043673Y-94820434D01*
X130028149Y-94811601D01*
X130022152Y-94809141D01*
X130012529Y-94811990D01*
X129994245Y-94819827D01*
X129969579Y-94831591D01*
X129940814Y-94846219D01*
X129927747Y-94853128D01*
X129898011Y-94868520D01*
X129871454Y-94881313D01*
X129850329Y-94890494D01*
X129836887Y-94895047D01*
X129833996Y-94895325D01*
X129830606Y-94892452D01*
X129825281Y-94884185D01*
X129817738Y-94869879D01*
X129807691Y-94848888D01*
X129794857Y-94820569D01*
X129778951Y-94784276D01*
X129759691Y-94739365D01*
X129736790Y-94685190D01*
X129709967Y-94621107D01*
X129678935Y-94546472D01*
X129657390Y-94494449D01*
X129629701Y-94427343D01*
X129603469Y-94363434D01*
X129579081Y-94303689D01*
X129556927Y-94249076D01*
X129537393Y-94200561D01*
X129520869Y-94159111D01*
X129507743Y-94125694D01*
X129498403Y-94101276D01*
X129493237Y-94086824D01*
X129492301Y-94083273D01*
X129497759Y-94071847D01*
X129512657Y-94058321D01*
X129518870Y-94054067D01*
X129536656Y-94042132D01*
X129560060Y-94025793D01*
X129584684Y-94008131D01*
X129590392Y-94003960D01*
X129651133Y-93951961D01*
X129702184Y-93892842D01*
X129743213Y-93827777D01*
X129773886Y-93757939D01*
X129793874Y-93684501D01*
X129802842Y-93608636D01*
X129800458Y-93531516D01*
X129786391Y-93454314D01*
X129764669Y-93388684D01*
X129745103Y-93345811D01*
X129722112Y-93307186D01*
X129693393Y-93269485D01*
X129656644Y-93229386D01*
X129648589Y-93221248D01*
X129593189Y-93171993D01*
X129535487Y-93133533D01*
X129472639Y-93104173D01*
X129426660Y-93088870D01*
X129381965Y-93079565D01*
X129329790Y-93074421D01*
X129274444Y-93073439D01*
X129220236Y-93076619D01*
X129171475Y-93083961D01*
X129151592Y-93088870D01*
X129077943Y-93116327D01*
X129009930Y-93154104D01*
X128948567Y-93201119D01*
X128894869Y-93256286D01*
X128849850Y-93318523D01*
X128814525Y-93386745D01*
X128789907Y-93459870D01*
X128785233Y-93480288D01*
X128775205Y-93558841D01*
X128777194Y-93636763D01*
X128790726Y-93712831D01*
X128815328Y-93785825D01*
X128850528Y-93854520D01*
X128895853Y-93917696D01*
X128950829Y-93974131D01*
X128987860Y-94003960D01*
X129012114Y-94021478D01*
X129036222Y-94038425D01*
X129055788Y-94051721D01*
X129059382Y-94054067D01*
X129076766Y-94067750D01*
X129085398Y-94080090D01*
X129085951Y-94083273D01*
X129083612Y-94090954D01*
X129076855Y-94109210D01*
X129066067Y-94137075D01*
X129051637Y-94173580D01*
X129033953Y-94217760D01*
X129013403Y-94268647D01*
X128990376Y-94325273D01*
X128965260Y-94386673D01*
X128938443Y-94451880D01*
X128920862Y-94494449D01*
X128887071Y-94575973D01*
X128857664Y-94646543D01*
X128832357Y-94706804D01*
X128810866Y-94757400D01*
X128792907Y-94798977D01*
X128778197Y-94832179D01*
X128766450Y-94857651D01*
X128757383Y-94876039D01*
X128750712Y-94887986D01*
X128746152Y-94894138D01*
X128744256Y-94895325D01*
X128734888Y-94893117D01*
X128716850Y-94885838D01*
X128692394Y-94874502D01*
X128663773Y-94860123D01*
X128650504Y-94853128D01*
X128620676Y-94837594D01*
X128593967Y-94824468D01*
X128572659Y-94814812D01*
X128559031Y-94809687D01*
X128556100Y-94809141D01*
X128548246Y-94812579D01*
X128531396Y-94822350D01*
X128506813Y-94837642D01*
X128475761Y-94857644D01*
X128439503Y-94881542D01*
X128399302Y-94908526D01*
X128363267Y-94933082D01*
X128320677Y-94962193D01*
X128280980Y-94989125D01*
X128245443Y-95013033D01*
X128215333Y-95033073D01*
X128191918Y-95048400D01*
X128176464Y-95058169D01*
X128170578Y-95061458D01*
X128166034Y-95061190D01*
X128158720Y-95057387D01*
X128147852Y-95049336D01*
X128132647Y-95036324D01*
X128112321Y-95017638D01*
X128086090Y-94992566D01*
X128053169Y-94960395D01*
X128012776Y-94920412D01*
X127984595Y-94892343D01*
X127946205Y-94853775D01*
X127910750Y-94817639D01*
X127879186Y-94784948D01*
X127852468Y-94756715D01*
X127831549Y-94733950D01*
X127817386Y-94717668D01*
X127810934Y-94708879D01*
X127810637Y-94707948D01*
X127814080Y-94700434D01*
X127823871Y-94683907D01*
X127839204Y-94659609D01*
X127859271Y-94628781D01*
X127883266Y-94592662D01*
X127910383Y-94552495D01*
X127936726Y-94514001D01*
X127966129Y-94470944D01*
X127993256Y-94430529D01*
X128017274Y-94394050D01*
X128037351Y-94362802D01*
X128052653Y-94338078D01*
X128062348Y-94321173D01*
X128065576Y-94313813D01*
X128064435Y-94303039D01*
X128058889Y-94282911D01*
X128048786Y-94252990D01*
X128033969Y-94212836D01*
X128014286Y-94162008D01*
X127998495Y-94122250D01*
X127980635Y-94077920D01*
X127963942Y-94037027D01*
X127949062Y-94001110D01*
X127936638Y-93971708D01*
X127927317Y-93950358D01*
X127921744Y-93938600D01*
X127920853Y-93937108D01*
X127915591Y-93933560D01*
X127903950Y-93929289D01*
X127885007Y-93924085D01*
X127857839Y-93917736D01*
X127821523Y-93910034D01*
X127775136Y-93900767D01*
X127717755Y-93889726D01*
X127688366Y-93884173D01*
X127636623Y-93874369D01*
X127588488Y-93865116D01*
X127545411Y-93856702D01*
X127508843Y-93849416D01*
X127480235Y-93843547D01*
X127461039Y-93839385D01*
X127452736Y-93837233D01*
X127449992Y-93835351D01*
X127447747Y-93831504D01*
X127445952Y-93824537D01*
X127444556Y-93813295D01*
X127443511Y-93796623D01*
X127442766Y-93773366D01*
X127442272Y-93742368D01*
X127441979Y-93702474D01*
X127441837Y-93652530D01*
X127441797Y-93591380D01*
X127441796Y-93583037D01*
X127441796Y-93333510D01*
X127455862Y-93327600D01*
X127465116Y-93325125D01*
X127485181Y-93320713D01*
X127514568Y-93314660D01*
X127551787Y-93307264D01*
X127595347Y-93298820D01*
X127643759Y-93289626D01*
X127691618Y-93280699D01*
X127743136Y-93271008D01*
X127791120Y-93261665D01*
X127834090Y-93252982D01*
X127870567Y-93245271D01*
X127899070Y-93238846D01*
X127918119Y-93234017D01*
X127926051Y-93231235D01*
X127931787Y-93223366D01*
X127941377Y-93205676D01*
X127954044Y-93179958D01*
X127969012Y-93148004D01*
X127985504Y-93111609D01*
X128002744Y-93072564D01*
X128019955Y-93032663D01*
X128036360Y-92993699D01*
X128051183Y-92957465D01*
X128063648Y-92925753D01*
X128072978Y-92900357D01*
X128078397Y-92883070D01*
X128079453Y-92877039D01*
X128075739Y-92866831D01*
X128064645Y-92846699D01*
X128046244Y-92816756D01*
X128020608Y-92777116D01*
X127987810Y-92727896D01*
X127947922Y-92669208D01*
X127945045Y-92665009D01*
X127914863Y-92620652D01*
X127887045Y-92579143D01*
X127862372Y-92541693D01*
X127841622Y-92509510D01*
X127825573Y-92483805D01*
X127815005Y-92465787D01*
X127810697Y-92456667D01*
X127810637Y-92456199D01*
X127814916Y-92449244D01*
X127826968Y-92434754D01*
X127845619Y-92413924D01*
X127869693Y-92387950D01*
X127898016Y-92358030D01*
X127929412Y-92325359D01*
X127962706Y-92291134D01*
X127996722Y-92256550D01*
X128030287Y-92222804D01*
X128062224Y-92191093D01*
X128091359Y-92162611D01*
X128116516Y-92138557D01*
X128136520Y-92120125D01*
X128150196Y-92108512D01*
X128155682Y-92104967D01*
X128159344Y-92103885D01*
X128163143Y-92103541D01*
X128168065Y-92104549D01*
X128175096Y-92107523D01*
X128185224Y-92113079D01*
X128199434Y-92121831D01*
X128218712Y-92134393D01*
X128244047Y-92151381D01*
X128276424Y-92173409D01*
X128316830Y-92201091D01*
X128366252Y-92235042D01*
X128383606Y-92246970D01*
X128440558Y-92285858D01*
X128487848Y-92317582D01*
X128525878Y-92342396D01*
X128555052Y-92360554D01*
X128575772Y-92372311D01*
X128588440Y-92377922D01*
X128591797Y-92378505D01*
X128601764Y-92375986D01*
X128621254Y-92369293D01*
X128648412Y-92359186D01*
X128681379Y-92346425D01*
X128718298Y-92331772D01*
X128757311Y-92315987D01*
X128796561Y-92299832D01*
X128834190Y-92284066D01*
X128868340Y-92269451D01*
X128897153Y-92256748D01*
X128918773Y-92246716D01*
X128931342Y-92240118D01*
X128933437Y-92238591D01*
X128936367Y-92230782D01*
X128941213Y-92212058D01*
X128947680Y-92183812D01*
X128955470Y-92147436D01*
X128964288Y-92104320D01*
X128973836Y-92055856D01*
X128983818Y-92003436D01*
X128985559Y-91994108D01*
X128995562Y-91940957D01*
X129005106Y-91891349D01*
X129013901Y-91846706D01*
X129021659Y-91808450D01*
X129028091Y-91778002D01*
X129032906Y-91756783D01*
X129035818Y-91746217D01*
X129036087Y-91745610D01*
X129038149Y-91742535D01*
X129041509Y-91740024D01*
X129047345Y-91738019D01*
X129056837Y-91736464D01*
X129071166Y-91735302D01*
X129091510Y-91734476D01*
X129119048Y-91733928D01*
X129154962Y-91733603D01*
X129200430Y-91733442D01*
X129256631Y-91733388D01*
X129289126Y-91733385D01*
X129351147Y-91733406D01*
G37*
G36*
X130757295Y-95445486D02*
G01*
X130794683Y-95453594D01*
X130822158Y-95466421D01*
X130842720Y-95479129D01*
X130830520Y-95495784D01*
X130819374Y-95510055D01*
X130804083Y-95528505D01*
X130794309Y-95539863D01*
X130770297Y-95567286D01*
X130750512Y-95557054D01*
X130725575Y-95549096D01*
X130696885Y-95547181D01*
X130669775Y-95551232D01*
X130653180Y-95558468D01*
X130642270Y-95565898D01*
X130633622Y-95573178D01*
X130626943Y-95581801D01*
X130621940Y-95593263D01*
X130618320Y-95609055D01*
X130615791Y-95630674D01*
X130614058Y-95659612D01*
X130612830Y-95697364D01*
X130611813Y-95745424D01*
X130611326Y-95771878D01*
X130608200Y-95943796D01*
X130556625Y-95945611D01*
X130505050Y-95947427D01*
X130505050Y-95446293D01*
X130556625Y-95448108D01*
X130608200Y-95449924D01*
X130611326Y-95474400D01*
X130613804Y-95489413D01*
X130616912Y-95493819D01*
X130622185Y-95489481D01*
X130622969Y-95488542D01*
X130648175Y-95467131D01*
X130680995Y-95452593D01*
X130718384Y-95445265D01*
X130757295Y-95445486D01*
G37*
G36*
X126917924Y-95599908D02*
G01*
X126928378Y-95564103D01*
X126944249Y-95533849D01*
X126966248Y-95506975D01*
X126975719Y-95497789D01*
X127015089Y-95469134D01*
X127058116Y-95451034D01*
X127103003Y-95443129D01*
X127147955Y-95445056D01*
X127191176Y-95456456D01*
X127230871Y-95476967D01*
X127265243Y-95506228D01*
X127292497Y-95543878D01*
X127301926Y-95563377D01*
X127309106Y-95588811D01*
X127314084Y-95623300D01*
X127316863Y-95663595D01*
X127317445Y-95706443D01*
X127315834Y-95748595D01*
X127312031Y-95786798D01*
X127306041Y-95817802D01*
X127301695Y-95830896D01*
X127279178Y-95870289D01*
X127248097Y-95903732D01*
X127211070Y-95928783D01*
X127185483Y-95939277D01*
X127148255Y-95947121D01*
X127107686Y-95949788D01*
X127072458Y-95947036D01*
X127027470Y-95932863D01*
X126986457Y-95907032D01*
X126970899Y-95893091D01*
X126947617Y-95865840D01*
X126930568Y-95835065D01*
X126919113Y-95798692D01*
X126912611Y-95754644D01*
X126910424Y-95700846D01*
X126910416Y-95696860D01*
X127013566Y-95696860D01*
X127014347Y-95737214D01*
X127017187Y-95767524D01*
X127022830Y-95790180D01*
X127032023Y-95807574D01*
X127045509Y-95822094D01*
X127054969Y-95829678D01*
X127082617Y-95843083D01*
X127115090Y-95847697D01*
X127148301Y-95843496D01*
X127178158Y-95830454D01*
X127178193Y-95830431D01*
X127193929Y-95815791D01*
X127205182Y-95794494D01*
X127212390Y-95765015D01*
X127215991Y-95725827D01*
X127216604Y-95696622D01*
X127216359Y-95663832D01*
X127215189Y-95640421D01*
X127212657Y-95623273D01*
X127208328Y-95609271D01*
X127202675Y-95597059D01*
X127183162Y-95571171D01*
X127157431Y-95554271D01*
X127127961Y-95546361D01*
X127097228Y-95547446D01*
X127067709Y-95557528D01*
X127041882Y-95576609D01*
X127026407Y-95596856D01*
X127020893Y-95607818D01*
X127017198Y-95620236D01*
X127014976Y-95636807D01*
X127013882Y-95660228D01*
X127013568Y-95693198D01*
X127013566Y-95696860D01*
X126910416Y-95696860D01*
X126912174Y-95643437D01*
X126917924Y-95599908D01*
G37*
G36*
X129511506Y-95638460D02*
G01*
X129516502Y-95599000D01*
X129524405Y-95567404D01*
X129526555Y-95561796D01*
X129549754Y-95521152D01*
X129580843Y-95488667D01*
X129618002Y-95464621D01*
X129659414Y-95449294D01*
X129703257Y-95442968D01*
X129747715Y-95445922D01*
X129790966Y-95458438D01*
X129831192Y-95480796D01*
X129863529Y-95509813D01*
X129881421Y-95531655D01*
X129894676Y-95553350D01*
X129903932Y-95577289D01*
X129909824Y-95605867D01*
X129912988Y-95641476D01*
X129914061Y-95686509D01*
X129914076Y-95699986D01*
X129913784Y-95737881D01*
X129912898Y-95765993D01*
X129911118Y-95787039D01*
X129908143Y-95803735D01*
X129903674Y-95818799D01*
X129899811Y-95829035D01*
X129881370Y-95862013D01*
X129854392Y-95893539D01*
X129822615Y-95919797D01*
X129796858Y-95934182D01*
X129762214Y-95944546D01*
X129721970Y-95949441D01*
X129682045Y-95948265D01*
X129672256Y-95946858D01*
X129626169Y-95932832D01*
X129585489Y-95908331D01*
X129552048Y-95874762D01*
X129529063Y-95836669D01*
X129519981Y-95808055D01*
X129513654Y-95770582D01*
X129510112Y-95727596D01*
X129509614Y-95696622D01*
X129611217Y-95696622D01*
X129612648Y-95742243D01*
X129617290Y-95777237D01*
X129625962Y-95803248D01*
X129639484Y-95821919D01*
X129658675Y-95834895D01*
X129684355Y-95843820D01*
X129684593Y-95843881D01*
X129721133Y-95847735D01*
X129754176Y-95840316D01*
X129773136Y-95829466D01*
X129789187Y-95815558D01*
X129800564Y-95800017D01*
X129808008Y-95780462D01*
X129812256Y-95754510D01*
X129814048Y-95719778D01*
X129814255Y-95696860D01*
X129813996Y-95662861D01*
X129812989Y-95638662D01*
X129810888Y-95621566D01*
X129807345Y-95608874D01*
X129802015Y-95597891D01*
X129801414Y-95596856D01*
X129778888Y-95569289D01*
X129750170Y-95552568D01*
X129715487Y-95546825D01*
X129714771Y-95546823D01*
X129678643Y-95551473D01*
X129650344Y-95565670D01*
X129629209Y-95589788D01*
X129625146Y-95597059D01*
X129618871Y-95610870D01*
X129614778Y-95625081D01*
X129612430Y-95642809D01*
X129611393Y-95667170D01*
X129611217Y-95696622D01*
X129509614Y-95696622D01*
X129509386Y-95682440D01*
X129511506Y-95638460D01*
G37*
G36*
X127893894Y-95563101D02*
G01*
X127915798Y-95522073D01*
X127936152Y-95497288D01*
X127972052Y-95469782D01*
X128013372Y-95452143D01*
X128057907Y-95444332D01*
X128103448Y-95446312D01*
X128147787Y-95458044D01*
X128188717Y-95479489D01*
X128216090Y-95502165D01*
X128242648Y-95534759D01*
X128261600Y-95572594D01*
X128273514Y-95617407D01*
X128278960Y-95670930D01*
X128279455Y-95695297D01*
X128279502Y-95734369D01*
X127966359Y-95734369D01*
X127970532Y-95757812D01*
X127981862Y-95793670D01*
X128001116Y-95822031D01*
X128026314Y-95840645D01*
X128062809Y-95851639D01*
X128102307Y-95851834D01*
X128142179Y-95841592D01*
X128179796Y-95821275D01*
X128182864Y-95819052D01*
X128190121Y-95814788D01*
X128197438Y-95814842D01*
X128207584Y-95820362D01*
X128223330Y-95832494D01*
X128231488Y-95839185D01*
X128267349Y-95868777D01*
X128238857Y-95894966D01*
X128216872Y-95912007D01*
X128191673Y-95927062D01*
X128177701Y-95933376D01*
X128142580Y-95943114D01*
X128102941Y-95948766D01*
X128064307Y-95949811D01*
X128036516Y-95946715D01*
X127993452Y-95932874D01*
X127954373Y-95910949D01*
X127931209Y-95891443D01*
X127905244Y-95856730D01*
X127886207Y-95814000D01*
X127874068Y-95765625D01*
X127868797Y-95713975D01*
X127870364Y-95661424D01*
X127871729Y-95653099D01*
X127967238Y-95653099D01*
X128173226Y-95653099D01*
X128173226Y-95635328D01*
X128168339Y-95611179D01*
X128155667Y-95585635D01*
X128138195Y-95563653D01*
X128123156Y-95552170D01*
X128094414Y-95542494D01*
X128062499Y-95540741D01*
X128032371Y-95546794D01*
X128016299Y-95554720D01*
X127994016Y-95576597D01*
X127977796Y-95607361D01*
X127970906Y-95632781D01*
X127967238Y-95653099D01*
X127871729Y-95653099D01*
X127878740Y-95610342D01*
X127893894Y-95563101D01*
G37*
G36*
X128620442Y-95446882D02*
G01*
X128656102Y-95457112D01*
X128663972Y-95460819D01*
X128698855Y-95483184D01*
X128724806Y-95511025D01*
X128743344Y-95543697D01*
X128747470Y-95553130D01*
X128750745Y-95562541D01*
X128753289Y-95573486D01*
X128755218Y-95587524D01*
X128756651Y-95606211D01*
X128757704Y-95631104D01*
X128758497Y-95663759D01*
X128759146Y-95705735D01*
X128759770Y-95758587D01*
X128759799Y-95761199D01*
X128761853Y-95947443D01*
X128709787Y-95945619D01*
X128657720Y-95943796D01*
X128654595Y-95775004D01*
X128653575Y-95723895D01*
X128652549Y-95683741D01*
X128651394Y-95652997D01*
X128649989Y-95630116D01*
X128648209Y-95613551D01*
X128645933Y-95601755D01*
X128643038Y-95593182D01*
X128639681Y-95586742D01*
X128619871Y-95563841D01*
X128593501Y-95550765D01*
X128561109Y-95546823D01*
X128527441Y-95550614D01*
X128501657Y-95562786D01*
X128481404Y-95584537D01*
X128478592Y-95588869D01*
X128474193Y-95596343D01*
X128470752Y-95603994D01*
X128468127Y-95613420D01*
X128466179Y-95626222D01*
X128464768Y-95644000D01*
X128463755Y-95668355D01*
X128462999Y-95700886D01*
X128462361Y-95743193D01*
X128461906Y-95779693D01*
X128459890Y-95946921D01*
X128360772Y-95946921D01*
X128360772Y-95446798D01*
X128460797Y-95446798D01*
X128460797Y-95471804D01*
X128462096Y-95489629D01*
X128466851Y-95495696D01*
X128476349Y-95490500D01*
X128485655Y-95481339D01*
X128511534Y-95462183D01*
X128544838Y-95449800D01*
X128582247Y-95444572D01*
X128620442Y-95446882D01*
G37*
G36*
X129608897Y-96403002D02*
G01*
X129623066Y-96446228D01*
X129636158Y-96485047D01*
X129647658Y-96518018D01*
X129657048Y-96543696D01*
X129663813Y-96560638D01*
X129667434Y-96567400D01*
X129667744Y-96567395D01*
X129670441Y-96560314D01*
X129675879Y-96542806D01*
X129683581Y-96516524D01*
X129693070Y-96483124D01*
X129703867Y-96444260D01*
X129714192Y-96406409D01*
X129725730Y-96363880D01*
X129736300Y-96325149D01*
X129745434Y-96291913D01*
X129752664Y-96265867D01*
X129757522Y-96248707D01*
X129759463Y-96242306D01*
X129766500Y-96237953D01*
X129784142Y-96235390D01*
X129813263Y-96234495D01*
X129815593Y-96234492D01*
X129842597Y-96234977D01*
X129858722Y-96236595D01*
X129865557Y-96239595D01*
X129865810Y-96242306D01*
X129863068Y-96250505D01*
X129857194Y-96268612D01*
X129848836Y-96294618D01*
X129838638Y-96326513D01*
X129827248Y-96362288D01*
X129827133Y-96362649D01*
X129813173Y-96406526D01*
X129796840Y-96457767D01*
X129779585Y-96511832D01*
X129762855Y-96564180D01*
X129750824Y-96601770D01*
X129710272Y-96728364D01*
X129620124Y-96728364D01*
X129570625Y-96562315D01*
X129557580Y-96518932D01*
X129545537Y-96479601D01*
X129534992Y-96445880D01*
X129526436Y-96419325D01*
X129520366Y-96401492D01*
X129517274Y-96393938D01*
X129517145Y-96393806D01*
X129514412Y-96398899D01*
X129508679Y-96414504D01*
X129500431Y-96439128D01*
X129490155Y-96471276D01*
X129478337Y-96509454D01*
X129465463Y-96552166D01*
X129463643Y-96558291D01*
X129414123Y-96725238D01*
X129368726Y-96727076D01*
X129342579Y-96727366D01*
X129327095Y-96725492D01*
X129320583Y-96721237D01*
X129320413Y-96720825D01*
X129317099Y-96710944D01*
X129310681Y-96691200D01*
X129301648Y-96663135D01*
X129290488Y-96628289D01*
X129277692Y-96588204D01*
X129263747Y-96544421D01*
X129249143Y-96498480D01*
X129234369Y-96451923D01*
X129219913Y-96406290D01*
X129206265Y-96363123D01*
X129193914Y-96323962D01*
X129183348Y-96290349D01*
X129175056Y-96263824D01*
X129169528Y-96245929D01*
X129167252Y-96238205D01*
X129167221Y-96238029D01*
X129172992Y-96236426D01*
X129188387Y-96235203D01*
X129210526Y-96234550D01*
X129220065Y-96234492D01*
X129272909Y-96234492D01*
X129278448Y-96254810D01*
X129281600Y-96266430D01*
X129287486Y-96288182D01*
X129295582Y-96318124D01*
X129305362Y-96354316D01*
X129316303Y-96394819D01*
X129324065Y-96423565D01*
X129335233Y-96464475D01*
X129345456Y-96501062D01*
X129354258Y-96531694D01*
X129361165Y-96554741D01*
X129365701Y-96568573D01*
X129367270Y-96571917D01*
X129369908Y-96566185D01*
X129375805Y-96550040D01*
X129384449Y-96524989D01*
X129395330Y-96492542D01*
X129407936Y-96454207D01*
X129421757Y-96411491D01*
X129423927Y-96404724D01*
X129477459Y-96237618D01*
X129515839Y-96235764D01*
X129554219Y-96233911D01*
X129608897Y-96403002D01*
G37*
G36*
X130106230Y-95618023D02*
G01*
X130106826Y-95669054D01*
X130107463Y-95709104D01*
X130108263Y-95739694D01*
X130109342Y-95762346D01*
X130110819Y-95778580D01*
X130112814Y-95789918D01*
X130115445Y-95797882D01*
X130118831Y-95803993D01*
X130120967Y-95806994D01*
X130142121Y-95830186D01*
X130164753Y-95843097D01*
X130192631Y-95847738D01*
X130197515Y-95847845D01*
X130232195Y-95843554D01*
X130259314Y-95829627D01*
X130280032Y-95805387D01*
X130284683Y-95796980D01*
X130288974Y-95788003D01*
X130292291Y-95778969D01*
X130294759Y-95768197D01*
X130296504Y-95754008D01*
X130297649Y-95734721D01*
X130298321Y-95708655D01*
X130298644Y-95674131D01*
X130298744Y-95629468D01*
X130298749Y-95608014D01*
X130298749Y-95446798D01*
X130398774Y-95446798D01*
X130398774Y-95946921D01*
X130298749Y-95946921D01*
X130298749Y-95897754D01*
X130267699Y-95918650D01*
X130226748Y-95939917D01*
X130184322Y-95950291D01*
X130142687Y-95949289D01*
X130133083Y-95947307D01*
X130089802Y-95930638D01*
X130053647Y-95903845D01*
X130025395Y-95867573D01*
X130016235Y-95850022D01*
X130012111Y-95840638D01*
X130008862Y-95831436D01*
X130006383Y-95820855D01*
X130004569Y-95807328D01*
X130003318Y-95789292D01*
X130002523Y-95765183D01*
X130002080Y-95733436D01*
X130001886Y-95692487D01*
X130001835Y-95640771D01*
X130001833Y-95634344D01*
X130001801Y-95449924D01*
X130053092Y-95448113D01*
X130104384Y-95446302D01*
X130106230Y-95618023D01*
G37*
G36*
X128664604Y-96238084D02*
G01*
X128678038Y-96243643D01*
X128695721Y-96252697D01*
X128707637Y-96260371D01*
X128710859Y-96264103D01*
X128707110Y-96270956D01*
X128697104Y-96284800D01*
X128682699Y-96303116D01*
X128676211Y-96311025D01*
X128641564Y-96352766D01*
X128621510Y-96340539D01*
X128592073Y-96329323D01*
X128561339Y-96329030D01*
X128532211Y-96338808D01*
X128507596Y-96357807D01*
X128493618Y-96378039D01*
X128489326Y-96387062D01*
X128486009Y-96396136D01*
X128483541Y-96406943D01*
X128481797Y-96421165D01*
X128480651Y-96440483D01*
X128479980Y-96466579D01*
X128479657Y-96501135D01*
X128479557Y-96545833D01*
X128479552Y-96567148D01*
X128479552Y-96728364D01*
X128379527Y-96728364D01*
X128379527Y-96234492D01*
X128479552Y-96234492D01*
X128479552Y-96285479D01*
X128504510Y-96264115D01*
X128539677Y-96241909D01*
X128579812Y-96229965D01*
X128622320Y-96228588D01*
X128664604Y-96238084D01*
G37*
G36*
X130754023Y-96329243D02*
G01*
X130781117Y-96289736D01*
X130815701Y-96259773D01*
X130857421Y-96239742D01*
X130905924Y-96230027D01*
X130912192Y-96229572D01*
X130964552Y-96231762D01*
X131010924Y-96244766D01*
X131050865Y-96268336D01*
X131083934Y-96302225D01*
X131105860Y-96338040D01*
X131114994Y-96357609D01*
X131121105Y-96374495D01*
X131124949Y-96392369D01*
X131127280Y-96414901D01*
X131128853Y-96445763D01*
X131129051Y-96450836D01*
X131131777Y-96522063D01*
X130822232Y-96522063D01*
X130825723Y-96548091D01*
X130835956Y-96579845D01*
X130856246Y-96606784D01*
X130884449Y-96626814D01*
X130917567Y-96637702D01*
X130945311Y-96637929D01*
X130977054Y-96631553D01*
X131007300Y-96620108D01*
X131028837Y-96606629D01*
X131047080Y-96591278D01*
X131080828Y-96619952D01*
X131097777Y-96634762D01*
X131110471Y-96646625D01*
X131116301Y-96653097D01*
X131116374Y-96653256D01*
X131113209Y-96660774D01*
X131101698Y-96672394D01*
X131084413Y-96686124D01*
X131063925Y-96699974D01*
X131042807Y-96711955D01*
X131036716Y-96714895D01*
X131005620Y-96725135D01*
X130968094Y-96731480D01*
X130928902Y-96733604D01*
X130892808Y-96731181D01*
X130870765Y-96726229D01*
X130830568Y-96709912D01*
X130799273Y-96689475D01*
X130773364Y-96662242D01*
X130758506Y-96640842D01*
X130739988Y-96601828D01*
X130727521Y-96554463D01*
X130721588Y-96501588D01*
X130722669Y-96446044D01*
X130723715Y-96435349D01*
X130723871Y-96434541D01*
X130822232Y-96434541D01*
X131029867Y-96434541D01*
X131025995Y-96414224D01*
X131013943Y-96377287D01*
X130994100Y-96349292D01*
X130967408Y-96331018D01*
X130934808Y-96323240D01*
X130916083Y-96323577D01*
X130881879Y-96332467D01*
X130854280Y-96351012D01*
X130834919Y-96377679D01*
X130825723Y-96408513D01*
X130822232Y-96434541D01*
X130723871Y-96434541D01*
X130734771Y-96377909D01*
X130754023Y-96329243D01*
G37*
%TD*%
M02*
