%FSLAX45Y45*%
G04 Gerber Fmt 4.5, Leading zero omitted, Abs format (unit mm)*
G04 Created by KiCad (PCBNEW (6.0.0)) date 2022-01-04 00:39:45*
%MOMM*%
%LPD*%
G01*
G04 APERTURE LIST*
%TA.AperFunction,Profile*%
%ADD10C,0.100000*%
%TD*%
%ADD11C,0.200000*%
%ADD12C,0.040000*%
%ADD13C,0.092000*%
%ADD14C,0.100000*%
%ADD15C,0.226000*%
G04 APERTURE END LIST*
D10*
X11226800Y-7238154D02*
X13589000Y-7239000D01*
X11226800Y-7238154D02*
G75*
G03*
X10845800Y-7594600I0J-381846D01*
G01*
X13970000Y-7620000D02*
G75*
G03*
X13589000Y-7239000I-381000J0D01*
G01*
X10845800Y-10210800D02*
G75*
G03*
X11226800Y-10591800I381000J0D01*
G01*
X13970000Y-10210800D02*
X13970000Y-7620000D01*
X13589000Y-10591800D02*
X11226800Y-10591800D01*
X13589000Y-10591800D02*
G75*
G03*
X13970000Y-10210800I0J381000D01*
G01*
X10845800Y-10210800D02*
X10845800Y-7594600D01*
D11*
D12*
X12553000Y-9200200D02*
X12593000Y-9240200D01*
X12593000Y-9200200D02*
X12553000Y-9240200D01*
D13*
X12197150Y-8549250D02*
G75*
G03*
X12197150Y-8549250I-46000J0D01*
G01*
X12197150Y-8799250D02*
G75*
G03*
X12197150Y-8799250I-46000J0D01*
G01*
X12197150Y-8999250D02*
G75*
G03*
X12197150Y-8999250I-46000J0D01*
G01*
X12197150Y-9249250D02*
G75*
G03*
X12197150Y-9249250I-46000J0D01*
G01*
D14*
X13766800Y-8408200D02*
X13766800Y-8508200D01*
X13716800Y-8458200D02*
X13816800Y-8458200D01*
X13766800Y-8662200D02*
X13766800Y-8762200D01*
X13716800Y-8712200D02*
X13816800Y-8712200D01*
X13766800Y-8916200D02*
X13766800Y-9016200D01*
X13716800Y-8966200D02*
X13816800Y-8966200D01*
X13766800Y-9170200D02*
X13766800Y-9270200D01*
X13716800Y-9220200D02*
X13816800Y-9220200D01*
D15*
X11960054Y-8322154D02*
X11960054Y-8162346D01*
X11800246Y-8162346D01*
X11800246Y-8322154D01*
X11960054Y-8322154D01*
X11960054Y-9636154D02*
X11960054Y-9476346D01*
X11800246Y-9476346D01*
X11800246Y-9636154D01*
X11960054Y-9636154D01*
D11*
X11098419Y-10907276D02*
X11098419Y-10707276D01*
X11146038Y-10707276D01*
X11174610Y-10716800D01*
X11193657Y-10735848D01*
X11203181Y-10754895D01*
X11212705Y-10792990D01*
X11212705Y-10821562D01*
X11203181Y-10859657D01*
X11193657Y-10878705D01*
X11174610Y-10897752D01*
X11146038Y-10907276D01*
X11098419Y-10907276D01*
X11298419Y-10907276D02*
X11298419Y-10773943D01*
X11298419Y-10812038D02*
X11307943Y-10792990D01*
X11317467Y-10783467D01*
X11336514Y-10773943D01*
X11355562Y-10773943D01*
X11422228Y-10907276D02*
X11422228Y-10773943D01*
X11422228Y-10707276D02*
X11412705Y-10716800D01*
X11422228Y-10726324D01*
X11431752Y-10716800D01*
X11422228Y-10707276D01*
X11422228Y-10726324D01*
X11546038Y-10907276D02*
X11526990Y-10897752D01*
X11517467Y-10878705D01*
X11517467Y-10707276D01*
X11650800Y-10907276D02*
X11631752Y-10897752D01*
X11622228Y-10878705D01*
X11622228Y-10707276D01*
X11879371Y-10907276D02*
X11879371Y-10707276D01*
X11946038Y-10850133D01*
X12012705Y-10707276D01*
X12012705Y-10907276D01*
X12193657Y-10907276D02*
X12193657Y-10802514D01*
X12184133Y-10783467D01*
X12165086Y-10773943D01*
X12126990Y-10773943D01*
X12107943Y-10783467D01*
X12193657Y-10897752D02*
X12174609Y-10907276D01*
X12126990Y-10907276D01*
X12107943Y-10897752D01*
X12098419Y-10878705D01*
X12098419Y-10859657D01*
X12107943Y-10840610D01*
X12126990Y-10831086D01*
X12174609Y-10831086D01*
X12193657Y-10821562D01*
X12288895Y-10773943D02*
X12288895Y-10973943D01*
X12288895Y-10783467D02*
X12307943Y-10773943D01*
X12346038Y-10773943D01*
X12365086Y-10783467D01*
X12374609Y-10792990D01*
X12384133Y-10812038D01*
X12384133Y-10869181D01*
X12374609Y-10888229D01*
X12365086Y-10897752D01*
X12346038Y-10907276D01*
X12307943Y-10907276D01*
X12288895Y-10897752D01*
X12469848Y-10888229D02*
X12479371Y-10897752D01*
X12469848Y-10907276D01*
X12460324Y-10897752D01*
X12469848Y-10888229D01*
X12469848Y-10907276D01*
X12469848Y-10783467D02*
X12479371Y-10792990D01*
X12469848Y-10802514D01*
X12460324Y-10792990D01*
X12469848Y-10783467D01*
X12469848Y-10802514D01*
D12*
X10800800Y-11216800D02*
X10840800Y-11256800D01*
X10840800Y-11216800D02*
X10800800Y-11256800D01*
D11*
X11136514Y-11127276D02*
X11155562Y-11127276D01*
X11174610Y-11136800D01*
X11184133Y-11146324D01*
X11193657Y-11165371D01*
X11203181Y-11203467D01*
X11203181Y-11251086D01*
X11193657Y-11289181D01*
X11184133Y-11308228D01*
X11174610Y-11317752D01*
X11155562Y-11327276D01*
X11136514Y-11327276D01*
X11117467Y-11317752D01*
X11107943Y-11308228D01*
X11098419Y-11289181D01*
X11088895Y-11251086D01*
X11088895Y-11203467D01*
X11098419Y-11165371D01*
X11107943Y-11146324D01*
X11117467Y-11136800D01*
X11136514Y-11127276D01*
X11288895Y-11308228D02*
X11298419Y-11317752D01*
X11288895Y-11327276D01*
X11279371Y-11317752D01*
X11288895Y-11308228D01*
X11288895Y-11327276D01*
X11469848Y-11193943D02*
X11469848Y-11327276D01*
X11422228Y-11117752D02*
X11374609Y-11260609D01*
X11498419Y-11260609D01*
X11612705Y-11127276D02*
X11631752Y-11127276D01*
X11650800Y-11136800D01*
X11660324Y-11146324D01*
X11669848Y-11165371D01*
X11679371Y-11203467D01*
X11679371Y-11251086D01*
X11669848Y-11289181D01*
X11660324Y-11308228D01*
X11650800Y-11317752D01*
X11631752Y-11327276D01*
X11612705Y-11327276D01*
X11593657Y-11317752D01*
X11584133Y-11308228D01*
X11574609Y-11289181D01*
X11565086Y-11251086D01*
X11565086Y-11203467D01*
X11574609Y-11165371D01*
X11584133Y-11146324D01*
X11593657Y-11136800D01*
X11612705Y-11127276D01*
X11803181Y-11127276D02*
X11822228Y-11127276D01*
X11841276Y-11136800D01*
X11850800Y-11146324D01*
X11860324Y-11165371D01*
X11869848Y-11203467D01*
X11869848Y-11251086D01*
X11860324Y-11289181D01*
X11850800Y-11308228D01*
X11841276Y-11317752D01*
X11822228Y-11327276D01*
X11803181Y-11327276D01*
X11784133Y-11317752D01*
X11774609Y-11308228D01*
X11765086Y-11289181D01*
X11755562Y-11251086D01*
X11755562Y-11203467D01*
X11765086Y-11165371D01*
X11774609Y-11146324D01*
X11784133Y-11136800D01*
X11803181Y-11127276D01*
X11955562Y-11327276D02*
X11955562Y-11193943D01*
X11955562Y-11212990D02*
X11965086Y-11203467D01*
X11984133Y-11193943D01*
X12012705Y-11193943D01*
X12031752Y-11203467D01*
X12041276Y-11222514D01*
X12041276Y-11327276D01*
X12041276Y-11222514D02*
X12050800Y-11203467D01*
X12069848Y-11193943D01*
X12098419Y-11193943D01*
X12117467Y-11203467D01*
X12126990Y-11222514D01*
X12126990Y-11327276D01*
X12222228Y-11327276D02*
X12222228Y-11193943D01*
X12222228Y-11212990D02*
X12231752Y-11203467D01*
X12250800Y-11193943D01*
X12279371Y-11193943D01*
X12298419Y-11203467D01*
X12307943Y-11222514D01*
X12307943Y-11327276D01*
X12307943Y-11222514D02*
X12317467Y-11203467D01*
X12336514Y-11193943D01*
X12365086Y-11193943D01*
X12384133Y-11203467D01*
X12393657Y-11222514D01*
X12393657Y-11327276D01*
X12784133Y-11117752D02*
X12612705Y-11374895D01*
X13041276Y-11127276D02*
X13060324Y-11127276D01*
X13079371Y-11136800D01*
X13088895Y-11146324D01*
X13098419Y-11165371D01*
X13107943Y-11203467D01*
X13107943Y-11251086D01*
X13098419Y-11289181D01*
X13088895Y-11308228D01*
X13079371Y-11317752D01*
X13060324Y-11327276D01*
X13041276Y-11327276D01*
X13022228Y-11317752D01*
X13012705Y-11308228D01*
X13003181Y-11289181D01*
X12993657Y-11251086D01*
X12993657Y-11203467D01*
X13003181Y-11165371D01*
X13012705Y-11146324D01*
X13022228Y-11136800D01*
X13041276Y-11127276D01*
X13193657Y-11308228D02*
X13203181Y-11317752D01*
X13193657Y-11327276D01*
X13184133Y-11317752D01*
X13193657Y-11308228D01*
X13193657Y-11327276D01*
X13326990Y-11127276D02*
X13346038Y-11127276D01*
X13365086Y-11136800D01*
X13374609Y-11146324D01*
X13384133Y-11165371D01*
X13393657Y-11203467D01*
X13393657Y-11251086D01*
X13384133Y-11289181D01*
X13374609Y-11308228D01*
X13365086Y-11317752D01*
X13346038Y-11327276D01*
X13326990Y-11327276D01*
X13307943Y-11317752D01*
X13298419Y-11308228D01*
X13288895Y-11289181D01*
X13279371Y-11251086D01*
X13279371Y-11203467D01*
X13288895Y-11165371D01*
X13298419Y-11146324D01*
X13307943Y-11136800D01*
X13326990Y-11127276D01*
X13584133Y-11327276D02*
X13469848Y-11327276D01*
X13526990Y-11327276D02*
X13526990Y-11127276D01*
X13507943Y-11155848D01*
X13488895Y-11174895D01*
X13469848Y-11184419D01*
X13765086Y-11127276D02*
X13669848Y-11127276D01*
X13660324Y-11222514D01*
X13669848Y-11212990D01*
X13688895Y-11203467D01*
X13736514Y-11203467D01*
X13755562Y-11212990D01*
X13765086Y-11222514D01*
X13774609Y-11241562D01*
X13774609Y-11289181D01*
X13765086Y-11308228D01*
X13755562Y-11317752D01*
X13736514Y-11327276D01*
X13688895Y-11327276D01*
X13669848Y-11317752D01*
X13660324Y-11308228D01*
X13841276Y-11127276D02*
X13974609Y-11127276D01*
X13888895Y-11327276D01*
X14041276Y-11127276D02*
X14041276Y-11165371D01*
X14117467Y-11127276D02*
X14117467Y-11165371D01*
X14412705Y-11403467D02*
X14403181Y-11393943D01*
X14384133Y-11365371D01*
X14374609Y-11346324D01*
X14365086Y-11317752D01*
X14355562Y-11270133D01*
X14355562Y-11232038D01*
X14365086Y-11184419D01*
X14374609Y-11155848D01*
X14384133Y-11136800D01*
X14403181Y-11108229D01*
X14412705Y-11098705D01*
X14593657Y-11327276D02*
X14479371Y-11327276D01*
X14536514Y-11327276D02*
X14536514Y-11127276D01*
X14517467Y-11155848D01*
X14498419Y-11174895D01*
X14479371Y-11184419D01*
X14831752Y-11327276D02*
X14831752Y-11127276D01*
X14917467Y-11327276D02*
X14917467Y-11222514D01*
X14907943Y-11203467D01*
X14888895Y-11193943D01*
X14860324Y-11193943D01*
X14841276Y-11203467D01*
X14831752Y-11212990D01*
X15041276Y-11327276D02*
X15022228Y-11317752D01*
X15012705Y-11308228D01*
X15003181Y-11289181D01*
X15003181Y-11232038D01*
X15012705Y-11212990D01*
X15022228Y-11203467D01*
X15041276Y-11193943D01*
X15069848Y-11193943D01*
X15088895Y-11203467D01*
X15098419Y-11212990D01*
X15107943Y-11232038D01*
X15107943Y-11289181D01*
X15098419Y-11308228D01*
X15088895Y-11317752D01*
X15069848Y-11327276D01*
X15041276Y-11327276D01*
X15222228Y-11327276D02*
X15203181Y-11317752D01*
X15193657Y-11298705D01*
X15193657Y-11127276D01*
X15374609Y-11317752D02*
X15355562Y-11327276D01*
X15317467Y-11327276D01*
X15298419Y-11317752D01*
X15288895Y-11298705D01*
X15288895Y-11222514D01*
X15298419Y-11203467D01*
X15317467Y-11193943D01*
X15355562Y-11193943D01*
X15374609Y-11203467D01*
X15384133Y-11222514D01*
X15384133Y-11241562D01*
X15288895Y-11260609D01*
X15450800Y-11403467D02*
X15460324Y-11393943D01*
X15479371Y-11365371D01*
X15488895Y-11346324D01*
X15498419Y-11317752D01*
X15507943Y-11270133D01*
X15507943Y-11232038D01*
X15498419Y-11184419D01*
X15488895Y-11155848D01*
X15479371Y-11136800D01*
X15460324Y-11108229D01*
X15450800Y-11098705D01*
D13*
X10840800Y-11500800D02*
G75*
G03*
X10840800Y-11500800I-46000J0D01*
G01*
D11*
X11136514Y-11391276D02*
X11155562Y-11391276D01*
X11174610Y-11400800D01*
X11184133Y-11410324D01*
X11193657Y-11429371D01*
X11203181Y-11467467D01*
X11203181Y-11515086D01*
X11193657Y-11553181D01*
X11184133Y-11572228D01*
X11174610Y-11581752D01*
X11155562Y-11591276D01*
X11136514Y-11591276D01*
X11117467Y-11581752D01*
X11107943Y-11572228D01*
X11098419Y-11553181D01*
X11088895Y-11515086D01*
X11088895Y-11467467D01*
X11098419Y-11429371D01*
X11107943Y-11410324D01*
X11117467Y-11400800D01*
X11136514Y-11391276D01*
X11288895Y-11572228D02*
X11298419Y-11581752D01*
X11288895Y-11591276D01*
X11279371Y-11581752D01*
X11288895Y-11572228D01*
X11288895Y-11591276D01*
X11393657Y-11591276D02*
X11431752Y-11591276D01*
X11450800Y-11581752D01*
X11460324Y-11572228D01*
X11479371Y-11543657D01*
X11488895Y-11505562D01*
X11488895Y-11429371D01*
X11479371Y-11410324D01*
X11469848Y-11400800D01*
X11450800Y-11391276D01*
X11412705Y-11391276D01*
X11393657Y-11400800D01*
X11384133Y-11410324D01*
X11374609Y-11429371D01*
X11374609Y-11476990D01*
X11384133Y-11496038D01*
X11393657Y-11505562D01*
X11412705Y-11515086D01*
X11450800Y-11515086D01*
X11469848Y-11505562D01*
X11479371Y-11496038D01*
X11488895Y-11476990D01*
X11565086Y-11410324D02*
X11574609Y-11400800D01*
X11593657Y-11391276D01*
X11641276Y-11391276D01*
X11660324Y-11400800D01*
X11669848Y-11410324D01*
X11679371Y-11429371D01*
X11679371Y-11448419D01*
X11669848Y-11476990D01*
X11555562Y-11591276D01*
X11679371Y-11591276D01*
X11803181Y-11391276D02*
X11822228Y-11391276D01*
X11841276Y-11400800D01*
X11850800Y-11410324D01*
X11860324Y-11429371D01*
X11869848Y-11467467D01*
X11869848Y-11515086D01*
X11860324Y-11553181D01*
X11850800Y-11572228D01*
X11841276Y-11581752D01*
X11822228Y-11591276D01*
X11803181Y-11591276D01*
X11784133Y-11581752D01*
X11774609Y-11572228D01*
X11765086Y-11553181D01*
X11755562Y-11515086D01*
X11755562Y-11467467D01*
X11765086Y-11429371D01*
X11774609Y-11410324D01*
X11784133Y-11400800D01*
X11803181Y-11391276D01*
X11955562Y-11591276D02*
X11955562Y-11457943D01*
X11955562Y-11476990D02*
X11965086Y-11467467D01*
X11984133Y-11457943D01*
X12012705Y-11457943D01*
X12031752Y-11467467D01*
X12041276Y-11486514D01*
X12041276Y-11591276D01*
X12041276Y-11486514D02*
X12050800Y-11467467D01*
X12069848Y-11457943D01*
X12098419Y-11457943D01*
X12117467Y-11467467D01*
X12126990Y-11486514D01*
X12126990Y-11591276D01*
X12222228Y-11591276D02*
X12222228Y-11457943D01*
X12222228Y-11476990D02*
X12231752Y-11467467D01*
X12250800Y-11457943D01*
X12279371Y-11457943D01*
X12298419Y-11467467D01*
X12307943Y-11486514D01*
X12307943Y-11591276D01*
X12307943Y-11486514D02*
X12317467Y-11467467D01*
X12336514Y-11457943D01*
X12365086Y-11457943D01*
X12384133Y-11467467D01*
X12393657Y-11486514D01*
X12393657Y-11591276D01*
X12784133Y-11381752D02*
X12612705Y-11638895D01*
X13041276Y-11391276D02*
X13060324Y-11391276D01*
X13079371Y-11400800D01*
X13088895Y-11410324D01*
X13098419Y-11429371D01*
X13107943Y-11467467D01*
X13107943Y-11515086D01*
X13098419Y-11553181D01*
X13088895Y-11572228D01*
X13079371Y-11581752D01*
X13060324Y-11591276D01*
X13041276Y-11591276D01*
X13022228Y-11581752D01*
X13012705Y-11572228D01*
X13003181Y-11553181D01*
X12993657Y-11515086D01*
X12993657Y-11467467D01*
X13003181Y-11429371D01*
X13012705Y-11410324D01*
X13022228Y-11400800D01*
X13041276Y-11391276D01*
X13193657Y-11572228D02*
X13203181Y-11581752D01*
X13193657Y-11591276D01*
X13184133Y-11581752D01*
X13193657Y-11572228D01*
X13193657Y-11591276D01*
X13326990Y-11391276D02*
X13346038Y-11391276D01*
X13365086Y-11400800D01*
X13374609Y-11410324D01*
X13384133Y-11429371D01*
X13393657Y-11467467D01*
X13393657Y-11515086D01*
X13384133Y-11553181D01*
X13374609Y-11572228D01*
X13365086Y-11581752D01*
X13346038Y-11591276D01*
X13326990Y-11591276D01*
X13307943Y-11581752D01*
X13298419Y-11572228D01*
X13288895Y-11553181D01*
X13279371Y-11515086D01*
X13279371Y-11467467D01*
X13288895Y-11429371D01*
X13298419Y-11410324D01*
X13307943Y-11400800D01*
X13326990Y-11391276D01*
X13460324Y-11391276D02*
X13584133Y-11391276D01*
X13517467Y-11467467D01*
X13546038Y-11467467D01*
X13565086Y-11476990D01*
X13574609Y-11486514D01*
X13584133Y-11505562D01*
X13584133Y-11553181D01*
X13574609Y-11572228D01*
X13565086Y-11581752D01*
X13546038Y-11591276D01*
X13488895Y-11591276D01*
X13469848Y-11581752D01*
X13460324Y-11572228D01*
X13755562Y-11391276D02*
X13717467Y-11391276D01*
X13698419Y-11400800D01*
X13688895Y-11410324D01*
X13669848Y-11438895D01*
X13660324Y-11476990D01*
X13660324Y-11553181D01*
X13669848Y-11572228D01*
X13679371Y-11581752D01*
X13698419Y-11591276D01*
X13736514Y-11591276D01*
X13755562Y-11581752D01*
X13765086Y-11572228D01*
X13774609Y-11553181D01*
X13774609Y-11505562D01*
X13765086Y-11486514D01*
X13755562Y-11476990D01*
X13736514Y-11467467D01*
X13698419Y-11467467D01*
X13679371Y-11476990D01*
X13669848Y-11486514D01*
X13660324Y-11505562D01*
X13850800Y-11410324D02*
X13860324Y-11400800D01*
X13879371Y-11391276D01*
X13926990Y-11391276D01*
X13946038Y-11400800D01*
X13955562Y-11410324D01*
X13965086Y-11429371D01*
X13965086Y-11448419D01*
X13955562Y-11476990D01*
X13841276Y-11591276D01*
X13965086Y-11591276D01*
X14041276Y-11391276D02*
X14041276Y-11429371D01*
X14117467Y-11391276D02*
X14117467Y-11429371D01*
X14412705Y-11667467D02*
X14403181Y-11657943D01*
X14384133Y-11629371D01*
X14374609Y-11610324D01*
X14365086Y-11581752D01*
X14355562Y-11534133D01*
X14355562Y-11496038D01*
X14365086Y-11448419D01*
X14374609Y-11419848D01*
X14384133Y-11400800D01*
X14403181Y-11372228D01*
X14412705Y-11362705D01*
X14574609Y-11457943D02*
X14574609Y-11591276D01*
X14526990Y-11381752D02*
X14479371Y-11524609D01*
X14603181Y-11524609D01*
X14831752Y-11591276D02*
X14831752Y-11391276D01*
X14917467Y-11591276D02*
X14917467Y-11486514D01*
X14907943Y-11467467D01*
X14888895Y-11457943D01*
X14860324Y-11457943D01*
X14841276Y-11467467D01*
X14831752Y-11476990D01*
X15041276Y-11591276D02*
X15022228Y-11581752D01*
X15012705Y-11572228D01*
X15003181Y-11553181D01*
X15003181Y-11496038D01*
X15012705Y-11476990D01*
X15022228Y-11467467D01*
X15041276Y-11457943D01*
X15069848Y-11457943D01*
X15088895Y-11467467D01*
X15098419Y-11476990D01*
X15107943Y-11496038D01*
X15107943Y-11553181D01*
X15098419Y-11572228D01*
X15088895Y-11581752D01*
X15069848Y-11591276D01*
X15041276Y-11591276D01*
X15222228Y-11591276D02*
X15203181Y-11581752D01*
X15193657Y-11562705D01*
X15193657Y-11391276D01*
X15374609Y-11581752D02*
X15355562Y-11591276D01*
X15317467Y-11591276D01*
X15298419Y-11581752D01*
X15288895Y-11562705D01*
X15288895Y-11486514D01*
X15298419Y-11467467D01*
X15317467Y-11457943D01*
X15355562Y-11457943D01*
X15374609Y-11467467D01*
X15384133Y-11486514D01*
X15384133Y-11505562D01*
X15288895Y-11524609D01*
X15460324Y-11581752D02*
X15479371Y-11591276D01*
X15517467Y-11591276D01*
X15536514Y-11581752D01*
X15546038Y-11562705D01*
X15546038Y-11553181D01*
X15536514Y-11534133D01*
X15517467Y-11524609D01*
X15488895Y-11524609D01*
X15469848Y-11515086D01*
X15460324Y-11496038D01*
X15460324Y-11486514D01*
X15469848Y-11467467D01*
X15488895Y-11457943D01*
X15517467Y-11457943D01*
X15536514Y-11467467D01*
X15612705Y-11667467D02*
X15622228Y-11657943D01*
X15641276Y-11629371D01*
X15650800Y-11610324D01*
X15660324Y-11581752D01*
X15669848Y-11534133D01*
X15669848Y-11496038D01*
X15660324Y-11448419D01*
X15650800Y-11419848D01*
X15641276Y-11400800D01*
X15622228Y-11372228D01*
X15612705Y-11362705D01*
D14*
X10790800Y-11714800D02*
X10790800Y-11814800D01*
X10740800Y-11764800D02*
X10840800Y-11764800D01*
D11*
X11203181Y-11855276D02*
X11088895Y-11855276D01*
X11146038Y-11855276D02*
X11146038Y-11655276D01*
X11126990Y-11683848D01*
X11107943Y-11702895D01*
X11088895Y-11712419D01*
X11288895Y-11836228D02*
X11298419Y-11845752D01*
X11288895Y-11855276D01*
X11279371Y-11845752D01*
X11288895Y-11836228D01*
X11288895Y-11855276D01*
X11422228Y-11655276D02*
X11441276Y-11655276D01*
X11460324Y-11664800D01*
X11469848Y-11674324D01*
X11479371Y-11693371D01*
X11488895Y-11731467D01*
X11488895Y-11779086D01*
X11479371Y-11817181D01*
X11469848Y-11836228D01*
X11460324Y-11845752D01*
X11441276Y-11855276D01*
X11422228Y-11855276D01*
X11403181Y-11845752D01*
X11393657Y-11836228D01*
X11384133Y-11817181D01*
X11374609Y-11779086D01*
X11374609Y-11731467D01*
X11384133Y-11693371D01*
X11393657Y-11674324D01*
X11403181Y-11664800D01*
X11422228Y-11655276D01*
X11612705Y-11655276D02*
X11631752Y-11655276D01*
X11650800Y-11664800D01*
X11660324Y-11674324D01*
X11669848Y-11693371D01*
X11679371Y-11731467D01*
X11679371Y-11779086D01*
X11669848Y-11817181D01*
X11660324Y-11836228D01*
X11650800Y-11845752D01*
X11631752Y-11855276D01*
X11612705Y-11855276D01*
X11593657Y-11845752D01*
X11584133Y-11836228D01*
X11574609Y-11817181D01*
X11565086Y-11779086D01*
X11565086Y-11731467D01*
X11574609Y-11693371D01*
X11584133Y-11674324D01*
X11593657Y-11664800D01*
X11612705Y-11655276D01*
X11803181Y-11655276D02*
X11822228Y-11655276D01*
X11841276Y-11664800D01*
X11850800Y-11674324D01*
X11860324Y-11693371D01*
X11869848Y-11731467D01*
X11869848Y-11779086D01*
X11860324Y-11817181D01*
X11850800Y-11836228D01*
X11841276Y-11845752D01*
X11822228Y-11855276D01*
X11803181Y-11855276D01*
X11784133Y-11845752D01*
X11774609Y-11836228D01*
X11765086Y-11817181D01*
X11755562Y-11779086D01*
X11755562Y-11731467D01*
X11765086Y-11693371D01*
X11774609Y-11674324D01*
X11784133Y-11664800D01*
X11803181Y-11655276D01*
X11955562Y-11855276D02*
X11955562Y-11721943D01*
X11955562Y-11740990D02*
X11965086Y-11731467D01*
X11984133Y-11721943D01*
X12012705Y-11721943D01*
X12031752Y-11731467D01*
X12041276Y-11750514D01*
X12041276Y-11855276D01*
X12041276Y-11750514D02*
X12050800Y-11731467D01*
X12069848Y-11721943D01*
X12098419Y-11721943D01*
X12117467Y-11731467D01*
X12126990Y-11750514D01*
X12126990Y-11855276D01*
X12222228Y-11855276D02*
X12222228Y-11721943D01*
X12222228Y-11740990D02*
X12231752Y-11731467D01*
X12250800Y-11721943D01*
X12279371Y-11721943D01*
X12298419Y-11731467D01*
X12307943Y-11750514D01*
X12307943Y-11855276D01*
X12307943Y-11750514D02*
X12317467Y-11731467D01*
X12336514Y-11721943D01*
X12365086Y-11721943D01*
X12384133Y-11731467D01*
X12393657Y-11750514D01*
X12393657Y-11855276D01*
X12784133Y-11645752D02*
X12612705Y-11902895D01*
X13041276Y-11655276D02*
X13060324Y-11655276D01*
X13079371Y-11664800D01*
X13088895Y-11674324D01*
X13098419Y-11693371D01*
X13107943Y-11731467D01*
X13107943Y-11779086D01*
X13098419Y-11817181D01*
X13088895Y-11836228D01*
X13079371Y-11845752D01*
X13060324Y-11855276D01*
X13041276Y-11855276D01*
X13022228Y-11845752D01*
X13012705Y-11836228D01*
X13003181Y-11817181D01*
X12993657Y-11779086D01*
X12993657Y-11731467D01*
X13003181Y-11693371D01*
X13012705Y-11674324D01*
X13022228Y-11664800D01*
X13041276Y-11655276D01*
X13193657Y-11836228D02*
X13203181Y-11845752D01*
X13193657Y-11855276D01*
X13184133Y-11845752D01*
X13193657Y-11836228D01*
X13193657Y-11855276D01*
X13326990Y-11655276D02*
X13346038Y-11655276D01*
X13365086Y-11664800D01*
X13374609Y-11674324D01*
X13384133Y-11693371D01*
X13393657Y-11731467D01*
X13393657Y-11779086D01*
X13384133Y-11817181D01*
X13374609Y-11836228D01*
X13365086Y-11845752D01*
X13346038Y-11855276D01*
X13326990Y-11855276D01*
X13307943Y-11845752D01*
X13298419Y-11836228D01*
X13288895Y-11817181D01*
X13279371Y-11779086D01*
X13279371Y-11731467D01*
X13288895Y-11693371D01*
X13298419Y-11674324D01*
X13307943Y-11664800D01*
X13326990Y-11655276D01*
X13460324Y-11655276D02*
X13584133Y-11655276D01*
X13517467Y-11731467D01*
X13546038Y-11731467D01*
X13565086Y-11740990D01*
X13574609Y-11750514D01*
X13584133Y-11769562D01*
X13584133Y-11817181D01*
X13574609Y-11836228D01*
X13565086Y-11845752D01*
X13546038Y-11855276D01*
X13488895Y-11855276D01*
X13469848Y-11845752D01*
X13460324Y-11836228D01*
X13679371Y-11855276D02*
X13717467Y-11855276D01*
X13736514Y-11845752D01*
X13746038Y-11836228D01*
X13765086Y-11807657D01*
X13774609Y-11769562D01*
X13774609Y-11693371D01*
X13765086Y-11674324D01*
X13755562Y-11664800D01*
X13736514Y-11655276D01*
X13698419Y-11655276D01*
X13679371Y-11664800D01*
X13669848Y-11674324D01*
X13660324Y-11693371D01*
X13660324Y-11740990D01*
X13669848Y-11760038D01*
X13679371Y-11769562D01*
X13698419Y-11779086D01*
X13736514Y-11779086D01*
X13755562Y-11769562D01*
X13765086Y-11760038D01*
X13774609Y-11740990D01*
X13946038Y-11721943D02*
X13946038Y-11855276D01*
X13898419Y-11645752D02*
X13850800Y-11788609D01*
X13974609Y-11788609D01*
X14041276Y-11655276D02*
X14041276Y-11693371D01*
X14117467Y-11655276D02*
X14117467Y-11693371D01*
X14412705Y-11931467D02*
X14403181Y-11921943D01*
X14384133Y-11893371D01*
X14374609Y-11874324D01*
X14365086Y-11845752D01*
X14355562Y-11798133D01*
X14355562Y-11760038D01*
X14365086Y-11712419D01*
X14374609Y-11683848D01*
X14384133Y-11664800D01*
X14403181Y-11636228D01*
X14412705Y-11626705D01*
X14574609Y-11721943D02*
X14574609Y-11855276D01*
X14526990Y-11645752D02*
X14479371Y-11788609D01*
X14603181Y-11788609D01*
X14831752Y-11855276D02*
X14831752Y-11655276D01*
X14917467Y-11855276D02*
X14917467Y-11750514D01*
X14907943Y-11731467D01*
X14888895Y-11721943D01*
X14860324Y-11721943D01*
X14841276Y-11731467D01*
X14831752Y-11740990D01*
X15041276Y-11855276D02*
X15022228Y-11845752D01*
X15012705Y-11836228D01*
X15003181Y-11817181D01*
X15003181Y-11760038D01*
X15012705Y-11740990D01*
X15022228Y-11731467D01*
X15041276Y-11721943D01*
X15069848Y-11721943D01*
X15088895Y-11731467D01*
X15098419Y-11740990D01*
X15107943Y-11760038D01*
X15107943Y-11817181D01*
X15098419Y-11836228D01*
X15088895Y-11845752D01*
X15069848Y-11855276D01*
X15041276Y-11855276D01*
X15222228Y-11855276D02*
X15203181Y-11845752D01*
X15193657Y-11826705D01*
X15193657Y-11655276D01*
X15374609Y-11845752D02*
X15355562Y-11855276D01*
X15317467Y-11855276D01*
X15298419Y-11845752D01*
X15288895Y-11826705D01*
X15288895Y-11750514D01*
X15298419Y-11731467D01*
X15317467Y-11721943D01*
X15355562Y-11721943D01*
X15374609Y-11731467D01*
X15384133Y-11750514D01*
X15384133Y-11769562D01*
X15288895Y-11788609D01*
X15460324Y-11845752D02*
X15479371Y-11855276D01*
X15517467Y-11855276D01*
X15536514Y-11845752D01*
X15546038Y-11826705D01*
X15546038Y-11817181D01*
X15536514Y-11798133D01*
X15517467Y-11788609D01*
X15488895Y-11788609D01*
X15469848Y-11779086D01*
X15460324Y-11760038D01*
X15460324Y-11750514D01*
X15469848Y-11731467D01*
X15488895Y-11721943D01*
X15517467Y-11721943D01*
X15536514Y-11731467D01*
X15612705Y-11931467D02*
X15622228Y-11921943D01*
X15641276Y-11893371D01*
X15650800Y-11874324D01*
X15660324Y-11845752D01*
X15669848Y-11798133D01*
X15669848Y-11760038D01*
X15660324Y-11712419D01*
X15650800Y-11683848D01*
X15641276Y-11664800D01*
X15622228Y-11636228D01*
X15612705Y-11626705D01*
X10811511Y-12099511D02*
X10811511Y-11958089D01*
X10670089Y-11958089D01*
X10670089Y-12099511D01*
X10811511Y-12099511D01*
X11088895Y-11938324D02*
X11098419Y-11928800D01*
X11117467Y-11919276D01*
X11165086Y-11919276D01*
X11184133Y-11928800D01*
X11193657Y-11938324D01*
X11203181Y-11957371D01*
X11203181Y-11976419D01*
X11193657Y-12004990D01*
X11079371Y-12119276D01*
X11203181Y-12119276D01*
X11288895Y-12100228D02*
X11298419Y-12109752D01*
X11288895Y-12119276D01*
X11279371Y-12109752D01*
X11288895Y-12100228D01*
X11288895Y-12119276D01*
X11374609Y-11938324D02*
X11384133Y-11928800D01*
X11403181Y-11919276D01*
X11450800Y-11919276D01*
X11469848Y-11928800D01*
X11479371Y-11938324D01*
X11488895Y-11957371D01*
X11488895Y-11976419D01*
X11479371Y-12004990D01*
X11365086Y-12119276D01*
X11488895Y-12119276D01*
X11660324Y-11919276D02*
X11622228Y-11919276D01*
X11603181Y-11928800D01*
X11593657Y-11938324D01*
X11574609Y-11966895D01*
X11565086Y-12004990D01*
X11565086Y-12081181D01*
X11574609Y-12100228D01*
X11584133Y-12109752D01*
X11603181Y-12119276D01*
X11641276Y-12119276D01*
X11660324Y-12109752D01*
X11669848Y-12100228D01*
X11679371Y-12081181D01*
X11679371Y-12033562D01*
X11669848Y-12014514D01*
X11660324Y-12004990D01*
X11641276Y-11995467D01*
X11603181Y-11995467D01*
X11584133Y-12004990D01*
X11574609Y-12014514D01*
X11565086Y-12033562D01*
X11803181Y-11919276D02*
X11822228Y-11919276D01*
X11841276Y-11928800D01*
X11850800Y-11938324D01*
X11860324Y-11957371D01*
X11869848Y-11995467D01*
X11869848Y-12043086D01*
X11860324Y-12081181D01*
X11850800Y-12100228D01*
X11841276Y-12109752D01*
X11822228Y-12119276D01*
X11803181Y-12119276D01*
X11784133Y-12109752D01*
X11774609Y-12100228D01*
X11765086Y-12081181D01*
X11755562Y-12043086D01*
X11755562Y-11995467D01*
X11765086Y-11957371D01*
X11774609Y-11938324D01*
X11784133Y-11928800D01*
X11803181Y-11919276D01*
X11955562Y-12119276D02*
X11955562Y-11985943D01*
X11955562Y-12004990D02*
X11965086Y-11995467D01*
X11984133Y-11985943D01*
X12012705Y-11985943D01*
X12031752Y-11995467D01*
X12041276Y-12014514D01*
X12041276Y-12119276D01*
X12041276Y-12014514D02*
X12050800Y-11995467D01*
X12069848Y-11985943D01*
X12098419Y-11985943D01*
X12117467Y-11995467D01*
X12126990Y-12014514D01*
X12126990Y-12119276D01*
X12222228Y-12119276D02*
X12222228Y-11985943D01*
X12222228Y-12004990D02*
X12231752Y-11995467D01*
X12250800Y-11985943D01*
X12279371Y-11985943D01*
X12298419Y-11995467D01*
X12307943Y-12014514D01*
X12307943Y-12119276D01*
X12307943Y-12014514D02*
X12317467Y-11995467D01*
X12336514Y-11985943D01*
X12365086Y-11985943D01*
X12384133Y-11995467D01*
X12393657Y-12014514D01*
X12393657Y-12119276D01*
X12784133Y-11909752D02*
X12612705Y-12166895D01*
X13041276Y-11919276D02*
X13060324Y-11919276D01*
X13079371Y-11928800D01*
X13088895Y-11938324D01*
X13098419Y-11957371D01*
X13107943Y-11995467D01*
X13107943Y-12043086D01*
X13098419Y-12081181D01*
X13088895Y-12100228D01*
X13079371Y-12109752D01*
X13060324Y-12119276D01*
X13041276Y-12119276D01*
X13022228Y-12109752D01*
X13012705Y-12100228D01*
X13003181Y-12081181D01*
X12993657Y-12043086D01*
X12993657Y-11995467D01*
X13003181Y-11957371D01*
X13012705Y-11938324D01*
X13022228Y-11928800D01*
X13041276Y-11919276D01*
X13193657Y-12100228D02*
X13203181Y-12109752D01*
X13193657Y-12119276D01*
X13184133Y-12109752D01*
X13193657Y-12100228D01*
X13193657Y-12119276D01*
X13326990Y-11919276D02*
X13346038Y-11919276D01*
X13365086Y-11928800D01*
X13374609Y-11938324D01*
X13384133Y-11957371D01*
X13393657Y-11995467D01*
X13393657Y-12043086D01*
X13384133Y-12081181D01*
X13374609Y-12100228D01*
X13365086Y-12109752D01*
X13346038Y-12119276D01*
X13326990Y-12119276D01*
X13307943Y-12109752D01*
X13298419Y-12100228D01*
X13288895Y-12081181D01*
X13279371Y-12043086D01*
X13279371Y-11995467D01*
X13288895Y-11957371D01*
X13298419Y-11938324D01*
X13307943Y-11928800D01*
X13326990Y-11919276D01*
X13507943Y-12004990D02*
X13488895Y-11995467D01*
X13479371Y-11985943D01*
X13469848Y-11966895D01*
X13469848Y-11957371D01*
X13479371Y-11938324D01*
X13488895Y-11928800D01*
X13507943Y-11919276D01*
X13546038Y-11919276D01*
X13565086Y-11928800D01*
X13574609Y-11938324D01*
X13584133Y-11957371D01*
X13584133Y-11966895D01*
X13574609Y-11985943D01*
X13565086Y-11995467D01*
X13546038Y-12004990D01*
X13507943Y-12004990D01*
X13488895Y-12014514D01*
X13479371Y-12024038D01*
X13469848Y-12043086D01*
X13469848Y-12081181D01*
X13479371Y-12100228D01*
X13488895Y-12109752D01*
X13507943Y-12119276D01*
X13546038Y-12119276D01*
X13565086Y-12109752D01*
X13574609Y-12100228D01*
X13584133Y-12081181D01*
X13584133Y-12043086D01*
X13574609Y-12024038D01*
X13565086Y-12014514D01*
X13546038Y-12004990D01*
X13679371Y-12119276D02*
X13717467Y-12119276D01*
X13736514Y-12109752D01*
X13746038Y-12100228D01*
X13765086Y-12071657D01*
X13774609Y-12033562D01*
X13774609Y-11957371D01*
X13765086Y-11938324D01*
X13755562Y-11928800D01*
X13736514Y-11919276D01*
X13698419Y-11919276D01*
X13679371Y-11928800D01*
X13669848Y-11938324D01*
X13660324Y-11957371D01*
X13660324Y-12004990D01*
X13669848Y-12024038D01*
X13679371Y-12033562D01*
X13698419Y-12043086D01*
X13736514Y-12043086D01*
X13755562Y-12033562D01*
X13765086Y-12024038D01*
X13774609Y-12004990D01*
X13898419Y-11919276D02*
X13917467Y-11919276D01*
X13936514Y-11928800D01*
X13946038Y-11938324D01*
X13955562Y-11957371D01*
X13965086Y-11995467D01*
X13965086Y-12043086D01*
X13955562Y-12081181D01*
X13946038Y-12100228D01*
X13936514Y-12109752D01*
X13917467Y-12119276D01*
X13898419Y-12119276D01*
X13879371Y-12109752D01*
X13869848Y-12100228D01*
X13860324Y-12081181D01*
X13850800Y-12043086D01*
X13850800Y-11995467D01*
X13860324Y-11957371D01*
X13869848Y-11938324D01*
X13879371Y-11928800D01*
X13898419Y-11919276D01*
X14041276Y-11919276D02*
X14041276Y-11957371D01*
X14117467Y-11919276D02*
X14117467Y-11957371D01*
X14412705Y-12195467D02*
X14403181Y-12185943D01*
X14384133Y-12157371D01*
X14374609Y-12138324D01*
X14365086Y-12109752D01*
X14355562Y-12062133D01*
X14355562Y-12024038D01*
X14365086Y-11976419D01*
X14374609Y-11947848D01*
X14384133Y-11928800D01*
X14403181Y-11900228D01*
X14412705Y-11890705D01*
X14479371Y-11938324D02*
X14488895Y-11928800D01*
X14507943Y-11919276D01*
X14555562Y-11919276D01*
X14574609Y-11928800D01*
X14584133Y-11938324D01*
X14593657Y-11957371D01*
X14593657Y-11976419D01*
X14584133Y-12004990D01*
X14469848Y-12119276D01*
X14593657Y-12119276D01*
X14831752Y-12119276D02*
X14831752Y-11919276D01*
X14917467Y-12119276D02*
X14917467Y-12014514D01*
X14907943Y-11995467D01*
X14888895Y-11985943D01*
X14860324Y-11985943D01*
X14841276Y-11995467D01*
X14831752Y-12004990D01*
X15041276Y-12119276D02*
X15022228Y-12109752D01*
X15012705Y-12100228D01*
X15003181Y-12081181D01*
X15003181Y-12024038D01*
X15012705Y-12004990D01*
X15022228Y-11995467D01*
X15041276Y-11985943D01*
X15069848Y-11985943D01*
X15088895Y-11995467D01*
X15098419Y-12004990D01*
X15107943Y-12024038D01*
X15107943Y-12081181D01*
X15098419Y-12100228D01*
X15088895Y-12109752D01*
X15069848Y-12119276D01*
X15041276Y-12119276D01*
X15222228Y-12119276D02*
X15203181Y-12109752D01*
X15193657Y-12090705D01*
X15193657Y-11919276D01*
X15374609Y-12109752D02*
X15355562Y-12119276D01*
X15317467Y-12119276D01*
X15298419Y-12109752D01*
X15288895Y-12090705D01*
X15288895Y-12014514D01*
X15298419Y-11995467D01*
X15317467Y-11985943D01*
X15355562Y-11985943D01*
X15374609Y-11995467D01*
X15384133Y-12014514D01*
X15384133Y-12033562D01*
X15288895Y-12052609D01*
X15460324Y-12109752D02*
X15479371Y-12119276D01*
X15517467Y-12119276D01*
X15536514Y-12109752D01*
X15546038Y-12090705D01*
X15546038Y-12081181D01*
X15536514Y-12062133D01*
X15517467Y-12052609D01*
X15488895Y-12052609D01*
X15469848Y-12043086D01*
X15460324Y-12024038D01*
X15460324Y-12014514D01*
X15469848Y-11995467D01*
X15488895Y-11985943D01*
X15517467Y-11985943D01*
X15536514Y-11995467D01*
X15612705Y-12195467D02*
X15622228Y-12185943D01*
X15641276Y-12157371D01*
X15650800Y-12138324D01*
X15660324Y-12109752D01*
X15669848Y-12062133D01*
X15669848Y-12024038D01*
X15660324Y-11976419D01*
X15650800Y-11947848D01*
X15641276Y-11928800D01*
X15622228Y-11900228D01*
X15612705Y-11890705D01*
M02*
