%FSLAX45Y45*%
G04 Gerber Fmt 4.5, Leading zero omitted, Abs format (unit mm)*
G04 Created by KiCad (PCBNEW (6.0.0)) date 2022-01-04 00:39:45*
%MOMM*%
%LPD*%
G01*
G04 APERTURE LIST*
%TA.AperFunction,Profile*%
%ADD10C,0.100000*%
%TD*%
%ADD11C,0.200000*%
%ADD12C,0.320000*%
G04 APERTURE END LIST*
D10*
X11226800Y-7238154D02*
X13589000Y-7239000D01*
X11226800Y-7238154D02*
G75*
G03*
X10845800Y-7594600I0J-381846D01*
G01*
X13970000Y-7620000D02*
G75*
G03*
X13589000Y-7239000I-381000J0D01*
G01*
X10845800Y-10210800D02*
G75*
G03*
X11226800Y-10591800I381000J0D01*
G01*
X13970000Y-10210800D02*
X13970000Y-7620000D01*
X13589000Y-10591800D02*
X11226800Y-10591800D01*
X13589000Y-10591800D02*
G75*
G03*
X13970000Y-10210800I0J381000D01*
G01*
X10845800Y-10210800D02*
X10845800Y-7594600D01*
D11*
D12*
X11066800Y-7452400D02*
X11386800Y-7772400D01*
X11386800Y-7452400D02*
X11066800Y-7772400D01*
X11066800Y-10050800D02*
X11386800Y-10370800D01*
X11386800Y-10050800D02*
X11066800Y-10370800D01*
X13429000Y-7452400D02*
X13749000Y-7772400D01*
X13749000Y-7452400D02*
X13429000Y-7772400D01*
X13429000Y-10050800D02*
X13749000Y-10370800D01*
X13749000Y-10050800D02*
X13429000Y-10370800D01*
D11*
X11098419Y-10907276D02*
X11098419Y-10707276D01*
X11146038Y-10707276D01*
X11174610Y-10716800D01*
X11193657Y-10735848D01*
X11203181Y-10754895D01*
X11212705Y-10792990D01*
X11212705Y-10821562D01*
X11203181Y-10859657D01*
X11193657Y-10878705D01*
X11174610Y-10897752D01*
X11146038Y-10907276D01*
X11098419Y-10907276D01*
X11298419Y-10907276D02*
X11298419Y-10773943D01*
X11298419Y-10812038D02*
X11307943Y-10792990D01*
X11317467Y-10783467D01*
X11336514Y-10773943D01*
X11355562Y-10773943D01*
X11422228Y-10907276D02*
X11422228Y-10773943D01*
X11422228Y-10707276D02*
X11412705Y-10716800D01*
X11422228Y-10726324D01*
X11431752Y-10716800D01*
X11422228Y-10707276D01*
X11422228Y-10726324D01*
X11546038Y-10907276D02*
X11526990Y-10897752D01*
X11517467Y-10878705D01*
X11517467Y-10707276D01*
X11650800Y-10907276D02*
X11631752Y-10897752D01*
X11622228Y-10878705D01*
X11622228Y-10707276D01*
X11879371Y-10907276D02*
X11879371Y-10707276D01*
X11946038Y-10850133D01*
X12012705Y-10707276D01*
X12012705Y-10907276D01*
X12193657Y-10907276D02*
X12193657Y-10802514D01*
X12184133Y-10783467D01*
X12165086Y-10773943D01*
X12126990Y-10773943D01*
X12107943Y-10783467D01*
X12193657Y-10897752D02*
X12174609Y-10907276D01*
X12126990Y-10907276D01*
X12107943Y-10897752D01*
X12098419Y-10878705D01*
X12098419Y-10859657D01*
X12107943Y-10840610D01*
X12126990Y-10831086D01*
X12174609Y-10831086D01*
X12193657Y-10821562D01*
X12288895Y-10773943D02*
X12288895Y-10973943D01*
X12288895Y-10783467D02*
X12307943Y-10773943D01*
X12346038Y-10773943D01*
X12365086Y-10783467D01*
X12374609Y-10792990D01*
X12384133Y-10812038D01*
X12384133Y-10869181D01*
X12374609Y-10888229D01*
X12365086Y-10897752D01*
X12346038Y-10907276D01*
X12307943Y-10907276D01*
X12288895Y-10897752D01*
X12469848Y-10888229D02*
X12479371Y-10897752D01*
X12469848Y-10907276D01*
X12460324Y-10897752D01*
X12469848Y-10888229D01*
X12469848Y-10907276D01*
X12469848Y-10783467D02*
X12479371Y-10792990D01*
X12469848Y-10802514D01*
X12460324Y-10792990D01*
X12469848Y-10783467D01*
X12469848Y-10802514D01*
X10640800Y-11136800D02*
X10840800Y-11336800D01*
X10840800Y-11136800D02*
X10640800Y-11336800D01*
X11079371Y-11127276D02*
X11203181Y-11127276D01*
X11136514Y-11203467D01*
X11165086Y-11203467D01*
X11184133Y-11212990D01*
X11193657Y-11222514D01*
X11203181Y-11241562D01*
X11203181Y-11289181D01*
X11193657Y-11308228D01*
X11184133Y-11317752D01*
X11165086Y-11327276D01*
X11107943Y-11327276D01*
X11088895Y-11317752D01*
X11079371Y-11308228D01*
X11288895Y-11308228D02*
X11298419Y-11317752D01*
X11288895Y-11327276D01*
X11279371Y-11317752D01*
X11288895Y-11308228D01*
X11288895Y-11327276D01*
X11374609Y-11146324D02*
X11384133Y-11136800D01*
X11403181Y-11127276D01*
X11450800Y-11127276D01*
X11469848Y-11136800D01*
X11479371Y-11146324D01*
X11488895Y-11165371D01*
X11488895Y-11184419D01*
X11479371Y-11212990D01*
X11365086Y-11327276D01*
X11488895Y-11327276D01*
X11612705Y-11127276D02*
X11631752Y-11127276D01*
X11650800Y-11136800D01*
X11660324Y-11146324D01*
X11669848Y-11165371D01*
X11679371Y-11203467D01*
X11679371Y-11251086D01*
X11669848Y-11289181D01*
X11660324Y-11308228D01*
X11650800Y-11317752D01*
X11631752Y-11327276D01*
X11612705Y-11327276D01*
X11593657Y-11317752D01*
X11584133Y-11308228D01*
X11574609Y-11289181D01*
X11565086Y-11251086D01*
X11565086Y-11203467D01*
X11574609Y-11165371D01*
X11584133Y-11146324D01*
X11593657Y-11136800D01*
X11612705Y-11127276D01*
X11803181Y-11127276D02*
X11822228Y-11127276D01*
X11841276Y-11136800D01*
X11850800Y-11146324D01*
X11860324Y-11165371D01*
X11869848Y-11203467D01*
X11869848Y-11251086D01*
X11860324Y-11289181D01*
X11850800Y-11308228D01*
X11841276Y-11317752D01*
X11822228Y-11327276D01*
X11803181Y-11327276D01*
X11784133Y-11317752D01*
X11774609Y-11308228D01*
X11765086Y-11289181D01*
X11755562Y-11251086D01*
X11755562Y-11203467D01*
X11765086Y-11165371D01*
X11774609Y-11146324D01*
X11784133Y-11136800D01*
X11803181Y-11127276D01*
X11955562Y-11327276D02*
X11955562Y-11193943D01*
X11955562Y-11212990D02*
X11965086Y-11203467D01*
X11984133Y-11193943D01*
X12012705Y-11193943D01*
X12031752Y-11203467D01*
X12041276Y-11222514D01*
X12041276Y-11327276D01*
X12041276Y-11222514D02*
X12050800Y-11203467D01*
X12069848Y-11193943D01*
X12098419Y-11193943D01*
X12117467Y-11203467D01*
X12126990Y-11222514D01*
X12126990Y-11327276D01*
X12222228Y-11327276D02*
X12222228Y-11193943D01*
X12222228Y-11212990D02*
X12231752Y-11203467D01*
X12250800Y-11193943D01*
X12279371Y-11193943D01*
X12298419Y-11203467D01*
X12307943Y-11222514D01*
X12307943Y-11327276D01*
X12307943Y-11222514D02*
X12317467Y-11203467D01*
X12336514Y-11193943D01*
X12365086Y-11193943D01*
X12384133Y-11203467D01*
X12393657Y-11222514D01*
X12393657Y-11327276D01*
X12784133Y-11117752D02*
X12612705Y-11374895D01*
X13041276Y-11127276D02*
X13060324Y-11127276D01*
X13079371Y-11136800D01*
X13088895Y-11146324D01*
X13098419Y-11165371D01*
X13107943Y-11203467D01*
X13107943Y-11251086D01*
X13098419Y-11289181D01*
X13088895Y-11308228D01*
X13079371Y-11317752D01*
X13060324Y-11327276D01*
X13041276Y-11327276D01*
X13022228Y-11317752D01*
X13012705Y-11308228D01*
X13003181Y-11289181D01*
X12993657Y-11251086D01*
X12993657Y-11203467D01*
X13003181Y-11165371D01*
X13012705Y-11146324D01*
X13022228Y-11136800D01*
X13041276Y-11127276D01*
X13193657Y-11308228D02*
X13203181Y-11317752D01*
X13193657Y-11327276D01*
X13184133Y-11317752D01*
X13193657Y-11308228D01*
X13193657Y-11327276D01*
X13393657Y-11327276D02*
X13279371Y-11327276D01*
X13336514Y-11327276D02*
X13336514Y-11127276D01*
X13317467Y-11155848D01*
X13298419Y-11174895D01*
X13279371Y-11184419D01*
X13469848Y-11146324D02*
X13479371Y-11136800D01*
X13498419Y-11127276D01*
X13546038Y-11127276D01*
X13565086Y-11136800D01*
X13574609Y-11146324D01*
X13584133Y-11165371D01*
X13584133Y-11184419D01*
X13574609Y-11212990D01*
X13460324Y-11327276D01*
X13584133Y-11327276D01*
X13755562Y-11127276D02*
X13717467Y-11127276D01*
X13698419Y-11136800D01*
X13688895Y-11146324D01*
X13669848Y-11174895D01*
X13660324Y-11212990D01*
X13660324Y-11289181D01*
X13669848Y-11308228D01*
X13679371Y-11317752D01*
X13698419Y-11327276D01*
X13736514Y-11327276D01*
X13755562Y-11317752D01*
X13765086Y-11308228D01*
X13774609Y-11289181D01*
X13774609Y-11241562D01*
X13765086Y-11222514D01*
X13755562Y-11212990D01*
X13736514Y-11203467D01*
X13698419Y-11203467D01*
X13679371Y-11212990D01*
X13669848Y-11222514D01*
X13660324Y-11241562D01*
X13898419Y-11127276D02*
X13917467Y-11127276D01*
X13936514Y-11136800D01*
X13946038Y-11146324D01*
X13955562Y-11165371D01*
X13965086Y-11203467D01*
X13965086Y-11251086D01*
X13955562Y-11289181D01*
X13946038Y-11308228D01*
X13936514Y-11317752D01*
X13917467Y-11327276D01*
X13898419Y-11327276D01*
X13879371Y-11317752D01*
X13869848Y-11308228D01*
X13860324Y-11289181D01*
X13850800Y-11251086D01*
X13850800Y-11203467D01*
X13860324Y-11165371D01*
X13869848Y-11146324D01*
X13879371Y-11136800D01*
X13898419Y-11127276D01*
X14041276Y-11127276D02*
X14041276Y-11165371D01*
X14117467Y-11127276D02*
X14117467Y-11165371D01*
X14412705Y-11403467D02*
X14403181Y-11393943D01*
X14384133Y-11365371D01*
X14374609Y-11346324D01*
X14365086Y-11317752D01*
X14355562Y-11270133D01*
X14355562Y-11232038D01*
X14365086Y-11184419D01*
X14374609Y-11155848D01*
X14384133Y-11136800D01*
X14403181Y-11108229D01*
X14412705Y-11098705D01*
X14574609Y-11193943D02*
X14574609Y-11327276D01*
X14526990Y-11117752D02*
X14479371Y-11260609D01*
X14603181Y-11260609D01*
X14831752Y-11327276D02*
X14831752Y-11127276D01*
X14917467Y-11327276D02*
X14917467Y-11222514D01*
X14907943Y-11203467D01*
X14888895Y-11193943D01*
X14860324Y-11193943D01*
X14841276Y-11203467D01*
X14831752Y-11212990D01*
X15041276Y-11327276D02*
X15022228Y-11317752D01*
X15012705Y-11308228D01*
X15003181Y-11289181D01*
X15003181Y-11232038D01*
X15012705Y-11212990D01*
X15022228Y-11203467D01*
X15041276Y-11193943D01*
X15069848Y-11193943D01*
X15088895Y-11203467D01*
X15098419Y-11212990D01*
X15107943Y-11232038D01*
X15107943Y-11289181D01*
X15098419Y-11308228D01*
X15088895Y-11317752D01*
X15069848Y-11327276D01*
X15041276Y-11327276D01*
X15222228Y-11327276D02*
X15203181Y-11317752D01*
X15193657Y-11298705D01*
X15193657Y-11127276D01*
X15374609Y-11317752D02*
X15355562Y-11327276D01*
X15317467Y-11327276D01*
X15298419Y-11317752D01*
X15288895Y-11298705D01*
X15288895Y-11222514D01*
X15298419Y-11203467D01*
X15317467Y-11193943D01*
X15355562Y-11193943D01*
X15374609Y-11203467D01*
X15384133Y-11222514D01*
X15384133Y-11241562D01*
X15288895Y-11260609D01*
X15460324Y-11317752D02*
X15479371Y-11327276D01*
X15517467Y-11327276D01*
X15536514Y-11317752D01*
X15546038Y-11298705D01*
X15546038Y-11289181D01*
X15536514Y-11270133D01*
X15517467Y-11260609D01*
X15488895Y-11260609D01*
X15469848Y-11251086D01*
X15460324Y-11232038D01*
X15460324Y-11222514D01*
X15469848Y-11203467D01*
X15488895Y-11193943D01*
X15517467Y-11193943D01*
X15536514Y-11203467D01*
X15612705Y-11403467D02*
X15622228Y-11393943D01*
X15641276Y-11365371D01*
X15650800Y-11346324D01*
X15660324Y-11317752D01*
X15669848Y-11270133D01*
X15669848Y-11232038D01*
X15660324Y-11184419D01*
X15650800Y-11155848D01*
X15641276Y-11136800D01*
X15622228Y-11108229D01*
X15612705Y-11098705D01*
X15974609Y-11403467D02*
X15965086Y-11393943D01*
X15946038Y-11365371D01*
X15936514Y-11346324D01*
X15926990Y-11317752D01*
X15917467Y-11270133D01*
X15917467Y-11232038D01*
X15926990Y-11184419D01*
X15936514Y-11155848D01*
X15946038Y-11136800D01*
X15965086Y-11108229D01*
X15974609Y-11098705D01*
X16050800Y-11193943D02*
X16050800Y-11327276D01*
X16050800Y-11212990D02*
X16060324Y-11203467D01*
X16079371Y-11193943D01*
X16107943Y-11193943D01*
X16126990Y-11203467D01*
X16136514Y-11222514D01*
X16136514Y-11327276D01*
X16260324Y-11327276D02*
X16241276Y-11317752D01*
X16231752Y-11308228D01*
X16222228Y-11289181D01*
X16222228Y-11232038D01*
X16231752Y-11212990D01*
X16241276Y-11203467D01*
X16260324Y-11193943D01*
X16288895Y-11193943D01*
X16307943Y-11203467D01*
X16317467Y-11212990D01*
X16326990Y-11232038D01*
X16326990Y-11289181D01*
X16317467Y-11308228D01*
X16307943Y-11317752D01*
X16288895Y-11327276D01*
X16260324Y-11327276D01*
X16384133Y-11193943D02*
X16460324Y-11193943D01*
X16412705Y-11127276D02*
X16412705Y-11298705D01*
X16422228Y-11317752D01*
X16441276Y-11327276D01*
X16460324Y-11327276D01*
X16679371Y-11193943D02*
X16679371Y-11393943D01*
X16679371Y-11203467D02*
X16698419Y-11193943D01*
X16736514Y-11193943D01*
X16755562Y-11203467D01*
X16765086Y-11212990D01*
X16774609Y-11232038D01*
X16774609Y-11289181D01*
X16765086Y-11308228D01*
X16755562Y-11317752D01*
X16736514Y-11327276D01*
X16698419Y-11327276D01*
X16679371Y-11317752D01*
X16888895Y-11327276D02*
X16869848Y-11317752D01*
X16860324Y-11298705D01*
X16860324Y-11127276D01*
X17050800Y-11327276D02*
X17050800Y-11222514D01*
X17041276Y-11203467D01*
X17022229Y-11193943D01*
X16984133Y-11193943D01*
X16965086Y-11203467D01*
X17050800Y-11317752D02*
X17031752Y-11327276D01*
X16984133Y-11327276D01*
X16965086Y-11317752D01*
X16955562Y-11298705D01*
X16955562Y-11279657D01*
X16965086Y-11260609D01*
X16984133Y-11251086D01*
X17031752Y-11251086D01*
X17050800Y-11241562D01*
X17117467Y-11193943D02*
X17193657Y-11193943D01*
X17146038Y-11127276D02*
X17146038Y-11298705D01*
X17155562Y-11317752D01*
X17174610Y-11327276D01*
X17193657Y-11327276D01*
X17336514Y-11317752D02*
X17317467Y-11327276D01*
X17279371Y-11327276D01*
X17260324Y-11317752D01*
X17250800Y-11298705D01*
X17250800Y-11222514D01*
X17260324Y-11203467D01*
X17279371Y-11193943D01*
X17317467Y-11193943D01*
X17336514Y-11203467D01*
X17346038Y-11222514D01*
X17346038Y-11241562D01*
X17250800Y-11260609D01*
X17517467Y-11327276D02*
X17517467Y-11127276D01*
X17517467Y-11317752D02*
X17498419Y-11327276D01*
X17460324Y-11327276D01*
X17441276Y-11317752D01*
X17431752Y-11308228D01*
X17422229Y-11289181D01*
X17422229Y-11232038D01*
X17431752Y-11212990D01*
X17441276Y-11203467D01*
X17460324Y-11193943D01*
X17498419Y-11193943D01*
X17517467Y-11203467D01*
X17593657Y-11403467D02*
X17603181Y-11393943D01*
X17622229Y-11365371D01*
X17631752Y-11346324D01*
X17641276Y-11317752D01*
X17650800Y-11270133D01*
X17650800Y-11232038D01*
X17641276Y-11184419D01*
X17631752Y-11155848D01*
X17622229Y-11136800D01*
X17603181Y-11108229D01*
X17593657Y-11098705D01*
M02*
