%FSLAX45Y45*%
G04 Gerber Fmt 4.5, Leading zero omitted, Abs format (unit mm)*
G04 Created by KiCad (PCBNEW (6.0.0)) date 2022-08-18 21:48:34*
%MOMM*%
%LPD*%
G01*
G04 APERTURE LIST*
%TA.AperFunction,Profile*%
%ADD10C,0.100000*%
%TD*%
%ADD11C,0.200000*%
%ADD12C,0.040000*%
%ADD13C,0.076200*%
%ADD14C,0.100000*%
%ADD15C,0.152000*%
%ADD16C,0.242000*%
G04 APERTURE END LIST*
D10*
X15900400Y-8128000D02*
X9499600Y-8128000D01*
X16256000Y-3403600D02*
X16256000Y-7772400D01*
X9144000Y-7772400D02*
G75*
G03*
X9499600Y-8128000I355600J0D01*
G01*
X16256000Y-3403600D02*
G75*
G03*
X15900400Y-3048000I-355600J0D01*
G01*
X9144000Y-7772400D02*
X9144000Y-3403600D01*
X15900400Y-8128000D02*
G75*
G03*
X16256000Y-7772400I0J355600D01*
G01*
X9499600Y-3048000D02*
G75*
G03*
X9144000Y-3403600I0J-355600D01*
G01*
X9499600Y-3048000D02*
X15900400Y-3048000D01*
D11*
D12*
X10216200Y-6152200D02*
X10256200Y-6192200D01*
X10256200Y-6152200D02*
X10216200Y-6192200D01*
X10241600Y-6965000D02*
X10281600Y-7005000D01*
X10281600Y-6965000D02*
X10241600Y-7005000D01*
X10368600Y-6330000D02*
X10408600Y-6370000D01*
X10408600Y-6330000D02*
X10368600Y-6370000D01*
X10375200Y-6577400D02*
X10415200Y-6617400D01*
X10415200Y-6577400D02*
X10375200Y-6617400D01*
X10470200Y-7168200D02*
X10510200Y-7208200D01*
X10510200Y-7168200D02*
X10470200Y-7208200D01*
X10565200Y-6590600D02*
X10605200Y-6630600D01*
X10605200Y-6590600D02*
X10565200Y-6630600D01*
X10574449Y-5920951D02*
X10614449Y-5960951D01*
X10614449Y-5920951D02*
X10574449Y-5960951D01*
X10686100Y-6977700D02*
X10726100Y-7017700D01*
X10726100Y-6977700D02*
X10686100Y-7017700D01*
X10698800Y-5999800D02*
X10738800Y-6039800D01*
X10738800Y-5999800D02*
X10698800Y-6039800D01*
X10851200Y-5999800D02*
X10891200Y-6039800D01*
X10891200Y-5999800D02*
X10851200Y-6039800D01*
X10851200Y-6965000D02*
X10891200Y-7005000D01*
X10891200Y-6965000D02*
X10851200Y-7005000D01*
X11054400Y-7168200D02*
X11094400Y-7208200D01*
X11094400Y-7168200D02*
X11054400Y-7208200D01*
X11130600Y-6253800D02*
X11170600Y-6293800D01*
X11170600Y-6253800D02*
X11130600Y-6293800D01*
X11149400Y-6590600D02*
X11189400Y-6630600D01*
X11189400Y-6590600D02*
X11149400Y-6630600D01*
X11270300Y-6977700D02*
X11310300Y-7017700D01*
X11310300Y-6977700D02*
X11270300Y-7017700D01*
X11283000Y-6050600D02*
X11323000Y-6090600D01*
X11323000Y-6050600D02*
X11283000Y-6090600D01*
X12603800Y-7422200D02*
X12643800Y-7462200D01*
X12643800Y-7422200D02*
X12603800Y-7462200D01*
X12753649Y-8008951D02*
X12793649Y-8048951D01*
X12793649Y-8008951D02*
X12753649Y-8048951D01*
X12756200Y-7346000D02*
X12796200Y-7386000D01*
X12796200Y-7346000D02*
X12756200Y-7386000D01*
X12908600Y-6203000D02*
X12948600Y-6243000D01*
X12948600Y-6203000D02*
X12908600Y-6243000D01*
X12934000Y-7244400D02*
X12974000Y-7284400D01*
X12974000Y-7244400D02*
X12934000Y-7284400D01*
X14282200Y-7039200D02*
X14322200Y-7079200D01*
X14322200Y-7039200D02*
X14282200Y-7079200D01*
X14381800Y-6101400D02*
X14421800Y-6141400D01*
X14421800Y-6101400D02*
X14381800Y-6141400D01*
X14381800Y-6279200D02*
X14421800Y-6319200D01*
X14421800Y-6279200D02*
X14381800Y-6319200D01*
X14389656Y-5949000D02*
X14429656Y-5989000D01*
X14429656Y-5949000D02*
X14389656Y-5989000D01*
X14413800Y-6628200D02*
X14453800Y-6668200D01*
X14453800Y-6628200D02*
X14413800Y-6668200D01*
X14508800Y-7193600D02*
X14548800Y-7233600D01*
X14548800Y-7193600D02*
X14508800Y-7233600D01*
X14603800Y-6641400D02*
X14643800Y-6681400D01*
X14643800Y-6641400D02*
X14603800Y-6681400D01*
X14635800Y-5872800D02*
X14675800Y-5912800D01*
X14675800Y-5872800D02*
X14635800Y-5912800D01*
X14735400Y-7039200D02*
X14775400Y-7079200D01*
X14775400Y-7039200D02*
X14735400Y-7079200D01*
X14927900Y-6012500D02*
X14967900Y-6052500D01*
X14967900Y-6012500D02*
X14927900Y-6052500D01*
X14993400Y-7039200D02*
X15033400Y-7079200D01*
X15033400Y-7039200D02*
X14993400Y-7079200D01*
X15220000Y-7193600D02*
X15260000Y-7233600D01*
X15260000Y-7193600D02*
X15220000Y-7233600D01*
X15321600Y-6203000D02*
X15361600Y-6243000D01*
X15361600Y-6203000D02*
X15321600Y-6243000D01*
X15325160Y-6631240D02*
X15365160Y-6671240D01*
X15365160Y-6631240D02*
X15325160Y-6671240D01*
X15472000Y-7039200D02*
X15512000Y-7079200D01*
X15512000Y-7039200D02*
X15472000Y-7079200D01*
X15524800Y-6431600D02*
X15564800Y-6471600D01*
X15564800Y-6431600D02*
X15524800Y-6471600D01*
D13*
X11958200Y-5251300D02*
G75*
G03*
X11958200Y-5251300I-38100J0D01*
G01*
X11958200Y-5651300D02*
G75*
G03*
X11958200Y-5651300I-38100J0D01*
G01*
X12077920Y-5051300D02*
G75*
G03*
X12077920Y-5051300I-38100J0D01*
G01*
X12100000Y-5451300D02*
G75*
G03*
X12100000Y-5451300I-38100J0D01*
G01*
X12241800Y-5251300D02*
G75*
G03*
X12241800Y-5251300I-38100J0D01*
G01*
X12241800Y-5651300D02*
G75*
G03*
X12241800Y-5651300I-38100J0D01*
G01*
X12361520Y-5051300D02*
G75*
G03*
X12361520Y-5051300I-38100J0D01*
G01*
X12383600Y-5451300D02*
G75*
G03*
X12383600Y-5451300I-38100J0D01*
G01*
X12525400Y-5251300D02*
G75*
G03*
X12525400Y-5251300I-38100J0D01*
G01*
X12525400Y-5651300D02*
G75*
G03*
X12525400Y-5651300I-38100J0D01*
G01*
X12645120Y-5051300D02*
G75*
G03*
X12645120Y-5051300I-38100J0D01*
G01*
X12667200Y-5451300D02*
G75*
G03*
X12667200Y-5451300I-38100J0D01*
G01*
X12809000Y-5251300D02*
G75*
G03*
X12809000Y-5251300I-38100J0D01*
G01*
X12809000Y-5651300D02*
G75*
G03*
X12809000Y-5651300I-38100J0D01*
G01*
X12928720Y-5051300D02*
G75*
G03*
X12928720Y-5051300I-38100J0D01*
G01*
X12950800Y-5451300D02*
G75*
G03*
X12950800Y-5451300I-38100J0D01*
G01*
X13092600Y-5251300D02*
G75*
G03*
X13092600Y-5251300I-38100J0D01*
G01*
X13092600Y-5651300D02*
G75*
G03*
X13092600Y-5651300I-38100J0D01*
G01*
X13234400Y-5051300D02*
G75*
G03*
X13234400Y-5051300I-38100J0D01*
G01*
X13234400Y-5451300D02*
G75*
G03*
X13234400Y-5451300I-38100J0D01*
G01*
X13376200Y-5251300D02*
G75*
G03*
X13376200Y-5251300I-38100J0D01*
G01*
X13376200Y-5651300D02*
G75*
G03*
X13376200Y-5651300I-38100J0D01*
G01*
X13518000Y-5051300D02*
G75*
G03*
X13518000Y-5051300I-38100J0D01*
G01*
X13518000Y-5451300D02*
G75*
G03*
X13518000Y-5451300I-38100J0D01*
G01*
D14*
X10160000Y-7570000D02*
X10160000Y-7670000D01*
X10110000Y-7620000D02*
X10210000Y-7620000D01*
X10160000Y-7824000D02*
X10160000Y-7924000D01*
X10110000Y-7874000D02*
X10210000Y-7874000D01*
X10414000Y-7570000D02*
X10414000Y-7670000D01*
X10364000Y-7620000D02*
X10464000Y-7620000D01*
X10414000Y-7824000D02*
X10414000Y-7924000D01*
X10364000Y-7874000D02*
X10464000Y-7874000D01*
X10668000Y-7570000D02*
X10668000Y-7670000D01*
X10618000Y-7620000D02*
X10718000Y-7620000D01*
X10668000Y-7824000D02*
X10668000Y-7924000D01*
X10618000Y-7874000D02*
X10718000Y-7874000D01*
X10720100Y-4901300D02*
X10720100Y-5001300D01*
X10670100Y-4951300D02*
X10770100Y-4951300D01*
D11*
X10680100Y-4851300D02*
X10680100Y-5051300D01*
X10760100Y-4851300D02*
X10760100Y-5051300D01*
X10680100Y-5051300D02*
G75*
G03*
X10760100Y-5051300I40000J0D01*
G01*
X10760100Y-4851300D02*
G75*
G03*
X10680100Y-4851300I-40000J0D01*
G01*
D14*
X10922000Y-7570000D02*
X10922000Y-7670000D01*
X10872000Y-7620000D02*
X10972000Y-7620000D01*
X10922000Y-7824000D02*
X10922000Y-7924000D01*
X10872000Y-7874000D02*
X10972000Y-7874000D01*
X11176000Y-7570000D02*
X11176000Y-7670000D01*
X11126000Y-7620000D02*
X11226000Y-7620000D01*
X11176000Y-7824000D02*
X11176000Y-7924000D01*
X11126000Y-7874000D02*
X11226000Y-7874000D01*
X14224000Y-7570000D02*
X14224000Y-7670000D01*
X14174000Y-7620000D02*
X14274000Y-7620000D01*
X14224000Y-7824000D02*
X14224000Y-7924000D01*
X14174000Y-7874000D02*
X14274000Y-7874000D01*
X14478000Y-7570000D02*
X14478000Y-7670000D01*
X14428000Y-7620000D02*
X14528000Y-7620000D01*
X14478000Y-7824000D02*
X14478000Y-7924000D01*
X14428000Y-7874000D02*
X14528000Y-7874000D01*
X14679900Y-4901300D02*
X14679900Y-5001300D01*
X14629900Y-4951300D02*
X14729900Y-4951300D01*
D11*
X14639900Y-4851300D02*
X14639900Y-5051300D01*
X14719900Y-4851300D02*
X14719900Y-5051300D01*
X14639900Y-5051300D02*
G75*
G03*
X14719900Y-5051300I40000J0D01*
G01*
X14719900Y-4851300D02*
G75*
G03*
X14639900Y-4851300I-40000J0D01*
G01*
D14*
X14732000Y-7570000D02*
X14732000Y-7670000D01*
X14682000Y-7620000D02*
X14782000Y-7620000D01*
X14732000Y-7824000D02*
X14732000Y-7924000D01*
X14682000Y-7874000D02*
X14782000Y-7874000D01*
X14986000Y-7570000D02*
X14986000Y-7670000D01*
X14936000Y-7620000D02*
X15036000Y-7620000D01*
X14986000Y-7824000D02*
X14986000Y-7924000D01*
X14936000Y-7874000D02*
X15036000Y-7874000D01*
X15240000Y-7570000D02*
X15240000Y-7670000D01*
X15190000Y-7620000D02*
X15290000Y-7620000D01*
X15240000Y-7824000D02*
X15240000Y-7924000D01*
X15190000Y-7874000D02*
X15290000Y-7874000D01*
D15*
X11588701Y-5454241D02*
X11588701Y-5346759D01*
X11481219Y-5346759D01*
X11481219Y-5454241D01*
X11588701Y-5454241D01*
X11588701Y-5837241D02*
X11588701Y-5729759D01*
X11481219Y-5729759D01*
X11481219Y-5837241D01*
X11588701Y-5837241D01*
X13896701Y-5454241D02*
X13896701Y-5346759D01*
X13789219Y-5346759D01*
X13789219Y-5454241D01*
X13896701Y-5454241D01*
X13896701Y-5837241D02*
X13896701Y-5729759D01*
X13789219Y-5729759D01*
X13789219Y-5837241D01*
X13896701Y-5837241D01*
D16*
X10075000Y-3722300D02*
X10196000Y-3601300D01*
X10075000Y-3480300D01*
X9954000Y-3601300D01*
X10075000Y-3722300D01*
X15325000Y-3722300D02*
X15446000Y-3601300D01*
X15325000Y-3480300D01*
X15204000Y-3601300D01*
X15325000Y-3722300D01*
D11*
X9396619Y-8443476D02*
X9396619Y-8243476D01*
X9444238Y-8243476D01*
X9472810Y-8253000D01*
X9491857Y-8272048D01*
X9501381Y-8291095D01*
X9510905Y-8329190D01*
X9510905Y-8357762D01*
X9501381Y-8395857D01*
X9491857Y-8414905D01*
X9472810Y-8433952D01*
X9444238Y-8443476D01*
X9396619Y-8443476D01*
X9596619Y-8443476D02*
X9596619Y-8310143D01*
X9596619Y-8348238D02*
X9606143Y-8329190D01*
X9615667Y-8319667D01*
X9634714Y-8310143D01*
X9653762Y-8310143D01*
X9720429Y-8443476D02*
X9720429Y-8310143D01*
X9720429Y-8243476D02*
X9710905Y-8253000D01*
X9720429Y-8262524D01*
X9729952Y-8253000D01*
X9720429Y-8243476D01*
X9720429Y-8262524D01*
X9844238Y-8443476D02*
X9825190Y-8433952D01*
X9815667Y-8414905D01*
X9815667Y-8243476D01*
X9949000Y-8443476D02*
X9929952Y-8433952D01*
X9920429Y-8414905D01*
X9920429Y-8243476D01*
X10177571Y-8443476D02*
X10177571Y-8243476D01*
X10244238Y-8386333D01*
X10310905Y-8243476D01*
X10310905Y-8443476D01*
X10491857Y-8443476D02*
X10491857Y-8338714D01*
X10482333Y-8319667D01*
X10463286Y-8310143D01*
X10425190Y-8310143D01*
X10406143Y-8319667D01*
X10491857Y-8433952D02*
X10472810Y-8443476D01*
X10425190Y-8443476D01*
X10406143Y-8433952D01*
X10396619Y-8414905D01*
X10396619Y-8395857D01*
X10406143Y-8376809D01*
X10425190Y-8367286D01*
X10472810Y-8367286D01*
X10491857Y-8357762D01*
X10587095Y-8310143D02*
X10587095Y-8510143D01*
X10587095Y-8319667D02*
X10606143Y-8310143D01*
X10644238Y-8310143D01*
X10663286Y-8319667D01*
X10672810Y-8329190D01*
X10682333Y-8348238D01*
X10682333Y-8405381D01*
X10672810Y-8424429D01*
X10663286Y-8433952D01*
X10644238Y-8443476D01*
X10606143Y-8443476D01*
X10587095Y-8433952D01*
X10768048Y-8424429D02*
X10777571Y-8433952D01*
X10768048Y-8443476D01*
X10758524Y-8433952D01*
X10768048Y-8424429D01*
X10768048Y-8443476D01*
X10768048Y-8319667D02*
X10777571Y-8329190D01*
X10768048Y-8338714D01*
X10758524Y-8329190D01*
X10768048Y-8319667D01*
X10768048Y-8338714D01*
D12*
X9099000Y-8753000D02*
X9139000Y-8793000D01*
X9139000Y-8753000D02*
X9099000Y-8793000D01*
D11*
X9434714Y-8663476D02*
X9453762Y-8663476D01*
X9472810Y-8673000D01*
X9482333Y-8682524D01*
X9491857Y-8701571D01*
X9501381Y-8739667D01*
X9501381Y-8787286D01*
X9491857Y-8825381D01*
X9482333Y-8844429D01*
X9472810Y-8853952D01*
X9453762Y-8863476D01*
X9434714Y-8863476D01*
X9415667Y-8853952D01*
X9406143Y-8844429D01*
X9396619Y-8825381D01*
X9387095Y-8787286D01*
X9387095Y-8739667D01*
X9396619Y-8701571D01*
X9406143Y-8682524D01*
X9415667Y-8673000D01*
X9434714Y-8663476D01*
X9587095Y-8844429D02*
X9596619Y-8853952D01*
X9587095Y-8863476D01*
X9577571Y-8853952D01*
X9587095Y-8844429D01*
X9587095Y-8863476D01*
X9768048Y-8730143D02*
X9768048Y-8863476D01*
X9720429Y-8653952D02*
X9672810Y-8796810D01*
X9796619Y-8796810D01*
X9910905Y-8663476D02*
X9929952Y-8663476D01*
X9949000Y-8673000D01*
X9958524Y-8682524D01*
X9968048Y-8701571D01*
X9977571Y-8739667D01*
X9977571Y-8787286D01*
X9968048Y-8825381D01*
X9958524Y-8844429D01*
X9949000Y-8853952D01*
X9929952Y-8863476D01*
X9910905Y-8863476D01*
X9891857Y-8853952D01*
X9882333Y-8844429D01*
X9872810Y-8825381D01*
X9863286Y-8787286D01*
X9863286Y-8739667D01*
X9872810Y-8701571D01*
X9882333Y-8682524D01*
X9891857Y-8673000D01*
X9910905Y-8663476D01*
X10101381Y-8663476D02*
X10120429Y-8663476D01*
X10139476Y-8673000D01*
X10149000Y-8682524D01*
X10158524Y-8701571D01*
X10168048Y-8739667D01*
X10168048Y-8787286D01*
X10158524Y-8825381D01*
X10149000Y-8844429D01*
X10139476Y-8853952D01*
X10120429Y-8863476D01*
X10101381Y-8863476D01*
X10082333Y-8853952D01*
X10072810Y-8844429D01*
X10063286Y-8825381D01*
X10053762Y-8787286D01*
X10053762Y-8739667D01*
X10063286Y-8701571D01*
X10072810Y-8682524D01*
X10082333Y-8673000D01*
X10101381Y-8663476D01*
X10253762Y-8863476D02*
X10253762Y-8730143D01*
X10253762Y-8749190D02*
X10263286Y-8739667D01*
X10282333Y-8730143D01*
X10310905Y-8730143D01*
X10329952Y-8739667D01*
X10339476Y-8758714D01*
X10339476Y-8863476D01*
X10339476Y-8758714D02*
X10349000Y-8739667D01*
X10368048Y-8730143D01*
X10396619Y-8730143D01*
X10415667Y-8739667D01*
X10425190Y-8758714D01*
X10425190Y-8863476D01*
X10520429Y-8863476D02*
X10520429Y-8730143D01*
X10520429Y-8749190D02*
X10529952Y-8739667D01*
X10549000Y-8730143D01*
X10577571Y-8730143D01*
X10596619Y-8739667D01*
X10606143Y-8758714D01*
X10606143Y-8863476D01*
X10606143Y-8758714D02*
X10615667Y-8739667D01*
X10634714Y-8730143D01*
X10663286Y-8730143D01*
X10682333Y-8739667D01*
X10691857Y-8758714D01*
X10691857Y-8863476D01*
X11082333Y-8653952D02*
X10910905Y-8911095D01*
X11339476Y-8663476D02*
X11358524Y-8663476D01*
X11377571Y-8673000D01*
X11387095Y-8682524D01*
X11396619Y-8701571D01*
X11406143Y-8739667D01*
X11406143Y-8787286D01*
X11396619Y-8825381D01*
X11387095Y-8844429D01*
X11377571Y-8853952D01*
X11358524Y-8863476D01*
X11339476Y-8863476D01*
X11320428Y-8853952D01*
X11310905Y-8844429D01*
X11301381Y-8825381D01*
X11291857Y-8787286D01*
X11291857Y-8739667D01*
X11301381Y-8701571D01*
X11310905Y-8682524D01*
X11320428Y-8673000D01*
X11339476Y-8663476D01*
X11491857Y-8844429D02*
X11501381Y-8853952D01*
X11491857Y-8863476D01*
X11482333Y-8853952D01*
X11491857Y-8844429D01*
X11491857Y-8863476D01*
X11625190Y-8663476D02*
X11644238Y-8663476D01*
X11663286Y-8673000D01*
X11672809Y-8682524D01*
X11682333Y-8701571D01*
X11691857Y-8739667D01*
X11691857Y-8787286D01*
X11682333Y-8825381D01*
X11672809Y-8844429D01*
X11663286Y-8853952D01*
X11644238Y-8863476D01*
X11625190Y-8863476D01*
X11606143Y-8853952D01*
X11596619Y-8844429D01*
X11587095Y-8825381D01*
X11577571Y-8787286D01*
X11577571Y-8739667D01*
X11587095Y-8701571D01*
X11596619Y-8682524D01*
X11606143Y-8673000D01*
X11625190Y-8663476D01*
X11882333Y-8863476D02*
X11768048Y-8863476D01*
X11825190Y-8863476D02*
X11825190Y-8663476D01*
X11806143Y-8692048D01*
X11787095Y-8711095D01*
X11768048Y-8720619D01*
X12063286Y-8663476D02*
X11968048Y-8663476D01*
X11958524Y-8758714D01*
X11968048Y-8749190D01*
X11987095Y-8739667D01*
X12034714Y-8739667D01*
X12053762Y-8749190D01*
X12063286Y-8758714D01*
X12072809Y-8777762D01*
X12072809Y-8825381D01*
X12063286Y-8844429D01*
X12053762Y-8853952D01*
X12034714Y-8863476D01*
X11987095Y-8863476D01*
X11968048Y-8853952D01*
X11958524Y-8844429D01*
X12139476Y-8663476D02*
X12272809Y-8663476D01*
X12187095Y-8863476D01*
X12339476Y-8663476D02*
X12339476Y-8701571D01*
X12415667Y-8663476D02*
X12415667Y-8701571D01*
X12710905Y-8939667D02*
X12701381Y-8930143D01*
X12682333Y-8901571D01*
X12672809Y-8882524D01*
X12663286Y-8853952D01*
X12653762Y-8806333D01*
X12653762Y-8768238D01*
X12663286Y-8720619D01*
X12672809Y-8692048D01*
X12682333Y-8673000D01*
X12701381Y-8644429D01*
X12710905Y-8634905D01*
X12768048Y-8663476D02*
X12891857Y-8663476D01*
X12825190Y-8739667D01*
X12853762Y-8739667D01*
X12872809Y-8749190D01*
X12882333Y-8758714D01*
X12891857Y-8777762D01*
X12891857Y-8825381D01*
X12882333Y-8844429D01*
X12872809Y-8853952D01*
X12853762Y-8863476D01*
X12796619Y-8863476D01*
X12777571Y-8853952D01*
X12768048Y-8844429D01*
X12958524Y-8663476D02*
X13091857Y-8663476D01*
X13006143Y-8863476D01*
X13320428Y-8863476D02*
X13320428Y-8663476D01*
X13406143Y-8863476D02*
X13406143Y-8758714D01*
X13396619Y-8739667D01*
X13377571Y-8730143D01*
X13349000Y-8730143D01*
X13329952Y-8739667D01*
X13320428Y-8749190D01*
X13529952Y-8863476D02*
X13510905Y-8853952D01*
X13501381Y-8844429D01*
X13491857Y-8825381D01*
X13491857Y-8768238D01*
X13501381Y-8749190D01*
X13510905Y-8739667D01*
X13529952Y-8730143D01*
X13558524Y-8730143D01*
X13577571Y-8739667D01*
X13587095Y-8749190D01*
X13596619Y-8768238D01*
X13596619Y-8825381D01*
X13587095Y-8844429D01*
X13577571Y-8853952D01*
X13558524Y-8863476D01*
X13529952Y-8863476D01*
X13710905Y-8863476D02*
X13691857Y-8853952D01*
X13682333Y-8834905D01*
X13682333Y-8663476D01*
X13863286Y-8853952D02*
X13844238Y-8863476D01*
X13806143Y-8863476D01*
X13787095Y-8853952D01*
X13777571Y-8834905D01*
X13777571Y-8758714D01*
X13787095Y-8739667D01*
X13806143Y-8730143D01*
X13844238Y-8730143D01*
X13863286Y-8739667D01*
X13872809Y-8758714D01*
X13872809Y-8777762D01*
X13777571Y-8796810D01*
X13949000Y-8853952D02*
X13968048Y-8863476D01*
X14006143Y-8863476D01*
X14025190Y-8853952D01*
X14034714Y-8834905D01*
X14034714Y-8825381D01*
X14025190Y-8806333D01*
X14006143Y-8796810D01*
X13977571Y-8796810D01*
X13958524Y-8787286D01*
X13949000Y-8768238D01*
X13949000Y-8758714D01*
X13958524Y-8739667D01*
X13977571Y-8730143D01*
X14006143Y-8730143D01*
X14025190Y-8739667D01*
X14101381Y-8939667D02*
X14110905Y-8930143D01*
X14129952Y-8901571D01*
X14139476Y-8882524D01*
X14149000Y-8853952D01*
X14158524Y-8806333D01*
X14158524Y-8768238D01*
X14149000Y-8720619D01*
X14139476Y-8692048D01*
X14129952Y-8673000D01*
X14110905Y-8644429D01*
X14101381Y-8634905D01*
D13*
X9139000Y-9037000D02*
G75*
G03*
X9139000Y-9037000I-38100J0D01*
G01*
D11*
X9434714Y-8927476D02*
X9453762Y-8927476D01*
X9472810Y-8937000D01*
X9482333Y-8946524D01*
X9491857Y-8965571D01*
X9501381Y-9003667D01*
X9501381Y-9051286D01*
X9491857Y-9089381D01*
X9482333Y-9108429D01*
X9472810Y-9117952D01*
X9453762Y-9127476D01*
X9434714Y-9127476D01*
X9415667Y-9117952D01*
X9406143Y-9108429D01*
X9396619Y-9089381D01*
X9387095Y-9051286D01*
X9387095Y-9003667D01*
X9396619Y-8965571D01*
X9406143Y-8946524D01*
X9415667Y-8937000D01*
X9434714Y-8927476D01*
X9587095Y-9108429D02*
X9596619Y-9117952D01*
X9587095Y-9127476D01*
X9577571Y-9117952D01*
X9587095Y-9108429D01*
X9587095Y-9127476D01*
X9663286Y-8927476D02*
X9796619Y-8927476D01*
X9710905Y-9127476D01*
X9958524Y-8927476D02*
X9920429Y-8927476D01*
X9901381Y-8937000D01*
X9891857Y-8946524D01*
X9872810Y-8975095D01*
X9863286Y-9013190D01*
X9863286Y-9089381D01*
X9872810Y-9108429D01*
X9882333Y-9117952D01*
X9901381Y-9127476D01*
X9939476Y-9127476D01*
X9958524Y-9117952D01*
X9968048Y-9108429D01*
X9977571Y-9089381D01*
X9977571Y-9041762D01*
X9968048Y-9022714D01*
X9958524Y-9013190D01*
X9939476Y-9003667D01*
X9901381Y-9003667D01*
X9882333Y-9013190D01*
X9872810Y-9022714D01*
X9863286Y-9041762D01*
X10053762Y-8946524D02*
X10063286Y-8937000D01*
X10082333Y-8927476D01*
X10129952Y-8927476D01*
X10149000Y-8937000D01*
X10158524Y-8946524D01*
X10168048Y-8965571D01*
X10168048Y-8984619D01*
X10158524Y-9013190D01*
X10044238Y-9127476D01*
X10168048Y-9127476D01*
X10253762Y-9127476D02*
X10253762Y-8994143D01*
X10253762Y-9013190D02*
X10263286Y-9003667D01*
X10282333Y-8994143D01*
X10310905Y-8994143D01*
X10329952Y-9003667D01*
X10339476Y-9022714D01*
X10339476Y-9127476D01*
X10339476Y-9022714D02*
X10349000Y-9003667D01*
X10368048Y-8994143D01*
X10396619Y-8994143D01*
X10415667Y-9003667D01*
X10425190Y-9022714D01*
X10425190Y-9127476D01*
X10520429Y-9127476D02*
X10520429Y-8994143D01*
X10520429Y-9013190D02*
X10529952Y-9003667D01*
X10549000Y-8994143D01*
X10577571Y-8994143D01*
X10596619Y-9003667D01*
X10606143Y-9022714D01*
X10606143Y-9127476D01*
X10606143Y-9022714D02*
X10615667Y-9003667D01*
X10634714Y-8994143D01*
X10663286Y-8994143D01*
X10682333Y-9003667D01*
X10691857Y-9022714D01*
X10691857Y-9127476D01*
X11082333Y-8917952D02*
X10910905Y-9175095D01*
X11339476Y-8927476D02*
X11358524Y-8927476D01*
X11377571Y-8937000D01*
X11387095Y-8946524D01*
X11396619Y-8965571D01*
X11406143Y-9003667D01*
X11406143Y-9051286D01*
X11396619Y-9089381D01*
X11387095Y-9108429D01*
X11377571Y-9117952D01*
X11358524Y-9127476D01*
X11339476Y-9127476D01*
X11320428Y-9117952D01*
X11310905Y-9108429D01*
X11301381Y-9089381D01*
X11291857Y-9051286D01*
X11291857Y-9003667D01*
X11301381Y-8965571D01*
X11310905Y-8946524D01*
X11320428Y-8937000D01*
X11339476Y-8927476D01*
X11491857Y-9108429D02*
X11501381Y-9117952D01*
X11491857Y-9127476D01*
X11482333Y-9117952D01*
X11491857Y-9108429D01*
X11491857Y-9127476D01*
X11625190Y-8927476D02*
X11644238Y-8927476D01*
X11663286Y-8937000D01*
X11672809Y-8946524D01*
X11682333Y-8965571D01*
X11691857Y-9003667D01*
X11691857Y-9051286D01*
X11682333Y-9089381D01*
X11672809Y-9108429D01*
X11663286Y-9117952D01*
X11644238Y-9127476D01*
X11625190Y-9127476D01*
X11606143Y-9117952D01*
X11596619Y-9108429D01*
X11587095Y-9089381D01*
X11577571Y-9051286D01*
X11577571Y-9003667D01*
X11587095Y-8965571D01*
X11596619Y-8946524D01*
X11606143Y-8937000D01*
X11625190Y-8927476D01*
X11758524Y-8927476D02*
X11882333Y-8927476D01*
X11815667Y-9003667D01*
X11844238Y-9003667D01*
X11863286Y-9013190D01*
X11872809Y-9022714D01*
X11882333Y-9041762D01*
X11882333Y-9089381D01*
X11872809Y-9108429D01*
X11863286Y-9117952D01*
X11844238Y-9127476D01*
X11787095Y-9127476D01*
X11768048Y-9117952D01*
X11758524Y-9108429D01*
X12006143Y-8927476D02*
X12025190Y-8927476D01*
X12044238Y-8937000D01*
X12053762Y-8946524D01*
X12063286Y-8965571D01*
X12072809Y-9003667D01*
X12072809Y-9051286D01*
X12063286Y-9089381D01*
X12053762Y-9108429D01*
X12044238Y-9117952D01*
X12025190Y-9127476D01*
X12006143Y-9127476D01*
X11987095Y-9117952D01*
X11977571Y-9108429D01*
X11968048Y-9089381D01*
X11958524Y-9051286D01*
X11958524Y-9003667D01*
X11968048Y-8965571D01*
X11977571Y-8946524D01*
X11987095Y-8937000D01*
X12006143Y-8927476D01*
X12196619Y-8927476D02*
X12215667Y-8927476D01*
X12234714Y-8937000D01*
X12244238Y-8946524D01*
X12253762Y-8965571D01*
X12263286Y-9003667D01*
X12263286Y-9051286D01*
X12253762Y-9089381D01*
X12244238Y-9108429D01*
X12234714Y-9117952D01*
X12215667Y-9127476D01*
X12196619Y-9127476D01*
X12177571Y-9117952D01*
X12168048Y-9108429D01*
X12158524Y-9089381D01*
X12149000Y-9051286D01*
X12149000Y-9003667D01*
X12158524Y-8965571D01*
X12168048Y-8946524D01*
X12177571Y-8937000D01*
X12196619Y-8927476D01*
X12339476Y-8927476D02*
X12339476Y-8965571D01*
X12415667Y-8927476D02*
X12415667Y-8965571D01*
X12710905Y-9203667D02*
X12701381Y-9194143D01*
X12682333Y-9165571D01*
X12672809Y-9146524D01*
X12663286Y-9117952D01*
X12653762Y-9070333D01*
X12653762Y-9032238D01*
X12663286Y-8984619D01*
X12672809Y-8956048D01*
X12682333Y-8937000D01*
X12701381Y-8908429D01*
X12710905Y-8898905D01*
X12777571Y-8946524D02*
X12787095Y-8937000D01*
X12806143Y-8927476D01*
X12853762Y-8927476D01*
X12872809Y-8937000D01*
X12882333Y-8946524D01*
X12891857Y-8965571D01*
X12891857Y-8984619D01*
X12882333Y-9013190D01*
X12768048Y-9127476D01*
X12891857Y-9127476D01*
X13063286Y-8994143D02*
X13063286Y-9127476D01*
X13015667Y-8917952D02*
X12968048Y-9060810D01*
X13091857Y-9060810D01*
X13320428Y-9127476D02*
X13320428Y-8927476D01*
X13406143Y-9127476D02*
X13406143Y-9022714D01*
X13396619Y-9003667D01*
X13377571Y-8994143D01*
X13349000Y-8994143D01*
X13329952Y-9003667D01*
X13320428Y-9013190D01*
X13529952Y-9127476D02*
X13510905Y-9117952D01*
X13501381Y-9108429D01*
X13491857Y-9089381D01*
X13491857Y-9032238D01*
X13501381Y-9013190D01*
X13510905Y-9003667D01*
X13529952Y-8994143D01*
X13558524Y-8994143D01*
X13577571Y-9003667D01*
X13587095Y-9013190D01*
X13596619Y-9032238D01*
X13596619Y-9089381D01*
X13587095Y-9108429D01*
X13577571Y-9117952D01*
X13558524Y-9127476D01*
X13529952Y-9127476D01*
X13710905Y-9127476D02*
X13691857Y-9117952D01*
X13682333Y-9098905D01*
X13682333Y-8927476D01*
X13863286Y-9117952D02*
X13844238Y-9127476D01*
X13806143Y-9127476D01*
X13787095Y-9117952D01*
X13777571Y-9098905D01*
X13777571Y-9022714D01*
X13787095Y-9003667D01*
X13806143Y-8994143D01*
X13844238Y-8994143D01*
X13863286Y-9003667D01*
X13872809Y-9022714D01*
X13872809Y-9041762D01*
X13777571Y-9060810D01*
X13949000Y-9117952D02*
X13968048Y-9127476D01*
X14006143Y-9127476D01*
X14025190Y-9117952D01*
X14034714Y-9098905D01*
X14034714Y-9089381D01*
X14025190Y-9070333D01*
X14006143Y-9060810D01*
X13977571Y-9060810D01*
X13958524Y-9051286D01*
X13949000Y-9032238D01*
X13949000Y-9022714D01*
X13958524Y-9003667D01*
X13977571Y-8994143D01*
X14006143Y-8994143D01*
X14025190Y-9003667D01*
X14101381Y-9203667D02*
X14110905Y-9194143D01*
X14129952Y-9165571D01*
X14139476Y-9146524D01*
X14149000Y-9117952D01*
X14158524Y-9070333D01*
X14158524Y-9032238D01*
X14149000Y-8984619D01*
X14139476Y-8956048D01*
X14129952Y-8937000D01*
X14110905Y-8908429D01*
X14101381Y-8898905D01*
D14*
X9089000Y-9251000D02*
X9089000Y-9351000D01*
X9039000Y-9301000D02*
X9139000Y-9301000D01*
D11*
X9501381Y-9391476D02*
X9387095Y-9391476D01*
X9444238Y-9391476D02*
X9444238Y-9191476D01*
X9425190Y-9220048D01*
X9406143Y-9239095D01*
X9387095Y-9248619D01*
X9587095Y-9372429D02*
X9596619Y-9381952D01*
X9587095Y-9391476D01*
X9577571Y-9381952D01*
X9587095Y-9372429D01*
X9587095Y-9391476D01*
X9720429Y-9191476D02*
X9739476Y-9191476D01*
X9758524Y-9201000D01*
X9768048Y-9210524D01*
X9777571Y-9229571D01*
X9787095Y-9267667D01*
X9787095Y-9315286D01*
X9777571Y-9353381D01*
X9768048Y-9372429D01*
X9758524Y-9381952D01*
X9739476Y-9391476D01*
X9720429Y-9391476D01*
X9701381Y-9381952D01*
X9691857Y-9372429D01*
X9682333Y-9353381D01*
X9672810Y-9315286D01*
X9672810Y-9267667D01*
X9682333Y-9229571D01*
X9691857Y-9210524D01*
X9701381Y-9201000D01*
X9720429Y-9191476D01*
X9910905Y-9191476D02*
X9929952Y-9191476D01*
X9949000Y-9201000D01*
X9958524Y-9210524D01*
X9968048Y-9229571D01*
X9977571Y-9267667D01*
X9977571Y-9315286D01*
X9968048Y-9353381D01*
X9958524Y-9372429D01*
X9949000Y-9381952D01*
X9929952Y-9391476D01*
X9910905Y-9391476D01*
X9891857Y-9381952D01*
X9882333Y-9372429D01*
X9872810Y-9353381D01*
X9863286Y-9315286D01*
X9863286Y-9267667D01*
X9872810Y-9229571D01*
X9882333Y-9210524D01*
X9891857Y-9201000D01*
X9910905Y-9191476D01*
X10101381Y-9191476D02*
X10120429Y-9191476D01*
X10139476Y-9201000D01*
X10149000Y-9210524D01*
X10158524Y-9229571D01*
X10168048Y-9267667D01*
X10168048Y-9315286D01*
X10158524Y-9353381D01*
X10149000Y-9372429D01*
X10139476Y-9381952D01*
X10120429Y-9391476D01*
X10101381Y-9391476D01*
X10082333Y-9381952D01*
X10072810Y-9372429D01*
X10063286Y-9353381D01*
X10053762Y-9315286D01*
X10053762Y-9267667D01*
X10063286Y-9229571D01*
X10072810Y-9210524D01*
X10082333Y-9201000D01*
X10101381Y-9191476D01*
X10253762Y-9391476D02*
X10253762Y-9258143D01*
X10253762Y-9277190D02*
X10263286Y-9267667D01*
X10282333Y-9258143D01*
X10310905Y-9258143D01*
X10329952Y-9267667D01*
X10339476Y-9286714D01*
X10339476Y-9391476D01*
X10339476Y-9286714D02*
X10349000Y-9267667D01*
X10368048Y-9258143D01*
X10396619Y-9258143D01*
X10415667Y-9267667D01*
X10425190Y-9286714D01*
X10425190Y-9391476D01*
X10520429Y-9391476D02*
X10520429Y-9258143D01*
X10520429Y-9277190D02*
X10529952Y-9267667D01*
X10549000Y-9258143D01*
X10577571Y-9258143D01*
X10596619Y-9267667D01*
X10606143Y-9286714D01*
X10606143Y-9391476D01*
X10606143Y-9286714D02*
X10615667Y-9267667D01*
X10634714Y-9258143D01*
X10663286Y-9258143D01*
X10682333Y-9267667D01*
X10691857Y-9286714D01*
X10691857Y-9391476D01*
X11082333Y-9181952D02*
X10910905Y-9439095D01*
X11339476Y-9191476D02*
X11358524Y-9191476D01*
X11377571Y-9201000D01*
X11387095Y-9210524D01*
X11396619Y-9229571D01*
X11406143Y-9267667D01*
X11406143Y-9315286D01*
X11396619Y-9353381D01*
X11387095Y-9372429D01*
X11377571Y-9381952D01*
X11358524Y-9391476D01*
X11339476Y-9391476D01*
X11320428Y-9381952D01*
X11310905Y-9372429D01*
X11301381Y-9353381D01*
X11291857Y-9315286D01*
X11291857Y-9267667D01*
X11301381Y-9229571D01*
X11310905Y-9210524D01*
X11320428Y-9201000D01*
X11339476Y-9191476D01*
X11491857Y-9372429D02*
X11501381Y-9381952D01*
X11491857Y-9391476D01*
X11482333Y-9381952D01*
X11491857Y-9372429D01*
X11491857Y-9391476D01*
X11625190Y-9191476D02*
X11644238Y-9191476D01*
X11663286Y-9201000D01*
X11672809Y-9210524D01*
X11682333Y-9229571D01*
X11691857Y-9267667D01*
X11691857Y-9315286D01*
X11682333Y-9353381D01*
X11672809Y-9372429D01*
X11663286Y-9381952D01*
X11644238Y-9391476D01*
X11625190Y-9391476D01*
X11606143Y-9381952D01*
X11596619Y-9372429D01*
X11587095Y-9353381D01*
X11577571Y-9315286D01*
X11577571Y-9267667D01*
X11587095Y-9229571D01*
X11596619Y-9210524D01*
X11606143Y-9201000D01*
X11625190Y-9191476D01*
X11758524Y-9191476D02*
X11882333Y-9191476D01*
X11815667Y-9267667D01*
X11844238Y-9267667D01*
X11863286Y-9277190D01*
X11872809Y-9286714D01*
X11882333Y-9305762D01*
X11882333Y-9353381D01*
X11872809Y-9372429D01*
X11863286Y-9381952D01*
X11844238Y-9391476D01*
X11787095Y-9391476D01*
X11768048Y-9381952D01*
X11758524Y-9372429D01*
X11977571Y-9391476D02*
X12015667Y-9391476D01*
X12034714Y-9381952D01*
X12044238Y-9372429D01*
X12063286Y-9343857D01*
X12072809Y-9305762D01*
X12072809Y-9229571D01*
X12063286Y-9210524D01*
X12053762Y-9201000D01*
X12034714Y-9191476D01*
X11996619Y-9191476D01*
X11977571Y-9201000D01*
X11968048Y-9210524D01*
X11958524Y-9229571D01*
X11958524Y-9277190D01*
X11968048Y-9296238D01*
X11977571Y-9305762D01*
X11996619Y-9315286D01*
X12034714Y-9315286D01*
X12053762Y-9305762D01*
X12063286Y-9296238D01*
X12072809Y-9277190D01*
X12244238Y-9258143D02*
X12244238Y-9391476D01*
X12196619Y-9181952D02*
X12149000Y-9324810D01*
X12272809Y-9324810D01*
X12339476Y-9191476D02*
X12339476Y-9229571D01*
X12415667Y-9191476D02*
X12415667Y-9229571D01*
X12710905Y-9467667D02*
X12701381Y-9458143D01*
X12682333Y-9429571D01*
X12672809Y-9410524D01*
X12663286Y-9381952D01*
X12653762Y-9334333D01*
X12653762Y-9296238D01*
X12663286Y-9248619D01*
X12672809Y-9220048D01*
X12682333Y-9201000D01*
X12701381Y-9172429D01*
X12710905Y-9162905D01*
X12777571Y-9210524D02*
X12787095Y-9201000D01*
X12806143Y-9191476D01*
X12853762Y-9191476D01*
X12872809Y-9201000D01*
X12882333Y-9210524D01*
X12891857Y-9229571D01*
X12891857Y-9248619D01*
X12882333Y-9277190D01*
X12768048Y-9391476D01*
X12891857Y-9391476D01*
X13015667Y-9191476D02*
X13034714Y-9191476D01*
X13053762Y-9201000D01*
X13063286Y-9210524D01*
X13072809Y-9229571D01*
X13082333Y-9267667D01*
X13082333Y-9315286D01*
X13072809Y-9353381D01*
X13063286Y-9372429D01*
X13053762Y-9381952D01*
X13034714Y-9391476D01*
X13015667Y-9391476D01*
X12996619Y-9381952D01*
X12987095Y-9372429D01*
X12977571Y-9353381D01*
X12968048Y-9315286D01*
X12968048Y-9267667D01*
X12977571Y-9229571D01*
X12987095Y-9210524D01*
X12996619Y-9201000D01*
X13015667Y-9191476D01*
X13320428Y-9391476D02*
X13320428Y-9191476D01*
X13406143Y-9391476D02*
X13406143Y-9286714D01*
X13396619Y-9267667D01*
X13377571Y-9258143D01*
X13349000Y-9258143D01*
X13329952Y-9267667D01*
X13320428Y-9277190D01*
X13529952Y-9391476D02*
X13510905Y-9381952D01*
X13501381Y-9372429D01*
X13491857Y-9353381D01*
X13491857Y-9296238D01*
X13501381Y-9277190D01*
X13510905Y-9267667D01*
X13529952Y-9258143D01*
X13558524Y-9258143D01*
X13577571Y-9267667D01*
X13587095Y-9277190D01*
X13596619Y-9296238D01*
X13596619Y-9353381D01*
X13587095Y-9372429D01*
X13577571Y-9381952D01*
X13558524Y-9391476D01*
X13529952Y-9391476D01*
X13710905Y-9391476D02*
X13691857Y-9381952D01*
X13682333Y-9362905D01*
X13682333Y-9191476D01*
X13863286Y-9381952D02*
X13844238Y-9391476D01*
X13806143Y-9391476D01*
X13787095Y-9381952D01*
X13777571Y-9362905D01*
X13777571Y-9286714D01*
X13787095Y-9267667D01*
X13806143Y-9258143D01*
X13844238Y-9258143D01*
X13863286Y-9267667D01*
X13872809Y-9286714D01*
X13872809Y-9305762D01*
X13777571Y-9324810D01*
X13949000Y-9381952D02*
X13968048Y-9391476D01*
X14006143Y-9391476D01*
X14025190Y-9381952D01*
X14034714Y-9362905D01*
X14034714Y-9353381D01*
X14025190Y-9334333D01*
X14006143Y-9324810D01*
X13977571Y-9324810D01*
X13958524Y-9315286D01*
X13949000Y-9296238D01*
X13949000Y-9286714D01*
X13958524Y-9267667D01*
X13977571Y-9258143D01*
X14006143Y-9258143D01*
X14025190Y-9267667D01*
X14272809Y-9315286D02*
X14425190Y-9315286D01*
X14349000Y-9391476D02*
X14349000Y-9239095D01*
X14663286Y-9210524D02*
X14672809Y-9201000D01*
X14691857Y-9191476D01*
X14739476Y-9191476D01*
X14758524Y-9201000D01*
X14768048Y-9210524D01*
X14777571Y-9229571D01*
X14777571Y-9248619D01*
X14768048Y-9277190D01*
X14653762Y-9391476D01*
X14777571Y-9391476D01*
X15006143Y-9381952D02*
X15025190Y-9391476D01*
X15063286Y-9391476D01*
X15082333Y-9381952D01*
X15091857Y-9362905D01*
X15091857Y-9353381D01*
X15082333Y-9334333D01*
X15063286Y-9324810D01*
X15034714Y-9324810D01*
X15015667Y-9315286D01*
X15006143Y-9296238D01*
X15006143Y-9286714D01*
X15015667Y-9267667D01*
X15034714Y-9258143D01*
X15063286Y-9258143D01*
X15082333Y-9267667D01*
X15206143Y-9391476D02*
X15187095Y-9381952D01*
X15177571Y-9362905D01*
X15177571Y-9191476D01*
X15310905Y-9391476D02*
X15291857Y-9381952D01*
X15282333Y-9372429D01*
X15272809Y-9353381D01*
X15272809Y-9296238D01*
X15282333Y-9277190D01*
X15291857Y-9267667D01*
X15310905Y-9258143D01*
X15339476Y-9258143D01*
X15358524Y-9267667D01*
X15368048Y-9277190D01*
X15377571Y-9296238D01*
X15377571Y-9353381D01*
X15368048Y-9372429D01*
X15358524Y-9381952D01*
X15339476Y-9391476D01*
X15310905Y-9391476D01*
X15434714Y-9258143D02*
X15510905Y-9258143D01*
X15463286Y-9191476D02*
X15463286Y-9362905D01*
X15472809Y-9381952D01*
X15491857Y-9391476D01*
X15510905Y-9391476D01*
X15568048Y-9381952D02*
X15587095Y-9391476D01*
X15625190Y-9391476D01*
X15644238Y-9381952D01*
X15653762Y-9362905D01*
X15653762Y-9353381D01*
X15644238Y-9334333D01*
X15625190Y-9324810D01*
X15596619Y-9324810D01*
X15577571Y-9315286D01*
X15568048Y-9296238D01*
X15568048Y-9286714D01*
X15577571Y-9267667D01*
X15596619Y-9258143D01*
X15625190Y-9258143D01*
X15644238Y-9267667D01*
X15720428Y-9467667D02*
X15729952Y-9458143D01*
X15749000Y-9429571D01*
X15758524Y-9410524D01*
X15768048Y-9381952D01*
X15777571Y-9334333D01*
X15777571Y-9296238D01*
X15768048Y-9248619D01*
X15758524Y-9220048D01*
X15749000Y-9201000D01*
X15729952Y-9172429D01*
X15720428Y-9162905D01*
D15*
X9116741Y-9618741D02*
X9116741Y-9511259D01*
X9009259Y-9511259D01*
X9009259Y-9618741D01*
X9116741Y-9618741D01*
D11*
X9501381Y-9655476D02*
X9387095Y-9655476D01*
X9444238Y-9655476D02*
X9444238Y-9455476D01*
X9425190Y-9484048D01*
X9406143Y-9503095D01*
X9387095Y-9512619D01*
X9587095Y-9636429D02*
X9596619Y-9645952D01*
X9587095Y-9655476D01*
X9577571Y-9645952D01*
X9587095Y-9636429D01*
X9587095Y-9655476D01*
X9777571Y-9455476D02*
X9682333Y-9455476D01*
X9672810Y-9550714D01*
X9682333Y-9541190D01*
X9701381Y-9531667D01*
X9749000Y-9531667D01*
X9768048Y-9541190D01*
X9777571Y-9550714D01*
X9787095Y-9569762D01*
X9787095Y-9617381D01*
X9777571Y-9636429D01*
X9768048Y-9645952D01*
X9749000Y-9655476D01*
X9701381Y-9655476D01*
X9682333Y-9645952D01*
X9672810Y-9636429D01*
X9863286Y-9474524D02*
X9872810Y-9465000D01*
X9891857Y-9455476D01*
X9939476Y-9455476D01*
X9958524Y-9465000D01*
X9968048Y-9474524D01*
X9977571Y-9493571D01*
X9977571Y-9512619D01*
X9968048Y-9541190D01*
X9853762Y-9655476D01*
X9977571Y-9655476D01*
X10101381Y-9455476D02*
X10120429Y-9455476D01*
X10139476Y-9465000D01*
X10149000Y-9474524D01*
X10158524Y-9493571D01*
X10168048Y-9531667D01*
X10168048Y-9579286D01*
X10158524Y-9617381D01*
X10149000Y-9636429D01*
X10139476Y-9645952D01*
X10120429Y-9655476D01*
X10101381Y-9655476D01*
X10082333Y-9645952D01*
X10072810Y-9636429D01*
X10063286Y-9617381D01*
X10053762Y-9579286D01*
X10053762Y-9531667D01*
X10063286Y-9493571D01*
X10072810Y-9474524D01*
X10082333Y-9465000D01*
X10101381Y-9455476D01*
X10253762Y-9655476D02*
X10253762Y-9522143D01*
X10253762Y-9541190D02*
X10263286Y-9531667D01*
X10282333Y-9522143D01*
X10310905Y-9522143D01*
X10329952Y-9531667D01*
X10339476Y-9550714D01*
X10339476Y-9655476D01*
X10339476Y-9550714D02*
X10349000Y-9531667D01*
X10368048Y-9522143D01*
X10396619Y-9522143D01*
X10415667Y-9531667D01*
X10425190Y-9550714D01*
X10425190Y-9655476D01*
X10520429Y-9655476D02*
X10520429Y-9522143D01*
X10520429Y-9541190D02*
X10529952Y-9531667D01*
X10549000Y-9522143D01*
X10577571Y-9522143D01*
X10596619Y-9531667D01*
X10606143Y-9550714D01*
X10606143Y-9655476D01*
X10606143Y-9550714D02*
X10615667Y-9531667D01*
X10634714Y-9522143D01*
X10663286Y-9522143D01*
X10682333Y-9531667D01*
X10691857Y-9550714D01*
X10691857Y-9655476D01*
X11082333Y-9445952D02*
X10910905Y-9703095D01*
X11339476Y-9455476D02*
X11358524Y-9455476D01*
X11377571Y-9465000D01*
X11387095Y-9474524D01*
X11396619Y-9493571D01*
X11406143Y-9531667D01*
X11406143Y-9579286D01*
X11396619Y-9617381D01*
X11387095Y-9636429D01*
X11377571Y-9645952D01*
X11358524Y-9655476D01*
X11339476Y-9655476D01*
X11320428Y-9645952D01*
X11310905Y-9636429D01*
X11301381Y-9617381D01*
X11291857Y-9579286D01*
X11291857Y-9531667D01*
X11301381Y-9493571D01*
X11310905Y-9474524D01*
X11320428Y-9465000D01*
X11339476Y-9455476D01*
X11491857Y-9636429D02*
X11501381Y-9645952D01*
X11491857Y-9655476D01*
X11482333Y-9645952D01*
X11491857Y-9636429D01*
X11491857Y-9655476D01*
X11625190Y-9455476D02*
X11644238Y-9455476D01*
X11663286Y-9465000D01*
X11672809Y-9474524D01*
X11682333Y-9493571D01*
X11691857Y-9531667D01*
X11691857Y-9579286D01*
X11682333Y-9617381D01*
X11672809Y-9636429D01*
X11663286Y-9645952D01*
X11644238Y-9655476D01*
X11625190Y-9655476D01*
X11606143Y-9645952D01*
X11596619Y-9636429D01*
X11587095Y-9617381D01*
X11577571Y-9579286D01*
X11577571Y-9531667D01*
X11587095Y-9493571D01*
X11596619Y-9474524D01*
X11606143Y-9465000D01*
X11625190Y-9455476D01*
X11872809Y-9455476D02*
X11777571Y-9455476D01*
X11768048Y-9550714D01*
X11777571Y-9541190D01*
X11796619Y-9531667D01*
X11844238Y-9531667D01*
X11863286Y-9541190D01*
X11872809Y-9550714D01*
X11882333Y-9569762D01*
X11882333Y-9617381D01*
X11872809Y-9636429D01*
X11863286Y-9645952D01*
X11844238Y-9655476D01*
X11796619Y-9655476D01*
X11777571Y-9645952D01*
X11768048Y-9636429D01*
X11977571Y-9655476D02*
X12015667Y-9655476D01*
X12034714Y-9645952D01*
X12044238Y-9636429D01*
X12063286Y-9607857D01*
X12072809Y-9569762D01*
X12072809Y-9493571D01*
X12063286Y-9474524D01*
X12053762Y-9465000D01*
X12034714Y-9455476D01*
X11996619Y-9455476D01*
X11977571Y-9465000D01*
X11968048Y-9474524D01*
X11958524Y-9493571D01*
X11958524Y-9541190D01*
X11968048Y-9560238D01*
X11977571Y-9569762D01*
X11996619Y-9579286D01*
X12034714Y-9579286D01*
X12053762Y-9569762D01*
X12063286Y-9560238D01*
X12072809Y-9541190D01*
X12187095Y-9541190D02*
X12168048Y-9531667D01*
X12158524Y-9522143D01*
X12149000Y-9503095D01*
X12149000Y-9493571D01*
X12158524Y-9474524D01*
X12168048Y-9465000D01*
X12187095Y-9455476D01*
X12225190Y-9455476D01*
X12244238Y-9465000D01*
X12253762Y-9474524D01*
X12263286Y-9493571D01*
X12263286Y-9503095D01*
X12253762Y-9522143D01*
X12244238Y-9531667D01*
X12225190Y-9541190D01*
X12187095Y-9541190D01*
X12168048Y-9550714D01*
X12158524Y-9560238D01*
X12149000Y-9579286D01*
X12149000Y-9617381D01*
X12158524Y-9636429D01*
X12168048Y-9645952D01*
X12187095Y-9655476D01*
X12225190Y-9655476D01*
X12244238Y-9645952D01*
X12253762Y-9636429D01*
X12263286Y-9617381D01*
X12263286Y-9579286D01*
X12253762Y-9560238D01*
X12244238Y-9550714D01*
X12225190Y-9541190D01*
X12339476Y-9455476D02*
X12339476Y-9493571D01*
X12415667Y-9455476D02*
X12415667Y-9493571D01*
X12710905Y-9731667D02*
X12701381Y-9722143D01*
X12682333Y-9693571D01*
X12672809Y-9674524D01*
X12663286Y-9645952D01*
X12653762Y-9598333D01*
X12653762Y-9560238D01*
X12663286Y-9512619D01*
X12672809Y-9484048D01*
X12682333Y-9465000D01*
X12701381Y-9436429D01*
X12710905Y-9426905D01*
X12872809Y-9522143D02*
X12872809Y-9655476D01*
X12825190Y-9445952D02*
X12777571Y-9588810D01*
X12901381Y-9588810D01*
X13129952Y-9655476D02*
X13129952Y-9455476D01*
X13215667Y-9655476D02*
X13215667Y-9550714D01*
X13206143Y-9531667D01*
X13187095Y-9522143D01*
X13158524Y-9522143D01*
X13139476Y-9531667D01*
X13129952Y-9541190D01*
X13339476Y-9655476D02*
X13320428Y-9645952D01*
X13310905Y-9636429D01*
X13301381Y-9617381D01*
X13301381Y-9560238D01*
X13310905Y-9541190D01*
X13320428Y-9531667D01*
X13339476Y-9522143D01*
X13368048Y-9522143D01*
X13387095Y-9531667D01*
X13396619Y-9541190D01*
X13406143Y-9560238D01*
X13406143Y-9617381D01*
X13396619Y-9636429D01*
X13387095Y-9645952D01*
X13368048Y-9655476D01*
X13339476Y-9655476D01*
X13520428Y-9655476D02*
X13501381Y-9645952D01*
X13491857Y-9626905D01*
X13491857Y-9455476D01*
X13672809Y-9645952D02*
X13653762Y-9655476D01*
X13615667Y-9655476D01*
X13596619Y-9645952D01*
X13587095Y-9626905D01*
X13587095Y-9550714D01*
X13596619Y-9531667D01*
X13615667Y-9522143D01*
X13653762Y-9522143D01*
X13672809Y-9531667D01*
X13682333Y-9550714D01*
X13682333Y-9569762D01*
X13587095Y-9588810D01*
X13758524Y-9645952D02*
X13777571Y-9655476D01*
X13815667Y-9655476D01*
X13834714Y-9645952D01*
X13844238Y-9626905D01*
X13844238Y-9617381D01*
X13834714Y-9598333D01*
X13815667Y-9588810D01*
X13787095Y-9588810D01*
X13768048Y-9579286D01*
X13758524Y-9560238D01*
X13758524Y-9550714D01*
X13768048Y-9531667D01*
X13787095Y-9522143D01*
X13815667Y-9522143D01*
X13834714Y-9531667D01*
X13910905Y-9731667D02*
X13920428Y-9722143D01*
X13939476Y-9693571D01*
X13949000Y-9674524D01*
X13958524Y-9645952D01*
X13968048Y-9598333D01*
X13968048Y-9560238D01*
X13958524Y-9512619D01*
X13949000Y-9484048D01*
X13939476Y-9465000D01*
X13920428Y-9436429D01*
X13910905Y-9426905D01*
X9039000Y-9937000D02*
X9139000Y-9837000D01*
X9039000Y-9737000D01*
X8939000Y-9837000D01*
X9039000Y-9937000D01*
X9387095Y-9746524D02*
X9396619Y-9737000D01*
X9415667Y-9727476D01*
X9463286Y-9727476D01*
X9482333Y-9737000D01*
X9491857Y-9746524D01*
X9501381Y-9765571D01*
X9501381Y-9784619D01*
X9491857Y-9813190D01*
X9377571Y-9927476D01*
X9501381Y-9927476D01*
X9587095Y-9908429D02*
X9596619Y-9917952D01*
X9587095Y-9927476D01*
X9577571Y-9917952D01*
X9587095Y-9908429D01*
X9587095Y-9927476D01*
X9768048Y-9794143D02*
X9768048Y-9927476D01*
X9720429Y-9717952D02*
X9672810Y-9860810D01*
X9796619Y-9860810D01*
X9863286Y-9746524D02*
X9872810Y-9737000D01*
X9891857Y-9727476D01*
X9939476Y-9727476D01*
X9958524Y-9737000D01*
X9968048Y-9746524D01*
X9977571Y-9765571D01*
X9977571Y-9784619D01*
X9968048Y-9813190D01*
X9853762Y-9927476D01*
X9977571Y-9927476D01*
X10101381Y-9727476D02*
X10120429Y-9727476D01*
X10139476Y-9737000D01*
X10149000Y-9746524D01*
X10158524Y-9765571D01*
X10168048Y-9803667D01*
X10168048Y-9851286D01*
X10158524Y-9889381D01*
X10149000Y-9908429D01*
X10139476Y-9917952D01*
X10120429Y-9927476D01*
X10101381Y-9927476D01*
X10082333Y-9917952D01*
X10072810Y-9908429D01*
X10063286Y-9889381D01*
X10053762Y-9851286D01*
X10053762Y-9803667D01*
X10063286Y-9765571D01*
X10072810Y-9746524D01*
X10082333Y-9737000D01*
X10101381Y-9727476D01*
X10253762Y-9927476D02*
X10253762Y-9794143D01*
X10253762Y-9813190D02*
X10263286Y-9803667D01*
X10282333Y-9794143D01*
X10310905Y-9794143D01*
X10329952Y-9803667D01*
X10339476Y-9822714D01*
X10339476Y-9927476D01*
X10339476Y-9822714D02*
X10349000Y-9803667D01*
X10368048Y-9794143D01*
X10396619Y-9794143D01*
X10415667Y-9803667D01*
X10425190Y-9822714D01*
X10425190Y-9927476D01*
X10520429Y-9927476D02*
X10520429Y-9794143D01*
X10520429Y-9813190D02*
X10529952Y-9803667D01*
X10549000Y-9794143D01*
X10577571Y-9794143D01*
X10596619Y-9803667D01*
X10606143Y-9822714D01*
X10606143Y-9927476D01*
X10606143Y-9822714D02*
X10615667Y-9803667D01*
X10634714Y-9794143D01*
X10663286Y-9794143D01*
X10682333Y-9803667D01*
X10691857Y-9822714D01*
X10691857Y-9927476D01*
X11082333Y-9717952D02*
X10910905Y-9975095D01*
X11339476Y-9727476D02*
X11358524Y-9727476D01*
X11377571Y-9737000D01*
X11387095Y-9746524D01*
X11396619Y-9765571D01*
X11406143Y-9803667D01*
X11406143Y-9851286D01*
X11396619Y-9889381D01*
X11387095Y-9908429D01*
X11377571Y-9917952D01*
X11358524Y-9927476D01*
X11339476Y-9927476D01*
X11320428Y-9917952D01*
X11310905Y-9908429D01*
X11301381Y-9889381D01*
X11291857Y-9851286D01*
X11291857Y-9803667D01*
X11301381Y-9765571D01*
X11310905Y-9746524D01*
X11320428Y-9737000D01*
X11339476Y-9727476D01*
X11491857Y-9908429D02*
X11501381Y-9917952D01*
X11491857Y-9927476D01*
X11482333Y-9917952D01*
X11491857Y-9908429D01*
X11491857Y-9927476D01*
X11625190Y-9727476D02*
X11644238Y-9727476D01*
X11663286Y-9737000D01*
X11672809Y-9746524D01*
X11682333Y-9765571D01*
X11691857Y-9803667D01*
X11691857Y-9851286D01*
X11682333Y-9889381D01*
X11672809Y-9908429D01*
X11663286Y-9917952D01*
X11644238Y-9927476D01*
X11625190Y-9927476D01*
X11606143Y-9917952D01*
X11596619Y-9908429D01*
X11587095Y-9889381D01*
X11577571Y-9851286D01*
X11577571Y-9803667D01*
X11587095Y-9765571D01*
X11596619Y-9746524D01*
X11606143Y-9737000D01*
X11625190Y-9727476D01*
X11787095Y-9927476D02*
X11825190Y-9927476D01*
X11844238Y-9917952D01*
X11853762Y-9908429D01*
X11872809Y-9879857D01*
X11882333Y-9841762D01*
X11882333Y-9765571D01*
X11872809Y-9746524D01*
X11863286Y-9737000D01*
X11844238Y-9727476D01*
X11806143Y-9727476D01*
X11787095Y-9737000D01*
X11777571Y-9746524D01*
X11768048Y-9765571D01*
X11768048Y-9813190D01*
X11777571Y-9832238D01*
X11787095Y-9841762D01*
X11806143Y-9851286D01*
X11844238Y-9851286D01*
X11863286Y-9841762D01*
X11872809Y-9832238D01*
X11882333Y-9813190D01*
X12063286Y-9727476D02*
X11968048Y-9727476D01*
X11958524Y-9822714D01*
X11968048Y-9813190D01*
X11987095Y-9803667D01*
X12034714Y-9803667D01*
X12053762Y-9813190D01*
X12063286Y-9822714D01*
X12072809Y-9841762D01*
X12072809Y-9889381D01*
X12063286Y-9908429D01*
X12053762Y-9917952D01*
X12034714Y-9927476D01*
X11987095Y-9927476D01*
X11968048Y-9917952D01*
X11958524Y-9908429D01*
X12139476Y-9727476D02*
X12263286Y-9727476D01*
X12196619Y-9803667D01*
X12225190Y-9803667D01*
X12244238Y-9813190D01*
X12253762Y-9822714D01*
X12263286Y-9841762D01*
X12263286Y-9889381D01*
X12253762Y-9908429D01*
X12244238Y-9917952D01*
X12225190Y-9927476D01*
X12168048Y-9927476D01*
X12149000Y-9917952D01*
X12139476Y-9908429D01*
X12339476Y-9727476D02*
X12339476Y-9765571D01*
X12415667Y-9727476D02*
X12415667Y-9765571D01*
X12710905Y-10003667D02*
X12701381Y-9994143D01*
X12682333Y-9965571D01*
X12672809Y-9946524D01*
X12663286Y-9917952D01*
X12653762Y-9870333D01*
X12653762Y-9832238D01*
X12663286Y-9784619D01*
X12672809Y-9756048D01*
X12682333Y-9737000D01*
X12701381Y-9708429D01*
X12710905Y-9698905D01*
X12777571Y-9746524D02*
X12787095Y-9737000D01*
X12806143Y-9727476D01*
X12853762Y-9727476D01*
X12872809Y-9737000D01*
X12882333Y-9746524D01*
X12891857Y-9765571D01*
X12891857Y-9784619D01*
X12882333Y-9813190D01*
X12768048Y-9927476D01*
X12891857Y-9927476D01*
X13129952Y-9927476D02*
X13129952Y-9727476D01*
X13215667Y-9927476D02*
X13215667Y-9822714D01*
X13206143Y-9803667D01*
X13187095Y-9794143D01*
X13158524Y-9794143D01*
X13139476Y-9803667D01*
X13129952Y-9813190D01*
X13339476Y-9927476D02*
X13320428Y-9917952D01*
X13310905Y-9908429D01*
X13301381Y-9889381D01*
X13301381Y-9832238D01*
X13310905Y-9813190D01*
X13320428Y-9803667D01*
X13339476Y-9794143D01*
X13368048Y-9794143D01*
X13387095Y-9803667D01*
X13396619Y-9813190D01*
X13406143Y-9832238D01*
X13406143Y-9889381D01*
X13396619Y-9908429D01*
X13387095Y-9917952D01*
X13368048Y-9927476D01*
X13339476Y-9927476D01*
X13520428Y-9927476D02*
X13501381Y-9917952D01*
X13491857Y-9898905D01*
X13491857Y-9727476D01*
X13672809Y-9917952D02*
X13653762Y-9927476D01*
X13615667Y-9927476D01*
X13596619Y-9917952D01*
X13587095Y-9898905D01*
X13587095Y-9822714D01*
X13596619Y-9803667D01*
X13615667Y-9794143D01*
X13653762Y-9794143D01*
X13672809Y-9803667D01*
X13682333Y-9822714D01*
X13682333Y-9841762D01*
X13587095Y-9860810D01*
X13758524Y-9917952D02*
X13777571Y-9927476D01*
X13815667Y-9927476D01*
X13834714Y-9917952D01*
X13844238Y-9898905D01*
X13844238Y-9889381D01*
X13834714Y-9870333D01*
X13815667Y-9860810D01*
X13787095Y-9860810D01*
X13768048Y-9851286D01*
X13758524Y-9832238D01*
X13758524Y-9822714D01*
X13768048Y-9803667D01*
X13787095Y-9794143D01*
X13815667Y-9794143D01*
X13834714Y-9803667D01*
X13910905Y-10003667D02*
X13920428Y-9994143D01*
X13939476Y-9965571D01*
X13949000Y-9946524D01*
X13958524Y-9917952D01*
X13968048Y-9870333D01*
X13968048Y-9832238D01*
X13958524Y-9784619D01*
X13949000Y-9756048D01*
X13939476Y-9737000D01*
X13920428Y-9708429D01*
X13910905Y-9698905D01*
M02*
