M48
; DRILL file {KiCad (6.0.0)} date Thu Aug 18 21:48:34 2022
; FORMAT={-:-/ absolute / metric / decimal}
; #@! TF.CreationDate,2022-08-18T21:48:34-04:00
; #@! TF.GenerationSoftware,Kicad,Pcbnew,(6.0.0)
; #@! TF.FileFunction,Plated,1,2,PTH
FMAT,2
METRIC
; #@! TA.AperFunction,Plated,PTH,ViaDrill
T1C0.400
; #@! TA.AperFunction,Plated,PTH,ComponentDrill
T2C0.762
; #@! TA.AperFunction,Plated,PTH,ComponentDrill
T3C1.000
; #@! TA.AperFunction,Plated,PTH,ComponentDrill
T4C1.520
; #@! TA.AperFunction,Plated,PTH,ComponentDrill
T5C2.420
%
G90
G05
T1
X102.362Y-61.722
X102.616Y-69.85
X103.886Y-63.5
X103.952Y-65.974
X104.902Y-71.882
X105.852Y-66.106
X105.944Y-59.41
X107.061Y-69.977
X107.188Y-60.198
X108.712Y-60.198
X108.712Y-69.85
X110.744Y-71.882
X111.506Y-62.738
X111.694Y-66.106
X112.903Y-69.977
X113.03Y-60.706
X126.238Y-74.422
X127.736Y-80.29
X127.762Y-73.66
X129.286Y-62.23
X129.54Y-72.644
X143.022Y-70.592
X144.018Y-61.214
X144.018Y-62.992
X144.097Y-59.69
X144.338Y-66.482
X145.288Y-72.136
X146.238Y-66.614
X146.558Y-58.928
X147.554Y-70.592
X149.479Y-60.325
X150.134Y-70.592
X152.4Y-72.136
X153.416Y-62.23
X153.452Y-66.512
X154.92Y-70.592
X155.448Y-64.516
T2
X119.201Y-52.513
X119.201Y-56.513
X120.398Y-50.513
X120.619Y-54.513
X122.037Y-52.513
X122.037Y-56.513
X123.234Y-50.513
X123.455Y-54.513
X124.873Y-52.513
X124.873Y-56.513
X126.07Y-50.513
X126.291Y-54.513
X127.709Y-52.513
X127.709Y-56.513
X128.906Y-50.513
X129.127Y-54.513
X130.545Y-52.513
X130.545Y-56.513
X131.963Y-50.513
X131.963Y-54.513
X133.381Y-52.513
X133.381Y-56.513
X134.799Y-50.513
X134.799Y-54.513
T3
X101.6Y-76.2
X101.6Y-78.74
X104.14Y-76.2
X104.14Y-78.74
X106.68Y-76.2
X106.68Y-78.74
X109.22Y-76.2
X109.22Y-78.74
X111.76Y-76.2
X111.76Y-78.74
X142.24Y-76.2
X142.24Y-78.74
X144.78Y-76.2
X144.78Y-78.74
X147.32Y-76.2
X147.32Y-78.74
X149.86Y-76.2
X149.86Y-78.74
X152.4Y-76.2
X152.4Y-78.74
T4
X115.35Y-54.005
X115.35Y-57.835
X138.43Y-54.005
X138.43Y-57.835
T5
X100.75Y-36.013
X153.25Y-36.013
T3
X107.201Y-48.513G85X107.201Y-50.513
G05
X146.799Y-48.513G85X146.799Y-50.513
G05
T0
M30
