G04 #@! TF.GenerationSoftware,KiCad,Pcbnew,(6.0.0)*
G04 #@! TF.CreationDate,2022-08-18T21:48:33-04:00*
G04 #@! TF.ProjectId,GC memory card breakout board (wii pinout),4743206d-656d-46f7-9279-206361726420,rev?*
G04 #@! TF.SameCoordinates,Original*
G04 #@! TF.FileFunction,Soldermask,Bot*
G04 #@! TF.FilePolarity,Negative*
%FSLAX46Y46*%
G04 Gerber Fmt 4.6, Leading zero omitted, Abs format (unit mm)*
G04 Created by KiCad (PCBNEW (6.0.0)) date 2022-08-18 21:48:33*
%MOMM*%
%LPD*%
G01*
G04 APERTURE LIST*
G04 Aperture macros list*
%AMRoundRect*
0 Rectangle with rounded corners*
0 $1 Rounding radius*
0 $2 $3 $4 $5 $6 $7 $8 $9 X,Y pos of 4 corners*
0 Add a 4 corners polygon primitive as box body*
4,1,4,$2,$3,$4,$5,$6,$7,$8,$9,$2,$3,0*
0 Add four circle primitives for the rounded corners*
1,1,$1+$1,$2,$3*
1,1,$1+$1,$4,$5*
1,1,$1+$1,$6,$7*
1,1,$1+$1,$8,$9*
0 Add four rect primitives between the rounded corners*
20,1,$1+$1,$2,$3,$4,$5,0*
20,1,$1+$1,$4,$5,$6,$7,0*
20,1,$1+$1,$6,$7,$8,$9,0*
20,1,$1+$1,$8,$9,$2,$3,0*%
G04 Aperture macros list end*
%ADD10C,3.200000*%
%ADD11R,1.700000X1.700000*%
%ADD12O,1.700000X1.700000*%
%ADD13C,3.000000*%
%ADD14C,1.524000*%
%ADD15C,2.500000*%
%ADD16O,2.000000X4.000000*%
%ADD17C,3.500000*%
%ADD18RoundRect,0.225000X0.250000X-0.225000X0.250000X0.225000X-0.250000X0.225000X-0.250000X-0.225000X0*%
%ADD19RoundRect,0.225000X-0.250000X0.225000X-0.250000X-0.225000X0.250000X-0.225000X0.250000X0.225000X0*%
G04 APERTURE END LIST*
D10*
X94996000Y-77724000D03*
D11*
X142240000Y-78740000D03*
D12*
X142240000Y-76200000D03*
X144780000Y-78740000D03*
X144780000Y-76200000D03*
X147320000Y-78740000D03*
X147320000Y-76200000D03*
X149860000Y-78740000D03*
X149860000Y-76200000D03*
X152400000Y-78740000D03*
X152400000Y-76200000D03*
D10*
X159004000Y-77724000D03*
D13*
X144000000Y-44013000D03*
X110000000Y-44013000D03*
D14*
X134799000Y-54513000D03*
X133381000Y-56513000D03*
X131963000Y-54513000D03*
X130545000Y-56513000D03*
X129127000Y-54513000D03*
X127709000Y-56513000D03*
X126291000Y-54513000D03*
X124873000Y-56513000D03*
X123455000Y-54513000D03*
X122037000Y-56513000D03*
X120619000Y-54513000D03*
X119201000Y-56513000D03*
X134799000Y-50513000D03*
X133381000Y-52513000D03*
X131963000Y-50513000D03*
X130545000Y-52513000D03*
X128906200Y-50513000D03*
X127709000Y-52513000D03*
X126070200Y-50513000D03*
X124873000Y-52513000D03*
X123234200Y-50513000D03*
X122037000Y-52513000D03*
X120398200Y-50513000D03*
X119201000Y-52513000D03*
D15*
X138429600Y-54005000D03*
X138429600Y-57835000D03*
X115349600Y-54005000D03*
X115349600Y-57835000D03*
D16*
X146799000Y-49513000D03*
X107201000Y-49513000D03*
D17*
X153250000Y-36013000D03*
X100750000Y-36013000D03*
D10*
X94996000Y-34036000D03*
X159004000Y-34036000D03*
D11*
X101600000Y-78740000D03*
D12*
X101600000Y-76200000D03*
X104140000Y-78740000D03*
X104140000Y-76200000D03*
X106680000Y-78740000D03*
X106680000Y-76200000D03*
X109220000Y-78740000D03*
X109220000Y-76200000D03*
X111760000Y-78740000D03*
X111760000Y-76200000D03*
D18*
X124587000Y-47917400D03*
X124587000Y-46367400D03*
D19*
X127762000Y-59016600D03*
X127762000Y-60566600D03*
D18*
X127457200Y-47917400D03*
X127457200Y-46367400D03*
D19*
X130606800Y-58991200D03*
X130606800Y-60541200D03*
M02*
