G04 #@! TF.GenerationSoftware,KiCad,Pcbnew,(6.0.0)*
G04 #@! TF.CreationDate,2022-08-18T21:48:33-04:00*
G04 #@! TF.ProjectId,GC memory card breakout board (wii pinout),4743206d-656d-46f7-9279-206361726420,rev?*
G04 #@! TF.SameCoordinates,Original*
G04 #@! TF.FileFunction,Legend,Top*
G04 #@! TF.FilePolarity,Positive*
%FSLAX46Y46*%
G04 Gerber Fmt 4.6, Leading zero omitted, Abs format (unit mm)*
G04 Created by KiCad (PCBNEW (6.0.0)) date 2022-08-18 21:48:33*
%MOMM*%
%LPD*%
G01*
G04 APERTURE LIST*
G04 Aperture macros list*
%AMRoundRect*
0 Rectangle with rounded corners*
0 $1 Rounding radius*
0 $2 $3 $4 $5 $6 $7 $8 $9 X,Y pos of 4 corners*
0 Add a 4 corners polygon primitive as box body*
4,1,4,$2,$3,$4,$5,$6,$7,$8,$9,$2,$3,0*
0 Add four circle primitives for the rounded corners*
1,1,$1+$1,$2,$3*
1,1,$1+$1,$4,$5*
1,1,$1+$1,$6,$7*
1,1,$1+$1,$8,$9*
0 Add four rect primitives between the rounded corners*
20,1,$1+$1,$2,$3,$4,$5,0*
20,1,$1+$1,$4,$5,$6,$7,0*
20,1,$1+$1,$6,$7,$8,$9,0*
20,1,$1+$1,$8,$9,$2,$3,0*%
G04 Aperture macros list end*
%ADD10C,0.150000*%
%ADD11C,0.050000*%
%ADD12C,0.120000*%
%ADD13C,0.127000*%
%ADD14C,3.200000*%
%ADD15RoundRect,0.225000X-0.250000X0.225000X-0.250000X-0.225000X0.250000X-0.225000X0.250000X0.225000X0*%
%ADD16R,1.700000X1.700000*%
%ADD17O,1.700000X1.700000*%
%ADD18R,0.600000X1.100000*%
%ADD19C,3.000000*%
%ADD20C,1.524000*%
%ADD21C,2.500000*%
%ADD22O,2.000000X4.000000*%
%ADD23C,3.500000*%
G04 APERTURE END LIST*
D10*
X117602095Y-58475619D02*
X117649714Y-58428000D01*
X117744952Y-58380380D01*
X117983047Y-58380380D01*
X118078285Y-58428000D01*
X118125904Y-58475619D01*
X118173523Y-58570857D01*
X118173523Y-58666095D01*
X118125904Y-58808952D01*
X117554476Y-59380380D01*
X118173523Y-59380380D01*
X118506857Y-58380380D02*
X119125904Y-58380380D01*
X118792571Y-58761333D01*
X118935428Y-58761333D01*
X119030666Y-58808952D01*
X119078285Y-58856571D01*
X119125904Y-58951809D01*
X119125904Y-59189904D01*
X119078285Y-59285142D01*
X119030666Y-59332761D01*
X118935428Y-59380380D01*
X118649714Y-59380380D01*
X118554476Y-59332761D01*
X118506857Y-59285142D01*
D11*
X142168571Y-80244190D02*
X141930476Y-80244190D01*
X141906666Y-80482285D01*
X141930476Y-80458476D01*
X141978095Y-80434666D01*
X142097142Y-80434666D01*
X142144761Y-80458476D01*
X142168571Y-80482285D01*
X142192380Y-80529904D01*
X142192380Y-80648952D01*
X142168571Y-80696571D01*
X142144761Y-80720380D01*
X142097142Y-80744190D01*
X141978095Y-80744190D01*
X141930476Y-80720380D01*
X141906666Y-80696571D01*
X142359047Y-80410857D02*
X142478095Y-80744190D01*
X142597142Y-80410857D01*
X111438571Y-80268000D02*
X111390952Y-80244190D01*
X111319523Y-80244190D01*
X111248095Y-80268000D01*
X111200476Y-80315619D01*
X111176666Y-80363238D01*
X111152857Y-80458476D01*
X111152857Y-80529904D01*
X111176666Y-80625142D01*
X111200476Y-80672761D01*
X111248095Y-80720380D01*
X111319523Y-80744190D01*
X111367142Y-80744190D01*
X111438571Y-80720380D01*
X111462380Y-80696571D01*
X111462380Y-80529904D01*
X111367142Y-80529904D01*
X111676666Y-80410857D02*
X111676666Y-80744190D01*
X111676666Y-80458476D02*
X111700476Y-80434666D01*
X111748095Y-80410857D01*
X111819523Y-80410857D01*
X111867142Y-80434666D01*
X111890952Y-80482285D01*
X111890952Y-80744190D01*
X112343333Y-80744190D02*
X112343333Y-80244190D01*
X112343333Y-80720380D02*
X112295714Y-80744190D01*
X112200476Y-80744190D01*
X112152857Y-80720380D01*
X112129047Y-80696571D01*
X112105238Y-80648952D01*
X112105238Y-80506095D01*
X112129047Y-80458476D01*
X112152857Y-80434666D01*
X112200476Y-80410857D01*
X112295714Y-80410857D01*
X112343333Y-80434666D01*
X143780000Y-80720380D02*
X143851428Y-80744190D01*
X143970476Y-80744190D01*
X144018095Y-80720380D01*
X144041904Y-80696571D01*
X144065714Y-80648952D01*
X144065714Y-80601333D01*
X144041904Y-80553714D01*
X144018095Y-80529904D01*
X143970476Y-80506095D01*
X143875238Y-80482285D01*
X143827619Y-80458476D01*
X143803809Y-80434666D01*
X143780000Y-80387047D01*
X143780000Y-80339428D01*
X143803809Y-80291809D01*
X143827619Y-80268000D01*
X143875238Y-80244190D01*
X143994285Y-80244190D01*
X144065714Y-80268000D01*
X144470476Y-80720380D02*
X144422857Y-80744190D01*
X144327619Y-80744190D01*
X144280000Y-80720380D01*
X144256190Y-80672761D01*
X144256190Y-80482285D01*
X144280000Y-80434666D01*
X144327619Y-80410857D01*
X144422857Y-80410857D01*
X144470476Y-80434666D01*
X144494285Y-80482285D01*
X144494285Y-80529904D01*
X144256190Y-80577523D01*
X144708571Y-80410857D02*
X144708571Y-80744190D01*
X144708571Y-80458476D02*
X144732380Y-80434666D01*
X144780000Y-80410857D01*
X144851428Y-80410857D01*
X144899047Y-80434666D01*
X144922857Y-80482285D01*
X144922857Y-80744190D01*
X145137142Y-80720380D02*
X145184761Y-80744190D01*
X145280000Y-80744190D01*
X145327619Y-80720380D01*
X145351428Y-80672761D01*
X145351428Y-80648952D01*
X145327619Y-80601333D01*
X145280000Y-80577523D01*
X145208571Y-80577523D01*
X145160952Y-80553714D01*
X145137142Y-80506095D01*
X145137142Y-80482285D01*
X145160952Y-80434666D01*
X145208571Y-80410857D01*
X145280000Y-80410857D01*
X145327619Y-80434666D01*
X145756190Y-80720380D02*
X145708571Y-80744190D01*
X145613333Y-80744190D01*
X145565714Y-80720380D01*
X145541904Y-80672761D01*
X145541904Y-80482285D01*
X145565714Y-80434666D01*
X145613333Y-80410857D01*
X145708571Y-80410857D01*
X145756190Y-80434666D01*
X145780000Y-80482285D01*
X145780000Y-80529904D01*
X145541904Y-80577523D01*
X103890000Y-74394190D02*
X103890000Y-73894190D01*
X104009047Y-73894190D01*
X104080476Y-73918000D01*
X104128095Y-73965619D01*
X104151904Y-74013238D01*
X104175714Y-74108476D01*
X104175714Y-74179904D01*
X104151904Y-74275142D01*
X104128095Y-74322761D01*
X104080476Y-74370380D01*
X104009047Y-74394190D01*
X103890000Y-74394190D01*
X104390000Y-74394190D02*
X104390000Y-73894190D01*
X144530000Y-74394190D02*
X144530000Y-73894190D01*
X144649047Y-73894190D01*
X144720476Y-73918000D01*
X144768095Y-73965619D01*
X144791904Y-74013238D01*
X144815714Y-74108476D01*
X144815714Y-74179904D01*
X144791904Y-74275142D01*
X144768095Y-74322761D01*
X144720476Y-74370380D01*
X144649047Y-74394190D01*
X144530000Y-74394190D01*
X145030000Y-74394190D02*
X145030000Y-73894190D01*
D10*
X100041000Y-62363619D02*
X99993380Y-62458857D01*
X99993380Y-62601714D01*
X100041000Y-62744571D01*
X100136238Y-62839809D01*
X100231476Y-62887428D01*
X100421952Y-62935047D01*
X100564809Y-62935047D01*
X100755285Y-62887428D01*
X100850523Y-62839809D01*
X100945761Y-62744571D01*
X100993380Y-62601714D01*
X100993380Y-62506476D01*
X100945761Y-62363619D01*
X100898142Y-62316000D01*
X100564809Y-62316000D01*
X100564809Y-62506476D01*
X100993380Y-61458857D02*
X100469571Y-61458857D01*
X100374333Y-61506476D01*
X100326714Y-61601714D01*
X100326714Y-61792190D01*
X100374333Y-61887428D01*
X100945761Y-61458857D02*
X100993380Y-61554095D01*
X100993380Y-61792190D01*
X100945761Y-61887428D01*
X100850523Y-61935047D01*
X100755285Y-61935047D01*
X100660047Y-61887428D01*
X100612428Y-61792190D01*
X100612428Y-61554095D01*
X100564809Y-61458857D01*
X100993380Y-60982666D02*
X100326714Y-60982666D01*
X100421952Y-60982666D02*
X100374333Y-60935047D01*
X100326714Y-60839809D01*
X100326714Y-60696952D01*
X100374333Y-60601714D01*
X100469571Y-60554095D01*
X100993380Y-60554095D01*
X100469571Y-60554095D02*
X100374333Y-60506476D01*
X100326714Y-60411238D01*
X100326714Y-60268380D01*
X100374333Y-60173142D01*
X100469571Y-60125523D01*
X100993380Y-60125523D01*
X100945761Y-59268380D02*
X100993380Y-59363619D01*
X100993380Y-59554095D01*
X100945761Y-59649333D01*
X100850523Y-59696952D01*
X100469571Y-59696952D01*
X100374333Y-59649333D01*
X100326714Y-59554095D01*
X100326714Y-59363619D01*
X100374333Y-59268380D01*
X100469571Y-59220761D01*
X100564809Y-59220761D01*
X100660047Y-59696952D01*
X100945761Y-58363619D02*
X100993380Y-58458857D01*
X100993380Y-58649333D01*
X100945761Y-58744571D01*
X100898142Y-58792190D01*
X100802904Y-58839809D01*
X100517190Y-58839809D01*
X100421952Y-58792190D01*
X100374333Y-58744571D01*
X100326714Y-58649333D01*
X100326714Y-58458857D01*
X100374333Y-58363619D01*
X100326714Y-57506476D02*
X100993380Y-57506476D01*
X100326714Y-57935047D02*
X100850523Y-57935047D01*
X100945761Y-57887428D01*
X100993380Y-57792190D01*
X100993380Y-57649333D01*
X100945761Y-57554095D01*
X100898142Y-57506476D01*
X100993380Y-57030285D02*
X99993380Y-57030285D01*
X100374333Y-57030285D02*
X100326714Y-56935047D01*
X100326714Y-56744571D01*
X100374333Y-56649333D01*
X100421952Y-56601714D01*
X100517190Y-56554095D01*
X100802904Y-56554095D01*
X100898142Y-56601714D01*
X100945761Y-56649333D01*
X100993380Y-56744571D01*
X100993380Y-56935047D01*
X100945761Y-57030285D01*
X100945761Y-55744571D02*
X100993380Y-55839809D01*
X100993380Y-56030285D01*
X100945761Y-56125523D01*
X100850523Y-56173142D01*
X100469571Y-56173142D01*
X100374333Y-56125523D01*
X100326714Y-56030285D01*
X100326714Y-55839809D01*
X100374333Y-55744571D01*
X100469571Y-55696952D01*
X100564809Y-55696952D01*
X100660047Y-56173142D01*
X100993380Y-54506476D02*
X100326714Y-54506476D01*
X100421952Y-54506476D02*
X100374333Y-54458857D01*
X100326714Y-54363619D01*
X100326714Y-54220761D01*
X100374333Y-54125523D01*
X100469571Y-54077904D01*
X100993380Y-54077904D01*
X100469571Y-54077904D02*
X100374333Y-54030285D01*
X100326714Y-53935047D01*
X100326714Y-53792190D01*
X100374333Y-53696952D01*
X100469571Y-53649333D01*
X100993380Y-53649333D01*
X100945761Y-52792190D02*
X100993380Y-52887428D01*
X100993380Y-53077904D01*
X100945761Y-53173142D01*
X100850523Y-53220761D01*
X100469571Y-53220761D01*
X100374333Y-53173142D01*
X100326714Y-53077904D01*
X100326714Y-52887428D01*
X100374333Y-52792190D01*
X100469571Y-52744571D01*
X100564809Y-52744571D01*
X100660047Y-53220761D01*
X100993380Y-52316000D02*
X100326714Y-52316000D01*
X100421952Y-52316000D02*
X100374333Y-52268380D01*
X100326714Y-52173142D01*
X100326714Y-52030285D01*
X100374333Y-51935047D01*
X100469571Y-51887428D01*
X100993380Y-51887428D01*
X100469571Y-51887428D02*
X100374333Y-51839809D01*
X100326714Y-51744571D01*
X100326714Y-51601714D01*
X100374333Y-51506476D01*
X100469571Y-51458857D01*
X100993380Y-51458857D01*
X100993380Y-50839809D02*
X100945761Y-50935047D01*
X100898142Y-50982666D01*
X100802904Y-51030285D01*
X100517190Y-51030285D01*
X100421952Y-50982666D01*
X100374333Y-50935047D01*
X100326714Y-50839809D01*
X100326714Y-50696952D01*
X100374333Y-50601714D01*
X100421952Y-50554095D01*
X100517190Y-50506476D01*
X100802904Y-50506476D01*
X100898142Y-50554095D01*
X100945761Y-50601714D01*
X100993380Y-50696952D01*
X100993380Y-50839809D01*
X100993380Y-50077904D02*
X100326714Y-50077904D01*
X100517190Y-50077904D02*
X100421952Y-50030285D01*
X100374333Y-49982666D01*
X100326714Y-49887428D01*
X100326714Y-49792190D01*
X100326714Y-49554095D02*
X100993380Y-49316000D01*
X100326714Y-49077904D02*
X100993380Y-49316000D01*
X101231476Y-49411238D01*
X101279095Y-49458857D01*
X101326714Y-49554095D01*
X100945761Y-47506476D02*
X100993380Y-47601714D01*
X100993380Y-47792190D01*
X100945761Y-47887428D01*
X100898142Y-47935047D01*
X100802904Y-47982666D01*
X100517190Y-47982666D01*
X100421952Y-47935047D01*
X100374333Y-47887428D01*
X100326714Y-47792190D01*
X100326714Y-47601714D01*
X100374333Y-47506476D01*
X100993380Y-46649333D02*
X100469571Y-46649333D01*
X100374333Y-46696952D01*
X100326714Y-46792190D01*
X100326714Y-46982666D01*
X100374333Y-47077904D01*
X100945761Y-46649333D02*
X100993380Y-46744571D01*
X100993380Y-46982666D01*
X100945761Y-47077904D01*
X100850523Y-47125523D01*
X100755285Y-47125523D01*
X100660047Y-47077904D01*
X100612428Y-46982666D01*
X100612428Y-46744571D01*
X100564809Y-46649333D01*
X100993380Y-46173142D02*
X100326714Y-46173142D01*
X100517190Y-46173142D02*
X100421952Y-46125523D01*
X100374333Y-46077904D01*
X100326714Y-45982666D01*
X100326714Y-45887428D01*
X100993380Y-45125523D02*
X99993380Y-45125523D01*
X100945761Y-45125523D02*
X100993380Y-45220761D01*
X100993380Y-45411238D01*
X100945761Y-45506476D01*
X100898142Y-45554095D01*
X100802904Y-45601714D01*
X100517190Y-45601714D01*
X100421952Y-45554095D01*
X100374333Y-45506476D01*
X100326714Y-45411238D01*
X100326714Y-45220761D01*
X100374333Y-45125523D01*
X100945761Y-43935047D02*
X100993380Y-43839809D01*
X100993380Y-43649333D01*
X100945761Y-43554095D01*
X100850523Y-43506476D01*
X100802904Y-43506476D01*
X100707666Y-43554095D01*
X100660047Y-43649333D01*
X100660047Y-43792190D01*
X100612428Y-43887428D01*
X100517190Y-43935047D01*
X100469571Y-43935047D01*
X100374333Y-43887428D01*
X100326714Y-43792190D01*
X100326714Y-43649333D01*
X100374333Y-43554095D01*
X100993380Y-42935047D02*
X100945761Y-43030285D01*
X100850523Y-43077904D01*
X99993380Y-43077904D01*
X100993380Y-42411238D02*
X100945761Y-42506476D01*
X100898142Y-42554095D01*
X100802904Y-42601714D01*
X100517190Y-42601714D01*
X100421952Y-42554095D01*
X100374333Y-42506476D01*
X100326714Y-42411238D01*
X100326714Y-42268380D01*
X100374333Y-42173142D01*
X100421952Y-42125523D01*
X100517190Y-42077904D01*
X100802904Y-42077904D01*
X100898142Y-42125523D01*
X100945761Y-42173142D01*
X100993380Y-42268380D01*
X100993380Y-42411238D01*
X100326714Y-41792190D02*
X100326714Y-41411238D01*
X99993380Y-41649333D02*
X100850523Y-41649333D01*
X100945761Y-41601714D01*
X100993380Y-41506476D01*
X100993380Y-41411238D01*
X100945761Y-41125523D02*
X100993380Y-41030285D01*
X100993380Y-40839809D01*
X100945761Y-40744571D01*
X100850523Y-40696952D01*
X100802904Y-40696952D01*
X100707666Y-40744571D01*
X100660047Y-40839809D01*
X100660047Y-40982666D01*
X100612428Y-41077904D01*
X100517190Y-41125523D01*
X100469571Y-41125523D01*
X100374333Y-41077904D01*
X100326714Y-40982666D01*
X100326714Y-40839809D01*
X100374333Y-40744571D01*
X101936714Y-58054095D02*
X101936714Y-57673142D01*
X102603380Y-57911238D02*
X101746238Y-57911238D01*
X101651000Y-57863619D01*
X101603380Y-57768380D01*
X101603380Y-57673142D01*
X102603380Y-57339809D02*
X101936714Y-57339809D01*
X102127190Y-57339809D02*
X102031952Y-57292190D01*
X101984333Y-57244571D01*
X101936714Y-57149333D01*
X101936714Y-57054095D01*
X102603380Y-56577904D02*
X102555761Y-56673142D01*
X102508142Y-56720761D01*
X102412904Y-56768380D01*
X102127190Y-56768380D01*
X102031952Y-56720761D01*
X101984333Y-56673142D01*
X101936714Y-56577904D01*
X101936714Y-56435047D01*
X101984333Y-56339809D01*
X102031952Y-56292190D01*
X102127190Y-56244571D01*
X102412904Y-56244571D01*
X102508142Y-56292190D01*
X102555761Y-56339809D01*
X102603380Y-56435047D01*
X102603380Y-56577904D01*
X102603380Y-55816000D02*
X101936714Y-55816000D01*
X102031952Y-55816000D02*
X101984333Y-55768380D01*
X101936714Y-55673142D01*
X101936714Y-55530285D01*
X101984333Y-55435047D01*
X102079571Y-55387428D01*
X102603380Y-55387428D01*
X102079571Y-55387428D02*
X101984333Y-55339809D01*
X101936714Y-55244571D01*
X101936714Y-55101714D01*
X101984333Y-55006476D01*
X102079571Y-54958857D01*
X102603380Y-54958857D01*
X102603380Y-53577904D02*
X102555761Y-53673142D01*
X102508142Y-53720761D01*
X102412904Y-53768380D01*
X102127190Y-53768380D01*
X102031952Y-53720761D01*
X101984333Y-53673142D01*
X101936714Y-53577904D01*
X101936714Y-53435047D01*
X101984333Y-53339809D01*
X102031952Y-53292190D01*
X102127190Y-53244571D01*
X102412904Y-53244571D01*
X102508142Y-53292190D01*
X102555761Y-53339809D01*
X102603380Y-53435047D01*
X102603380Y-53577904D01*
X102603380Y-52816000D02*
X101936714Y-52816000D01*
X102127190Y-52816000D02*
X102031952Y-52768380D01*
X101984333Y-52720761D01*
X101936714Y-52625523D01*
X101936714Y-52530285D01*
X102603380Y-52196952D02*
X101936714Y-52196952D01*
X101603380Y-52196952D02*
X101651000Y-52244571D01*
X101698619Y-52196952D01*
X101651000Y-52149333D01*
X101603380Y-52196952D01*
X101698619Y-52196952D01*
X101936714Y-51292190D02*
X102746238Y-51292190D01*
X102841476Y-51339809D01*
X102889095Y-51387428D01*
X102936714Y-51482666D01*
X102936714Y-51625523D01*
X102889095Y-51720761D01*
X102555761Y-51292190D02*
X102603380Y-51387428D01*
X102603380Y-51577904D01*
X102555761Y-51673142D01*
X102508142Y-51720761D01*
X102412904Y-51768380D01*
X102127190Y-51768380D01*
X102031952Y-51720761D01*
X101984333Y-51673142D01*
X101936714Y-51577904D01*
X101936714Y-51387428D01*
X101984333Y-51292190D01*
X102603380Y-50816000D02*
X101936714Y-50816000D01*
X101603380Y-50816000D02*
X101651000Y-50863619D01*
X101698619Y-50816000D01*
X101651000Y-50768380D01*
X101603380Y-50816000D01*
X101698619Y-50816000D01*
X101936714Y-50339809D02*
X102603380Y-50339809D01*
X102031952Y-50339809D02*
X101984333Y-50292190D01*
X101936714Y-50196952D01*
X101936714Y-50054095D01*
X101984333Y-49958857D01*
X102079571Y-49911238D01*
X102603380Y-49911238D01*
X102603380Y-49006476D02*
X102079571Y-49006476D01*
X101984333Y-49054095D01*
X101936714Y-49149333D01*
X101936714Y-49339809D01*
X101984333Y-49435047D01*
X102555761Y-49006476D02*
X102603380Y-49101714D01*
X102603380Y-49339809D01*
X102555761Y-49435047D01*
X102460523Y-49482666D01*
X102365285Y-49482666D01*
X102270047Y-49435047D01*
X102222428Y-49339809D01*
X102222428Y-49101714D01*
X102174809Y-49006476D01*
X102603380Y-48387428D02*
X102555761Y-48482666D01*
X102460523Y-48530285D01*
X101603380Y-48530285D01*
X101936714Y-47339809D02*
X102603380Y-47149333D01*
X102127190Y-46958857D01*
X102603380Y-46768380D01*
X101936714Y-46577904D01*
X102603380Y-46196952D02*
X101936714Y-46196952D01*
X101603380Y-46196952D02*
X101651000Y-46244571D01*
X101698619Y-46196952D01*
X101651000Y-46149333D01*
X101603380Y-46196952D01*
X101698619Y-46196952D01*
X102603380Y-45720761D02*
X101936714Y-45720761D01*
X101603380Y-45720761D02*
X101651000Y-45768380D01*
X101698619Y-45720761D01*
X101651000Y-45673142D01*
X101603380Y-45720761D01*
X101698619Y-45720761D01*
X94453000Y-59276285D02*
X94405380Y-59371523D01*
X94405380Y-59514380D01*
X94453000Y-59657238D01*
X94548238Y-59752476D01*
X94643476Y-59800095D01*
X94833952Y-59847714D01*
X94976809Y-59847714D01*
X95167285Y-59800095D01*
X95262523Y-59752476D01*
X95357761Y-59657238D01*
X95405380Y-59514380D01*
X95405380Y-59419142D01*
X95357761Y-59276285D01*
X95310142Y-59228666D01*
X94976809Y-59228666D01*
X94976809Y-59419142D01*
X95310142Y-58228666D02*
X95357761Y-58276285D01*
X95405380Y-58419142D01*
X95405380Y-58514380D01*
X95357761Y-58657238D01*
X95262523Y-58752476D01*
X95167285Y-58800095D01*
X94976809Y-58847714D01*
X94833952Y-58847714D01*
X94643476Y-58800095D01*
X94548238Y-58752476D01*
X94453000Y-58657238D01*
X94405380Y-58514380D01*
X94405380Y-58419142D01*
X94453000Y-58276285D01*
X94500619Y-58228666D01*
X95405380Y-57038190D02*
X94738714Y-57038190D01*
X94833952Y-57038190D02*
X94786333Y-56990571D01*
X94738714Y-56895333D01*
X94738714Y-56752476D01*
X94786333Y-56657238D01*
X94881571Y-56609619D01*
X95405380Y-56609619D01*
X94881571Y-56609619D02*
X94786333Y-56562000D01*
X94738714Y-56466761D01*
X94738714Y-56323904D01*
X94786333Y-56228666D01*
X94881571Y-56181047D01*
X95405380Y-56181047D01*
X95357761Y-55323904D02*
X95405380Y-55419142D01*
X95405380Y-55609619D01*
X95357761Y-55704857D01*
X95262523Y-55752476D01*
X94881571Y-55752476D01*
X94786333Y-55704857D01*
X94738714Y-55609619D01*
X94738714Y-55419142D01*
X94786333Y-55323904D01*
X94881571Y-55276285D01*
X94976809Y-55276285D01*
X95072047Y-55752476D01*
X95405380Y-54847714D02*
X94738714Y-54847714D01*
X94833952Y-54847714D02*
X94786333Y-54800095D01*
X94738714Y-54704857D01*
X94738714Y-54562000D01*
X94786333Y-54466761D01*
X94881571Y-54419142D01*
X95405380Y-54419142D01*
X94881571Y-54419142D02*
X94786333Y-54371523D01*
X94738714Y-54276285D01*
X94738714Y-54133428D01*
X94786333Y-54038190D01*
X94881571Y-53990571D01*
X95405380Y-53990571D01*
X95405380Y-53371523D02*
X95357761Y-53466761D01*
X95310142Y-53514380D01*
X95214904Y-53562000D01*
X94929190Y-53562000D01*
X94833952Y-53514380D01*
X94786333Y-53466761D01*
X94738714Y-53371523D01*
X94738714Y-53228666D01*
X94786333Y-53133428D01*
X94833952Y-53085809D01*
X94929190Y-53038190D01*
X95214904Y-53038190D01*
X95310142Y-53085809D01*
X95357761Y-53133428D01*
X95405380Y-53228666D01*
X95405380Y-53371523D01*
X95405380Y-52609619D02*
X94738714Y-52609619D01*
X94929190Y-52609619D02*
X94833952Y-52562000D01*
X94786333Y-52514380D01*
X94738714Y-52419142D01*
X94738714Y-52323904D01*
X94738714Y-52085809D02*
X95405380Y-51847714D01*
X94738714Y-51609619D02*
X95405380Y-51847714D01*
X95643476Y-51942952D01*
X95691095Y-51990571D01*
X95738714Y-52085809D01*
X95357761Y-50038190D02*
X95405380Y-50133428D01*
X95405380Y-50323904D01*
X95357761Y-50419142D01*
X95310142Y-50466761D01*
X95214904Y-50514380D01*
X94929190Y-50514380D01*
X94833952Y-50466761D01*
X94786333Y-50419142D01*
X94738714Y-50323904D01*
X94738714Y-50133428D01*
X94786333Y-50038190D01*
X95405380Y-49181047D02*
X94881571Y-49181047D01*
X94786333Y-49228666D01*
X94738714Y-49323904D01*
X94738714Y-49514380D01*
X94786333Y-49609619D01*
X95357761Y-49181047D02*
X95405380Y-49276285D01*
X95405380Y-49514380D01*
X95357761Y-49609619D01*
X95262523Y-49657238D01*
X95167285Y-49657238D01*
X95072047Y-49609619D01*
X95024428Y-49514380D01*
X95024428Y-49276285D01*
X94976809Y-49181047D01*
X95405380Y-48704857D02*
X94738714Y-48704857D01*
X94929190Y-48704857D02*
X94833952Y-48657238D01*
X94786333Y-48609619D01*
X94738714Y-48514380D01*
X94738714Y-48419142D01*
X95405380Y-47657238D02*
X94405380Y-47657238D01*
X95357761Y-47657238D02*
X95405380Y-47752476D01*
X95405380Y-47942952D01*
X95357761Y-48038190D01*
X95310142Y-48085809D01*
X95214904Y-48133428D01*
X94929190Y-48133428D01*
X94833952Y-48085809D01*
X94786333Y-48038190D01*
X94738714Y-47942952D01*
X94738714Y-47752476D01*
X94786333Y-47657238D01*
X95357761Y-46466761D02*
X95405380Y-46371523D01*
X95405380Y-46181047D01*
X95357761Y-46085809D01*
X95262523Y-46038190D01*
X95214904Y-46038190D01*
X95119666Y-46085809D01*
X95072047Y-46181047D01*
X95072047Y-46323904D01*
X95024428Y-46419142D01*
X94929190Y-46466761D01*
X94881571Y-46466761D01*
X94786333Y-46419142D01*
X94738714Y-46323904D01*
X94738714Y-46181047D01*
X94786333Y-46085809D01*
X95405380Y-45466761D02*
X95357761Y-45562000D01*
X95262523Y-45609619D01*
X94405380Y-45609619D01*
X95405380Y-44942952D02*
X95357761Y-45038190D01*
X95310142Y-45085809D01*
X95214904Y-45133428D01*
X94929190Y-45133428D01*
X94833952Y-45085809D01*
X94786333Y-45038190D01*
X94738714Y-44942952D01*
X94738714Y-44800095D01*
X94786333Y-44704857D01*
X94833952Y-44657238D01*
X94929190Y-44609619D01*
X95214904Y-44609619D01*
X95310142Y-44657238D01*
X95357761Y-44704857D01*
X95405380Y-44800095D01*
X95405380Y-44942952D01*
X94738714Y-44323904D02*
X94738714Y-43942952D01*
X94405380Y-44181047D02*
X95262523Y-44181047D01*
X95357761Y-44133428D01*
X95405380Y-44038190D01*
X95405380Y-43942952D01*
X96491571Y-60823904D02*
X96491571Y-60490571D01*
X97015380Y-60347714D02*
X97015380Y-60823904D01*
X96015380Y-60823904D01*
X96015380Y-60347714D01*
X96967761Y-59966761D02*
X97015380Y-59823904D01*
X97015380Y-59585809D01*
X96967761Y-59490571D01*
X96920142Y-59442952D01*
X96824904Y-59395333D01*
X96729666Y-59395333D01*
X96634428Y-59442952D01*
X96586809Y-59490571D01*
X96539190Y-59585809D01*
X96491571Y-59776285D01*
X96443952Y-59871523D01*
X96396333Y-59919142D01*
X96301095Y-59966761D01*
X96205857Y-59966761D01*
X96110619Y-59919142D01*
X96063000Y-59871523D01*
X96015380Y-59776285D01*
X96015380Y-59538190D01*
X96063000Y-59395333D01*
X97015380Y-58966761D02*
X96015380Y-58966761D01*
X96015380Y-58728666D01*
X96063000Y-58585809D01*
X96158238Y-58490571D01*
X96253476Y-58442952D01*
X96443952Y-58395333D01*
X96586809Y-58395333D01*
X96777285Y-58442952D01*
X96872523Y-58490571D01*
X96967761Y-58585809D01*
X97015380Y-58728666D01*
X97015380Y-58966761D01*
X97015380Y-56776285D02*
X96491571Y-56776285D01*
X96396333Y-56823904D01*
X96348714Y-56919142D01*
X96348714Y-57109619D01*
X96396333Y-57204857D01*
X96967761Y-56776285D02*
X97015380Y-56871523D01*
X97015380Y-57109619D01*
X96967761Y-57204857D01*
X96872523Y-57252476D01*
X96777285Y-57252476D01*
X96682047Y-57204857D01*
X96634428Y-57109619D01*
X96634428Y-56871523D01*
X96586809Y-56776285D01*
X96348714Y-56300095D02*
X97015380Y-56300095D01*
X96443952Y-56300095D02*
X96396333Y-56252476D01*
X96348714Y-56157238D01*
X96348714Y-56014380D01*
X96396333Y-55919142D01*
X96491571Y-55871523D01*
X97015380Y-55871523D01*
X97015380Y-54966761D02*
X96015380Y-54966761D01*
X96967761Y-54966761D02*
X97015380Y-55062000D01*
X97015380Y-55252476D01*
X96967761Y-55347714D01*
X96920142Y-55395333D01*
X96824904Y-55442952D01*
X96539190Y-55442952D01*
X96443952Y-55395333D01*
X96396333Y-55347714D01*
X96348714Y-55252476D01*
X96348714Y-55062000D01*
X96396333Y-54966761D01*
X97015380Y-53728666D02*
X96348714Y-53728666D01*
X96443952Y-53728666D02*
X96396333Y-53681047D01*
X96348714Y-53585809D01*
X96348714Y-53442952D01*
X96396333Y-53347714D01*
X96491571Y-53300095D01*
X97015380Y-53300095D01*
X96491571Y-53300095D02*
X96396333Y-53252476D01*
X96348714Y-53157238D01*
X96348714Y-53014380D01*
X96396333Y-52919142D01*
X96491571Y-52871523D01*
X97015380Y-52871523D01*
X97015380Y-52252476D02*
X96967761Y-52347714D01*
X96920142Y-52395333D01*
X96824904Y-52442952D01*
X96539190Y-52442952D01*
X96443952Y-52395333D01*
X96396333Y-52347714D01*
X96348714Y-52252476D01*
X96348714Y-52109619D01*
X96396333Y-52014380D01*
X96443952Y-51966761D01*
X96539190Y-51919142D01*
X96824904Y-51919142D01*
X96920142Y-51966761D01*
X96967761Y-52014380D01*
X97015380Y-52109619D01*
X97015380Y-52252476D01*
X96348714Y-51062000D02*
X97015380Y-51062000D01*
X96348714Y-51490571D02*
X96872523Y-51490571D01*
X96967761Y-51442952D01*
X97015380Y-51347714D01*
X97015380Y-51204857D01*
X96967761Y-51109619D01*
X96920142Y-51062000D01*
X96348714Y-50585809D02*
X97015380Y-50585809D01*
X96443952Y-50585809D02*
X96396333Y-50538190D01*
X96348714Y-50442952D01*
X96348714Y-50300095D01*
X96396333Y-50204857D01*
X96491571Y-50157238D01*
X97015380Y-50157238D01*
X96348714Y-49823904D02*
X96348714Y-49442952D01*
X96015380Y-49681047D02*
X96872523Y-49681047D01*
X96967761Y-49633428D01*
X97015380Y-49538190D01*
X97015380Y-49442952D01*
X97015380Y-49109619D02*
X96348714Y-49109619D01*
X96015380Y-49109619D02*
X96063000Y-49157238D01*
X96110619Y-49109619D01*
X96063000Y-49062000D01*
X96015380Y-49109619D01*
X96110619Y-49109619D01*
X96348714Y-48633428D02*
X97015380Y-48633428D01*
X96443952Y-48633428D02*
X96396333Y-48585809D01*
X96348714Y-48490571D01*
X96348714Y-48347714D01*
X96396333Y-48252476D01*
X96491571Y-48204857D01*
X97015380Y-48204857D01*
X96348714Y-47300095D02*
X97158238Y-47300095D01*
X97253476Y-47347714D01*
X97301095Y-47395333D01*
X97348714Y-47490571D01*
X97348714Y-47633428D01*
X97301095Y-47728666D01*
X96967761Y-47300095D02*
X97015380Y-47395333D01*
X97015380Y-47585809D01*
X96967761Y-47681047D01*
X96920142Y-47728666D01*
X96824904Y-47776285D01*
X96539190Y-47776285D01*
X96443952Y-47728666D01*
X96396333Y-47681047D01*
X96348714Y-47585809D01*
X96348714Y-47395333D01*
X96396333Y-47300095D01*
X97015380Y-46062000D02*
X96015380Y-46062000D01*
X96396333Y-46062000D02*
X96348714Y-45966761D01*
X96348714Y-45776285D01*
X96396333Y-45681047D01*
X96443952Y-45633428D01*
X96539190Y-45585809D01*
X96824904Y-45585809D01*
X96920142Y-45633428D01*
X96967761Y-45681047D01*
X97015380Y-45776285D01*
X97015380Y-45966761D01*
X96967761Y-46062000D01*
X97015380Y-45014380D02*
X96967761Y-45109619D01*
X96920142Y-45157238D01*
X96824904Y-45204857D01*
X96539190Y-45204857D01*
X96443952Y-45157238D01*
X96396333Y-45109619D01*
X96348714Y-45014380D01*
X96348714Y-44871523D01*
X96396333Y-44776285D01*
X96443952Y-44728666D01*
X96539190Y-44681047D01*
X96824904Y-44681047D01*
X96920142Y-44728666D01*
X96967761Y-44776285D01*
X97015380Y-44871523D01*
X97015380Y-45014380D01*
X97015380Y-43823904D02*
X96491571Y-43823904D01*
X96396333Y-43871523D01*
X96348714Y-43966761D01*
X96348714Y-44157238D01*
X96396333Y-44252476D01*
X96967761Y-43823904D02*
X97015380Y-43919142D01*
X97015380Y-44157238D01*
X96967761Y-44252476D01*
X96872523Y-44300095D01*
X96777285Y-44300095D01*
X96682047Y-44252476D01*
X96634428Y-44157238D01*
X96634428Y-43919142D01*
X96586809Y-43823904D01*
X97015380Y-43347714D02*
X96348714Y-43347714D01*
X96539190Y-43347714D02*
X96443952Y-43300095D01*
X96396333Y-43252476D01*
X96348714Y-43157238D01*
X96348714Y-43062000D01*
X97015380Y-42300095D02*
X96015380Y-42300095D01*
X96967761Y-42300095D02*
X97015380Y-42395333D01*
X97015380Y-42585809D01*
X96967761Y-42681047D01*
X96920142Y-42728666D01*
X96824904Y-42776285D01*
X96539190Y-42776285D01*
X96443952Y-42728666D01*
X96396333Y-42681047D01*
X96348714Y-42585809D01*
X96348714Y-42395333D01*
X96396333Y-42300095D01*
D11*
X108850952Y-80744190D02*
X108850952Y-80244190D01*
X109089047Y-80410857D02*
X109089047Y-80744190D01*
X109089047Y-80458476D02*
X109112857Y-80434666D01*
X109160476Y-80410857D01*
X109231904Y-80410857D01*
X109279523Y-80434666D01*
X109303333Y-80482285D01*
X109303333Y-80744190D01*
X109470000Y-80410857D02*
X109660476Y-80410857D01*
X109541428Y-80244190D02*
X109541428Y-80672761D01*
X109565238Y-80720380D01*
X109612857Y-80744190D01*
X109660476Y-80744190D01*
D10*
X116586095Y-60507619D02*
X116633714Y-60460000D01*
X116728952Y-60412380D01*
X116967047Y-60412380D01*
X117062285Y-60460000D01*
X117109904Y-60507619D01*
X117157523Y-60602857D01*
X117157523Y-60698095D01*
X117109904Y-60840952D01*
X116538476Y-61412380D01*
X117157523Y-61412380D01*
X118014666Y-60745714D02*
X118014666Y-61412380D01*
X117776571Y-60364761D02*
X117538476Y-61079047D01*
X118157523Y-61079047D01*
X116903523Y-65476380D02*
X116332095Y-65476380D01*
X116617809Y-65476380D02*
X116617809Y-64476380D01*
X116522571Y-64619238D01*
X116427333Y-64714476D01*
X116332095Y-64762095D01*
X117284476Y-64571619D02*
X117332095Y-64524000D01*
X117427333Y-64476380D01*
X117665428Y-64476380D01*
X117760666Y-64524000D01*
X117808285Y-64571619D01*
X117855904Y-64666857D01*
X117855904Y-64762095D01*
X117808285Y-64904952D01*
X117236857Y-65476380D01*
X117855904Y-65476380D01*
X157932380Y-58895142D02*
X157408571Y-58895142D01*
X157313333Y-58942761D01*
X157265714Y-59038000D01*
X157265714Y-59228476D01*
X157313333Y-59323714D01*
X157884761Y-58895142D02*
X157932380Y-58990380D01*
X157932380Y-59228476D01*
X157884761Y-59323714D01*
X157789523Y-59371333D01*
X157694285Y-59371333D01*
X157599047Y-59323714D01*
X157551428Y-59228476D01*
X157551428Y-58990380D01*
X157503809Y-58895142D01*
X157932380Y-58418952D02*
X156932380Y-58418952D01*
X157313333Y-58418952D02*
X157265714Y-58323714D01*
X157265714Y-58133238D01*
X157313333Y-58038000D01*
X157360952Y-57990380D01*
X157456190Y-57942761D01*
X157741904Y-57942761D01*
X157837142Y-57990380D01*
X157884761Y-58038000D01*
X157932380Y-58133238D01*
X157932380Y-58323714D01*
X157884761Y-58418952D01*
X157265714Y-57609428D02*
X157265714Y-57085619D01*
X157932380Y-57609428D01*
X157932380Y-57085619D01*
X157932380Y-56704666D02*
X157265714Y-56704666D01*
X157360952Y-56704666D02*
X157313333Y-56657047D01*
X157265714Y-56561809D01*
X157265714Y-56418952D01*
X157313333Y-56323714D01*
X157408571Y-56276095D01*
X157932380Y-56276095D01*
X157408571Y-56276095D02*
X157313333Y-56228476D01*
X157265714Y-56133238D01*
X157265714Y-55990380D01*
X157313333Y-55895142D01*
X157408571Y-55847523D01*
X157932380Y-55847523D01*
X157932380Y-54942761D02*
X157408571Y-54942761D01*
X157313333Y-54990380D01*
X157265714Y-55085619D01*
X157265714Y-55276095D01*
X157313333Y-55371333D01*
X157884761Y-54942761D02*
X157932380Y-55038000D01*
X157932380Y-55276095D01*
X157884761Y-55371333D01*
X157789523Y-55418952D01*
X157694285Y-55418952D01*
X157599047Y-55371333D01*
X157551428Y-55276095D01*
X157551428Y-55038000D01*
X157503809Y-54942761D01*
X157265714Y-54466571D02*
X157932380Y-54466571D01*
X157360952Y-54466571D02*
X157313333Y-54418952D01*
X157265714Y-54323714D01*
X157265714Y-54180857D01*
X157313333Y-54085619D01*
X157408571Y-54038000D01*
X157932380Y-54038000D01*
X157027619Y-53609428D02*
X156980000Y-53561809D01*
X156932380Y-53466571D01*
X156932380Y-53228476D01*
X156980000Y-53133238D01*
X157027619Y-53085619D01*
X157122857Y-53038000D01*
X157218095Y-53038000D01*
X157360952Y-53085619D01*
X157932380Y-53657047D01*
X157932380Y-53038000D01*
X157932380Y-52609428D02*
X156932380Y-52609428D01*
X157551428Y-52514190D02*
X157932380Y-52228476D01*
X157265714Y-52228476D02*
X157646666Y-52609428D01*
X157837142Y-51799904D02*
X157884761Y-51752285D01*
X157932380Y-51799904D01*
X157884761Y-51847523D01*
X157837142Y-51799904D01*
X157932380Y-51799904D01*
X157265714Y-51418952D02*
X157932380Y-51228476D01*
X157456190Y-51038000D01*
X157932380Y-50847523D01*
X157265714Y-50657047D01*
X157932380Y-50133238D02*
X157884761Y-50228476D01*
X157837142Y-50276095D01*
X157741904Y-50323714D01*
X157456190Y-50323714D01*
X157360952Y-50276095D01*
X157313333Y-50228476D01*
X157265714Y-50133238D01*
X157265714Y-49990380D01*
X157313333Y-49895142D01*
X157360952Y-49847523D01*
X157456190Y-49799904D01*
X157741904Y-49799904D01*
X157837142Y-49847523D01*
X157884761Y-49895142D01*
X157932380Y-49990380D01*
X157932380Y-50133238D01*
X157932380Y-49371333D02*
X157265714Y-49371333D01*
X157456190Y-49371333D02*
X157360952Y-49323714D01*
X157313333Y-49276095D01*
X157265714Y-49180857D01*
X157265714Y-49085619D01*
X157932380Y-48323714D02*
X156932380Y-48323714D01*
X157884761Y-48323714D02*
X157932380Y-48418952D01*
X157932380Y-48609428D01*
X157884761Y-48704666D01*
X157837142Y-48752285D01*
X157741904Y-48799904D01*
X157456190Y-48799904D01*
X157360952Y-48752285D01*
X157313333Y-48704666D01*
X157265714Y-48609428D01*
X157265714Y-48418952D01*
X157313333Y-48323714D01*
X157265714Y-47847523D02*
X158265714Y-47847523D01*
X157313333Y-47847523D02*
X157265714Y-47752285D01*
X157265714Y-47561809D01*
X157313333Y-47466571D01*
X157360952Y-47418952D01*
X157456190Y-47371333D01*
X157741904Y-47371333D01*
X157837142Y-47418952D01*
X157884761Y-47466571D01*
X157932380Y-47561809D01*
X157932380Y-47752285D01*
X157884761Y-47847523D01*
X157932380Y-46942761D02*
X157265714Y-46942761D01*
X157456190Y-46942761D02*
X157360952Y-46895142D01*
X157313333Y-46847523D01*
X157265714Y-46752285D01*
X157265714Y-46657047D01*
X157884761Y-45942761D02*
X157932380Y-46038000D01*
X157932380Y-46228476D01*
X157884761Y-46323714D01*
X157789523Y-46371333D01*
X157408571Y-46371333D01*
X157313333Y-46323714D01*
X157265714Y-46228476D01*
X157265714Y-46038000D01*
X157313333Y-45942761D01*
X157408571Y-45895142D01*
X157503809Y-45895142D01*
X157599047Y-46371333D01*
X157884761Y-45514190D02*
X157932380Y-45418952D01*
X157932380Y-45228476D01*
X157884761Y-45133238D01*
X157789523Y-45085619D01*
X157741904Y-45085619D01*
X157646666Y-45133238D01*
X157599047Y-45228476D01*
X157599047Y-45371333D01*
X157551428Y-45466571D01*
X157456190Y-45514190D01*
X157408571Y-45514190D01*
X157313333Y-45466571D01*
X157265714Y-45371333D01*
X157265714Y-45228476D01*
X157313333Y-45133238D01*
X157884761Y-44704666D02*
X157932380Y-44609428D01*
X157932380Y-44418952D01*
X157884761Y-44323714D01*
X157789523Y-44276095D01*
X157741904Y-44276095D01*
X157646666Y-44323714D01*
X157599047Y-44418952D01*
X157599047Y-44561809D01*
X157551428Y-44657047D01*
X157456190Y-44704666D01*
X157408571Y-44704666D01*
X157313333Y-44657047D01*
X157265714Y-44561809D01*
X157265714Y-44418952D01*
X157313333Y-44323714D01*
X157837142Y-43847523D02*
X157884761Y-43799904D01*
X157932380Y-43847523D01*
X157884761Y-43895142D01*
X157837142Y-43847523D01*
X157932380Y-43847523D01*
X157884761Y-42942761D02*
X157932380Y-43038000D01*
X157932380Y-43228476D01*
X157884761Y-43323714D01*
X157837142Y-43371333D01*
X157741904Y-43418952D01*
X157456190Y-43418952D01*
X157360952Y-43371333D01*
X157313333Y-43323714D01*
X157265714Y-43228476D01*
X157265714Y-43038000D01*
X157313333Y-42942761D01*
X157932380Y-42371333D02*
X157884761Y-42466571D01*
X157837142Y-42514190D01*
X157741904Y-42561809D01*
X157456190Y-42561809D01*
X157360952Y-42514190D01*
X157313333Y-42466571D01*
X157265714Y-42371333D01*
X157265714Y-42228476D01*
X157313333Y-42133238D01*
X157360952Y-42085619D01*
X157456190Y-42038000D01*
X157741904Y-42038000D01*
X157837142Y-42085619D01*
X157884761Y-42133238D01*
X157932380Y-42228476D01*
X157932380Y-42371333D01*
X157932380Y-41609428D02*
X157265714Y-41609428D01*
X157360952Y-41609428D02*
X157313333Y-41561809D01*
X157265714Y-41466571D01*
X157265714Y-41323714D01*
X157313333Y-41228476D01*
X157408571Y-41180857D01*
X157932380Y-41180857D01*
X157408571Y-41180857D02*
X157313333Y-41133238D01*
X157265714Y-41038000D01*
X157265714Y-40895142D01*
X157313333Y-40799904D01*
X157408571Y-40752285D01*
X157932380Y-40752285D01*
D11*
X103140000Y-80720380D02*
X103211428Y-80744190D01*
X103330476Y-80744190D01*
X103378095Y-80720380D01*
X103401904Y-80696571D01*
X103425714Y-80648952D01*
X103425714Y-80601333D01*
X103401904Y-80553714D01*
X103378095Y-80529904D01*
X103330476Y-80506095D01*
X103235238Y-80482285D01*
X103187619Y-80458476D01*
X103163809Y-80434666D01*
X103140000Y-80387047D01*
X103140000Y-80339428D01*
X103163809Y-80291809D01*
X103187619Y-80268000D01*
X103235238Y-80244190D01*
X103354285Y-80244190D01*
X103425714Y-80268000D01*
X103830476Y-80720380D02*
X103782857Y-80744190D01*
X103687619Y-80744190D01*
X103640000Y-80720380D01*
X103616190Y-80672761D01*
X103616190Y-80482285D01*
X103640000Y-80434666D01*
X103687619Y-80410857D01*
X103782857Y-80410857D01*
X103830476Y-80434666D01*
X103854285Y-80482285D01*
X103854285Y-80529904D01*
X103616190Y-80577523D01*
X104068571Y-80410857D02*
X104068571Y-80744190D01*
X104068571Y-80458476D02*
X104092380Y-80434666D01*
X104140000Y-80410857D01*
X104211428Y-80410857D01*
X104259047Y-80434666D01*
X104282857Y-80482285D01*
X104282857Y-80744190D01*
X104497142Y-80720380D02*
X104544761Y-80744190D01*
X104640000Y-80744190D01*
X104687619Y-80720380D01*
X104711428Y-80672761D01*
X104711428Y-80648952D01*
X104687619Y-80601333D01*
X104640000Y-80577523D01*
X104568571Y-80577523D01*
X104520952Y-80553714D01*
X104497142Y-80506095D01*
X104497142Y-80482285D01*
X104520952Y-80434666D01*
X104568571Y-80410857D01*
X104640000Y-80410857D01*
X104687619Y-80434666D01*
X105116190Y-80720380D02*
X105068571Y-80744190D01*
X104973333Y-80744190D01*
X104925714Y-80720380D01*
X104901904Y-80672761D01*
X104901904Y-80482285D01*
X104925714Y-80434666D01*
X104973333Y-80410857D01*
X105068571Y-80410857D01*
X105116190Y-80434666D01*
X105140000Y-80482285D01*
X105140000Y-80529904D01*
X104901904Y-80577523D01*
X152316666Y-74346571D02*
X152292857Y-74370380D01*
X152221428Y-74394190D01*
X152173809Y-74394190D01*
X152102380Y-74370380D01*
X152054761Y-74322761D01*
X152030952Y-74275142D01*
X152007142Y-74179904D01*
X152007142Y-74108476D01*
X152030952Y-74013238D01*
X152054761Y-73965619D01*
X152102380Y-73918000D01*
X152173809Y-73894190D01*
X152221428Y-73894190D01*
X152292857Y-73918000D01*
X152316666Y-73941809D01*
X152507142Y-74370380D02*
X152578571Y-74394190D01*
X152697619Y-74394190D01*
X152745238Y-74370380D01*
X152769047Y-74346571D01*
X152792857Y-74298952D01*
X152792857Y-74251333D01*
X152769047Y-74203714D01*
X152745238Y-74179904D01*
X152697619Y-74156095D01*
X152602380Y-74132285D01*
X152554761Y-74108476D01*
X152530952Y-74084666D01*
X152507142Y-74037047D01*
X152507142Y-73989428D01*
X152530952Y-73941809D01*
X152554761Y-73918000D01*
X152602380Y-73894190D01*
X152721428Y-73894190D01*
X152792857Y-73918000D01*
D10*
X133318285Y-64571619D02*
X133365904Y-64524000D01*
X133461142Y-64476380D01*
X133699238Y-64476380D01*
X133794476Y-64524000D01*
X133842095Y-64571619D01*
X133889714Y-64666857D01*
X133889714Y-64762095D01*
X133842095Y-64904952D01*
X133270666Y-65476380D01*
X133889714Y-65476380D01*
D11*
X111676666Y-74346571D02*
X111652857Y-74370380D01*
X111581428Y-74394190D01*
X111533809Y-74394190D01*
X111462380Y-74370380D01*
X111414761Y-74322761D01*
X111390952Y-74275142D01*
X111367142Y-74179904D01*
X111367142Y-74108476D01*
X111390952Y-74013238D01*
X111414761Y-73965619D01*
X111462380Y-73918000D01*
X111533809Y-73894190D01*
X111581428Y-73894190D01*
X111652857Y-73918000D01*
X111676666Y-73941809D01*
X111867142Y-74370380D02*
X111938571Y-74394190D01*
X112057619Y-74394190D01*
X112105238Y-74370380D01*
X112129047Y-74346571D01*
X112152857Y-74298952D01*
X112152857Y-74251333D01*
X112129047Y-74203714D01*
X112105238Y-74179904D01*
X112057619Y-74156095D01*
X111962380Y-74132285D01*
X111914761Y-74108476D01*
X111890952Y-74084666D01*
X111867142Y-74037047D01*
X111867142Y-73989428D01*
X111890952Y-73941809D01*
X111914761Y-73918000D01*
X111962380Y-73894190D01*
X112081428Y-73894190D01*
X112152857Y-73918000D01*
X149681428Y-74346571D02*
X149657619Y-74370380D01*
X149586190Y-74394190D01*
X149538571Y-74394190D01*
X149467142Y-74370380D01*
X149419523Y-74322761D01*
X149395714Y-74275142D01*
X149371904Y-74179904D01*
X149371904Y-74108476D01*
X149395714Y-74013238D01*
X149419523Y-73965619D01*
X149467142Y-73918000D01*
X149538571Y-73894190D01*
X149586190Y-73894190D01*
X149657619Y-73918000D01*
X149681428Y-73941809D01*
X149967142Y-74394190D02*
X149919523Y-74370380D01*
X149895714Y-74322761D01*
X149895714Y-73894190D01*
X150157619Y-74394190D02*
X150157619Y-73894190D01*
X150205238Y-74203714D02*
X150348095Y-74394190D01*
X150348095Y-74060857D02*
X150157619Y-74251333D01*
D10*
X135413714Y-63444380D02*
X134842285Y-63444380D01*
X135128000Y-63444380D02*
X135128000Y-62444380D01*
X135032761Y-62587238D01*
X134937523Y-62682476D01*
X134842285Y-62730095D01*
X118427523Y-63444380D02*
X117856095Y-63444380D01*
X118141809Y-63444380D02*
X118141809Y-62444380D01*
X118046571Y-62587238D01*
X117951333Y-62682476D01*
X117856095Y-62730095D01*
X119379904Y-63444380D02*
X118808476Y-63444380D01*
X119094190Y-63444380D02*
X119094190Y-62444380D01*
X118998952Y-62587238D01*
X118903714Y-62682476D01*
X118808476Y-62730095D01*
D11*
X152078571Y-80268000D02*
X152030952Y-80244190D01*
X151959523Y-80244190D01*
X151888095Y-80268000D01*
X151840476Y-80315619D01*
X151816666Y-80363238D01*
X151792857Y-80458476D01*
X151792857Y-80529904D01*
X151816666Y-80625142D01*
X151840476Y-80672761D01*
X151888095Y-80720380D01*
X151959523Y-80744190D01*
X152007142Y-80744190D01*
X152078571Y-80720380D01*
X152102380Y-80696571D01*
X152102380Y-80529904D01*
X152007142Y-80529904D01*
X152316666Y-80410857D02*
X152316666Y-80744190D01*
X152316666Y-80458476D02*
X152340476Y-80434666D01*
X152388095Y-80410857D01*
X152459523Y-80410857D01*
X152507142Y-80434666D01*
X152530952Y-80482285D01*
X152530952Y-80744190D01*
X152983333Y-80744190D02*
X152983333Y-80244190D01*
X152983333Y-80720380D02*
X152935714Y-80744190D01*
X152840476Y-80744190D01*
X152792857Y-80720380D01*
X152769047Y-80696571D01*
X152745238Y-80648952D01*
X152745238Y-80506095D01*
X152769047Y-80458476D01*
X152792857Y-80434666D01*
X152840476Y-80410857D01*
X152935714Y-80410857D01*
X152983333Y-80434666D01*
D10*
X103703809Y-72350380D02*
X104275238Y-72350380D01*
X103989523Y-73350380D02*
X103989523Y-72350380D01*
X104751428Y-73350380D02*
X104656190Y-73302761D01*
X104608571Y-73255142D01*
X104560952Y-73159904D01*
X104560952Y-72874190D01*
X104608571Y-72778952D01*
X104656190Y-72731333D01*
X104751428Y-72683714D01*
X104894285Y-72683714D01*
X104989523Y-72731333D01*
X105037142Y-72778952D01*
X105084761Y-72874190D01*
X105084761Y-73159904D01*
X105037142Y-73255142D01*
X104989523Y-73302761D01*
X104894285Y-73350380D01*
X104751428Y-73350380D01*
X105513333Y-72683714D02*
X105513333Y-73683714D01*
X105513333Y-72731333D02*
X105608571Y-72683714D01*
X105799047Y-72683714D01*
X105894285Y-72731333D01*
X105941904Y-72778952D01*
X105989523Y-72874190D01*
X105989523Y-73159904D01*
X105941904Y-73255142D01*
X105894285Y-73302761D01*
X105799047Y-73350380D01*
X105608571Y-73350380D01*
X105513333Y-73302761D01*
X107132380Y-73302761D02*
X107227619Y-73350380D01*
X107418095Y-73350380D01*
X107513333Y-73302761D01*
X107560952Y-73207523D01*
X107560952Y-73159904D01*
X107513333Y-73064666D01*
X107418095Y-73017047D01*
X107275238Y-73017047D01*
X107180000Y-72969428D01*
X107132380Y-72874190D01*
X107132380Y-72826571D01*
X107180000Y-72731333D01*
X107275238Y-72683714D01*
X107418095Y-72683714D01*
X107513333Y-72731333D01*
X108132380Y-73350380D02*
X108037142Y-73302761D01*
X107989523Y-73207523D01*
X107989523Y-72350380D01*
X108656190Y-73350380D02*
X108560952Y-73302761D01*
X108513333Y-73255142D01*
X108465714Y-73159904D01*
X108465714Y-72874190D01*
X108513333Y-72778952D01*
X108560952Y-72731333D01*
X108656190Y-72683714D01*
X108799047Y-72683714D01*
X108894285Y-72731333D01*
X108941904Y-72778952D01*
X108989523Y-72874190D01*
X108989523Y-73159904D01*
X108941904Y-73255142D01*
X108894285Y-73302761D01*
X108799047Y-73350380D01*
X108656190Y-73350380D01*
X109275238Y-72683714D02*
X109656190Y-72683714D01*
X109418095Y-72350380D02*
X109418095Y-73207523D01*
X109465714Y-73302761D01*
X109560952Y-73350380D01*
X109656190Y-73350380D01*
X134937523Y-59380380D02*
X134366095Y-59380380D01*
X134651809Y-59380380D02*
X134651809Y-58380380D01*
X134556571Y-58523238D01*
X134461333Y-58618476D01*
X134366095Y-58666095D01*
X135270857Y-58380380D02*
X135889904Y-58380380D01*
X135556571Y-58761333D01*
X135699428Y-58761333D01*
X135794666Y-58808952D01*
X135842285Y-58856571D01*
X135889904Y-58951809D01*
X135889904Y-59189904D01*
X135842285Y-59285142D01*
X135794666Y-59332761D01*
X135699428Y-59380380D01*
X135413714Y-59380380D01*
X135318476Y-59332761D01*
X135270857Y-59285142D01*
D11*
X100885714Y-73894190D02*
X101195238Y-73894190D01*
X101028571Y-74084666D01*
X101100000Y-74084666D01*
X101147619Y-74108476D01*
X101171428Y-74132285D01*
X101195238Y-74179904D01*
X101195238Y-74298952D01*
X101171428Y-74346571D01*
X101147619Y-74370380D01*
X101100000Y-74394190D01*
X100957142Y-74394190D01*
X100909523Y-74370380D01*
X100885714Y-74346571D01*
X101409523Y-74346571D02*
X101433333Y-74370380D01*
X101409523Y-74394190D01*
X101385714Y-74370380D01*
X101409523Y-74346571D01*
X101409523Y-74394190D01*
X101600000Y-73894190D02*
X101909523Y-73894190D01*
X101742857Y-74084666D01*
X101814285Y-74084666D01*
X101861904Y-74108476D01*
X101885714Y-74132285D01*
X101909523Y-74179904D01*
X101909523Y-74298952D01*
X101885714Y-74346571D01*
X101861904Y-74370380D01*
X101814285Y-74394190D01*
X101671428Y-74394190D01*
X101623809Y-74370380D01*
X101600000Y-74346571D01*
X102076190Y-74060857D02*
X102195238Y-74394190D01*
X102314285Y-74060857D01*
X141525714Y-73894190D02*
X141835238Y-73894190D01*
X141668571Y-74084666D01*
X141740000Y-74084666D01*
X141787619Y-74108476D01*
X141811428Y-74132285D01*
X141835238Y-74179904D01*
X141835238Y-74298952D01*
X141811428Y-74346571D01*
X141787619Y-74370380D01*
X141740000Y-74394190D01*
X141597142Y-74394190D01*
X141549523Y-74370380D01*
X141525714Y-74346571D01*
X142049523Y-74346571D02*
X142073333Y-74370380D01*
X142049523Y-74394190D01*
X142025714Y-74370380D01*
X142049523Y-74346571D01*
X142049523Y-74394190D01*
X142240000Y-73894190D02*
X142549523Y-73894190D01*
X142382857Y-74084666D01*
X142454285Y-74084666D01*
X142501904Y-74108476D01*
X142525714Y-74132285D01*
X142549523Y-74179904D01*
X142549523Y-74298952D01*
X142525714Y-74346571D01*
X142501904Y-74370380D01*
X142454285Y-74394190D01*
X142311428Y-74394190D01*
X142263809Y-74370380D01*
X142240000Y-74346571D01*
X142716190Y-74060857D02*
X142835238Y-74394190D01*
X142954285Y-74060857D01*
D10*
X133413523Y-61412380D02*
X132842095Y-61412380D01*
X133127809Y-61412380D02*
X133127809Y-60412380D01*
X133032571Y-60555238D01*
X132937333Y-60650476D01*
X132842095Y-60698095D01*
X134270666Y-60745714D02*
X134270666Y-61412380D01*
X134032571Y-60364761D02*
X133794476Y-61079047D01*
X134413523Y-61079047D01*
D11*
X146320000Y-80720380D02*
X146391428Y-80744190D01*
X146510476Y-80744190D01*
X146558095Y-80720380D01*
X146581904Y-80696571D01*
X146605714Y-80648952D01*
X146605714Y-80601333D01*
X146581904Y-80553714D01*
X146558095Y-80529904D01*
X146510476Y-80506095D01*
X146415238Y-80482285D01*
X146367619Y-80458476D01*
X146343809Y-80434666D01*
X146320000Y-80387047D01*
X146320000Y-80339428D01*
X146343809Y-80291809D01*
X146367619Y-80268000D01*
X146415238Y-80244190D01*
X146534285Y-80244190D01*
X146605714Y-80268000D01*
X147010476Y-80720380D02*
X146962857Y-80744190D01*
X146867619Y-80744190D01*
X146820000Y-80720380D01*
X146796190Y-80672761D01*
X146796190Y-80482285D01*
X146820000Y-80434666D01*
X146867619Y-80410857D01*
X146962857Y-80410857D01*
X147010476Y-80434666D01*
X147034285Y-80482285D01*
X147034285Y-80529904D01*
X146796190Y-80577523D01*
X147248571Y-80410857D02*
X147248571Y-80744190D01*
X147248571Y-80458476D02*
X147272380Y-80434666D01*
X147320000Y-80410857D01*
X147391428Y-80410857D01*
X147439047Y-80434666D01*
X147462857Y-80482285D01*
X147462857Y-80744190D01*
X147677142Y-80720380D02*
X147724761Y-80744190D01*
X147820000Y-80744190D01*
X147867619Y-80720380D01*
X147891428Y-80672761D01*
X147891428Y-80648952D01*
X147867619Y-80601333D01*
X147820000Y-80577523D01*
X147748571Y-80577523D01*
X147700952Y-80553714D01*
X147677142Y-80506095D01*
X147677142Y-80482285D01*
X147700952Y-80434666D01*
X147748571Y-80410857D01*
X147820000Y-80410857D01*
X147867619Y-80434666D01*
X148296190Y-80720380D02*
X148248571Y-80744190D01*
X148153333Y-80744190D01*
X148105714Y-80720380D01*
X148081904Y-80672761D01*
X148081904Y-80482285D01*
X148105714Y-80434666D01*
X148153333Y-80410857D01*
X148248571Y-80410857D01*
X148296190Y-80434666D01*
X148320000Y-80482285D01*
X148320000Y-80529904D01*
X148081904Y-80577523D01*
X149490952Y-80744190D02*
X149490952Y-80244190D01*
X149729047Y-80410857D02*
X149729047Y-80744190D01*
X149729047Y-80458476D02*
X149752857Y-80434666D01*
X149800476Y-80410857D01*
X149871904Y-80410857D01*
X149919523Y-80434666D01*
X149943333Y-80482285D01*
X149943333Y-80744190D01*
X150110000Y-80410857D02*
X150300476Y-80410857D01*
X150181428Y-80244190D02*
X150181428Y-80672761D01*
X150205238Y-80720380D01*
X150252857Y-80744190D01*
X150300476Y-80744190D01*
X101528571Y-80244190D02*
X101290476Y-80244190D01*
X101266666Y-80482285D01*
X101290476Y-80458476D01*
X101338095Y-80434666D01*
X101457142Y-80434666D01*
X101504761Y-80458476D01*
X101528571Y-80482285D01*
X101552380Y-80529904D01*
X101552380Y-80648952D01*
X101528571Y-80696571D01*
X101504761Y-80720380D01*
X101457142Y-80744190D01*
X101338095Y-80744190D01*
X101290476Y-80720380D01*
X101266666Y-80696571D01*
X101719047Y-80410857D02*
X101838095Y-80744190D01*
X101957142Y-80410857D01*
D10*
X118857142Y-68243380D02*
X119095238Y-69243380D01*
X119285714Y-68529095D01*
X119476190Y-69243380D01*
X119714285Y-68243380D01*
X120095238Y-68719571D02*
X120428571Y-68719571D01*
X120571428Y-69243380D02*
X120095238Y-69243380D01*
X120095238Y-68243380D01*
X120571428Y-68243380D01*
X121000000Y-68862428D02*
X121761904Y-68862428D01*
X122095238Y-68243380D02*
X122666666Y-68243380D01*
X122380952Y-69243380D02*
X122380952Y-68243380D01*
X122857142Y-68243380D02*
X123190476Y-69243380D01*
X123523809Y-68243380D01*
X123809523Y-69195761D02*
X123952380Y-69243380D01*
X124190476Y-69243380D01*
X124285714Y-69195761D01*
X124333333Y-69148142D01*
X124380952Y-69052904D01*
X124380952Y-68957666D01*
X124333333Y-68862428D01*
X124285714Y-68814809D01*
X124190476Y-68767190D01*
X124000000Y-68719571D01*
X123904761Y-68671952D01*
X123857142Y-68624333D01*
X123809523Y-68529095D01*
X123809523Y-68433857D01*
X123857142Y-68338619D01*
X123904761Y-68291000D01*
X124000000Y-68243380D01*
X124238095Y-68243380D01*
X124380952Y-68291000D01*
X125714285Y-68671952D02*
X125619047Y-68624333D01*
X125571428Y-68576714D01*
X125523809Y-68481476D01*
X125523809Y-68433857D01*
X125571428Y-68338619D01*
X125619047Y-68291000D01*
X125714285Y-68243380D01*
X125904761Y-68243380D01*
X126000000Y-68291000D01*
X126047619Y-68338619D01*
X126095238Y-68433857D01*
X126095238Y-68481476D01*
X126047619Y-68576714D01*
X126000000Y-68624333D01*
X125904761Y-68671952D01*
X125714285Y-68671952D01*
X125619047Y-68719571D01*
X125571428Y-68767190D01*
X125523809Y-68862428D01*
X125523809Y-69052904D01*
X125571428Y-69148142D01*
X125619047Y-69195761D01*
X125714285Y-69243380D01*
X125904761Y-69243380D01*
X126000000Y-69195761D01*
X126047619Y-69148142D01*
X126095238Y-69052904D01*
X126095238Y-68862428D01*
X126047619Y-68767190D01*
X126000000Y-68719571D01*
X125904761Y-68671952D01*
X126476190Y-68338619D02*
X126523809Y-68291000D01*
X126619047Y-68243380D01*
X126857142Y-68243380D01*
X126952380Y-68291000D01*
X127000000Y-68338619D01*
X127047619Y-68433857D01*
X127047619Y-68529095D01*
X127000000Y-68671952D01*
X126428571Y-69243380D01*
X127047619Y-69243380D01*
X127904761Y-68576714D02*
X127904761Y-69243380D01*
X127666666Y-68195761D02*
X127428571Y-68910047D01*
X128047619Y-68910047D01*
X128619047Y-68243380D02*
X128714285Y-68243380D01*
X128809523Y-68291000D01*
X128857142Y-68338619D01*
X128904761Y-68433857D01*
X128952380Y-68624333D01*
X128952380Y-68862428D01*
X128904761Y-69052904D01*
X128857142Y-69148142D01*
X128809523Y-69195761D01*
X128714285Y-69243380D01*
X128619047Y-69243380D01*
X128523809Y-69195761D01*
X128476190Y-69148142D01*
X128428571Y-69052904D01*
X128380952Y-68862428D01*
X128380952Y-68624333D01*
X128428571Y-68433857D01*
X128476190Y-68338619D01*
X128523809Y-68291000D01*
X128619047Y-68243380D01*
X129904761Y-69243380D02*
X129333333Y-69243380D01*
X129619047Y-69243380D02*
X129619047Y-68243380D01*
X129523809Y-68386238D01*
X129428571Y-68481476D01*
X129333333Y-68529095D01*
X130761904Y-68576714D02*
X130761904Y-69243380D01*
X130523809Y-68195761D02*
X130285714Y-68910047D01*
X130904761Y-68910047D01*
X132476190Y-69243380D02*
X132476190Y-68719571D01*
X132428571Y-68624333D01*
X132333333Y-68576714D01*
X132142857Y-68576714D01*
X132047619Y-68624333D01*
X132476190Y-69195761D02*
X132380952Y-69243380D01*
X132142857Y-69243380D01*
X132047619Y-69195761D01*
X132000000Y-69100523D01*
X132000000Y-69005285D01*
X132047619Y-68910047D01*
X132142857Y-68862428D01*
X132380952Y-68862428D01*
X132476190Y-68814809D01*
X132952380Y-68576714D02*
X132952380Y-69243380D01*
X132952380Y-68671952D02*
X133000000Y-68624333D01*
X133095238Y-68576714D01*
X133238095Y-68576714D01*
X133333333Y-68624333D01*
X133380952Y-68719571D01*
X133380952Y-69243380D01*
X134285714Y-69243380D02*
X134285714Y-68243380D01*
X134285714Y-69195761D02*
X134190476Y-69243380D01*
X134000000Y-69243380D01*
X133904761Y-69195761D01*
X133857142Y-69148142D01*
X133809523Y-69052904D01*
X133809523Y-68767190D01*
X133857142Y-68671952D01*
X133904761Y-68624333D01*
X134000000Y-68576714D01*
X134190476Y-68576714D01*
X134285714Y-68624333D01*
X119095238Y-69853380D02*
X119190476Y-69853380D01*
X119285714Y-69901000D01*
X119333333Y-69948619D01*
X119380952Y-70043857D01*
X119428571Y-70234333D01*
X119428571Y-70472428D01*
X119380952Y-70662904D01*
X119333333Y-70758142D01*
X119285714Y-70805761D01*
X119190476Y-70853380D01*
X119095238Y-70853380D01*
X119000000Y-70805761D01*
X118952380Y-70758142D01*
X118904761Y-70662904D01*
X118857142Y-70472428D01*
X118857142Y-70234333D01*
X118904761Y-70043857D01*
X118952380Y-69948619D01*
X119000000Y-69901000D01*
X119095238Y-69853380D01*
X119857142Y-70758142D02*
X119904761Y-70805761D01*
X119857142Y-70853380D01*
X119809523Y-70805761D01*
X119857142Y-70758142D01*
X119857142Y-70853380D01*
X120857142Y-70853380D02*
X120285714Y-70853380D01*
X120571428Y-70853380D02*
X120571428Y-69853380D01*
X120476190Y-69996238D01*
X120380952Y-70091476D01*
X120285714Y-70139095D01*
X121714285Y-70186714D02*
X121714285Y-70853380D01*
X121285714Y-70186714D02*
X121285714Y-70710523D01*
X121333333Y-70805761D01*
X121428571Y-70853380D01*
X121571428Y-70853380D01*
X121666666Y-70805761D01*
X121714285Y-70758142D01*
X122047619Y-70186714D02*
X122428571Y-70186714D01*
X122190476Y-70853380D02*
X122190476Y-69996238D01*
X122238095Y-69901000D01*
X122333333Y-69853380D01*
X122428571Y-69853380D01*
X123952380Y-70805761D02*
X123857142Y-70853380D01*
X123666666Y-70853380D01*
X123571428Y-70805761D01*
X123523809Y-70758142D01*
X123476190Y-70662904D01*
X123476190Y-70377190D01*
X123523809Y-70281952D01*
X123571428Y-70234333D01*
X123666666Y-70186714D01*
X123857142Y-70186714D01*
X123952380Y-70234333D01*
X124809523Y-70853380D02*
X124809523Y-70329571D01*
X124761904Y-70234333D01*
X124666666Y-70186714D01*
X124476190Y-70186714D01*
X124380952Y-70234333D01*
X124809523Y-70805761D02*
X124714285Y-70853380D01*
X124476190Y-70853380D01*
X124380952Y-70805761D01*
X124333333Y-70710523D01*
X124333333Y-70615285D01*
X124380952Y-70520047D01*
X124476190Y-70472428D01*
X124714285Y-70472428D01*
X124809523Y-70424809D01*
X125285714Y-70186714D02*
X125285714Y-71186714D01*
X125285714Y-70234333D02*
X125380952Y-70186714D01*
X125571428Y-70186714D01*
X125666666Y-70234333D01*
X125714285Y-70281952D01*
X125761904Y-70377190D01*
X125761904Y-70662904D01*
X125714285Y-70758142D01*
X125666666Y-70805761D01*
X125571428Y-70853380D01*
X125380952Y-70853380D01*
X125285714Y-70805761D01*
X126619047Y-70853380D02*
X126619047Y-70329571D01*
X126571428Y-70234333D01*
X126476190Y-70186714D01*
X126285714Y-70186714D01*
X126190476Y-70234333D01*
X126619047Y-70805761D02*
X126523809Y-70853380D01*
X126285714Y-70853380D01*
X126190476Y-70805761D01*
X126142857Y-70710523D01*
X126142857Y-70615285D01*
X126190476Y-70520047D01*
X126285714Y-70472428D01*
X126523809Y-70472428D01*
X126619047Y-70424809D01*
X127523809Y-70805761D02*
X127428571Y-70853380D01*
X127238095Y-70853380D01*
X127142857Y-70805761D01*
X127095238Y-70758142D01*
X127047619Y-70662904D01*
X127047619Y-70377190D01*
X127095238Y-70281952D01*
X127142857Y-70234333D01*
X127238095Y-70186714D01*
X127428571Y-70186714D01*
X127523809Y-70234333D01*
X127952380Y-70853380D02*
X127952380Y-70186714D01*
X127952380Y-69853380D02*
X127904761Y-69901000D01*
X127952380Y-69948619D01*
X128000000Y-69901000D01*
X127952380Y-69853380D01*
X127952380Y-69948619D01*
X128285714Y-70186714D02*
X128666666Y-70186714D01*
X128428571Y-69853380D02*
X128428571Y-70710523D01*
X128476190Y-70805761D01*
X128571428Y-70853380D01*
X128666666Y-70853380D01*
X129142857Y-70853380D02*
X129047619Y-70805761D01*
X129000000Y-70758142D01*
X128952380Y-70662904D01*
X128952380Y-70377190D01*
X129000000Y-70281952D01*
X129047619Y-70234333D01*
X129142857Y-70186714D01*
X129285714Y-70186714D01*
X129380952Y-70234333D01*
X129428571Y-70281952D01*
X129476190Y-70377190D01*
X129476190Y-70662904D01*
X129428571Y-70758142D01*
X129380952Y-70805761D01*
X129285714Y-70853380D01*
X129142857Y-70853380D01*
X129904761Y-70853380D02*
X129904761Y-70186714D01*
X129904761Y-70377190D02*
X129952380Y-70281952D01*
X130000000Y-70234333D01*
X130095238Y-70186714D01*
X130190476Y-70186714D01*
X130476190Y-70805761D02*
X130571428Y-70853380D01*
X130761904Y-70853380D01*
X130857142Y-70805761D01*
X130904761Y-70710523D01*
X130904761Y-70662904D01*
X130857142Y-70567666D01*
X130761904Y-70520047D01*
X130619047Y-70520047D01*
X130523809Y-70472428D01*
X130476190Y-70377190D01*
X130476190Y-70329571D01*
X130523809Y-70234333D01*
X130619047Y-70186714D01*
X130761904Y-70186714D01*
X130857142Y-70234333D01*
X132523809Y-70186714D02*
X132523809Y-70853380D01*
X132095238Y-70186714D02*
X132095238Y-70710523D01*
X132142857Y-70805761D01*
X132238095Y-70853380D01*
X132380952Y-70853380D01*
X132476190Y-70805761D01*
X132523809Y-70758142D01*
X132952380Y-70805761D02*
X133047619Y-70853380D01*
X133238095Y-70853380D01*
X133333333Y-70805761D01*
X133380952Y-70710523D01*
X133380952Y-70662904D01*
X133333333Y-70567666D01*
X133238095Y-70520047D01*
X133095238Y-70520047D01*
X133000000Y-70472428D01*
X132952380Y-70377190D01*
X132952380Y-70329571D01*
X133000000Y-70234333D01*
X133095238Y-70186714D01*
X133238095Y-70186714D01*
X133333333Y-70234333D01*
X134190476Y-70805761D02*
X134095238Y-70853380D01*
X133904761Y-70853380D01*
X133809523Y-70805761D01*
X133761904Y-70710523D01*
X133761904Y-70329571D01*
X133809523Y-70234333D01*
X133904761Y-70186714D01*
X134095238Y-70186714D01*
X134190476Y-70234333D01*
X134238095Y-70329571D01*
X134238095Y-70424809D01*
X133761904Y-70520047D01*
X135095238Y-70853380D02*
X135095238Y-69853380D01*
X135095238Y-70805761D02*
X135000000Y-70853380D01*
X134809523Y-70853380D01*
X134714285Y-70805761D01*
X134666666Y-70758142D01*
X134619047Y-70662904D01*
X134619047Y-70377190D01*
X134666666Y-70281952D01*
X134714285Y-70234333D01*
X134809523Y-70186714D01*
X135000000Y-70186714D01*
X135095238Y-70234333D01*
D11*
X106287142Y-74394190D02*
X106287142Y-73894190D01*
X106406190Y-73894190D01*
X106477619Y-73918000D01*
X106525238Y-73965619D01*
X106549047Y-74013238D01*
X106572857Y-74108476D01*
X106572857Y-74179904D01*
X106549047Y-74275142D01*
X106525238Y-74322761D01*
X106477619Y-74370380D01*
X106406190Y-74394190D01*
X106287142Y-74394190D01*
X106882380Y-73894190D02*
X106977619Y-73894190D01*
X107025238Y-73918000D01*
X107072857Y-73965619D01*
X107096666Y-74060857D01*
X107096666Y-74227523D01*
X107072857Y-74322761D01*
X107025238Y-74370380D01*
X106977619Y-74394190D01*
X106882380Y-74394190D01*
X106834761Y-74370380D01*
X106787142Y-74322761D01*
X106763333Y-74227523D01*
X106763333Y-74060857D01*
X106787142Y-73965619D01*
X106834761Y-73918000D01*
X106882380Y-73894190D01*
X105680000Y-80720380D02*
X105751428Y-80744190D01*
X105870476Y-80744190D01*
X105918095Y-80720380D01*
X105941904Y-80696571D01*
X105965714Y-80648952D01*
X105965714Y-80601333D01*
X105941904Y-80553714D01*
X105918095Y-80529904D01*
X105870476Y-80506095D01*
X105775238Y-80482285D01*
X105727619Y-80458476D01*
X105703809Y-80434666D01*
X105680000Y-80387047D01*
X105680000Y-80339428D01*
X105703809Y-80291809D01*
X105727619Y-80268000D01*
X105775238Y-80244190D01*
X105894285Y-80244190D01*
X105965714Y-80268000D01*
X106370476Y-80720380D02*
X106322857Y-80744190D01*
X106227619Y-80744190D01*
X106180000Y-80720380D01*
X106156190Y-80672761D01*
X106156190Y-80482285D01*
X106180000Y-80434666D01*
X106227619Y-80410857D01*
X106322857Y-80410857D01*
X106370476Y-80434666D01*
X106394285Y-80482285D01*
X106394285Y-80529904D01*
X106156190Y-80577523D01*
X106608571Y-80410857D02*
X106608571Y-80744190D01*
X106608571Y-80458476D02*
X106632380Y-80434666D01*
X106680000Y-80410857D01*
X106751428Y-80410857D01*
X106799047Y-80434666D01*
X106822857Y-80482285D01*
X106822857Y-80744190D01*
X107037142Y-80720380D02*
X107084761Y-80744190D01*
X107180000Y-80744190D01*
X107227619Y-80720380D01*
X107251428Y-80672761D01*
X107251428Y-80648952D01*
X107227619Y-80601333D01*
X107180000Y-80577523D01*
X107108571Y-80577523D01*
X107060952Y-80553714D01*
X107037142Y-80506095D01*
X107037142Y-80482285D01*
X107060952Y-80434666D01*
X107108571Y-80410857D01*
X107180000Y-80410857D01*
X107227619Y-80434666D01*
X107656190Y-80720380D02*
X107608571Y-80744190D01*
X107513333Y-80744190D01*
X107465714Y-80720380D01*
X107441904Y-80672761D01*
X107441904Y-80482285D01*
X107465714Y-80434666D01*
X107513333Y-80410857D01*
X107608571Y-80410857D01*
X107656190Y-80434666D01*
X107680000Y-80482285D01*
X107680000Y-80529904D01*
X107441904Y-80577523D01*
X109041428Y-74346571D02*
X109017619Y-74370380D01*
X108946190Y-74394190D01*
X108898571Y-74394190D01*
X108827142Y-74370380D01*
X108779523Y-74322761D01*
X108755714Y-74275142D01*
X108731904Y-74179904D01*
X108731904Y-74108476D01*
X108755714Y-74013238D01*
X108779523Y-73965619D01*
X108827142Y-73918000D01*
X108898571Y-73894190D01*
X108946190Y-73894190D01*
X109017619Y-73918000D01*
X109041428Y-73941809D01*
X109327142Y-74394190D02*
X109279523Y-74370380D01*
X109255714Y-74322761D01*
X109255714Y-73894190D01*
X109517619Y-74394190D02*
X109517619Y-73894190D01*
X109565238Y-74203714D02*
X109708095Y-74394190D01*
X109708095Y-74060857D02*
X109517619Y-74251333D01*
D10*
X130508857Y-77398571D02*
X130651714Y-77446190D01*
X130699333Y-77493809D01*
X130746952Y-77589047D01*
X130746952Y-77731904D01*
X130699333Y-77827142D01*
X130651714Y-77874761D01*
X130556476Y-77922380D01*
X130175523Y-77922380D01*
X130175523Y-76922380D01*
X130508857Y-76922380D01*
X130604095Y-76970000D01*
X130651714Y-77017619D01*
X130699333Y-77112857D01*
X130699333Y-77208095D01*
X130651714Y-77303333D01*
X130604095Y-77350952D01*
X130508857Y-77398571D01*
X130175523Y-77398571D01*
X131318380Y-77922380D02*
X131223142Y-77874761D01*
X131175523Y-77827142D01*
X131127904Y-77731904D01*
X131127904Y-77446190D01*
X131175523Y-77350952D01*
X131223142Y-77303333D01*
X131318380Y-77255714D01*
X131461238Y-77255714D01*
X131556476Y-77303333D01*
X131604095Y-77350952D01*
X131651714Y-77446190D01*
X131651714Y-77731904D01*
X131604095Y-77827142D01*
X131556476Y-77874761D01*
X131461238Y-77922380D01*
X131318380Y-77922380D01*
X131937428Y-77255714D02*
X132318380Y-77255714D01*
X132080285Y-76922380D02*
X132080285Y-77779523D01*
X132127904Y-77874761D01*
X132223142Y-77922380D01*
X132318380Y-77922380D01*
X132508857Y-77255714D02*
X132889809Y-77255714D01*
X132651714Y-76922380D02*
X132651714Y-77779523D01*
X132699333Y-77874761D01*
X132794571Y-77922380D01*
X132889809Y-77922380D01*
X133366000Y-77922380D02*
X133270761Y-77874761D01*
X133223142Y-77827142D01*
X133175523Y-77731904D01*
X133175523Y-77446190D01*
X133223142Y-77350952D01*
X133270761Y-77303333D01*
X133366000Y-77255714D01*
X133508857Y-77255714D01*
X133604095Y-77303333D01*
X133651714Y-77350952D01*
X133699333Y-77446190D01*
X133699333Y-77731904D01*
X133651714Y-77827142D01*
X133604095Y-77874761D01*
X133508857Y-77922380D01*
X133366000Y-77922380D01*
X134127904Y-77922380D02*
X134127904Y-77255714D01*
X134127904Y-77350952D02*
X134175523Y-77303333D01*
X134270761Y-77255714D01*
X134413619Y-77255714D01*
X134508857Y-77303333D01*
X134556476Y-77398571D01*
X134556476Y-77922380D01*
X134556476Y-77398571D02*
X134604095Y-77303333D01*
X134699333Y-77255714D01*
X134842190Y-77255714D01*
X134937428Y-77303333D01*
X134985047Y-77398571D01*
X134985047Y-77922380D01*
X136175523Y-77874761D02*
X136270761Y-77922380D01*
X136461238Y-77922380D01*
X136556476Y-77874761D01*
X136604095Y-77779523D01*
X136604095Y-77731904D01*
X136556476Y-77636666D01*
X136461238Y-77589047D01*
X136318380Y-77589047D01*
X136223142Y-77541428D01*
X136175523Y-77446190D01*
X136175523Y-77398571D01*
X136223142Y-77303333D01*
X136318380Y-77255714D01*
X136461238Y-77255714D01*
X136556476Y-77303333D01*
X137175523Y-77922380D02*
X137080285Y-77874761D01*
X137032666Y-77779523D01*
X137032666Y-76922380D01*
X137699333Y-77922380D02*
X137604095Y-77874761D01*
X137556476Y-77827142D01*
X137508857Y-77731904D01*
X137508857Y-77446190D01*
X137556476Y-77350952D01*
X137604095Y-77303333D01*
X137699333Y-77255714D01*
X137842190Y-77255714D01*
X137937428Y-77303333D01*
X137985047Y-77350952D01*
X138032666Y-77446190D01*
X138032666Y-77731904D01*
X137985047Y-77827142D01*
X137937428Y-77874761D01*
X137842190Y-77922380D01*
X137699333Y-77922380D01*
X138318380Y-77255714D02*
X138699333Y-77255714D01*
X138461238Y-76922380D02*
X138461238Y-77779523D01*
X138508857Y-77874761D01*
X138604095Y-77922380D01*
X138699333Y-77922380D01*
D11*
X146927142Y-74394190D02*
X146927142Y-73894190D01*
X147046190Y-73894190D01*
X147117619Y-73918000D01*
X147165238Y-73965619D01*
X147189047Y-74013238D01*
X147212857Y-74108476D01*
X147212857Y-74179904D01*
X147189047Y-74275142D01*
X147165238Y-74322761D01*
X147117619Y-74370380D01*
X147046190Y-74394190D01*
X146927142Y-74394190D01*
X147522380Y-73894190D02*
X147617619Y-73894190D01*
X147665238Y-73918000D01*
X147712857Y-73965619D01*
X147736666Y-74060857D01*
X147736666Y-74227523D01*
X147712857Y-74322761D01*
X147665238Y-74370380D01*
X147617619Y-74394190D01*
X147522380Y-74394190D01*
X147474761Y-74370380D01*
X147427142Y-74322761D01*
X147403333Y-74227523D01*
X147403333Y-74060857D01*
X147427142Y-73965619D01*
X147474761Y-73918000D01*
X147522380Y-73894190D01*
D10*
X101609142Y-69000666D02*
X101656761Y-69048285D01*
X101704380Y-69191142D01*
X101704380Y-69286380D01*
X101656761Y-69429238D01*
X101561523Y-69524476D01*
X101466285Y-69572095D01*
X101275809Y-69619714D01*
X101132952Y-69619714D01*
X100942476Y-69572095D01*
X100847238Y-69524476D01*
X100752000Y-69429238D01*
X100704380Y-69286380D01*
X100704380Y-69191142D01*
X100752000Y-69048285D01*
X100799619Y-69000666D01*
X101704380Y-68048285D02*
X101704380Y-68619714D01*
X101704380Y-68334000D02*
X100704380Y-68334000D01*
X100847238Y-68429238D01*
X100942476Y-68524476D01*
X100990095Y-68619714D01*
X139362380Y-77803333D02*
X140076666Y-77803333D01*
X140219523Y-77850952D01*
X140314761Y-77946190D01*
X140362380Y-78089047D01*
X140362380Y-78184285D01*
X139457619Y-77374761D02*
X139410000Y-77327142D01*
X139362380Y-77231904D01*
X139362380Y-76993809D01*
X139410000Y-76898571D01*
X139457619Y-76850952D01*
X139552857Y-76803333D01*
X139648095Y-76803333D01*
X139790952Y-76850952D01*
X140362380Y-77422380D01*
X140362380Y-76803333D01*
X116341142Y-69000666D02*
X116388761Y-69048285D01*
X116436380Y-69191142D01*
X116436380Y-69286380D01*
X116388761Y-69429238D01*
X116293523Y-69524476D01*
X116198285Y-69572095D01*
X116007809Y-69619714D01*
X115864952Y-69619714D01*
X115674476Y-69572095D01*
X115579238Y-69524476D01*
X115484000Y-69429238D01*
X115436380Y-69286380D01*
X115436380Y-69191142D01*
X115484000Y-69048285D01*
X115531619Y-69000666D01*
X115531619Y-68619714D02*
X115484000Y-68572095D01*
X115436380Y-68476857D01*
X115436380Y-68238761D01*
X115484000Y-68143523D01*
X115531619Y-68095904D01*
X115626857Y-68048285D01*
X115722095Y-68048285D01*
X115864952Y-68095904D01*
X116436380Y-68667333D01*
X116436380Y-68048285D01*
D12*
X107932914Y-69102142D02*
X107932914Y-68622142D01*
X108047200Y-68622142D01*
X108115771Y-68645000D01*
X108161485Y-68690714D01*
X108184342Y-68736428D01*
X108207200Y-68827857D01*
X108207200Y-68896428D01*
X108184342Y-68987857D01*
X108161485Y-69033571D01*
X108115771Y-69079285D01*
X108047200Y-69102142D01*
X107932914Y-69102142D01*
X108390057Y-68667857D02*
X108412914Y-68645000D01*
X108458628Y-68622142D01*
X108572914Y-68622142D01*
X108618628Y-68645000D01*
X108641485Y-68667857D01*
X108664342Y-68713571D01*
X108664342Y-68759285D01*
X108641485Y-68827857D01*
X108367200Y-69102142D01*
X108664342Y-69102142D01*
X149690514Y-69610142D02*
X149690514Y-69130142D01*
X149804800Y-69130142D01*
X149873371Y-69153000D01*
X149919085Y-69198714D01*
X149941942Y-69244428D01*
X149964800Y-69335857D01*
X149964800Y-69404428D01*
X149941942Y-69495857D01*
X149919085Y-69541571D01*
X149873371Y-69587285D01*
X149804800Y-69610142D01*
X149690514Y-69610142D01*
X150376228Y-69290142D02*
X150376228Y-69610142D01*
X150261942Y-69107285D02*
X150147657Y-69450142D01*
X150444800Y-69450142D01*
D10*
X125932904Y-32105380D02*
X125932904Y-31105380D01*
X126313857Y-31105380D01*
X126409095Y-31153000D01*
X126456714Y-31200619D01*
X126504333Y-31295857D01*
X126504333Y-31438714D01*
X126456714Y-31533952D01*
X126409095Y-31581571D01*
X126313857Y-31629190D01*
X125932904Y-31629190D01*
X127456714Y-32105380D02*
X126885285Y-32105380D01*
X127171000Y-32105380D02*
X127171000Y-31105380D01*
X127075761Y-31248238D01*
X126980523Y-31343476D01*
X126885285Y-31391095D01*
D12*
X142476914Y-69610142D02*
X142476914Y-69130142D01*
X142591200Y-69130142D01*
X142659771Y-69153000D01*
X142705485Y-69198714D01*
X142728342Y-69244428D01*
X142751200Y-69335857D01*
X142751200Y-69404428D01*
X142728342Y-69495857D01*
X142705485Y-69541571D01*
X142659771Y-69587285D01*
X142591200Y-69610142D01*
X142476914Y-69610142D01*
X142911200Y-69130142D02*
X143208342Y-69130142D01*
X143048342Y-69313000D01*
X143116914Y-69313000D01*
X143162628Y-69335857D01*
X143185485Y-69358714D01*
X143208342Y-69404428D01*
X143208342Y-69518714D01*
X143185485Y-69564428D01*
X143162628Y-69587285D01*
X143116914Y-69610142D01*
X142979771Y-69610142D01*
X142934057Y-69587285D01*
X142911200Y-69564428D01*
D10*
X98722380Y-77803333D02*
X99436666Y-77803333D01*
X99579523Y-77850952D01*
X99674761Y-77946190D01*
X99722380Y-78089047D01*
X99722380Y-78184285D01*
X99722380Y-76803333D02*
X99722380Y-77374761D01*
X99722380Y-77089047D02*
X98722380Y-77089047D01*
X98865238Y-77184285D01*
X98960476Y-77279523D01*
X99008095Y-77374761D01*
D12*
X102090914Y-69102142D02*
X102090914Y-68622142D01*
X102205200Y-68622142D01*
X102273771Y-68645000D01*
X102319485Y-68690714D01*
X102342342Y-68736428D01*
X102365200Y-68827857D01*
X102365200Y-68896428D01*
X102342342Y-68987857D01*
X102319485Y-69033571D01*
X102273771Y-69079285D01*
X102205200Y-69102142D01*
X102090914Y-69102142D01*
X102822342Y-69102142D02*
X102548057Y-69102142D01*
X102685200Y-69102142D02*
X102685200Y-68622142D01*
X102639485Y-68690714D01*
X102593771Y-68736428D01*
X102548057Y-68759285D01*
D10*
X141995142Y-69508666D02*
X142042761Y-69556285D01*
X142090380Y-69699142D01*
X142090380Y-69794380D01*
X142042761Y-69937238D01*
X141947523Y-70032476D01*
X141852285Y-70080095D01*
X141661809Y-70127714D01*
X141518952Y-70127714D01*
X141328476Y-70080095D01*
X141233238Y-70032476D01*
X141138000Y-69937238D01*
X141090380Y-69794380D01*
X141090380Y-69699142D01*
X141138000Y-69556285D01*
X141185619Y-69508666D01*
X141090380Y-69175333D02*
X141090380Y-68508666D01*
X142090380Y-68937238D01*
X158505142Y-69508666D02*
X158552761Y-69556285D01*
X158600380Y-69699142D01*
X158600380Y-69794380D01*
X158552761Y-69937238D01*
X158457523Y-70032476D01*
X158362285Y-70080095D01*
X158171809Y-70127714D01*
X158028952Y-70127714D01*
X157838476Y-70080095D01*
X157743238Y-70032476D01*
X157648000Y-69937238D01*
X157600380Y-69794380D01*
X157600380Y-69699142D01*
X157648000Y-69556285D01*
X157695619Y-69508666D01*
X158028952Y-68937238D02*
X157981333Y-69032476D01*
X157933714Y-69080095D01*
X157838476Y-69127714D01*
X157790857Y-69127714D01*
X157695619Y-69080095D01*
X157648000Y-69032476D01*
X157600380Y-68937238D01*
X157600380Y-68746761D01*
X157648000Y-68651523D01*
X157695619Y-68603904D01*
X157790857Y-68556285D01*
X157838476Y-68556285D01*
X157933714Y-68603904D01*
X157981333Y-68651523D01*
X158028952Y-68746761D01*
X158028952Y-68937238D01*
X158076571Y-69032476D01*
X158124190Y-69080095D01*
X158219428Y-69127714D01*
X158409904Y-69127714D01*
X158505142Y-69080095D01*
X158552761Y-69032476D01*
X158600380Y-68937238D01*
X158600380Y-68746761D01*
X158552761Y-68651523D01*
X158505142Y-68603904D01*
X158409904Y-68556285D01*
X158219428Y-68556285D01*
X158124190Y-68603904D01*
X158076571Y-68651523D01*
X158028952Y-68746761D01*
D12*
X100332000Y-68693420D02*
X100332000Y-68974580D01*
X99312000Y-68693420D02*
X99312000Y-68974580D01*
X142240000Y-80070000D02*
X140910000Y-80070000D01*
X140910000Y-77470000D02*
X140910000Y-74870000D01*
X143510000Y-80070000D02*
X153730000Y-80070000D01*
X140910000Y-74870000D02*
X153730000Y-74870000D01*
X140910000Y-80070000D02*
X140910000Y-78740000D01*
X153730000Y-80070000D02*
X153730000Y-74870000D01*
X143510000Y-80070000D02*
X143510000Y-77470000D01*
X143510000Y-77470000D02*
X140910000Y-77470000D01*
X114044000Y-68693420D02*
X114044000Y-68974580D01*
X115064000Y-68693420D02*
X115064000Y-68974580D01*
D13*
X109294000Y-68034000D02*
X109294000Y-69634000D01*
X112194000Y-69634000D02*
X112194000Y-68034000D01*
X109554000Y-69404000D02*
G75*
G03*
X109554000Y-69404000I-20000J0D01*
G01*
X151051600Y-68542000D02*
X151051600Y-70142000D01*
X153951600Y-70142000D02*
X153951600Y-68542000D01*
X151311600Y-69912000D02*
G75*
G03*
X151311600Y-69912000I-20000J0D01*
G01*
D12*
X98250000Y-32763000D02*
X155750000Y-32763000D01*
X155750000Y-32763000D02*
X155750000Y-39263000D01*
X155750000Y-39263000D02*
X98250000Y-39263000D01*
X98250000Y-39263000D02*
X98250000Y-32763000D01*
X107000000Y-27335000D02*
X147000000Y-27335000D01*
X147000000Y-27335000D02*
X147000000Y-57835000D01*
X147000000Y-57835000D02*
X107000000Y-57835000D01*
X107000000Y-57835000D02*
X107000000Y-27335000D01*
D13*
X143838000Y-68542000D02*
X143838000Y-70142000D01*
X146738000Y-70142000D02*
X146738000Y-68542000D01*
X144098000Y-69912000D02*
G75*
G03*
X144098000Y-69912000I-20000J0D01*
G01*
D12*
X100270000Y-77470000D02*
X100270000Y-74870000D01*
X100270000Y-74870000D02*
X113090000Y-74870000D01*
X102870000Y-77470000D02*
X100270000Y-77470000D01*
X102870000Y-80070000D02*
X113090000Y-80070000D01*
X101600000Y-80070000D02*
X100270000Y-80070000D01*
X113090000Y-80070000D02*
X113090000Y-74870000D01*
X102870000Y-80070000D02*
X102870000Y-77470000D01*
X100270000Y-80070000D02*
X100270000Y-78740000D01*
G36*
X157411170Y-62744521D02*
G01*
X157332627Y-62699085D01*
X157258349Y-62639297D01*
X157238742Y-62620635D01*
X157173793Y-62547373D01*
X157123972Y-62469009D01*
X157087108Y-62381918D01*
X157077691Y-62351607D01*
X157067276Y-62313112D01*
X157060919Y-62281721D01*
X157057961Y-62251102D01*
X157057736Y-62214920D01*
X157058277Y-62200236D01*
X157225305Y-62200236D01*
X157229451Y-62255614D01*
X157243245Y-62306922D01*
X157251067Y-62324236D01*
X157289970Y-62381433D01*
X157342330Y-62431287D01*
X157404999Y-62471522D01*
X157474827Y-62499859D01*
X157504233Y-62507389D01*
X157533636Y-62513720D01*
X157558802Y-62519227D01*
X157566895Y-62521038D01*
X157586427Y-62525477D01*
X157586378Y-62288760D01*
X157586044Y-62222539D01*
X157585122Y-62161517D01*
X157583695Y-62108191D01*
X157581846Y-62065057D01*
X157579656Y-62034613D01*
X157577536Y-62020383D01*
X157562391Y-61988810D01*
X157536702Y-61968602D01*
X157498768Y-61958771D01*
X157469236Y-61957443D01*
X157407517Y-61966417D01*
X157350158Y-61991079D01*
X157299575Y-62029868D01*
X157258184Y-62081218D01*
X157246458Y-62101598D01*
X157230932Y-62146870D01*
X157225305Y-62200236D01*
X157058277Y-62200236D01*
X157059209Y-62174906D01*
X157066002Y-62098920D01*
X157079862Y-62033820D01*
X157102449Y-61973995D01*
X157135419Y-61913833D01*
X157137214Y-61910964D01*
X157188327Y-61845535D01*
X157252467Y-61789696D01*
X157327253Y-61745034D01*
X157410304Y-61713140D01*
X157447534Y-61703838D01*
X157490089Y-61697327D01*
X157538630Y-61693834D01*
X157588999Y-61693225D01*
X157637038Y-61695367D01*
X157678590Y-61700124D01*
X157709497Y-61707364D01*
X157720905Y-61712645D01*
X157742681Y-61726914D01*
X157742681Y-62525147D01*
X157779575Y-62524842D01*
X157862333Y-62516327D01*
X157939712Y-62492999D01*
X158009660Y-62456083D01*
X158070123Y-62406803D01*
X158119049Y-62346383D01*
X158139690Y-62310080D01*
X158153478Y-62281604D01*
X158162715Y-62259222D01*
X158168312Y-62238174D01*
X158171181Y-62213698D01*
X158172233Y-62181034D01*
X158172380Y-62139315D01*
X158172056Y-62093498D01*
X158170620Y-62060486D01*
X158167375Y-62035726D01*
X158161626Y-62014668D01*
X158152676Y-61992758D01*
X158148626Y-61983977D01*
X158128771Y-61947971D01*
X158101265Y-61906253D01*
X158070290Y-61864548D01*
X158040027Y-61828582D01*
X158021417Y-61809806D01*
X158007128Y-61792147D01*
X158005219Y-61773626D01*
X158016277Y-61750981D01*
X158036542Y-61725791D01*
X158069979Y-61688112D01*
X158119656Y-61718164D01*
X158200246Y-61776504D01*
X158268289Y-61845979D01*
X158322702Y-61925265D01*
X158362405Y-62013035D01*
X158363994Y-62017651D01*
X158375109Y-62053664D01*
X158382480Y-62087324D01*
X158386992Y-62124504D01*
X158389533Y-62171075D01*
X158390126Y-62190936D01*
X158390519Y-62236899D01*
X158389520Y-62281299D01*
X158387331Y-62318559D01*
X158384755Y-62340052D01*
X158366088Y-62411017D01*
X158336187Y-62484598D01*
X158298074Y-62553495D01*
X158293647Y-62560268D01*
X158237628Y-62629169D01*
X158168762Y-62687929D01*
X158088683Y-62735991D01*
X157999020Y-62772796D01*
X157901408Y-62797785D01*
X157797477Y-62810399D01*
X157688859Y-62810080D01*
X157595108Y-62799395D01*
X157586427Y-62797436D01*
X157497491Y-62777370D01*
X157411170Y-62744521D01*
G37*
G36*
X156585601Y-62359284D02*
G01*
X156590453Y-62379017D01*
X156592664Y-62392765D01*
X156599141Y-62428693D01*
X156609772Y-62475266D01*
X156623030Y-62526721D01*
X156637387Y-62577298D01*
X156651316Y-62621235D01*
X156658578Y-62641360D01*
X156680823Y-62693103D01*
X156709198Y-62750849D01*
X156739761Y-62806961D01*
X156767083Y-62851575D01*
X156796475Y-62895877D01*
X156796475Y-63816588D01*
X156775991Y-63830010D01*
X156756040Y-63844403D01*
X156743438Y-63855043D01*
X156732665Y-63864351D01*
X156711006Y-63882276D01*
X156681155Y-63906617D01*
X156645803Y-63935172D01*
X156627199Y-63950105D01*
X156585657Y-63983419D01*
X156543937Y-64016936D01*
X156506214Y-64047298D01*
X156476662Y-64071147D01*
X156470208Y-64076373D01*
X156440827Y-64099856D01*
X156413078Y-64121473D01*
X156392627Y-64136815D01*
X156391494Y-64137626D01*
X156365602Y-64156063D01*
X155807540Y-63597225D01*
X155848436Y-63543961D01*
X155865380Y-63522255D01*
X155890852Y-63490076D01*
X155922493Y-63450363D01*
X155957943Y-63406053D01*
X155994845Y-63360085D01*
X156030837Y-63315397D01*
X156063561Y-63274926D01*
X156090657Y-63241611D01*
X156109766Y-63218391D01*
X156112318Y-63215340D01*
X156125992Y-63198623D01*
X156145099Y-63174750D01*
X156157454Y-63159119D01*
X156187942Y-63120330D01*
X156154960Y-63059290D01*
X156134444Y-63019437D01*
X156112224Y-62973376D01*
X156093075Y-62931006D01*
X156092898Y-62930594D01*
X156063817Y-62862938D01*
X156319411Y-62607235D01*
X156374287Y-62552475D01*
X156425411Y-62501729D01*
X156471474Y-62456277D01*
X156511168Y-62417397D01*
X156543185Y-62386368D01*
X156566216Y-62364467D01*
X156578953Y-62352975D01*
X156581038Y-62351531D01*
X156585601Y-62359284D01*
G37*
G36*
X156384655Y-60309441D02*
G01*
X156405371Y-60325971D01*
X156434735Y-60349477D01*
X156470313Y-60378001D01*
X156509668Y-60409587D01*
X156550363Y-60442277D01*
X156589962Y-60474115D01*
X156626029Y-60503143D01*
X156656128Y-60527405D01*
X156677821Y-60544944D01*
X156687995Y-60553237D01*
X156702179Y-60564795D01*
X156725974Y-60584004D01*
X156755426Y-60607678D01*
X156772917Y-60621697D01*
X156840447Y-60675766D01*
X156933481Y-60629272D01*
X156973476Y-60609689D01*
X157011103Y-60591983D01*
X157041804Y-60578259D01*
X157059341Y-60571190D01*
X157092166Y-60559603D01*
X157343637Y-60810962D01*
X157397923Y-60865357D01*
X157448185Y-60915977D01*
X157493133Y-60961504D01*
X157531478Y-61000619D01*
X157561931Y-61032007D01*
X157583202Y-61054348D01*
X157594003Y-61066326D01*
X157595108Y-61067959D01*
X157588224Y-61075482D01*
X157581376Y-61078866D01*
X157561365Y-61083242D01*
X157548288Y-61084135D01*
X157526138Y-61086813D01*
X157491975Y-61094066D01*
X157450170Y-61104725D01*
X157405092Y-61117619D01*
X157361113Y-61131580D01*
X157330343Y-61142471D01*
X157256207Y-61172901D01*
X157189571Y-61206476D01*
X157123904Y-61246012D01*
X157065038Y-61283793D01*
X156155895Y-61283793D01*
X156131123Y-61255153D01*
X156109779Y-61229888D01*
X156086197Y-61201154D01*
X156079018Y-61192217D01*
X156065504Y-61175342D01*
X156043119Y-61147483D01*
X156013896Y-61111166D01*
X155979870Y-61068919D01*
X155943073Y-61023267D01*
X155929230Y-61006102D01*
X155806774Y-60854283D01*
X156086344Y-60574614D01*
X156152691Y-60508588D01*
X156211914Y-60450350D01*
X156263228Y-60400641D01*
X156305850Y-60360202D01*
X156338993Y-60329774D01*
X156361875Y-60310099D01*
X156373709Y-60301919D01*
X156375026Y-60301843D01*
X156384655Y-60309441D01*
G37*
G36*
X157036492Y-63146507D02*
G01*
X157058321Y-63161437D01*
X157085311Y-63180157D01*
X157087796Y-63181892D01*
X157156943Y-63225642D01*
X157234439Y-63267139D01*
X157311436Y-63301745D01*
X157330343Y-63309064D01*
X157366061Y-63321437D01*
X157407303Y-63334308D01*
X157449759Y-63346496D01*
X157489119Y-63356820D01*
X157521073Y-63364100D01*
X157541311Y-63367156D01*
X157542532Y-63367184D01*
X157552052Y-63373204D01*
X157572154Y-63390326D01*
X157601439Y-63417138D01*
X157638505Y-63452228D01*
X157681954Y-63494187D01*
X157730385Y-63541604D01*
X157782400Y-63593066D01*
X157836597Y-63647164D01*
X157891578Y-63702487D01*
X157945943Y-63757623D01*
X157998292Y-63811162D01*
X158047225Y-63861693D01*
X158091343Y-63907804D01*
X158129246Y-63948086D01*
X158159534Y-63981126D01*
X158180807Y-64005515D01*
X158191666Y-64019841D01*
X158192782Y-64022627D01*
X158190805Y-64044226D01*
X158188464Y-64065987D01*
X158179458Y-64143921D01*
X158172164Y-64207508D01*
X158166261Y-64259643D01*
X158161427Y-64303221D01*
X158157340Y-64341136D01*
X158153678Y-64376284D01*
X158150820Y-64404538D01*
X158146417Y-64447203D01*
X158142088Y-64486835D01*
X158138419Y-64518184D01*
X158136529Y-64532580D01*
X158131791Y-64565133D01*
X157344891Y-64565133D01*
X157340152Y-64532580D01*
X157337318Y-64510349D01*
X157333415Y-64476086D01*
X157329027Y-64435046D01*
X157325925Y-64404538D01*
X157320532Y-64352631D01*
X157313977Y-64292982D01*
X157307313Y-64235071D01*
X157304207Y-64209220D01*
X157298408Y-64159162D01*
X157292754Y-64105688D01*
X157288060Y-64056723D01*
X157286034Y-64032680D01*
X157282244Y-63996711D01*
X157277417Y-63969565D01*
X157272264Y-63954864D01*
X157270493Y-63953323D01*
X157244768Y-63945572D01*
X157208974Y-63933951D01*
X157167887Y-63920105D01*
X157126284Y-63905682D01*
X157088942Y-63892326D01*
X157060637Y-63881685D01*
X157050388Y-63877469D01*
X157013495Y-63861176D01*
X157013495Y-63496477D01*
X157013591Y-63404355D01*
X157013906Y-63328320D01*
X157014478Y-63267099D01*
X157015346Y-63219418D01*
X157016548Y-63184004D01*
X157018123Y-63159584D01*
X157020110Y-63144883D01*
X157022546Y-63138629D01*
X157024346Y-63138462D01*
X157036492Y-63146507D01*
G37*
G36*
X158136529Y-59918739D02*
G01*
X158139364Y-59940970D01*
X158143266Y-59975232D01*
X158147654Y-60016273D01*
X158150757Y-60046780D01*
X158156149Y-60098688D01*
X158162705Y-60158336D01*
X158169369Y-60216247D01*
X158172475Y-60242098D01*
X158178273Y-60292157D01*
X158183928Y-60345631D01*
X158188622Y-60394596D01*
X158190648Y-60418638D01*
X158194436Y-60454589D01*
X158199262Y-60481741D01*
X158204413Y-60496464D01*
X158206188Y-60498017D01*
X158238643Y-60507764D01*
X158280966Y-60521457D01*
X158326770Y-60536946D01*
X158369666Y-60552083D01*
X158395911Y-60561844D01*
X158454506Y-60584397D01*
X158454506Y-60947116D01*
X158454415Y-61024573D01*
X158454156Y-61096375D01*
X158453748Y-61160722D01*
X158453211Y-61215817D01*
X158452563Y-61259863D01*
X158451825Y-61291060D01*
X158451016Y-61307613D01*
X158450582Y-61309836D01*
X158442113Y-61305214D01*
X158423212Y-61292968D01*
X158397602Y-61275526D01*
X158391471Y-61271258D01*
X158318605Y-61225095D01*
X158238100Y-61182134D01*
X158158711Y-61146980D01*
X158146338Y-61142255D01*
X158107143Y-61128686D01*
X158063289Y-61115121D01*
X158019114Y-61102726D01*
X157978955Y-61092663D01*
X157947149Y-61086097D01*
X157929809Y-61084135D01*
X157918983Y-61077999D01*
X157896569Y-61059557D01*
X157862513Y-61028758D01*
X157816761Y-60985550D01*
X157759258Y-60929882D01*
X157689950Y-60861702D01*
X157608783Y-60780959D01*
X157596442Y-60768621D01*
X157281016Y-60453106D01*
X157286576Y-60401857D01*
X157289882Y-60372032D01*
X157294542Y-60330859D01*
X157299885Y-60284230D01*
X157304261Y-60246438D01*
X157310358Y-60192732D01*
X157316902Y-60132945D01*
X157322922Y-60076031D01*
X157325900Y-60046780D01*
X157330287Y-60004115D01*
X157334603Y-59964482D01*
X157338265Y-59933133D01*
X157340152Y-59918739D01*
X157344891Y-59886186D01*
X158131791Y-59886186D01*
X158136529Y-59918739D01*
G37*
G36*
X156544622Y-61500863D02*
G01*
X156616574Y-61501006D01*
X156681074Y-61501230D01*
X156736329Y-61501527D01*
X156780546Y-61501883D01*
X156811930Y-61502290D01*
X156828690Y-61502736D01*
X156831030Y-61502983D01*
X156826347Y-61510565D01*
X156813881Y-61529208D01*
X156795776Y-61555730D01*
X156782755Y-61574600D01*
X156712675Y-61690690D01*
X156656275Y-61816294D01*
X156614608Y-61949007D01*
X156609648Y-61969576D01*
X156594563Y-62034682D01*
X156272359Y-62358056D01*
X155950154Y-62681431D01*
X155906722Y-62676581D01*
X155880377Y-62673603D01*
X155842232Y-62669246D01*
X155797732Y-62664132D01*
X155759120Y-62659673D01*
X155705411Y-62653604D01*
X155645621Y-62647082D01*
X155588705Y-62641075D01*
X155559462Y-62638100D01*
X155516796Y-62633713D01*
X155477163Y-62629397D01*
X155445815Y-62625735D01*
X155431420Y-62623848D01*
X155398867Y-62619109D01*
X155398867Y-61832209D01*
X155431420Y-61827471D01*
X155453651Y-61824636D01*
X155487914Y-61820734D01*
X155528954Y-61816346D01*
X155559462Y-61813243D01*
X155611369Y-61807851D01*
X155671018Y-61801295D01*
X155728929Y-61794631D01*
X155754780Y-61791525D01*
X155804838Y-61785727D01*
X155858312Y-61780072D01*
X155907277Y-61775378D01*
X155931320Y-61773352D01*
X155967289Y-61769562D01*
X155994435Y-61764736D01*
X156009136Y-61759582D01*
X156010677Y-61757812D01*
X156018428Y-61732087D01*
X156030049Y-61696292D01*
X156043895Y-61655206D01*
X156058318Y-61613603D01*
X156071674Y-61576261D01*
X156082315Y-61547956D01*
X156086531Y-61537706D01*
X156102824Y-61500813D01*
X156467011Y-61500813D01*
X156544622Y-61500863D01*
G37*
G36*
X159566204Y-61774239D02*
G01*
X159594214Y-61777435D01*
X159633812Y-61781982D01*
X159679338Y-61787228D01*
X159717562Y-61791646D01*
X159771271Y-61797715D01*
X159831060Y-61804236D01*
X159887977Y-61810244D01*
X159917220Y-61813218D01*
X159959885Y-61817606D01*
X159999518Y-61821922D01*
X160030867Y-61825583D01*
X160045261Y-61827471D01*
X160077814Y-61832209D01*
X160077814Y-62619109D01*
X160045261Y-62623848D01*
X160023030Y-62626682D01*
X159988768Y-62630585D01*
X159947727Y-62634973D01*
X159917220Y-62638075D01*
X159865312Y-62643468D01*
X159805664Y-62650023D01*
X159747753Y-62656687D01*
X159721902Y-62659793D01*
X159671843Y-62665592D01*
X159618369Y-62671246D01*
X159569404Y-62675940D01*
X159545362Y-62677966D01*
X159509393Y-62681756D01*
X159482247Y-62686583D01*
X159467545Y-62691736D01*
X159466004Y-62693507D01*
X159458254Y-62719232D01*
X159446632Y-62755026D01*
X159432787Y-62796113D01*
X159418363Y-62837716D01*
X159405008Y-62875058D01*
X159394367Y-62903363D01*
X159390151Y-62913612D01*
X159373858Y-62950505D01*
X159009158Y-62950505D01*
X158917036Y-62950409D01*
X158841002Y-62950094D01*
X158779781Y-62949522D01*
X158732100Y-62948654D01*
X158696686Y-62947452D01*
X158672265Y-62945877D01*
X158657565Y-62943890D01*
X158651310Y-62941454D01*
X158651143Y-62939654D01*
X158659189Y-62927508D01*
X158674119Y-62905679D01*
X158692838Y-62878689D01*
X158694574Y-62876204D01*
X158738323Y-62807057D01*
X158779821Y-62729561D01*
X158814426Y-62652564D01*
X158821745Y-62633657D01*
X158834119Y-62597939D01*
X158846990Y-62556697D01*
X158859177Y-62514241D01*
X158869502Y-62474881D01*
X158876782Y-62442927D01*
X158879837Y-62422689D01*
X158879865Y-62421468D01*
X158885842Y-62412876D01*
X158903008Y-62393264D01*
X158930216Y-62363826D01*
X158966318Y-62325760D01*
X159010168Y-62280260D01*
X159060618Y-62228523D01*
X159116520Y-62171745D01*
X159176728Y-62111120D01*
X159199441Y-62088380D01*
X159519016Y-61768892D01*
X159566204Y-61774239D01*
G37*
G36*
X159345558Y-63196166D02*
G01*
X159366902Y-63221448D01*
X159390459Y-63250196D01*
X159397595Y-63259102D01*
X159411331Y-63276299D01*
X159433827Y-63304375D01*
X159462961Y-63340683D01*
X159496607Y-63382576D01*
X159532643Y-63427407D01*
X159540060Y-63436630D01*
X159574679Y-63479697D01*
X159605793Y-63518452D01*
X159631690Y-63550755D01*
X159650657Y-63574471D01*
X159660981Y-63587461D01*
X159662157Y-63588974D01*
X159657764Y-63597153D01*
X159641643Y-63616628D01*
X159614534Y-63646612D01*
X159577179Y-63686322D01*
X159530320Y-63734974D01*
X159474697Y-63791782D01*
X159411053Y-63855962D01*
X159389386Y-63877656D01*
X159109717Y-64157226D01*
X158957898Y-64034918D01*
X158912922Y-63998665D01*
X158871653Y-63965364D01*
X158836306Y-63936804D01*
X158809094Y-63914774D01*
X158792231Y-63901064D01*
X158788686Y-63898150D01*
X158774508Y-63886567D01*
X158750712Y-63867334D01*
X158721248Y-63843637D01*
X158703647Y-63829527D01*
X158636000Y-63775363D01*
X158560444Y-63813645D01*
X158520217Y-63833639D01*
X158478696Y-63853644D01*
X158442989Y-63870254D01*
X158433176Y-63874636D01*
X158381463Y-63897347D01*
X158127178Y-63643171D01*
X158072573Y-63588446D01*
X158021987Y-63537469D01*
X157976702Y-63491555D01*
X157937999Y-63452015D01*
X157907163Y-63420164D01*
X157885474Y-63397313D01*
X157874216Y-63384776D01*
X157872893Y-63382823D01*
X157880527Y-63377665D01*
X157899466Y-63372586D01*
X157905446Y-63371542D01*
X158037415Y-63343410D01*
X158163660Y-63301769D01*
X158281138Y-63247745D01*
X158352462Y-63205810D01*
X158411644Y-63167525D01*
X159320787Y-63167525D01*
X159345558Y-63196166D01*
G37*
G36*
X159109835Y-60306236D02*
G01*
X159129309Y-60322357D01*
X159159294Y-60349466D01*
X159199004Y-60386821D01*
X159247655Y-60433680D01*
X159304463Y-60489303D01*
X159368643Y-60552947D01*
X159390337Y-60574614D01*
X159669908Y-60854283D01*
X159547599Y-61006102D01*
X159511347Y-61051078D01*
X159478046Y-61092347D01*
X159449486Y-61127694D01*
X159427456Y-61154906D01*
X159413745Y-61171769D01*
X159410832Y-61175314D01*
X159399249Y-61189492D01*
X159380016Y-61213288D01*
X159356318Y-61242752D01*
X159342208Y-61260353D01*
X159288045Y-61328000D01*
X159326326Y-61403556D01*
X159346184Y-61443486D01*
X159365928Y-61484420D01*
X159382220Y-61519399D01*
X159386591Y-61529180D01*
X159408575Y-61579249D01*
X159152269Y-61835993D01*
X159097448Y-61890723D01*
X159046451Y-61941278D01*
X159000568Y-61986405D01*
X158961090Y-62024854D01*
X158929304Y-62055370D01*
X158906503Y-62076703D01*
X158893976Y-62087598D01*
X158891957Y-62088731D01*
X158888624Y-62078713D01*
X158883860Y-62056489D01*
X158879102Y-62029321D01*
X158849751Y-61900007D01*
X158803530Y-61772822D01*
X158740905Y-61648967D01*
X158713601Y-61604115D01*
X158671526Y-61538142D01*
X158671937Y-61091949D01*
X158672347Y-60645755D01*
X158721643Y-60606691D01*
X158748886Y-60585039D01*
X158772910Y-60565833D01*
X158788508Y-60553237D01*
X158802210Y-60542123D01*
X158826100Y-60522852D01*
X158857769Y-60497360D01*
X158894806Y-60467582D01*
X158934801Y-60435453D01*
X158975344Y-60402907D01*
X159014025Y-60371879D01*
X159048434Y-60344304D01*
X159076160Y-60322117D01*
X159094794Y-60307254D01*
X159101656Y-60301843D01*
X159109835Y-60306236D01*
G37*
D13*
X106352000Y-69634000D02*
X106352000Y-68034000D01*
X103452000Y-68034000D02*
X103452000Y-69634000D01*
X103712000Y-69404000D02*
G75*
G03*
X103712000Y-69404000I-20000J0D01*
G01*
D12*
X140718000Y-69201420D02*
X140718000Y-69482580D01*
X139698000Y-69201420D02*
X139698000Y-69482580D01*
G36*
X96335604Y-66640237D02*
G01*
X96363098Y-66648698D01*
X96394060Y-66670021D01*
X96419812Y-66701057D01*
X96439634Y-66739848D01*
X96452800Y-66784437D01*
X96458589Y-66832867D01*
X96456276Y-66883179D01*
X96454356Y-66895773D01*
X96448252Y-66920345D01*
X96438572Y-66948866D01*
X96429800Y-66969836D01*
X96417956Y-66992705D01*
X96404200Y-67015578D01*
X96390355Y-67035832D01*
X96378242Y-67050841D01*
X96369685Y-67057980D01*
X96368437Y-67058234D01*
X96362578Y-67053828D01*
X96350995Y-67042281D01*
X96336063Y-67025980D01*
X96334239Y-67023908D01*
X96304204Y-66989662D01*
X96323552Y-66961541D01*
X96345264Y-66923468D01*
X96357304Y-66884636D01*
X96361144Y-66840223D01*
X96361148Y-66838522D01*
X96358206Y-66797985D01*
X96349297Y-66768313D01*
X96334300Y-66749321D01*
X96313094Y-66740821D01*
X96297399Y-66740673D01*
X96282105Y-66744435D01*
X96270542Y-66753351D01*
X96261940Y-66769082D01*
X96255525Y-66793289D01*
X96250527Y-66827634D01*
X96248656Y-66845561D01*
X96241892Y-66896509D01*
X96232022Y-66936764D01*
X96218253Y-66967917D01*
X96199793Y-66991563D01*
X96175849Y-67009293D01*
X96164225Y-67015240D01*
X96141819Y-67022491D01*
X96116215Y-67026589D01*
X96108686Y-67026918D01*
X96064007Y-67021994D01*
X96026461Y-67006811D01*
X95996083Y-66981404D01*
X95972908Y-66945806D01*
X95956969Y-66900052D01*
X95951672Y-66873034D01*
X95950432Y-66846489D01*
X95952866Y-66813007D01*
X95958275Y-66777363D01*
X95965958Y-66744332D01*
X95973902Y-66721536D01*
X95985462Y-66697883D01*
X95997807Y-66676678D01*
X96009151Y-66660643D01*
X96017712Y-66652502D01*
X96019442Y-66652006D01*
X96026483Y-66655776D01*
X96040032Y-66665730D01*
X96057233Y-66679762D01*
X96058261Y-66680638D01*
X96091826Y-66709313D01*
X96072241Y-66744016D01*
X96059083Y-66774846D01*
X96050912Y-66809712D01*
X96048109Y-66844701D01*
X96051058Y-66875901D01*
X96057511Y-66894926D01*
X96072755Y-66914407D01*
X96091678Y-66924530D01*
X96111409Y-66925031D01*
X96129077Y-66915646D01*
X96139017Y-66902415D01*
X96144231Y-66887007D01*
X96148876Y-66864059D01*
X96151950Y-66838530D01*
X96151958Y-66838428D01*
X96157225Y-66786489D01*
X96164565Y-66745295D01*
X96174699Y-66713162D01*
X96188351Y-66688404D01*
X96206241Y-66669337D01*
X96229092Y-66654275D01*
X96231383Y-66653076D01*
X96263406Y-66641934D01*
X96299819Y-66637599D01*
X96335604Y-66640237D01*
G37*
G36*
X96071101Y-68194106D02*
G01*
X96030073Y-68172202D01*
X96005288Y-68151848D01*
X95977782Y-68115948D01*
X95960143Y-68074628D01*
X95952332Y-68030093D01*
X95952532Y-68025501D01*
X96048741Y-68025501D01*
X96054794Y-68055629D01*
X96062720Y-68071701D01*
X96084597Y-68093984D01*
X96115361Y-68110204D01*
X96140781Y-68117094D01*
X96161099Y-68120762D01*
X96161099Y-67914774D01*
X96143328Y-67914774D01*
X96119179Y-67919661D01*
X96093635Y-67932333D01*
X96071653Y-67949805D01*
X96060170Y-67964844D01*
X96050494Y-67993586D01*
X96048741Y-68025501D01*
X95952532Y-68025501D01*
X95954312Y-67984552D01*
X95966044Y-67940213D01*
X95987489Y-67899283D01*
X96010165Y-67871910D01*
X96042759Y-67845352D01*
X96080594Y-67826400D01*
X96125407Y-67814486D01*
X96178930Y-67809040D01*
X96203297Y-67808545D01*
X96242369Y-67808498D01*
X96242369Y-68121641D01*
X96265812Y-68117468D01*
X96301670Y-68106138D01*
X96330031Y-68086884D01*
X96348645Y-68061686D01*
X96359639Y-68025191D01*
X96359834Y-67985693D01*
X96349592Y-67945821D01*
X96329275Y-67908204D01*
X96327052Y-67905136D01*
X96322788Y-67897879D01*
X96322842Y-67890562D01*
X96328362Y-67880416D01*
X96340494Y-67864670D01*
X96347185Y-67856512D01*
X96376777Y-67820651D01*
X96402966Y-67849143D01*
X96420007Y-67871128D01*
X96435062Y-67896327D01*
X96441376Y-67910299D01*
X96451114Y-67945420D01*
X96456766Y-67985059D01*
X96457811Y-68023693D01*
X96454715Y-68051484D01*
X96440874Y-68094548D01*
X96418949Y-68133627D01*
X96399443Y-68156791D01*
X96364730Y-68182756D01*
X96322000Y-68201793D01*
X96273625Y-68213932D01*
X96221975Y-68219203D01*
X96169424Y-68217636D01*
X96161099Y-68216271D01*
X96118342Y-68209260D01*
X96071101Y-68194106D01*
G37*
G36*
X96779879Y-65377510D02*
G01*
X96793992Y-65386951D01*
X96815397Y-65403920D01*
X96816346Y-65404699D01*
X96860221Y-65440794D01*
X96847462Y-65465272D01*
X96837525Y-65496599D01*
X96838753Y-65528121D01*
X96850292Y-65557113D01*
X96871290Y-65580847D01*
X96886722Y-65590755D01*
X96894595Y-65594118D01*
X96904474Y-65596723D01*
X96917944Y-65598665D01*
X96936591Y-65600036D01*
X96962000Y-65600930D01*
X96995757Y-65601441D01*
X97039446Y-65601662D01*
X97072261Y-65601695D01*
X97236364Y-65601705D01*
X97236364Y-65701729D01*
X96742492Y-65701729D01*
X96742492Y-65601705D01*
X96786889Y-65601705D01*
X96770210Y-65579837D01*
X96748756Y-65541860D01*
X96737800Y-65499677D01*
X96737391Y-65455950D01*
X96747579Y-65413343D01*
X96766426Y-65377315D01*
X96771283Y-65374623D01*
X96779879Y-65377510D01*
G37*
G36*
X97010820Y-67367756D02*
G01*
X96992554Y-67367764D01*
X96941432Y-67367466D01*
X96900955Y-67366265D01*
X96869270Y-67363705D01*
X96844528Y-67359329D01*
X96824877Y-67352678D01*
X96808465Y-67343296D01*
X96793443Y-67330726D01*
X96778230Y-67314812D01*
X96754925Y-67283270D01*
X96741481Y-67249895D01*
X96736433Y-67210717D01*
X96736302Y-67201373D01*
X96739443Y-67173917D01*
X96741874Y-67165338D01*
X96836486Y-67165338D01*
X96837724Y-67194788D01*
X96847411Y-67222335D01*
X96865578Y-67245224D01*
X96881312Y-67255972D01*
X96900902Y-67262555D01*
X96931000Y-67267138D01*
X96966638Y-67269628D01*
X97019486Y-67269944D01*
X97061552Y-67265397D01*
X97093685Y-67255700D01*
X97116740Y-67240569D01*
X97131566Y-67219719D01*
X97134097Y-67213549D01*
X97141449Y-67180773D01*
X97137832Y-67149996D01*
X97129811Y-67129635D01*
X97119296Y-67111637D01*
X97106413Y-67098481D01*
X97089164Y-67089463D01*
X97065550Y-67083879D01*
X97033573Y-67081024D01*
X96991233Y-67080196D01*
X96989428Y-67080195D01*
X96954439Y-67080454D01*
X96929222Y-67081453D01*
X96911052Y-67083524D01*
X96897206Y-67086997D01*
X96884958Y-67092206D01*
X96883152Y-67093125D01*
X96859231Y-67111751D01*
X96843665Y-67136741D01*
X96836486Y-67165338D01*
X96741874Y-67165338D01*
X96747674Y-67144867D01*
X96759342Y-67118595D01*
X96772796Y-67099474D01*
X96775881Y-67096620D01*
X96784273Y-67087460D01*
X96786253Y-67082686D01*
X96780315Y-67080967D01*
X96763758Y-67079305D01*
X96738464Y-67077807D01*
X96706317Y-67076580D01*
X96669201Y-67075732D01*
X96662785Y-67075637D01*
X96539317Y-67073942D01*
X96537491Y-67025492D01*
X96535665Y-66977043D01*
X97236364Y-66977043D01*
X97236364Y-67077068D01*
X97214483Y-67077068D01*
X97198086Y-67078726D01*
X97193470Y-67084225D01*
X97200290Y-67094352D01*
X97204975Y-67098829D01*
X97217019Y-67115205D01*
X97228148Y-67139695D01*
X97236859Y-67167922D01*
X97241651Y-67195513D01*
X97242122Y-67207022D01*
X97239683Y-67231846D01*
X97234243Y-67256798D01*
X97232505Y-67262205D01*
X97215135Y-67295343D01*
X97189005Y-67325698D01*
X97157791Y-67349195D01*
X97150388Y-67353149D01*
X97139724Y-67358093D01*
X97129291Y-67361777D01*
X97117095Y-67364385D01*
X97101143Y-67366103D01*
X97079442Y-67367114D01*
X97049999Y-67367604D01*
X97019486Y-67367722D01*
X97010820Y-67367756D01*
G37*
G36*
X96123537Y-64821006D02*
G01*
X96070495Y-64803894D01*
X96026780Y-64778761D01*
X95992633Y-64745831D01*
X95968291Y-64705329D01*
X95954995Y-64662733D01*
X95951910Y-64622798D01*
X96048571Y-64622798D01*
X96051620Y-64651303D01*
X96059698Y-64675520D01*
X96060170Y-64676419D01*
X96075933Y-64695563D01*
X96099124Y-64712235D01*
X96124786Y-64723450D01*
X96143328Y-64726489D01*
X96161099Y-64726489D01*
X96161099Y-64518797D01*
X96137656Y-64523091D01*
X96101713Y-64534886D01*
X96074311Y-64554972D01*
X96056359Y-64582333D01*
X96048768Y-64615949D01*
X96048571Y-64622798D01*
X95951910Y-64622798D01*
X95951200Y-64613608D01*
X95959477Y-64565904D01*
X95979394Y-64521084D01*
X96007789Y-64483484D01*
X96033071Y-64459751D01*
X96059451Y-64442730D01*
X96089731Y-64431361D01*
X96126718Y-64424583D01*
X96172039Y-64421378D01*
X96242369Y-64418814D01*
X96242369Y-64726489D01*
X96259799Y-64726489D01*
X96281144Y-64722297D01*
X96305823Y-64711510D01*
X96328790Y-64696816D01*
X96344748Y-64681250D01*
X96353555Y-64661746D01*
X96358956Y-64634851D01*
X96360513Y-64605319D01*
X96357786Y-64577905D01*
X96355217Y-64568045D01*
X96346624Y-64547897D01*
X96334850Y-64526735D01*
X96332524Y-64523184D01*
X96317169Y-64500557D01*
X96346170Y-64466612D01*
X96361098Y-64449907D01*
X96373179Y-64437789D01*
X96379966Y-64432698D01*
X96380207Y-64432667D01*
X96386868Y-64437090D01*
X96397882Y-64448269D01*
X96403447Y-64454750D01*
X96432941Y-64500082D01*
X96451787Y-64550548D01*
X96459426Y-64603895D01*
X96455295Y-64657870D01*
X96454708Y-64660848D01*
X96439074Y-64709212D01*
X96413624Y-64749952D01*
X96378724Y-64782702D01*
X96334741Y-64807097D01*
X96295969Y-64819700D01*
X96269379Y-64823988D01*
X96235025Y-64826451D01*
X96197519Y-64827054D01*
X96161472Y-64825762D01*
X96161099Y-64825722D01*
X96131494Y-64822540D01*
X96123537Y-64821006D01*
G37*
G36*
X96758505Y-66224932D02*
G01*
X96776612Y-66230806D01*
X96802618Y-66239164D01*
X96834513Y-66249362D01*
X96870288Y-66260752D01*
X96870649Y-66260867D01*
X96914526Y-66274827D01*
X96965767Y-66291160D01*
X97019832Y-66308415D01*
X97072180Y-66325145D01*
X97109770Y-66337176D01*
X97236364Y-66377728D01*
X97236364Y-66467876D01*
X97070315Y-66517375D01*
X97026932Y-66530420D01*
X96987601Y-66542463D01*
X96953880Y-66553008D01*
X96927325Y-66561564D01*
X96909492Y-66567634D01*
X96901938Y-66570726D01*
X96901806Y-66570855D01*
X96906899Y-66573588D01*
X96922504Y-66579321D01*
X96947128Y-66587569D01*
X96979276Y-66597845D01*
X97017454Y-66609663D01*
X97060166Y-66622537D01*
X97066291Y-66624357D01*
X97233238Y-66673877D01*
X97235076Y-66719274D01*
X97235366Y-66745421D01*
X97233492Y-66760905D01*
X97229237Y-66767417D01*
X97228825Y-66767587D01*
X97218944Y-66770901D01*
X97199200Y-66777319D01*
X97171135Y-66786352D01*
X97136289Y-66797512D01*
X97096204Y-66810308D01*
X97052421Y-66824253D01*
X97006480Y-66838857D01*
X96959923Y-66853631D01*
X96914290Y-66868087D01*
X96871123Y-66881735D01*
X96831962Y-66894086D01*
X96798349Y-66904652D01*
X96771824Y-66912944D01*
X96753929Y-66918472D01*
X96746205Y-66920748D01*
X96746029Y-66920779D01*
X96744426Y-66915008D01*
X96743203Y-66899613D01*
X96742550Y-66877474D01*
X96742492Y-66867935D01*
X96742492Y-66815091D01*
X96762810Y-66809552D01*
X96774430Y-66806400D01*
X96796182Y-66800514D01*
X96826124Y-66792418D01*
X96862316Y-66782638D01*
X96902819Y-66771697D01*
X96931565Y-66763935D01*
X96972475Y-66752767D01*
X97009062Y-66742544D01*
X97039694Y-66733742D01*
X97062741Y-66726835D01*
X97076573Y-66722299D01*
X97079917Y-66720730D01*
X97074185Y-66718092D01*
X97058040Y-66712195D01*
X97032989Y-66703551D01*
X97000542Y-66692670D01*
X96962207Y-66680064D01*
X96919491Y-66666243D01*
X96912724Y-66664073D01*
X96745618Y-66610541D01*
X96743764Y-66572161D01*
X96741911Y-66533781D01*
X96911002Y-66479103D01*
X96954228Y-66464934D01*
X96993047Y-66451842D01*
X97026018Y-66440342D01*
X97051696Y-66430952D01*
X97068638Y-66424187D01*
X97075400Y-66420566D01*
X97075395Y-66420256D01*
X97068314Y-66417559D01*
X97050806Y-66412121D01*
X97024524Y-66404419D01*
X96991124Y-66394930D01*
X96952260Y-66384133D01*
X96914409Y-66373808D01*
X96871880Y-66362270D01*
X96833149Y-66351700D01*
X96799913Y-66342566D01*
X96773867Y-66335336D01*
X96756707Y-66330478D01*
X96750306Y-66328537D01*
X96745953Y-66321500D01*
X96743390Y-66303858D01*
X96742495Y-66274737D01*
X96742492Y-66272407D01*
X96742977Y-66245403D01*
X96744595Y-66229278D01*
X96747595Y-66222443D01*
X96750306Y-66222190D01*
X96758505Y-66224932D01*
G37*
G36*
X96047144Y-64865840D02*
G01*
X96049195Y-64867684D01*
X96061426Y-64880153D01*
X96076039Y-64896917D01*
X96080697Y-64902658D01*
X96098942Y-64925664D01*
X96078636Y-64954473D01*
X96066754Y-64973471D01*
X96060086Y-64991422D01*
X96056829Y-65013983D01*
X96056096Y-65025239D01*
X96057986Y-65065211D01*
X96068800Y-65097032D01*
X96089155Y-65121896D01*
X96114574Y-65138532D01*
X96131631Y-65146215D01*
X96148228Y-65150925D01*
X96168334Y-65153349D01*
X96195915Y-65154177D01*
X96204860Y-65154216D01*
X96235618Y-65153716D01*
X96257822Y-65151699D01*
X96275391Y-65147531D01*
X96292244Y-65140576D01*
X96293825Y-65139808D01*
X96322264Y-65119459D01*
X96342349Y-65091765D01*
X96353672Y-65059033D01*
X96355831Y-65023569D01*
X96348417Y-64987678D01*
X96331027Y-64953668D01*
X96327423Y-64948727D01*
X96310296Y-64926272D01*
X96328782Y-64902962D01*
X96343044Y-64885995D01*
X96356658Y-64871378D01*
X96360459Y-64867743D01*
X96370513Y-64859768D01*
X96377808Y-64860316D01*
X96386882Y-64867743D01*
X96408747Y-64892545D01*
X96429273Y-64924908D01*
X96445538Y-64959987D01*
X96449619Y-64971799D01*
X96457074Y-65000099D01*
X96459908Y-65025330D01*
X96458394Y-65053022D01*
X96454867Y-65077003D01*
X96443771Y-65114916D01*
X96424577Y-65153202D01*
X96400200Y-65186313D01*
X96394062Y-65192717D01*
X96358354Y-65219645D01*
X96314106Y-65239680D01*
X96263558Y-65252257D01*
X96208952Y-65256813D01*
X96154132Y-65253022D01*
X96097468Y-65239990D01*
X96050168Y-65218702D01*
X96012091Y-65189027D01*
X95983097Y-65150834D01*
X95963047Y-65103992D01*
X95954238Y-65065871D01*
X95950690Y-65038570D01*
X95950847Y-65016491D01*
X95954973Y-64992832D01*
X95957443Y-64982764D01*
X95971886Y-64942070D01*
X95992751Y-64903986D01*
X96017425Y-64873187D01*
X96020254Y-64870449D01*
X96031261Y-64860929D01*
X96038479Y-64859560D01*
X96047144Y-64865840D01*
G37*
G36*
X96778956Y-67380890D02*
G01*
X96792800Y-67390896D01*
X96811116Y-67405301D01*
X96819025Y-67411789D01*
X96860766Y-67446436D01*
X96848539Y-67466490D01*
X96837323Y-67495927D01*
X96837030Y-67526661D01*
X96846808Y-67555789D01*
X96865807Y-67580404D01*
X96886039Y-67594382D01*
X96895062Y-67598674D01*
X96904136Y-67601991D01*
X96914943Y-67604459D01*
X96929165Y-67606203D01*
X96948483Y-67607349D01*
X96974579Y-67608020D01*
X97009135Y-67608343D01*
X97053833Y-67608443D01*
X97075148Y-67608448D01*
X97236364Y-67608448D01*
X97236364Y-67708473D01*
X96742492Y-67708473D01*
X96742492Y-67608448D01*
X96793479Y-67608448D01*
X96772115Y-67583490D01*
X96749909Y-67548323D01*
X96737965Y-67508188D01*
X96736588Y-67465680D01*
X96746084Y-67423396D01*
X96751643Y-67409962D01*
X96760697Y-67392279D01*
X96768371Y-67380363D01*
X96772103Y-67377141D01*
X96778956Y-67380890D01*
G37*
G36*
X96454921Y-65789251D02*
G01*
X96405754Y-65789251D01*
X96426650Y-65820301D01*
X96447917Y-65861252D01*
X96458291Y-65903678D01*
X96457289Y-65945313D01*
X96455307Y-65954917D01*
X96438638Y-65998198D01*
X96411845Y-66034353D01*
X96375573Y-66062605D01*
X96358022Y-66071765D01*
X96348638Y-66075889D01*
X96339436Y-66079138D01*
X96328855Y-66081617D01*
X96315328Y-66083431D01*
X96297292Y-66084682D01*
X96273183Y-66085477D01*
X96241436Y-66085920D01*
X96200487Y-66086114D01*
X96148771Y-66086165D01*
X96142344Y-66086167D01*
X95957924Y-66086199D01*
X95956113Y-66034908D01*
X95954302Y-65983616D01*
X96126023Y-65981770D01*
X96177054Y-65981174D01*
X96217104Y-65980537D01*
X96247694Y-65979737D01*
X96270346Y-65978658D01*
X96286580Y-65977181D01*
X96297918Y-65975186D01*
X96305882Y-65972555D01*
X96311993Y-65969169D01*
X96314994Y-65967033D01*
X96338186Y-65945879D01*
X96351097Y-65923247D01*
X96355738Y-65895369D01*
X96355845Y-65890485D01*
X96351554Y-65855805D01*
X96337627Y-65828686D01*
X96313387Y-65807968D01*
X96304980Y-65803317D01*
X96296003Y-65799026D01*
X96286969Y-65795709D01*
X96276197Y-65793241D01*
X96262008Y-65791496D01*
X96242721Y-65790351D01*
X96216655Y-65789679D01*
X96182131Y-65789356D01*
X96137468Y-65789256D01*
X96116014Y-65789251D01*
X95954798Y-65789251D01*
X95954798Y-65689226D01*
X96454921Y-65689226D01*
X96454921Y-65789251D01*
G37*
G36*
X96190440Y-66578614D02*
G01*
X96146460Y-66576494D01*
X96107000Y-66571498D01*
X96075404Y-66563595D01*
X96069796Y-66561445D01*
X96029152Y-66538246D01*
X95996667Y-66507157D01*
X95972621Y-66469998D01*
X95957294Y-66428586D01*
X95950968Y-66384743D01*
X95951733Y-66373229D01*
X96054823Y-66373229D01*
X96059473Y-66409357D01*
X96073670Y-66437656D01*
X96097788Y-66458791D01*
X96105059Y-66462854D01*
X96118870Y-66469129D01*
X96133081Y-66473222D01*
X96150809Y-66475570D01*
X96175170Y-66476607D01*
X96204622Y-66476783D01*
X96250243Y-66475352D01*
X96285237Y-66470710D01*
X96311248Y-66462038D01*
X96329919Y-66448516D01*
X96342895Y-66429325D01*
X96351820Y-66403645D01*
X96351881Y-66403407D01*
X96355735Y-66366867D01*
X96348316Y-66333824D01*
X96337466Y-66314864D01*
X96323558Y-66298813D01*
X96308017Y-66287436D01*
X96288462Y-66279992D01*
X96262510Y-66275744D01*
X96227778Y-66273952D01*
X96204860Y-66273745D01*
X96170861Y-66274004D01*
X96146662Y-66275011D01*
X96129566Y-66277112D01*
X96116874Y-66280655D01*
X96105891Y-66285985D01*
X96104856Y-66286586D01*
X96077289Y-66309112D01*
X96060568Y-66337830D01*
X96054825Y-66372513D01*
X96054823Y-66373229D01*
X95951733Y-66373229D01*
X95953922Y-66340285D01*
X95966438Y-66297034D01*
X95988796Y-66256808D01*
X96017813Y-66224471D01*
X96039655Y-66206579D01*
X96061350Y-66193324D01*
X96085289Y-66184068D01*
X96113867Y-66178176D01*
X96149476Y-66175012D01*
X96194509Y-66173939D01*
X96207986Y-66173924D01*
X96245881Y-66174216D01*
X96273993Y-66175102D01*
X96295039Y-66176882D01*
X96311735Y-66179857D01*
X96326799Y-66184326D01*
X96337035Y-66188189D01*
X96370013Y-66206630D01*
X96401539Y-66233608D01*
X96427797Y-66265385D01*
X96442182Y-66291142D01*
X96452546Y-66325786D01*
X96457441Y-66366030D01*
X96456265Y-66405955D01*
X96454858Y-66415744D01*
X96440832Y-66461831D01*
X96416331Y-66502511D01*
X96382762Y-66535952D01*
X96344669Y-66558937D01*
X96316055Y-66568019D01*
X96278582Y-66574346D01*
X96235596Y-66577888D01*
X96204622Y-66578386D01*
X96190440Y-66578614D01*
G37*
G36*
X96837243Y-65333977D02*
G01*
X96797736Y-65306883D01*
X96767773Y-65272299D01*
X96747742Y-65230579D01*
X96738027Y-65182076D01*
X96737572Y-65175808D01*
X96738518Y-65153192D01*
X96831240Y-65153192D01*
X96831577Y-65171917D01*
X96840467Y-65206121D01*
X96859012Y-65233720D01*
X96885679Y-65253081D01*
X96916513Y-65262277D01*
X96942541Y-65265768D01*
X96942541Y-65058133D01*
X96922224Y-65062005D01*
X96885287Y-65074057D01*
X96857292Y-65093900D01*
X96839018Y-65120592D01*
X96831240Y-65153192D01*
X96738518Y-65153192D01*
X96739762Y-65123448D01*
X96752766Y-65077076D01*
X96776336Y-65037135D01*
X96810225Y-65004066D01*
X96846040Y-64982140D01*
X96865609Y-64973006D01*
X96882495Y-64966895D01*
X96900369Y-64963051D01*
X96922901Y-64960720D01*
X96953763Y-64959147D01*
X96958836Y-64958949D01*
X97030063Y-64956223D01*
X97030063Y-65265768D01*
X97056091Y-65262277D01*
X97087845Y-65252044D01*
X97114784Y-65231754D01*
X97134814Y-65203551D01*
X97145702Y-65170433D01*
X97145929Y-65142689D01*
X97139553Y-65110946D01*
X97128108Y-65080700D01*
X97114629Y-65059163D01*
X97099278Y-65040920D01*
X97127952Y-65007172D01*
X97142762Y-64990223D01*
X97154625Y-64977529D01*
X97161097Y-64971699D01*
X97161256Y-64971626D01*
X97168774Y-64974791D01*
X97180394Y-64986302D01*
X97194124Y-65003587D01*
X97207974Y-65024075D01*
X97219955Y-65045193D01*
X97222895Y-65051284D01*
X97233135Y-65082380D01*
X97239480Y-65119906D01*
X97241604Y-65159098D01*
X97239181Y-65195192D01*
X97234229Y-65217235D01*
X97217912Y-65257432D01*
X97197475Y-65288727D01*
X97170242Y-65314636D01*
X97148842Y-65329494D01*
X97109828Y-65348012D01*
X97062463Y-65360479D01*
X97009588Y-65366412D01*
X96954044Y-65365331D01*
X96943349Y-65364285D01*
X96942541Y-65364129D01*
X96885909Y-65353229D01*
X96837243Y-65333977D01*
G37*
G36*
X96107908Y-69170076D02*
G01*
X96072103Y-69159622D01*
X96041849Y-69143751D01*
X96014975Y-69121752D01*
X96005789Y-69112281D01*
X95977134Y-69072911D01*
X95959034Y-69029884D01*
X95951129Y-68984997D01*
X95952199Y-68960039D01*
X96054361Y-68960039D01*
X96055446Y-68990772D01*
X96065528Y-69020291D01*
X96084609Y-69046118D01*
X96104856Y-69061593D01*
X96115818Y-69067107D01*
X96128236Y-69070802D01*
X96144807Y-69073024D01*
X96168228Y-69074118D01*
X96201198Y-69074432D01*
X96204860Y-69074434D01*
X96245214Y-69073653D01*
X96275524Y-69070813D01*
X96298180Y-69065170D01*
X96315574Y-69055977D01*
X96330094Y-69042491D01*
X96337678Y-69033031D01*
X96351083Y-69005383D01*
X96355697Y-68972910D01*
X96351496Y-68939699D01*
X96338454Y-68909842D01*
X96338431Y-68909807D01*
X96323791Y-68894071D01*
X96302494Y-68882818D01*
X96273015Y-68875610D01*
X96233827Y-68872009D01*
X96204622Y-68871396D01*
X96171832Y-68871641D01*
X96148421Y-68872811D01*
X96131273Y-68875343D01*
X96117271Y-68879672D01*
X96105059Y-68885325D01*
X96079171Y-68904838D01*
X96062271Y-68930569D01*
X96054361Y-68960039D01*
X95952199Y-68960039D01*
X95953056Y-68940045D01*
X95964456Y-68896824D01*
X95984967Y-68857129D01*
X96014228Y-68822757D01*
X96051878Y-68795503D01*
X96071377Y-68786074D01*
X96096811Y-68778894D01*
X96131300Y-68773916D01*
X96171595Y-68771137D01*
X96214443Y-68770555D01*
X96256595Y-68772166D01*
X96294798Y-68775969D01*
X96325802Y-68781959D01*
X96338896Y-68786305D01*
X96378289Y-68808822D01*
X96411732Y-68839903D01*
X96436783Y-68876930D01*
X96447277Y-68902517D01*
X96455121Y-68939745D01*
X96457788Y-68980314D01*
X96455036Y-69015542D01*
X96440863Y-69060530D01*
X96415032Y-69101543D01*
X96401091Y-69117101D01*
X96373840Y-69140383D01*
X96343065Y-69157432D01*
X96306692Y-69168887D01*
X96262644Y-69175389D01*
X96208846Y-69177576D01*
X96204860Y-69177584D01*
X96151437Y-69175826D01*
X96107908Y-69170076D01*
G37*
G36*
X97029197Y-68202503D02*
G01*
X96997966Y-68184949D01*
X96985071Y-68173462D01*
X96971137Y-68156688D01*
X96960814Y-68138863D01*
X96953508Y-68117680D01*
X96948623Y-68090830D01*
X96945565Y-68056004D01*
X96943805Y-68013235D01*
X96941179Y-67921025D01*
X97029094Y-67921025D01*
X97031141Y-68004937D01*
X97032111Y-68039103D01*
X97033340Y-68063148D01*
X97035238Y-68079449D01*
X97038213Y-68090387D01*
X97042676Y-68098341D01*
X97048344Y-68104961D01*
X97067929Y-68118127D01*
X97089599Y-68120743D01*
X97110733Y-68113844D01*
X97128711Y-68098465D01*
X97140911Y-68075641D01*
X97143036Y-68067582D01*
X97145214Y-68048328D01*
X97145796Y-68022707D01*
X97144946Y-67995171D01*
X97142827Y-67970169D01*
X97139600Y-67952155D01*
X97138712Y-67949451D01*
X97127439Y-67936335D01*
X97106494Y-67926725D01*
X97078452Y-67921604D01*
X97064272Y-67921025D01*
X97029094Y-67921025D01*
X96941179Y-67921025D01*
X96907065Y-67921025D01*
X96885354Y-67922238D01*
X96867205Y-67925340D01*
X96860331Y-67927780D01*
X96846349Y-67941732D01*
X96836125Y-67965148D01*
X96830657Y-67995294D01*
X96830014Y-68010690D01*
X96831474Y-68045587D01*
X96836342Y-68071153D01*
X96845351Y-68090270D01*
X96852518Y-68099277D01*
X96867244Y-68115166D01*
X96838248Y-68152504D01*
X96823767Y-68170396D01*
X96811955Y-68183611D01*
X96805031Y-68189693D01*
X96804491Y-68189841D01*
X96798123Y-68185461D01*
X96786729Y-68174170D01*
X96777132Y-68163440D01*
X96758543Y-68137091D01*
X96746034Y-68107425D01*
X96739008Y-68072015D01*
X96736870Y-68028432D01*
X96737479Y-68002020D01*
X96739268Y-67969486D01*
X96741986Y-67945670D01*
X96746373Y-67926787D01*
X96753171Y-67909053D01*
X96757477Y-67899901D01*
X96779763Y-67865282D01*
X96808681Y-67840443D01*
X96836265Y-67826998D01*
X96847811Y-67824292D01*
X96867444Y-67822012D01*
X96896040Y-67820113D01*
X96934473Y-67818548D01*
X96983620Y-67817275D01*
X97044355Y-67816247D01*
X97047255Y-67816208D01*
X97236364Y-67813651D01*
X97236364Y-67921025D01*
X97197743Y-67921025D01*
X97213687Y-67939974D01*
X97226380Y-67959317D01*
X97235657Y-67980691D01*
X97236088Y-67982172D01*
X97240875Y-68011401D01*
X97241812Y-68046418D01*
X97239020Y-68081158D01*
X97233616Y-68106545D01*
X97215586Y-68146911D01*
X97189802Y-68179580D01*
X97157757Y-68202922D01*
X97137740Y-68211277D01*
X97103167Y-68216678D01*
X97089599Y-68215499D01*
X97065625Y-68213417D01*
X97029197Y-68202503D01*
G37*
G36*
X96003784Y-65257480D02*
G01*
X96018055Y-65268626D01*
X96036505Y-65283917D01*
X96047863Y-65293691D01*
X96075286Y-65317703D01*
X96065054Y-65337488D01*
X96057096Y-65362425D01*
X96055181Y-65391115D01*
X96059232Y-65418225D01*
X96066468Y-65434820D01*
X96073898Y-65445730D01*
X96081178Y-65454378D01*
X96089801Y-65461057D01*
X96101263Y-65466060D01*
X96117055Y-65469680D01*
X96138674Y-65472209D01*
X96167612Y-65473942D01*
X96205364Y-65475170D01*
X96253424Y-65476187D01*
X96279878Y-65476674D01*
X96451796Y-65479800D01*
X96453611Y-65531375D01*
X96455427Y-65582950D01*
X95954293Y-65582950D01*
X95956108Y-65531375D01*
X95957924Y-65479800D01*
X95982400Y-65476674D01*
X95997413Y-65474196D01*
X96001819Y-65471088D01*
X95997481Y-65465815D01*
X95996542Y-65465031D01*
X95975131Y-65439825D01*
X95960593Y-65407005D01*
X95953265Y-65369616D01*
X95953486Y-65330705D01*
X95961594Y-65293317D01*
X95974421Y-65265842D01*
X95987129Y-65245280D01*
X96003784Y-65257480D01*
G37*
G36*
X94153644Y-64951576D02*
G01*
X94204903Y-64951702D01*
X94245969Y-64951974D01*
X94277997Y-64952441D01*
X94302144Y-64953152D01*
X94319563Y-64954158D01*
X94331409Y-64955508D01*
X94338839Y-64957252D01*
X94343007Y-64959439D01*
X94345069Y-64962119D01*
X94345233Y-64962485D01*
X94347428Y-64970973D01*
X94351615Y-64990304D01*
X94357504Y-65019027D01*
X94364806Y-65055690D01*
X94373233Y-65098844D01*
X94382496Y-65147036D01*
X94392173Y-65198114D01*
X94404073Y-65260698D01*
X94414106Y-65311876D01*
X94422480Y-65352571D01*
X94429406Y-65383706D01*
X94435095Y-65406204D01*
X94439757Y-65420989D01*
X94443601Y-65428983D01*
X94445108Y-65430601D01*
X94453448Y-65434829D01*
X94471875Y-65443013D01*
X94498850Y-65454507D01*
X94532836Y-65468667D01*
X94572294Y-65484846D01*
X94615684Y-65502400D01*
X94630250Y-65508243D01*
X94688390Y-65531234D01*
X94735565Y-65549257D01*
X94772215Y-65562465D01*
X94798780Y-65571012D01*
X94815701Y-65575053D01*
X94821813Y-65575325D01*
X94830820Y-65571216D01*
X94848777Y-65560772D01*
X94874391Y-65544825D01*
X94906366Y-65524209D01*
X94943409Y-65499755D01*
X94984226Y-65472296D01*
X95022001Y-65446474D01*
X95064746Y-65417243D01*
X95104557Y-65390408D01*
X95140192Y-65366777D01*
X95170411Y-65347156D01*
X95193972Y-65332352D01*
X95209635Y-65323172D01*
X95215948Y-65320385D01*
X95222628Y-65324683D01*
X95237065Y-65336938D01*
X95258246Y-65356196D01*
X95285158Y-65381502D01*
X95316790Y-65411902D01*
X95352130Y-65446439D01*
X95390165Y-65484160D01*
X95400343Y-65494344D01*
X95445362Y-65539602D01*
X95482140Y-65576917D01*
X95511390Y-65607072D01*
X95533827Y-65630851D01*
X95550161Y-65649038D01*
X95561106Y-65662417D01*
X95567376Y-65671771D01*
X95569681Y-65677885D01*
X95569458Y-65680327D01*
X95564975Y-65688162D01*
X95554229Y-65705017D01*
X95538066Y-65729625D01*
X95517330Y-65760719D01*
X95492865Y-65797030D01*
X95465514Y-65837292D01*
X95441082Y-65873015D01*
X95412128Y-65915558D01*
X95385574Y-65955224D01*
X95362232Y-65990750D01*
X95342915Y-66020872D01*
X95328434Y-66044327D01*
X95319601Y-66059851D01*
X95317141Y-66065848D01*
X95319990Y-66075471D01*
X95327827Y-66093755D01*
X95339591Y-66118421D01*
X95354219Y-66147186D01*
X95361128Y-66160253D01*
X95376520Y-66189989D01*
X95389313Y-66216546D01*
X95398494Y-66237671D01*
X95403047Y-66251113D01*
X95403325Y-66254004D01*
X95400452Y-66257394D01*
X95392185Y-66262719D01*
X95377879Y-66270262D01*
X95356888Y-66280309D01*
X95328569Y-66293143D01*
X95292276Y-66309049D01*
X95247365Y-66328309D01*
X95193190Y-66351210D01*
X95129107Y-66378033D01*
X95054472Y-66409065D01*
X95002449Y-66430610D01*
X94935343Y-66458299D01*
X94871434Y-66484531D01*
X94811689Y-66508919D01*
X94757076Y-66531073D01*
X94708561Y-66550607D01*
X94667111Y-66567131D01*
X94633694Y-66580257D01*
X94609276Y-66589597D01*
X94594824Y-66594763D01*
X94591273Y-66595699D01*
X94579847Y-66590241D01*
X94566321Y-66575343D01*
X94562067Y-66569130D01*
X94550132Y-66551344D01*
X94533793Y-66527940D01*
X94516131Y-66503316D01*
X94511960Y-66497608D01*
X94459961Y-66436867D01*
X94400842Y-66385816D01*
X94335777Y-66344787D01*
X94265939Y-66314114D01*
X94192501Y-66294126D01*
X94116636Y-66285158D01*
X94039516Y-66287542D01*
X93962314Y-66301609D01*
X93896684Y-66323331D01*
X93853811Y-66342897D01*
X93815186Y-66365888D01*
X93777485Y-66394607D01*
X93737386Y-66431356D01*
X93729248Y-66439411D01*
X93679993Y-66494811D01*
X93641533Y-66552513D01*
X93612173Y-66615361D01*
X93596870Y-66661340D01*
X93587565Y-66706035D01*
X93582421Y-66758210D01*
X93581439Y-66813556D01*
X93584619Y-66867764D01*
X93591961Y-66916525D01*
X93596870Y-66936408D01*
X93624327Y-67010057D01*
X93662104Y-67078070D01*
X93709119Y-67139433D01*
X93764286Y-67193131D01*
X93826523Y-67238150D01*
X93894745Y-67273475D01*
X93967870Y-67298093D01*
X93988288Y-67302767D01*
X94066841Y-67312795D01*
X94144763Y-67310806D01*
X94220831Y-67297274D01*
X94293825Y-67272672D01*
X94362520Y-67237472D01*
X94425696Y-67192147D01*
X94482131Y-67137171D01*
X94511960Y-67100140D01*
X94529478Y-67075886D01*
X94546425Y-67051778D01*
X94559721Y-67032212D01*
X94562067Y-67028618D01*
X94575750Y-67011234D01*
X94588090Y-67002602D01*
X94591273Y-67002049D01*
X94598954Y-67004388D01*
X94617210Y-67011145D01*
X94645075Y-67021933D01*
X94681580Y-67036363D01*
X94725760Y-67054047D01*
X94776647Y-67074597D01*
X94833273Y-67097624D01*
X94894673Y-67122740D01*
X94959880Y-67149557D01*
X95002449Y-67167138D01*
X95083973Y-67200929D01*
X95154543Y-67230336D01*
X95214804Y-67255643D01*
X95265400Y-67277134D01*
X95306977Y-67295093D01*
X95340179Y-67309803D01*
X95365651Y-67321550D01*
X95384039Y-67330617D01*
X95395986Y-67337288D01*
X95402138Y-67341848D01*
X95403325Y-67343744D01*
X95401117Y-67353112D01*
X95393838Y-67371150D01*
X95382502Y-67395606D01*
X95368123Y-67424227D01*
X95361128Y-67437496D01*
X95345594Y-67467324D01*
X95332468Y-67494033D01*
X95322812Y-67515341D01*
X95317687Y-67528969D01*
X95317141Y-67531900D01*
X95320579Y-67539754D01*
X95330350Y-67556604D01*
X95345642Y-67581187D01*
X95365644Y-67612239D01*
X95389542Y-67648497D01*
X95416526Y-67688698D01*
X95441082Y-67724733D01*
X95470193Y-67767323D01*
X95497125Y-67807020D01*
X95521033Y-67842557D01*
X95541073Y-67872667D01*
X95556400Y-67896082D01*
X95566169Y-67911536D01*
X95569458Y-67917422D01*
X95569190Y-67921966D01*
X95565387Y-67929280D01*
X95557336Y-67940148D01*
X95544324Y-67955353D01*
X95525638Y-67975679D01*
X95500566Y-68001910D01*
X95468395Y-68034831D01*
X95428412Y-68075224D01*
X95400343Y-68103405D01*
X95361775Y-68141795D01*
X95325639Y-68177250D01*
X95292948Y-68208814D01*
X95264715Y-68235532D01*
X95241950Y-68256451D01*
X95225668Y-68270614D01*
X95216879Y-68277066D01*
X95215948Y-68277363D01*
X95208434Y-68273920D01*
X95191907Y-68264129D01*
X95167609Y-68248796D01*
X95136781Y-68228729D01*
X95100662Y-68204734D01*
X95060495Y-68177617D01*
X95022001Y-68151274D01*
X94978944Y-68121871D01*
X94938529Y-68094744D01*
X94902050Y-68070726D01*
X94870802Y-68050649D01*
X94846078Y-68035347D01*
X94829173Y-68025652D01*
X94821813Y-68022424D01*
X94811039Y-68023565D01*
X94790911Y-68029111D01*
X94760990Y-68039214D01*
X94720836Y-68054031D01*
X94670008Y-68073714D01*
X94630250Y-68089505D01*
X94585920Y-68107365D01*
X94545027Y-68124058D01*
X94509110Y-68138938D01*
X94479708Y-68151362D01*
X94458358Y-68160683D01*
X94446600Y-68166256D01*
X94445108Y-68167147D01*
X94441560Y-68172409D01*
X94437289Y-68184050D01*
X94432085Y-68202993D01*
X94425736Y-68230161D01*
X94418034Y-68266477D01*
X94408767Y-68312864D01*
X94397726Y-68370245D01*
X94392173Y-68399634D01*
X94382369Y-68451377D01*
X94373116Y-68499512D01*
X94364702Y-68542589D01*
X94357416Y-68579157D01*
X94351547Y-68607765D01*
X94347385Y-68626961D01*
X94345233Y-68635264D01*
X94343351Y-68638008D01*
X94339504Y-68640253D01*
X94332537Y-68642048D01*
X94321295Y-68643444D01*
X94304623Y-68644489D01*
X94281366Y-68645234D01*
X94250368Y-68645728D01*
X94210474Y-68646021D01*
X94160530Y-68646163D01*
X94099380Y-68646203D01*
X94091037Y-68646204D01*
X93841510Y-68646204D01*
X93835600Y-68632138D01*
X93833125Y-68622884D01*
X93828713Y-68602819D01*
X93822660Y-68573432D01*
X93815264Y-68536213D01*
X93806820Y-68492653D01*
X93797626Y-68444241D01*
X93788699Y-68396382D01*
X93779008Y-68344864D01*
X93769665Y-68296880D01*
X93760982Y-68253910D01*
X93753271Y-68217433D01*
X93746846Y-68188930D01*
X93742017Y-68169881D01*
X93739235Y-68161949D01*
X93731366Y-68156213D01*
X93713676Y-68146623D01*
X93687958Y-68133956D01*
X93656004Y-68118988D01*
X93619609Y-68102496D01*
X93580564Y-68085256D01*
X93540663Y-68068045D01*
X93501699Y-68051640D01*
X93465465Y-68036817D01*
X93433753Y-68024352D01*
X93408357Y-68015022D01*
X93391070Y-68009603D01*
X93385039Y-68008547D01*
X93374831Y-68012261D01*
X93354699Y-68023355D01*
X93324756Y-68041756D01*
X93285116Y-68067392D01*
X93235896Y-68100190D01*
X93177208Y-68140078D01*
X93173009Y-68142955D01*
X93128652Y-68173137D01*
X93087143Y-68200955D01*
X93049693Y-68225628D01*
X93017510Y-68246378D01*
X92991805Y-68262427D01*
X92973787Y-68272995D01*
X92964667Y-68277303D01*
X92964199Y-68277363D01*
X92957244Y-68273084D01*
X92942754Y-68261032D01*
X92921924Y-68242381D01*
X92895950Y-68218307D01*
X92866030Y-68189984D01*
X92833359Y-68158588D01*
X92799134Y-68125294D01*
X92764550Y-68091278D01*
X92730804Y-68057713D01*
X92699093Y-68025776D01*
X92670611Y-67996641D01*
X92646557Y-67971484D01*
X92628125Y-67951480D01*
X92616512Y-67937804D01*
X92612967Y-67932318D01*
X92611885Y-67928656D01*
X92611541Y-67924857D01*
X92612549Y-67919935D01*
X92615523Y-67912904D01*
X92621079Y-67902776D01*
X92629831Y-67888566D01*
X92642393Y-67869288D01*
X92659381Y-67843953D01*
X92681409Y-67811576D01*
X92709091Y-67771170D01*
X92743042Y-67721748D01*
X92754970Y-67704394D01*
X92793858Y-67647442D01*
X92825582Y-67600152D01*
X92850396Y-67562122D01*
X92868554Y-67532948D01*
X92880311Y-67512228D01*
X92885922Y-67499560D01*
X92886505Y-67496203D01*
X92883986Y-67486236D01*
X92877293Y-67466746D01*
X92867186Y-67439588D01*
X92854425Y-67406621D01*
X92839772Y-67369702D01*
X92823987Y-67330689D01*
X92807832Y-67291439D01*
X92792066Y-67253810D01*
X92777451Y-67219660D01*
X92764748Y-67190847D01*
X92754716Y-67169227D01*
X92748118Y-67156658D01*
X92746591Y-67154563D01*
X92738782Y-67151633D01*
X92720058Y-67146787D01*
X92691812Y-67140320D01*
X92655436Y-67132530D01*
X92612320Y-67123712D01*
X92563856Y-67114164D01*
X92511436Y-67104182D01*
X92502108Y-67102441D01*
X92448957Y-67092438D01*
X92399349Y-67082894D01*
X92354706Y-67074099D01*
X92316450Y-67066341D01*
X92286002Y-67059909D01*
X92264783Y-67055094D01*
X92254217Y-67052182D01*
X92253610Y-67051913D01*
X92250535Y-67049851D01*
X92248024Y-67046491D01*
X92246019Y-67040655D01*
X92244464Y-67031163D01*
X92243302Y-67016834D01*
X92242476Y-66996490D01*
X92241928Y-66968952D01*
X92241603Y-66933038D01*
X92241442Y-66887570D01*
X92241388Y-66831369D01*
X92241385Y-66798874D01*
X92241406Y-66736853D01*
X92241508Y-66686156D01*
X92241748Y-66645604D01*
X92242181Y-66614018D01*
X92242864Y-66590219D01*
X92243854Y-66573028D01*
X92245207Y-66561266D01*
X92246980Y-66553754D01*
X92249228Y-66549314D01*
X92252010Y-66546765D01*
X92253505Y-66545892D01*
X92262210Y-66543322D01*
X92281795Y-66538796D01*
X92310839Y-66532602D01*
X92347921Y-66525029D01*
X92391621Y-66516367D01*
X92440520Y-66506905D01*
X92493196Y-66496932D01*
X92502004Y-66495285D01*
X92554967Y-66485237D01*
X92604209Y-66475584D01*
X92648339Y-66466621D01*
X92685968Y-66458645D01*
X92715705Y-66451950D01*
X92736161Y-66446835D01*
X92745946Y-66443593D01*
X92746457Y-66443241D01*
X92751406Y-66434950D01*
X92760103Y-66416851D01*
X92771788Y-66390798D01*
X92785700Y-66358648D01*
X92801079Y-66322254D01*
X92817166Y-66283470D01*
X92833200Y-66244152D01*
X92848422Y-66206154D01*
X92862071Y-66171331D01*
X92873387Y-66141537D01*
X92881611Y-66118626D01*
X92885981Y-66104454D01*
X92886485Y-66101551D01*
X92883783Y-66092673D01*
X92875093Y-66075982D01*
X92860158Y-66051069D01*
X92838719Y-66017523D01*
X92810517Y-65974936D01*
X92775294Y-65922897D01*
X92754601Y-65892671D01*
X92718641Y-65840303D01*
X92689134Y-65797262D01*
X92665465Y-65762563D01*
X92647019Y-65735218D01*
X92633181Y-65714241D01*
X92623336Y-65698647D01*
X92616870Y-65687448D01*
X92613169Y-65679658D01*
X92611616Y-65674291D01*
X92611597Y-65670361D01*
X92612499Y-65666880D01*
X92612967Y-65665430D01*
X92618500Y-65657440D01*
X92631775Y-65642216D01*
X92651596Y-65620932D01*
X92676767Y-65594763D01*
X92706092Y-65564885D01*
X92738373Y-65532473D01*
X92772415Y-65498702D01*
X92807023Y-65464746D01*
X92840999Y-65431782D01*
X92873147Y-65400985D01*
X92902271Y-65373528D01*
X92927176Y-65350589D01*
X92946664Y-65333341D01*
X92959539Y-65322960D01*
X92964199Y-65320385D01*
X92972076Y-65323825D01*
X92989008Y-65333625D01*
X93013784Y-65349007D01*
X93045195Y-65369191D01*
X93082031Y-65393400D01*
X93123082Y-65420853D01*
X93167138Y-65450773D01*
X93173009Y-65454793D01*
X93232317Y-65495146D01*
X93282165Y-65528414D01*
X93322440Y-65554524D01*
X93353026Y-65573405D01*
X93373809Y-65584982D01*
X93384674Y-65589185D01*
X93385039Y-65589202D01*
X93396109Y-65586735D01*
X93416451Y-65579853D01*
X93444271Y-65569333D01*
X93477776Y-65555951D01*
X93515174Y-65540483D01*
X93554672Y-65523706D01*
X93594476Y-65506396D01*
X93632794Y-65489331D01*
X93667833Y-65473286D01*
X93697799Y-65459038D01*
X93720900Y-65447364D01*
X93735343Y-65439040D01*
X93739235Y-65435800D01*
X93742301Y-65426858D01*
X93747253Y-65407088D01*
X93753780Y-65377969D01*
X93761570Y-65340983D01*
X93770311Y-65297608D01*
X93779689Y-65249324D01*
X93788699Y-65201367D01*
X93798325Y-65149792D01*
X93807474Y-65101689D01*
X93815851Y-65058547D01*
X93823158Y-65021856D01*
X93829099Y-64993108D01*
X93833378Y-64973791D01*
X93835600Y-64965611D01*
X93841510Y-64951545D01*
X94091037Y-64951545D01*
X94153644Y-64951576D01*
G37*
G36*
X95954798Y-68583688D02*
G01*
X96003965Y-68583688D01*
X95983070Y-68552638D01*
X95962547Y-68512457D01*
X95953589Y-68473858D01*
X96055596Y-68473858D01*
X96056032Y-68496153D01*
X96058336Y-68518875D01*
X96062372Y-68533478D01*
X96069959Y-68544345D01*
X96079694Y-68553200D01*
X96104709Y-68567516D01*
X96138130Y-68577449D01*
X96176815Y-68582979D01*
X96217623Y-68584088D01*
X96257414Y-68580757D01*
X96293046Y-68572967D01*
X96321379Y-68560699D01*
X96329764Y-68554704D01*
X96345372Y-68534119D01*
X96354293Y-68506651D01*
X96356127Y-68476223D01*
X96350480Y-68446756D01*
X96342429Y-68429691D01*
X96332073Y-68416076D01*
X96319347Y-68406210D01*
X96302193Y-68399532D01*
X96278556Y-68395482D01*
X96246380Y-68393498D01*
X96207986Y-68393016D01*
X96170724Y-68393301D01*
X96143514Y-68394323D01*
X96123916Y-68396331D01*
X96109489Y-68399575D01*
X96097828Y-68404286D01*
X96074914Y-68420702D01*
X96061064Y-68443395D01*
X96055596Y-68473858D01*
X95953589Y-68473858D01*
X95952892Y-68470855D01*
X95953514Y-68429654D01*
X95963821Y-68390672D01*
X95983222Y-68355730D01*
X96011125Y-68326648D01*
X96046939Y-68305244D01*
X96065668Y-68298548D01*
X96088517Y-68294173D01*
X96120754Y-68291014D01*
X96159334Y-68289072D01*
X96201209Y-68288349D01*
X96243333Y-68288844D01*
X96282661Y-68290559D01*
X96316146Y-68293495D01*
X96340742Y-68297652D01*
X96343763Y-68298464D01*
X96382746Y-68315914D01*
X96414870Y-68342504D01*
X96438972Y-68376242D01*
X96453887Y-68415136D01*
X96458451Y-68457194D01*
X96454693Y-68488229D01*
X96447327Y-68510440D01*
X96435433Y-68535662D01*
X96426443Y-68550868D01*
X96404781Y-68583688D01*
X96595886Y-68583688D01*
X96651612Y-68583590D01*
X96695893Y-68583266D01*
X96729785Y-68582671D01*
X96754346Y-68581761D01*
X96770631Y-68580492D01*
X96779698Y-68578820D01*
X96782602Y-68576701D01*
X96782376Y-68575874D01*
X96775746Y-68565775D01*
X96765586Y-68551334D01*
X96764116Y-68549305D01*
X96745430Y-68513538D01*
X96736657Y-68473391D01*
X96737566Y-68431792D01*
X96747927Y-68391671D01*
X96767508Y-68355956D01*
X96780557Y-68340794D01*
X96793460Y-68328103D01*
X96805126Y-68317884D01*
X96817054Y-68309855D01*
X96830744Y-68303735D01*
X96847694Y-68299240D01*
X96869404Y-68296088D01*
X96897373Y-68293998D01*
X96933100Y-68292686D01*
X96978085Y-68291871D01*
X97033827Y-68291271D01*
X97044129Y-68291173D01*
X97236364Y-68289354D01*
X97236364Y-68389891D01*
X97072261Y-68389900D01*
X97017995Y-68390034D01*
X96974721Y-68390603D01*
X96940927Y-68391873D01*
X96915103Y-68394107D01*
X96895738Y-68397571D01*
X96881322Y-68402528D01*
X96870344Y-68409244D01*
X96861294Y-68417982D01*
X96853214Y-68428249D01*
X96840325Y-68455620D01*
X96837062Y-68486521D01*
X96842771Y-68517512D01*
X96856799Y-68545149D01*
X96878494Y-68565992D01*
X96879461Y-68566603D01*
X96886706Y-68570797D01*
X96894412Y-68574080D01*
X96904172Y-68576587D01*
X96917577Y-68578451D01*
X96936222Y-68579805D01*
X96961697Y-68580783D01*
X96995597Y-68581519D01*
X97039512Y-68582145D01*
X97069135Y-68582498D01*
X97236364Y-68584434D01*
X97236364Y-68683713D01*
X95954798Y-68683713D01*
X95954798Y-68583688D01*
G37*
G36*
X96453619Y-67378213D02*
G01*
X96451796Y-67430280D01*
X96283004Y-67433405D01*
X96231895Y-67434425D01*
X96191741Y-67435451D01*
X96160997Y-67436606D01*
X96138116Y-67438011D01*
X96121551Y-67439791D01*
X96109755Y-67442067D01*
X96101182Y-67444962D01*
X96094742Y-67448319D01*
X96071841Y-67468129D01*
X96058765Y-67494499D01*
X96054823Y-67526891D01*
X96058614Y-67560559D01*
X96070786Y-67586343D01*
X96092537Y-67606596D01*
X96096869Y-67609408D01*
X96104343Y-67613807D01*
X96111994Y-67617248D01*
X96121420Y-67619873D01*
X96134222Y-67621821D01*
X96152000Y-67623232D01*
X96176355Y-67624245D01*
X96208886Y-67625001D01*
X96251193Y-67625639D01*
X96287693Y-67626094D01*
X96454921Y-67628110D01*
X96454921Y-67727228D01*
X95954798Y-67727228D01*
X95954798Y-67627203D01*
X95979804Y-67627203D01*
X95997629Y-67625904D01*
X96003696Y-67621149D01*
X95998500Y-67611651D01*
X95989339Y-67602345D01*
X95970183Y-67576466D01*
X95957800Y-67543162D01*
X95952572Y-67505753D01*
X95954882Y-67467558D01*
X95965112Y-67431898D01*
X95968819Y-67424028D01*
X95991184Y-67389145D01*
X96019025Y-67363194D01*
X96051697Y-67344656D01*
X96061130Y-67340530D01*
X96070541Y-67337255D01*
X96081486Y-67334711D01*
X96095524Y-67332782D01*
X96114211Y-67331349D01*
X96139104Y-67330296D01*
X96171759Y-67329503D01*
X96213735Y-67328854D01*
X96266587Y-67328230D01*
X96269199Y-67328201D01*
X96455443Y-67326147D01*
X96453619Y-67378213D01*
G37*
G36*
X97047731Y-66205840D02*
G01*
X97010661Y-66188796D01*
X96980461Y-66161530D01*
X96958873Y-66126834D01*
X96953518Y-66113359D01*
X96949665Y-66098151D01*
X96946992Y-66078670D01*
X96945178Y-66052375D01*
X96943901Y-66016728D01*
X96943639Y-66006492D01*
X96943307Y-65992837D01*
X97030063Y-65992837D01*
X97030933Y-66035326D01*
X97034020Y-66066900D01*
X97040037Y-66089058D01*
X97049699Y-66103296D01*
X97063719Y-66111113D01*
X97082813Y-66114006D01*
X97087890Y-66114132D01*
X97112406Y-66109057D01*
X97130436Y-66094570D01*
X97139062Y-66075418D01*
X97142948Y-66057981D01*
X97145129Y-66048690D01*
X97146973Y-66030449D01*
X97146227Y-66006125D01*
X97143400Y-65980263D01*
X97139004Y-65957408D01*
X97133552Y-65942103D01*
X97133041Y-65941273D01*
X97117765Y-65925993D01*
X97095220Y-65917254D01*
X97063370Y-65914292D01*
X97060914Y-65914282D01*
X97030063Y-65914282D01*
X97030063Y-65992837D01*
X96943307Y-65992837D01*
X96941395Y-65914282D01*
X96905151Y-65914282D01*
X96878354Y-65916094D01*
X96860986Y-65921920D01*
X96856416Y-65925222D01*
X96842661Y-65944517D01*
X96833843Y-65971683D01*
X96829950Y-66003278D01*
X96830970Y-66035858D01*
X96836890Y-66065983D01*
X96847698Y-66090209D01*
X96857041Y-66100917D01*
X96861568Y-66106197D01*
X96861431Y-66112906D01*
X96855615Y-66123575D01*
X96843106Y-66140737D01*
X96838889Y-66146241D01*
X96824545Y-66164043D01*
X96812775Y-66177122D01*
X96805840Y-66182993D01*
X96805369Y-66183098D01*
X96795735Y-66177966D01*
X96782921Y-66164605D01*
X96769137Y-66146069D01*
X96756593Y-66125408D01*
X96747500Y-66105677D01*
X96745971Y-66101066D01*
X96739434Y-66067581D01*
X96736642Y-66027106D01*
X96737574Y-65984569D01*
X96742206Y-65944901D01*
X96746788Y-65924397D01*
X96760802Y-65891090D01*
X96782037Y-65861012D01*
X96807853Y-65837105D01*
X96835610Y-65822314D01*
X96839391Y-65821168D01*
X96853792Y-65819052D01*
X96879654Y-65817281D01*
X96915939Y-65815890D01*
X96961609Y-65814913D01*
X97015627Y-65814382D01*
X97050380Y-65814292D01*
X97236364Y-65814257D01*
X97236364Y-65914282D01*
X97197743Y-65914282D01*
X97213687Y-65933230D01*
X97226380Y-65952574D01*
X97235657Y-65973948D01*
X97236088Y-65975428D01*
X97241122Y-66006211D01*
X97241914Y-66042665D01*
X97238670Y-66078950D01*
X97231592Y-66109225D01*
X97231415Y-66109723D01*
X97211309Y-66149454D01*
X97183522Y-66180170D01*
X97149519Y-66201104D01*
X97110767Y-66211489D01*
X97087890Y-66210982D01*
X97068733Y-66210558D01*
X97047731Y-66205840D01*
G37*
X157228000Y-69201420D02*
X157228000Y-69482580D01*
X156208000Y-69201420D02*
X156208000Y-69482580D01*
%LPC*%
D14*
X94996000Y-77724000D03*
D15*
X99822000Y-68059000D03*
X99822000Y-69609000D03*
D16*
X142240000Y-78740000D03*
D17*
X142240000Y-76200000D03*
X144780000Y-78740000D03*
X144780000Y-76200000D03*
X147320000Y-78740000D03*
X147320000Y-76200000D03*
X149860000Y-78740000D03*
X149860000Y-76200000D03*
X152400000Y-78740000D03*
X152400000Y-76200000D03*
D14*
X159004000Y-77724000D03*
D15*
X114554000Y-68059000D03*
X114554000Y-69609000D03*
D18*
X109794000Y-70084000D03*
X110744000Y-70084000D03*
X111694000Y-70084000D03*
X111694000Y-67584000D03*
X110744000Y-67584000D03*
X109794000Y-67584000D03*
X151551600Y-70592000D03*
X152501600Y-70592000D03*
X153451600Y-70592000D03*
X153451600Y-68092000D03*
X152501600Y-68092000D03*
X151551600Y-68092000D03*
D19*
X144000000Y-44013000D03*
X110000000Y-44013000D03*
D20*
X134799000Y-54513000D03*
X133381000Y-56513000D03*
X131963000Y-54513000D03*
X130545000Y-56513000D03*
X129127000Y-54513000D03*
X127709000Y-56513000D03*
X126291000Y-54513000D03*
X124873000Y-56513000D03*
X123455000Y-54513000D03*
X122037000Y-56513000D03*
X120619000Y-54513000D03*
X119201000Y-56513000D03*
X134799000Y-50513000D03*
X133381000Y-52513000D03*
X131963000Y-50513000D03*
X130545000Y-52513000D03*
X128906200Y-50513000D03*
X127709000Y-52513000D03*
X126070200Y-50513000D03*
X124873000Y-52513000D03*
X123234200Y-50513000D03*
X122037000Y-52513000D03*
X120398200Y-50513000D03*
X119201000Y-52513000D03*
D21*
X138429600Y-54005000D03*
X138429600Y-57835000D03*
X115349600Y-54005000D03*
X115349600Y-57835000D03*
D22*
X146799000Y-49513000D03*
X107201000Y-49513000D03*
D23*
X153250000Y-36013000D03*
X100750000Y-36013000D03*
D14*
X94996000Y-34036000D03*
X159004000Y-34036000D03*
D18*
X144338000Y-70592000D03*
X145288000Y-70592000D03*
X146238000Y-70592000D03*
X146238000Y-68092000D03*
X145288000Y-68092000D03*
X144338000Y-68092000D03*
D16*
X101600000Y-78740000D03*
D17*
X101600000Y-76200000D03*
X104140000Y-78740000D03*
X104140000Y-76200000D03*
X106680000Y-78740000D03*
X106680000Y-76200000D03*
X109220000Y-78740000D03*
X109220000Y-76200000D03*
X111760000Y-78740000D03*
X111760000Y-76200000D03*
D18*
X103952000Y-70084000D03*
X104902000Y-70084000D03*
X105852000Y-70084000D03*
X105852000Y-67584000D03*
X104902000Y-67584000D03*
X103952000Y-67584000D03*
D15*
X140208000Y-68567000D03*
X140208000Y-70117000D03*
X156718000Y-68567000D03*
X156718000Y-70117000D03*
M02*
