M48
; DRILL file {KiCad (6.0.0)} date Sun Mar 13 19:19:58 2022
; FORMAT={-:-/ absolute / metric / decimal}
; #@! TF.CreationDate,2022-03-13T19:19:58-04:00
; #@! TF.GenerationSoftware,Kicad,Pcbnew,(6.0.0)
; #@! TF.FileFunction,Plated,1,2,PTH
FMAT,2
METRIC
; #@! TA.AperFunction,Plated,PTH,ViaDrill
T1C0.400
; #@! TA.AperFunction,Plated,PTH,ComponentDrill
T2C1.000
%
G90
G05
T1
X106.439Y-90.665
T2
X102.108Y-68.072
X102.108Y-70.612
X102.108Y-73.152
X102.108Y-75.692
X102.108Y-79.756
X102.108Y-82.296
X102.108Y-84.836
X102.108Y-87.376
X102.108Y-91.186
X102.108Y-93.726
X102.108Y-96.266
X102.108Y-98.806
X102.108Y-102.606
X102.108Y-105.146
X102.108Y-107.686
X102.108Y-110.226
X113.792Y-88.91
X113.792Y-91.45
X113.792Y-93.99
X113.792Y-96.53
X114.808Y-75.184
X114.808Y-77.724
X114.808Y-80.264
T0
M30
