%FSLAX45Y45*%
G04 Gerber Fmt 4.5, Leading zero omitted, Abs format (unit mm)*
G04 Created by KiCad (PCBNEW (6.0.0)) date 2022-03-13 19:19:59*
%MOMM*%
%LPD*%
G01*
G04 APERTURE LIST*
%TA.AperFunction,Profile*%
%ADD10C,0.100000*%
%TD*%
%ADD11C,0.200000*%
%ADD12C,0.040000*%
%ADD13C,0.100000*%
G04 APERTURE END LIST*
D10*
X11658600Y-10845800D02*
X11658600Y-6959600D01*
X11658600Y-6959600D02*
G75*
G03*
X11303000Y-6604000I-355600J0D01*
G01*
X9906000Y-6604000D02*
X9906000Y-11125200D01*
X10033000Y-11201400D02*
X9906000Y-11201400D01*
X11303000Y-11201400D02*
X10033000Y-11201400D01*
X11303000Y-11201400D02*
G75*
G03*
X11658600Y-10845800I0J355600D01*
G01*
X11303000Y-6604000D02*
X10033000Y-6604000D01*
X9906000Y-11201400D02*
X9906000Y-11125200D01*
X10033000Y-6604000D02*
X9906000Y-6604000D01*
D11*
D12*
X10623900Y-9046500D02*
X10663900Y-9086500D01*
X10663900Y-9046500D02*
X10623900Y-9086500D01*
D13*
X10260800Y-6807200D02*
G75*
G03*
X10260800Y-6807200I-50000J0D01*
G01*
X10260800Y-7061200D02*
G75*
G03*
X10260800Y-7061200I-50000J0D01*
G01*
X10260800Y-7315200D02*
G75*
G03*
X10260800Y-7315200I-50000J0D01*
G01*
X10260800Y-7569200D02*
G75*
G03*
X10260800Y-7569200I-50000J0D01*
G01*
X10260800Y-7975600D02*
G75*
G03*
X10260800Y-7975600I-50000J0D01*
G01*
X10260800Y-8229600D02*
G75*
G03*
X10260800Y-8229600I-50000J0D01*
G01*
X10260800Y-8483600D02*
G75*
G03*
X10260800Y-8483600I-50000J0D01*
G01*
X10260800Y-8737600D02*
G75*
G03*
X10260800Y-8737600I-50000J0D01*
G01*
X10260800Y-9118600D02*
G75*
G03*
X10260800Y-9118600I-50000J0D01*
G01*
X10260800Y-9372600D02*
G75*
G03*
X10260800Y-9372600I-50000J0D01*
G01*
X10260800Y-9626600D02*
G75*
G03*
X10260800Y-9626600I-50000J0D01*
G01*
X10260800Y-9880600D02*
G75*
G03*
X10260800Y-9880600I-50000J0D01*
G01*
X10260800Y-10260600D02*
G75*
G03*
X10260800Y-10260600I-50000J0D01*
G01*
X10260800Y-10514600D02*
G75*
G03*
X10260800Y-10514600I-50000J0D01*
G01*
X10260800Y-10768600D02*
G75*
G03*
X10260800Y-10768600I-50000J0D01*
G01*
X10260800Y-11022600D02*
G75*
G03*
X10260800Y-11022600I-50000J0D01*
G01*
X11429200Y-8891000D02*
G75*
G03*
X11429200Y-8891000I-50000J0D01*
G01*
X11429200Y-9145000D02*
G75*
G03*
X11429200Y-9145000I-50000J0D01*
G01*
X11429200Y-9399000D02*
G75*
G03*
X11429200Y-9399000I-50000J0D01*
G01*
X11429200Y-9653000D02*
G75*
G03*
X11429200Y-9653000I-50000J0D01*
G01*
X11530800Y-7518400D02*
G75*
G03*
X11530800Y-7518400I-50000J0D01*
G01*
X11530800Y-7772400D02*
G75*
G03*
X11530800Y-7772400I-50000J0D01*
G01*
X11530800Y-8026400D02*
G75*
G03*
X11530800Y-8026400I-50000J0D01*
G01*
D11*
X10158619Y-11516876D02*
X10158619Y-11316876D01*
X10206238Y-11316876D01*
X10234810Y-11326400D01*
X10253857Y-11345448D01*
X10263381Y-11364495D01*
X10272905Y-11402590D01*
X10272905Y-11431162D01*
X10263381Y-11469257D01*
X10253857Y-11488305D01*
X10234810Y-11507352D01*
X10206238Y-11516876D01*
X10158619Y-11516876D01*
X10358619Y-11516876D02*
X10358619Y-11383543D01*
X10358619Y-11421638D02*
X10368143Y-11402590D01*
X10377667Y-11393067D01*
X10396714Y-11383543D01*
X10415762Y-11383543D01*
X10482429Y-11516876D02*
X10482429Y-11383543D01*
X10482429Y-11316876D02*
X10472905Y-11326400D01*
X10482429Y-11335924D01*
X10491952Y-11326400D01*
X10482429Y-11316876D01*
X10482429Y-11335924D01*
X10606238Y-11516876D02*
X10587190Y-11507352D01*
X10577667Y-11488305D01*
X10577667Y-11316876D01*
X10711000Y-11516876D02*
X10691952Y-11507352D01*
X10682429Y-11488305D01*
X10682429Y-11316876D01*
X10939571Y-11516876D02*
X10939571Y-11316876D01*
X11006238Y-11459733D01*
X11072905Y-11316876D01*
X11072905Y-11516876D01*
X11253857Y-11516876D02*
X11253857Y-11412114D01*
X11244333Y-11393067D01*
X11225286Y-11383543D01*
X11187190Y-11383543D01*
X11168143Y-11393067D01*
X11253857Y-11507352D02*
X11234809Y-11516876D01*
X11187190Y-11516876D01*
X11168143Y-11507352D01*
X11158619Y-11488305D01*
X11158619Y-11469257D01*
X11168143Y-11450209D01*
X11187190Y-11440686D01*
X11234809Y-11440686D01*
X11253857Y-11431162D01*
X11349095Y-11383543D02*
X11349095Y-11583543D01*
X11349095Y-11393067D02*
X11368143Y-11383543D01*
X11406238Y-11383543D01*
X11425286Y-11393067D01*
X11434809Y-11402590D01*
X11444333Y-11421638D01*
X11444333Y-11478781D01*
X11434809Y-11497828D01*
X11425286Y-11507352D01*
X11406238Y-11516876D01*
X11368143Y-11516876D01*
X11349095Y-11507352D01*
X11530048Y-11497828D02*
X11539571Y-11507352D01*
X11530048Y-11516876D01*
X11520524Y-11507352D01*
X11530048Y-11497828D01*
X11530048Y-11516876D01*
X11530048Y-11393067D02*
X11539571Y-11402590D01*
X11530048Y-11412114D01*
X11520524Y-11402590D01*
X11530048Y-11393067D01*
X11530048Y-11412114D01*
D12*
X9861000Y-11826400D02*
X9901000Y-11866400D01*
X9901000Y-11826400D02*
X9861000Y-11866400D01*
D11*
X10196714Y-11736876D02*
X10215762Y-11736876D01*
X10234810Y-11746400D01*
X10244333Y-11755924D01*
X10253857Y-11774971D01*
X10263381Y-11813067D01*
X10263381Y-11860686D01*
X10253857Y-11898781D01*
X10244333Y-11917828D01*
X10234810Y-11927352D01*
X10215762Y-11936876D01*
X10196714Y-11936876D01*
X10177667Y-11927352D01*
X10168143Y-11917828D01*
X10158619Y-11898781D01*
X10149095Y-11860686D01*
X10149095Y-11813067D01*
X10158619Y-11774971D01*
X10168143Y-11755924D01*
X10177667Y-11746400D01*
X10196714Y-11736876D01*
X10349095Y-11917828D02*
X10358619Y-11927352D01*
X10349095Y-11936876D01*
X10339571Y-11927352D01*
X10349095Y-11917828D01*
X10349095Y-11936876D01*
X10530048Y-11803543D02*
X10530048Y-11936876D01*
X10482429Y-11727352D02*
X10434810Y-11870209D01*
X10558619Y-11870209D01*
X10672905Y-11736876D02*
X10691952Y-11736876D01*
X10711000Y-11746400D01*
X10720524Y-11755924D01*
X10730048Y-11774971D01*
X10739571Y-11813067D01*
X10739571Y-11860686D01*
X10730048Y-11898781D01*
X10720524Y-11917828D01*
X10711000Y-11927352D01*
X10691952Y-11936876D01*
X10672905Y-11936876D01*
X10653857Y-11927352D01*
X10644333Y-11917828D01*
X10634810Y-11898781D01*
X10625286Y-11860686D01*
X10625286Y-11813067D01*
X10634810Y-11774971D01*
X10644333Y-11755924D01*
X10653857Y-11746400D01*
X10672905Y-11736876D01*
X10863381Y-11736876D02*
X10882429Y-11736876D01*
X10901476Y-11746400D01*
X10911000Y-11755924D01*
X10920524Y-11774971D01*
X10930048Y-11813067D01*
X10930048Y-11860686D01*
X10920524Y-11898781D01*
X10911000Y-11917828D01*
X10901476Y-11927352D01*
X10882429Y-11936876D01*
X10863381Y-11936876D01*
X10844333Y-11927352D01*
X10834810Y-11917828D01*
X10825286Y-11898781D01*
X10815762Y-11860686D01*
X10815762Y-11813067D01*
X10825286Y-11774971D01*
X10834810Y-11755924D01*
X10844333Y-11746400D01*
X10863381Y-11736876D01*
X11015762Y-11936876D02*
X11015762Y-11803543D01*
X11015762Y-11822590D02*
X11025286Y-11813067D01*
X11044333Y-11803543D01*
X11072905Y-11803543D01*
X11091952Y-11813067D01*
X11101476Y-11832114D01*
X11101476Y-11936876D01*
X11101476Y-11832114D02*
X11111000Y-11813067D01*
X11130048Y-11803543D01*
X11158619Y-11803543D01*
X11177667Y-11813067D01*
X11187190Y-11832114D01*
X11187190Y-11936876D01*
X11282428Y-11936876D02*
X11282428Y-11803543D01*
X11282428Y-11822590D02*
X11291952Y-11813067D01*
X11311000Y-11803543D01*
X11339571Y-11803543D01*
X11358619Y-11813067D01*
X11368143Y-11832114D01*
X11368143Y-11936876D01*
X11368143Y-11832114D02*
X11377667Y-11813067D01*
X11396714Y-11803543D01*
X11425286Y-11803543D01*
X11444333Y-11813067D01*
X11453857Y-11832114D01*
X11453857Y-11936876D01*
X11844333Y-11727352D02*
X11672905Y-11984495D01*
X12101476Y-11736876D02*
X12120524Y-11736876D01*
X12139571Y-11746400D01*
X12149095Y-11755924D01*
X12158619Y-11774971D01*
X12168143Y-11813067D01*
X12168143Y-11860686D01*
X12158619Y-11898781D01*
X12149095Y-11917828D01*
X12139571Y-11927352D01*
X12120524Y-11936876D01*
X12101476Y-11936876D01*
X12082428Y-11927352D01*
X12072905Y-11917828D01*
X12063381Y-11898781D01*
X12053857Y-11860686D01*
X12053857Y-11813067D01*
X12063381Y-11774971D01*
X12072905Y-11755924D01*
X12082428Y-11746400D01*
X12101476Y-11736876D01*
X12253857Y-11917828D02*
X12263381Y-11927352D01*
X12253857Y-11936876D01*
X12244333Y-11927352D01*
X12253857Y-11917828D01*
X12253857Y-11936876D01*
X12387190Y-11736876D02*
X12406238Y-11736876D01*
X12425286Y-11746400D01*
X12434809Y-11755924D01*
X12444333Y-11774971D01*
X12453857Y-11813067D01*
X12453857Y-11860686D01*
X12444333Y-11898781D01*
X12434809Y-11917828D01*
X12425286Y-11927352D01*
X12406238Y-11936876D01*
X12387190Y-11936876D01*
X12368143Y-11927352D01*
X12358619Y-11917828D01*
X12349095Y-11898781D01*
X12339571Y-11860686D01*
X12339571Y-11813067D01*
X12349095Y-11774971D01*
X12358619Y-11755924D01*
X12368143Y-11746400D01*
X12387190Y-11736876D01*
X12644333Y-11936876D02*
X12530048Y-11936876D01*
X12587190Y-11936876D02*
X12587190Y-11736876D01*
X12568143Y-11765448D01*
X12549095Y-11784495D01*
X12530048Y-11794019D01*
X12825286Y-11736876D02*
X12730048Y-11736876D01*
X12720524Y-11832114D01*
X12730048Y-11822590D01*
X12749095Y-11813067D01*
X12796714Y-11813067D01*
X12815762Y-11822590D01*
X12825286Y-11832114D01*
X12834809Y-11851162D01*
X12834809Y-11898781D01*
X12825286Y-11917828D01*
X12815762Y-11927352D01*
X12796714Y-11936876D01*
X12749095Y-11936876D01*
X12730048Y-11927352D01*
X12720524Y-11917828D01*
X12901476Y-11736876D02*
X13034809Y-11736876D01*
X12949095Y-11936876D01*
X13101476Y-11736876D02*
X13101476Y-11774971D01*
X13177667Y-11736876D02*
X13177667Y-11774971D01*
X13472905Y-12013067D02*
X13463381Y-12003543D01*
X13444333Y-11974971D01*
X13434809Y-11955924D01*
X13425286Y-11927352D01*
X13415762Y-11879733D01*
X13415762Y-11841638D01*
X13425286Y-11794019D01*
X13434809Y-11765448D01*
X13444333Y-11746400D01*
X13463381Y-11717828D01*
X13472905Y-11708305D01*
X13653857Y-11936876D02*
X13539571Y-11936876D01*
X13596714Y-11936876D02*
X13596714Y-11736876D01*
X13577667Y-11765448D01*
X13558619Y-11784495D01*
X13539571Y-11794019D01*
X13891952Y-11936876D02*
X13891952Y-11736876D01*
X13977667Y-11936876D02*
X13977667Y-11832114D01*
X13968143Y-11813067D01*
X13949095Y-11803543D01*
X13920524Y-11803543D01*
X13901476Y-11813067D01*
X13891952Y-11822590D01*
X14101476Y-11936876D02*
X14082428Y-11927352D01*
X14072905Y-11917828D01*
X14063381Y-11898781D01*
X14063381Y-11841638D01*
X14072905Y-11822590D01*
X14082428Y-11813067D01*
X14101476Y-11803543D01*
X14130048Y-11803543D01*
X14149095Y-11813067D01*
X14158619Y-11822590D01*
X14168143Y-11841638D01*
X14168143Y-11898781D01*
X14158619Y-11917828D01*
X14149095Y-11927352D01*
X14130048Y-11936876D01*
X14101476Y-11936876D01*
X14282428Y-11936876D02*
X14263381Y-11927352D01*
X14253857Y-11908305D01*
X14253857Y-11736876D01*
X14434809Y-11927352D02*
X14415762Y-11936876D01*
X14377667Y-11936876D01*
X14358619Y-11927352D01*
X14349095Y-11908305D01*
X14349095Y-11832114D01*
X14358619Y-11813067D01*
X14377667Y-11803543D01*
X14415762Y-11803543D01*
X14434809Y-11813067D01*
X14444333Y-11832114D01*
X14444333Y-11851162D01*
X14349095Y-11870209D01*
X14511000Y-12013067D02*
X14520524Y-12003543D01*
X14539571Y-11974971D01*
X14549095Y-11955924D01*
X14558619Y-11927352D01*
X14568143Y-11879733D01*
X14568143Y-11841638D01*
X14558619Y-11794019D01*
X14549095Y-11765448D01*
X14539571Y-11746400D01*
X14520524Y-11717828D01*
X14511000Y-11708305D01*
D13*
X9901000Y-12110400D02*
G75*
G03*
X9901000Y-12110400I-50000J0D01*
G01*
D11*
X10263381Y-12200876D02*
X10149095Y-12200876D01*
X10206238Y-12200876D02*
X10206238Y-12000876D01*
X10187190Y-12029448D01*
X10168143Y-12048495D01*
X10149095Y-12058019D01*
X10349095Y-12181828D02*
X10358619Y-12191352D01*
X10349095Y-12200876D01*
X10339571Y-12191352D01*
X10349095Y-12181828D01*
X10349095Y-12200876D01*
X10482429Y-12000876D02*
X10501476Y-12000876D01*
X10520524Y-12010400D01*
X10530048Y-12019924D01*
X10539571Y-12038971D01*
X10549095Y-12077067D01*
X10549095Y-12124686D01*
X10539571Y-12162781D01*
X10530048Y-12181828D01*
X10520524Y-12191352D01*
X10501476Y-12200876D01*
X10482429Y-12200876D01*
X10463381Y-12191352D01*
X10453857Y-12181828D01*
X10444333Y-12162781D01*
X10434810Y-12124686D01*
X10434810Y-12077067D01*
X10444333Y-12038971D01*
X10453857Y-12019924D01*
X10463381Y-12010400D01*
X10482429Y-12000876D01*
X10672905Y-12000876D02*
X10691952Y-12000876D01*
X10711000Y-12010400D01*
X10720524Y-12019924D01*
X10730048Y-12038971D01*
X10739571Y-12077067D01*
X10739571Y-12124686D01*
X10730048Y-12162781D01*
X10720524Y-12181828D01*
X10711000Y-12191352D01*
X10691952Y-12200876D01*
X10672905Y-12200876D01*
X10653857Y-12191352D01*
X10644333Y-12181828D01*
X10634810Y-12162781D01*
X10625286Y-12124686D01*
X10625286Y-12077067D01*
X10634810Y-12038971D01*
X10644333Y-12019924D01*
X10653857Y-12010400D01*
X10672905Y-12000876D01*
X10863381Y-12000876D02*
X10882429Y-12000876D01*
X10901476Y-12010400D01*
X10911000Y-12019924D01*
X10920524Y-12038971D01*
X10930048Y-12077067D01*
X10930048Y-12124686D01*
X10920524Y-12162781D01*
X10911000Y-12181828D01*
X10901476Y-12191352D01*
X10882429Y-12200876D01*
X10863381Y-12200876D01*
X10844333Y-12191352D01*
X10834810Y-12181828D01*
X10825286Y-12162781D01*
X10815762Y-12124686D01*
X10815762Y-12077067D01*
X10825286Y-12038971D01*
X10834810Y-12019924D01*
X10844333Y-12010400D01*
X10863381Y-12000876D01*
X11015762Y-12200876D02*
X11015762Y-12067543D01*
X11015762Y-12086590D02*
X11025286Y-12077067D01*
X11044333Y-12067543D01*
X11072905Y-12067543D01*
X11091952Y-12077067D01*
X11101476Y-12096114D01*
X11101476Y-12200876D01*
X11101476Y-12096114D02*
X11111000Y-12077067D01*
X11130048Y-12067543D01*
X11158619Y-12067543D01*
X11177667Y-12077067D01*
X11187190Y-12096114D01*
X11187190Y-12200876D01*
X11282428Y-12200876D02*
X11282428Y-12067543D01*
X11282428Y-12086590D02*
X11291952Y-12077067D01*
X11311000Y-12067543D01*
X11339571Y-12067543D01*
X11358619Y-12077067D01*
X11368143Y-12096114D01*
X11368143Y-12200876D01*
X11368143Y-12096114D02*
X11377667Y-12077067D01*
X11396714Y-12067543D01*
X11425286Y-12067543D01*
X11444333Y-12077067D01*
X11453857Y-12096114D01*
X11453857Y-12200876D01*
X11844333Y-11991352D02*
X11672905Y-12248495D01*
X12101476Y-12000876D02*
X12120524Y-12000876D01*
X12139571Y-12010400D01*
X12149095Y-12019924D01*
X12158619Y-12038971D01*
X12168143Y-12077067D01*
X12168143Y-12124686D01*
X12158619Y-12162781D01*
X12149095Y-12181828D01*
X12139571Y-12191352D01*
X12120524Y-12200876D01*
X12101476Y-12200876D01*
X12082428Y-12191352D01*
X12072905Y-12181828D01*
X12063381Y-12162781D01*
X12053857Y-12124686D01*
X12053857Y-12077067D01*
X12063381Y-12038971D01*
X12072905Y-12019924D01*
X12082428Y-12010400D01*
X12101476Y-12000876D01*
X12253857Y-12181828D02*
X12263381Y-12191352D01*
X12253857Y-12200876D01*
X12244333Y-12191352D01*
X12253857Y-12181828D01*
X12253857Y-12200876D01*
X12387190Y-12000876D02*
X12406238Y-12000876D01*
X12425286Y-12010400D01*
X12434809Y-12019924D01*
X12444333Y-12038971D01*
X12453857Y-12077067D01*
X12453857Y-12124686D01*
X12444333Y-12162781D01*
X12434809Y-12181828D01*
X12425286Y-12191352D01*
X12406238Y-12200876D01*
X12387190Y-12200876D01*
X12368143Y-12191352D01*
X12358619Y-12181828D01*
X12349095Y-12162781D01*
X12339571Y-12124686D01*
X12339571Y-12077067D01*
X12349095Y-12038971D01*
X12358619Y-12019924D01*
X12368143Y-12010400D01*
X12387190Y-12000876D01*
X12520524Y-12000876D02*
X12644333Y-12000876D01*
X12577667Y-12077067D01*
X12606238Y-12077067D01*
X12625286Y-12086590D01*
X12634809Y-12096114D01*
X12644333Y-12115162D01*
X12644333Y-12162781D01*
X12634809Y-12181828D01*
X12625286Y-12191352D01*
X12606238Y-12200876D01*
X12549095Y-12200876D01*
X12530048Y-12191352D01*
X12520524Y-12181828D01*
X12739571Y-12200876D02*
X12777667Y-12200876D01*
X12796714Y-12191352D01*
X12806238Y-12181828D01*
X12825286Y-12153257D01*
X12834809Y-12115162D01*
X12834809Y-12038971D01*
X12825286Y-12019924D01*
X12815762Y-12010400D01*
X12796714Y-12000876D01*
X12758619Y-12000876D01*
X12739571Y-12010400D01*
X12730048Y-12019924D01*
X12720524Y-12038971D01*
X12720524Y-12086590D01*
X12730048Y-12105638D01*
X12739571Y-12115162D01*
X12758619Y-12124686D01*
X12796714Y-12124686D01*
X12815762Y-12115162D01*
X12825286Y-12105638D01*
X12834809Y-12086590D01*
X13006238Y-12067543D02*
X13006238Y-12200876D01*
X12958619Y-11991352D02*
X12911000Y-12134209D01*
X13034809Y-12134209D01*
X13101476Y-12000876D02*
X13101476Y-12038971D01*
X13177667Y-12000876D02*
X13177667Y-12038971D01*
X13472905Y-12277067D02*
X13463381Y-12267543D01*
X13444333Y-12238971D01*
X13434809Y-12219924D01*
X13425286Y-12191352D01*
X13415762Y-12143733D01*
X13415762Y-12105638D01*
X13425286Y-12058019D01*
X13434809Y-12029448D01*
X13444333Y-12010400D01*
X13463381Y-11981828D01*
X13472905Y-11972305D01*
X13539571Y-12019924D02*
X13549095Y-12010400D01*
X13568143Y-12000876D01*
X13615762Y-12000876D01*
X13634809Y-12010400D01*
X13644333Y-12019924D01*
X13653857Y-12038971D01*
X13653857Y-12058019D01*
X13644333Y-12086590D01*
X13530048Y-12200876D01*
X13653857Y-12200876D01*
X13720524Y-12000876D02*
X13844333Y-12000876D01*
X13777667Y-12077067D01*
X13806238Y-12077067D01*
X13825286Y-12086590D01*
X13834809Y-12096114D01*
X13844333Y-12115162D01*
X13844333Y-12162781D01*
X13834809Y-12181828D01*
X13825286Y-12191352D01*
X13806238Y-12200876D01*
X13749095Y-12200876D01*
X13730048Y-12191352D01*
X13720524Y-12181828D01*
X14082428Y-12200876D02*
X14082428Y-12000876D01*
X14168143Y-12200876D02*
X14168143Y-12096114D01*
X14158619Y-12077067D01*
X14139571Y-12067543D01*
X14111000Y-12067543D01*
X14091952Y-12077067D01*
X14082428Y-12086590D01*
X14291952Y-12200876D02*
X14272905Y-12191352D01*
X14263381Y-12181828D01*
X14253857Y-12162781D01*
X14253857Y-12105638D01*
X14263381Y-12086590D01*
X14272905Y-12077067D01*
X14291952Y-12067543D01*
X14320524Y-12067543D01*
X14339571Y-12077067D01*
X14349095Y-12086590D01*
X14358619Y-12105638D01*
X14358619Y-12162781D01*
X14349095Y-12181828D01*
X14339571Y-12191352D01*
X14320524Y-12200876D01*
X14291952Y-12200876D01*
X14472905Y-12200876D02*
X14453857Y-12191352D01*
X14444333Y-12172305D01*
X14444333Y-12000876D01*
X14625286Y-12191352D02*
X14606238Y-12200876D01*
X14568143Y-12200876D01*
X14549095Y-12191352D01*
X14539571Y-12172305D01*
X14539571Y-12096114D01*
X14549095Y-12077067D01*
X14568143Y-12067543D01*
X14606238Y-12067543D01*
X14625286Y-12077067D01*
X14634809Y-12096114D01*
X14634809Y-12115162D01*
X14539571Y-12134209D01*
X14711000Y-12191352D02*
X14730048Y-12200876D01*
X14768143Y-12200876D01*
X14787190Y-12191352D01*
X14796714Y-12172305D01*
X14796714Y-12162781D01*
X14787190Y-12143733D01*
X14768143Y-12134209D01*
X14739571Y-12134209D01*
X14720524Y-12124686D01*
X14711000Y-12105638D01*
X14711000Y-12096114D01*
X14720524Y-12077067D01*
X14739571Y-12067543D01*
X14768143Y-12067543D01*
X14787190Y-12077067D01*
X14863381Y-12277067D02*
X14872905Y-12267543D01*
X14891952Y-12238971D01*
X14901476Y-12219924D01*
X14911000Y-12191352D01*
X14920524Y-12143733D01*
X14920524Y-12105638D01*
X14911000Y-12058019D01*
X14901476Y-12029448D01*
X14891952Y-12010400D01*
X14872905Y-11981828D01*
X14863381Y-11972305D01*
M02*
