%TF.GenerationSoftware,KiCad,Pcbnew,(6.0.0)*%
%TF.CreationDate,2022-03-13T19:19:56-04:00*%
%TF.ProjectId,4 GC port esd board (for wii mini),34204743-2070-46f7-9274-206573642062,rev?*%
%TF.SameCoordinates,Original*%
%TF.FileFunction,Copper,L1,Top*%
%TF.FilePolarity,Positive*%
%FSLAX46Y46*%
G04 Gerber Fmt 4.6, Leading zero omitted, Abs format (unit mm)*
G04 Created by KiCad (PCBNEW (6.0.0)) date 2022-03-13 19:19:56*
%MOMM*%
%LPD*%
G01*
G04 APERTURE LIST*
G04 Aperture macros list*
%AMRoundRect*
0 Rectangle with rounded corners*
0 $1 Rounding radius*
0 $2 $3 $4 $5 $6 $7 $8 $9 X,Y pos of 4 corners*
0 Add a 4 corners polygon primitive as box body*
4,1,4,$2,$3,$4,$5,$6,$7,$8,$9,$2,$3,0*
0 Add four circle primitives for the rounded corners*
1,1,$1+$1,$2,$3*
1,1,$1+$1,$4,$5*
1,1,$1+$1,$6,$7*
1,1,$1+$1,$8,$9*
0 Add four rect primitives between the rounded corners*
20,1,$1+$1,$2,$3,$4,$5,0*
20,1,$1+$1,$4,$5,$6,$7,0*
20,1,$1+$1,$6,$7,$8,$9,0*
20,1,$1+$1,$8,$9,$2,$3,0*%
G04 Aperture macros list end*
%TA.AperFunction,SMDPad,CuDef*%
%ADD10RoundRect,0.225000X-0.250000X0.225000X-0.250000X-0.225000X0.250000X-0.225000X0.250000X0.225000X0*%
%TD*%
%TA.AperFunction,ComponentPad*%
%ADD11R,1.700000X1.700000*%
%TD*%
%TA.AperFunction,ComponentPad*%
%ADD12O,1.700000X1.700000*%
%TD*%
%TA.AperFunction,SMDPad,CuDef*%
%ADD13RoundRect,0.225000X0.250000X-0.225000X0.250000X0.225000X-0.250000X0.225000X-0.250000X-0.225000X0*%
%TD*%
%TA.AperFunction,SMDPad,CuDef*%
%ADD14R,0.600000X1.100000*%
%TD*%
%TA.AperFunction,ViaPad*%
%ADD15C,0.800000*%
%TD*%
%TA.AperFunction,Conductor*%
%ADD16C,0.250000*%
%TD*%
G04 APERTURE END LIST*
D10*
%TO.P,C3,1*%
%TO.N,+5V*%
X104902000Y-79997000D03*
%TO.P,C3,2*%
%TO.N,GND*%
X104902000Y-81547000D03*
%TD*%
D11*
%TO.P,J3,1,Pin_1*%
%TO.N,+3V3*%
X102108000Y-87376000D03*
D12*
%TO.P,J3,2,Pin_2*%
%TO.N,Net-(D1-Pad1)*%
X102108000Y-84836000D03*
%TO.P,J3,3,Pin_3*%
%TO.N,GND*%
X102108000Y-82296000D03*
%TO.P,J3,4,Pin_4*%
%TO.N,+5V*%
X102108000Y-79756000D03*
%TD*%
D10*
%TO.P,C6,1*%
%TO.N,+3V3*%
X104902000Y-98793000D03*
%TO.P,C6,2*%
%TO.N,GND*%
X104902000Y-100343000D03*
%TD*%
D13*
%TO.P,C8,1*%
%TO.N,+3V3*%
X104648000Y-111265000D03*
%TO.P,C8,2*%
%TO.N,GND*%
X104648000Y-109715000D03*
%TD*%
D11*
%TO.P,J6,1,Pin_1*%
%TO.N,Net-(D1-Pad4)*%
X113792000Y-88910000D03*
D12*
%TO.P,J6,2,Pin_2*%
%TO.N,Net-(D1-Pad1)*%
X113792000Y-91450000D03*
%TO.P,J6,3,Pin_3*%
%TO.N,Net-(D2-Pad4)*%
X113792000Y-93990000D03*
%TO.P,J6,4,Pin_4*%
%TO.N,Net-(D2-Pad1)*%
X113792000Y-96530000D03*
%TD*%
D10*
%TO.P,C7,1*%
%TO.N,+5V*%
X104902000Y-101841000D03*
%TO.P,C7,2*%
%TO.N,GND*%
X104902000Y-103391000D03*
%TD*%
%TO.P,C2,1*%
%TO.N,+3V3*%
X104902000Y-75933000D03*
%TO.P,C2,2*%
%TO.N,GND*%
X104902000Y-77483000D03*
%TD*%
D11*
%TO.P,J1,1,Pin_1*%
%TO.N,+3V3*%
X102108000Y-110226000D03*
D12*
%TO.P,J1,2,Pin_2*%
%TO.N,Net-(D2-Pad1)*%
X102108000Y-107686000D03*
%TO.P,J1,3,Pin_3*%
%TO.N,GND*%
X102108000Y-105146000D03*
%TO.P,J1,4,Pin_4*%
%TO.N,+5V*%
X102108000Y-102606000D03*
%TD*%
D11*
%TO.P,J5,1,Pin_1*%
%TO.N,+5V*%
X114808000Y-75184000D03*
D12*
%TO.P,J5,2,Pin_2*%
%TO.N,+3V3*%
X114808000Y-77724000D03*
%TO.P,J5,3,Pin_3*%
%TO.N,GND*%
X114808000Y-80264000D03*
%TD*%
D11*
%TO.P,J4,1,Pin_1*%
%TO.N,+3V3*%
X102108000Y-98806000D03*
D12*
%TO.P,J4,2,Pin_2*%
%TO.N,Net-(D2-Pad4)*%
X102108000Y-96266000D03*
%TO.P,J4,3,Pin_3*%
%TO.N,GND*%
X102108000Y-93726000D03*
%TO.P,J4,4,Pin_4*%
%TO.N,+5V*%
X102108000Y-91186000D03*
%TD*%
D11*
%TO.P,J2,1,Pin_1*%
%TO.N,+3V3*%
X102108000Y-75692000D03*
D12*
%TO.P,J2,2,Pin_2*%
%TO.N,Net-(D1-Pad4)*%
X102108000Y-73152000D03*
%TO.P,J2,3,Pin_3*%
%TO.N,GND*%
X102108000Y-70612000D03*
%TO.P,J2,4,Pin_4*%
%TO.N,+5V*%
X102108000Y-68072000D03*
%TD*%
D10*
%TO.P,C5,1*%
%TO.N,+5V*%
X104902000Y-90665000D03*
%TO.P,C5,2*%
%TO.N,GND*%
X104902000Y-92215000D03*
%TD*%
D14*
%TO.P,D2,1*%
%TO.N,Net-(D2-Pad1)*%
X108270000Y-101834000D03*
%TO.P,D2,2*%
%TO.N,GND*%
X109220000Y-101834000D03*
%TO.P,D2,3*%
%TO.N,Net-(D2-Pad1)*%
X110170000Y-101834000D03*
%TO.P,D2,4*%
%TO.N,Net-(D2-Pad4)*%
X110170000Y-99334000D03*
%TO.P,D2,5*%
%TO.N,+5V*%
X109220000Y-99334000D03*
%TO.P,D2,6*%
%TO.N,Net-(D2-Pad4)*%
X108270000Y-99334000D03*
%TD*%
D10*
%TO.P,C4,1*%
%TO.N,+3V3*%
X104902000Y-87617000D03*
%TO.P,C4,2*%
%TO.N,GND*%
X104902000Y-89167000D03*
%TD*%
D14*
%TO.P,D1,1*%
%TO.N,Net-(D1-Pad1)*%
X108270000Y-79482000D03*
%TO.P,D1,2*%
%TO.N,GND*%
X109220000Y-79482000D03*
%TO.P,D1,3*%
%TO.N,Net-(D1-Pad1)*%
X110170000Y-79482000D03*
%TO.P,D1,4*%
%TO.N,Net-(D1-Pad4)*%
X110170000Y-76982000D03*
%TO.P,D1,5*%
%TO.N,+5V*%
X109220000Y-76982000D03*
%TO.P,D1,6*%
%TO.N,Net-(D1-Pad4)*%
X108270000Y-76982000D03*
%TD*%
D10*
%TO.P,C1,1*%
%TO.N,+5V*%
X104902000Y-68567000D03*
%TO.P,C1,2*%
%TO.N,GND*%
X104902000Y-70117000D03*
%TD*%
D15*
%TO.N,+5V*%
X106439000Y-90665000D03*
%TD*%
D16*
%TO.N,+5V*%
X102108000Y-68072000D02*
X104407000Y-68072000D01*
X109220000Y-76182000D02*
X110218000Y-75184000D01*
X107937000Y-90665000D02*
X106439000Y-90665000D01*
X104407000Y-68072000D02*
X104902000Y-68567000D01*
X109220000Y-76982000D02*
X109220000Y-76182000D01*
X104137000Y-102606000D02*
X104902000Y-101841000D01*
X109220000Y-91948000D02*
X107937000Y-90665000D01*
X102108000Y-79756000D02*
X104661000Y-79756000D01*
X109220000Y-99334000D02*
X109220000Y-91948000D01*
X102108000Y-102606000D02*
X104137000Y-102606000D01*
X110218000Y-75184000D02*
X114808000Y-75184000D01*
X104661000Y-79756000D02*
X104902000Y-79997000D01*
X106439000Y-90665000D02*
X104902000Y-90665000D01*
%TO.N,+3V3*%
X102108000Y-98806000D02*
X104889000Y-98806000D01*
X104661000Y-75692000D02*
X104902000Y-75933000D01*
X104889000Y-98806000D02*
X104902000Y-98793000D01*
X102108000Y-75692000D02*
X104661000Y-75692000D01*
X102108000Y-98806000D02*
X100933489Y-97631489D01*
X100933489Y-97631489D02*
X100933489Y-88550511D01*
X102108000Y-110226000D02*
X103609000Y-110226000D01*
X102108000Y-87376000D02*
X104661000Y-87376000D01*
X104661000Y-87376000D02*
X104902000Y-87617000D01*
X103609000Y-110226000D02*
X104648000Y-111265000D01*
X100933489Y-88550511D02*
X102108000Y-87376000D01*
%TO.N,Net-(D1-Pad1)*%
X110170000Y-78932978D02*
X110170000Y-79482000D01*
X113792000Y-91450000D02*
X110170000Y-87828000D01*
X108270000Y-78932978D02*
X108595489Y-78607489D01*
X108595489Y-78607489D02*
X109844511Y-78607489D01*
X108270000Y-81468000D02*
X108270000Y-79482000D01*
X108270000Y-79482000D02*
X108270000Y-78932978D01*
X102108000Y-84836000D02*
X104902000Y-84836000D01*
X110170000Y-87828000D02*
X110170000Y-79482000D01*
X109844511Y-78607489D02*
X110170000Y-78932978D01*
X104902000Y-84836000D02*
X108270000Y-81468000D01*
%TO.N,Net-(D1-Pad4)*%
X111018000Y-76982000D02*
X110170000Y-76982000D01*
X110170000Y-77531022D02*
X110170000Y-76982000D01*
X104440000Y-73152000D02*
X102108000Y-73152000D01*
X111760000Y-86878000D02*
X111760000Y-77724000D01*
X108270000Y-77398511D02*
X108270000Y-76982000D01*
X109844511Y-77856511D02*
X110170000Y-77531022D01*
X109087489Y-77856511D02*
X109844511Y-77856511D01*
X113792000Y-88910000D02*
X111760000Y-86878000D01*
X109087489Y-77856511D02*
X108728000Y-77856511D01*
X111760000Y-77724000D02*
X111018000Y-76982000D01*
X108728000Y-77856511D02*
X108270000Y-77398511D01*
X108270000Y-76982000D02*
X104440000Y-73152000D01*
%TO.N,Net-(D2-Pad1)*%
X112014000Y-98308000D02*
X112014000Y-99990000D01*
X108270000Y-101834000D02*
X108270000Y-101284978D01*
X109844511Y-100959489D02*
X110170000Y-101284978D01*
X108595489Y-100959489D02*
X109844511Y-100959489D01*
X113792000Y-96530000D02*
X112014000Y-98308000D01*
X108270000Y-101284978D02*
X108595489Y-100959489D01*
X112014000Y-99990000D02*
X110170000Y-101834000D01*
X110170000Y-101284978D02*
X110170000Y-101834000D01*
X102108000Y-107686000D02*
X106182000Y-107686000D01*
X106182000Y-107686000D02*
X108270000Y-105598000D01*
X108270000Y-105598000D02*
X108270000Y-101834000D01*
%TO.N,Net-(D2-Pad4)*%
X108270000Y-99334000D02*
X108270000Y-99883022D01*
X109844511Y-100208511D02*
X110170000Y-99883022D01*
X110170000Y-96332000D02*
X112512000Y-93990000D01*
X108595489Y-100208511D02*
X109844511Y-100208511D01*
X106426000Y-96266000D02*
X102108000Y-96266000D01*
X110170000Y-99883022D02*
X110170000Y-99334000D01*
X108270000Y-99883022D02*
X108595489Y-100208511D01*
X108270000Y-99334000D02*
X108270000Y-98110000D01*
X110170000Y-99334000D02*
X110170000Y-96332000D01*
X108270000Y-98110000D02*
X106426000Y-96266000D01*
X112512000Y-93990000D02*
X113792000Y-93990000D01*
%TD*%
%TA.AperFunction,Conductor*%
%TO.N,GND*%
G36*
X101674793Y-66568002D02*
G01*
X101721286Y-66621658D01*
X101731390Y-66691932D01*
X101701896Y-66756512D01*
X101645817Y-66793765D01*
X101579756Y-66815357D01*
X101381607Y-66918507D01*
X101377474Y-66921610D01*
X101377471Y-66921612D01*
X101331199Y-66956354D01*
X101202965Y-67052635D01*
X101048629Y-67214138D01*
X100922743Y-67398680D01*
X100884011Y-67482121D01*
X100834633Y-67588498D01*
X100828688Y-67601305D01*
X100768989Y-67816570D01*
X100745251Y-68038695D01*
X100745548Y-68043848D01*
X100745548Y-68043851D01*
X100754427Y-68197837D01*
X100758110Y-68261715D01*
X100759247Y-68266761D01*
X100759248Y-68266767D01*
X100765957Y-68296534D01*
X100807222Y-68479639D01*
X100891266Y-68686616D01*
X100893965Y-68691020D01*
X100987700Y-68843982D01*
X101007987Y-68877088D01*
X101154250Y-69045938D01*
X101326126Y-69188632D01*
X101380869Y-69220621D01*
X101399955Y-69231774D01*
X101448679Y-69283412D01*
X101461750Y-69353195D01*
X101435019Y-69418967D01*
X101394562Y-69452327D01*
X101386457Y-69456546D01*
X101377738Y-69462036D01*
X101207433Y-69589905D01*
X101199726Y-69596748D01*
X101052590Y-69750717D01*
X101046104Y-69758727D01*
X100926098Y-69934649D01*
X100921000Y-69943623D01*
X100831338Y-70136783D01*
X100827775Y-70146470D01*
X100772389Y-70346183D01*
X100773912Y-70354607D01*
X100786292Y-70358000D01*
X103426344Y-70358000D01*
X103439875Y-70354027D01*
X103441180Y-70344947D01*
X103399214Y-70177875D01*
X103395894Y-70168124D01*
X103310972Y-69972814D01*
X103306105Y-69963739D01*
X103190426Y-69784926D01*
X103184136Y-69776757D01*
X103040806Y-69619240D01*
X103033273Y-69612215D01*
X102866139Y-69480222D01*
X102857556Y-69474520D01*
X102820602Y-69454120D01*
X102770631Y-69403687D01*
X102755859Y-69334245D01*
X102780975Y-69267839D01*
X102808327Y-69241232D01*
X102837223Y-69220621D01*
X102987860Y-69113173D01*
X103146096Y-68955489D01*
X103155964Y-68941757D01*
X103273435Y-68778277D01*
X103276453Y-68774077D01*
X103278746Y-68769437D01*
X103280446Y-68766608D01*
X103332674Y-68718518D01*
X103388451Y-68705500D01*
X103792500Y-68705500D01*
X103860621Y-68725502D01*
X103907114Y-68779158D01*
X103918500Y-68831500D01*
X103918500Y-68840732D01*
X103929113Y-68943019D01*
X103931295Y-68949559D01*
X103980537Y-69097153D01*
X103983244Y-69105268D01*
X103987096Y-69111492D01*
X103987096Y-69111493D01*
X104061528Y-69231774D01*
X104073248Y-69250713D01*
X104078430Y-69255886D01*
X104082977Y-69261623D01*
X104081170Y-69263055D01*
X104109902Y-69315575D01*
X104104892Y-69386395D01*
X104081501Y-69422853D01*
X104082552Y-69423683D01*
X104069002Y-69440840D01*
X103986996Y-69573880D01*
X103980849Y-69587061D01*
X103931509Y-69735814D01*
X103928642Y-69749190D01*
X103919328Y-69840097D01*
X103919071Y-69845126D01*
X103923475Y-69860124D01*
X103924865Y-69861329D01*
X103932548Y-69863000D01*
X105866885Y-69863000D01*
X105882124Y-69858525D01*
X105883329Y-69857135D01*
X105885000Y-69849452D01*
X105885000Y-69846562D01*
X105884663Y-69840047D01*
X105875106Y-69747943D01*
X105872212Y-69734544D01*
X105870263Y-69728703D01*
X110920743Y-69728703D01*
X110958268Y-70013734D01*
X111034129Y-70291036D01*
X111035813Y-70294984D01*
X111122487Y-70498186D01*
X111146923Y-70555476D01*
X111294561Y-70802161D01*
X111474313Y-71026528D01*
X111682851Y-71224423D01*
X111916317Y-71392186D01*
X111920112Y-71394195D01*
X111920113Y-71394196D01*
X111941869Y-71405715D01*
X112170392Y-71526712D01*
X112440373Y-71625511D01*
X112721264Y-71686755D01*
X112749841Y-71689004D01*
X112944282Y-71704307D01*
X112944291Y-71704307D01*
X112946739Y-71704500D01*
X113102271Y-71704500D01*
X113104407Y-71704354D01*
X113104418Y-71704354D01*
X113312548Y-71690165D01*
X113312554Y-71690164D01*
X113316825Y-71689873D01*
X113321020Y-71689004D01*
X113321022Y-71689004D01*
X113513523Y-71649139D01*
X113598342Y-71631574D01*
X113869343Y-71535607D01*
X114124812Y-71403750D01*
X114128313Y-71401289D01*
X114128317Y-71401287D01*
X114259367Y-71309183D01*
X114360023Y-71238441D01*
X114438403Y-71165606D01*
X114567479Y-71045661D01*
X114567481Y-71045658D01*
X114570622Y-71042740D01*
X114752713Y-70820268D01*
X114902927Y-70575142D01*
X114989965Y-70376865D01*
X115016757Y-70315830D01*
X115018483Y-70311898D01*
X115097244Y-70035406D01*
X115137751Y-69750784D01*
X115137830Y-69735814D01*
X115139235Y-69467583D01*
X115139235Y-69467576D01*
X115139257Y-69463297D01*
X115136301Y-69440840D01*
X115112706Y-69261623D01*
X115101732Y-69178266D01*
X115025871Y-68900964D01*
X114934443Y-68686616D01*
X114914763Y-68640476D01*
X114914761Y-68640472D01*
X114913077Y-68636524D01*
X114765439Y-68389839D01*
X114585687Y-68165472D01*
X114377149Y-67967577D01*
X114143683Y-67799814D01*
X114121843Y-67788250D01*
X114073111Y-67762448D01*
X113889608Y-67665288D01*
X113735324Y-67608828D01*
X113623658Y-67567964D01*
X113623656Y-67567963D01*
X113619627Y-67566489D01*
X113338736Y-67505245D01*
X113303438Y-67502467D01*
X113115718Y-67487693D01*
X113115709Y-67487693D01*
X113113261Y-67487500D01*
X112957729Y-67487500D01*
X112955593Y-67487646D01*
X112955582Y-67487646D01*
X112747452Y-67501835D01*
X112747446Y-67501836D01*
X112743175Y-67502127D01*
X112738980Y-67502996D01*
X112738978Y-67502996D01*
X112645347Y-67522386D01*
X112461658Y-67560426D01*
X112190657Y-67656393D01*
X111935188Y-67788250D01*
X111931687Y-67790711D01*
X111931683Y-67790713D01*
X111887583Y-67821707D01*
X111699977Y-67953559D01*
X111684892Y-67967577D01*
X111572520Y-68072000D01*
X111489378Y-68149260D01*
X111307287Y-68371732D01*
X111157073Y-68616858D01*
X111041517Y-68880102D01*
X111040342Y-68884229D01*
X111040341Y-68884230D01*
X111016249Y-68968807D01*
X110962756Y-69156594D01*
X110922249Y-69441216D01*
X110922227Y-69445505D01*
X110922226Y-69445512D01*
X110920765Y-69724417D01*
X110920743Y-69728703D01*
X105870263Y-69728703D01*
X105822619Y-69585893D01*
X105816445Y-69572714D01*
X105734212Y-69439827D01*
X105720629Y-69422689D01*
X105722559Y-69421159D01*
X105694097Y-69369120D01*
X105699113Y-69298301D01*
X105722799Y-69261383D01*
X105721843Y-69260628D01*
X105726381Y-69254882D01*
X105731552Y-69249702D01*
X105749478Y-69220621D01*
X105817462Y-69110331D01*
X105817463Y-69110329D01*
X105821302Y-69104101D01*
X105875149Y-68941757D01*
X105885500Y-68840732D01*
X105885500Y-68293268D01*
X105874887Y-68190981D01*
X105837153Y-68077880D01*
X105823073Y-68035676D01*
X105823072Y-68035674D01*
X105820756Y-68028732D01*
X105772714Y-67951096D01*
X105734606Y-67889515D01*
X105730752Y-67883287D01*
X105609702Y-67762448D01*
X105464101Y-67672698D01*
X105301757Y-67618851D01*
X105294920Y-67618151D01*
X105294918Y-67618150D01*
X105253599Y-67613917D01*
X105200732Y-67608500D01*
X104888739Y-67608500D01*
X104820618Y-67588498D01*
X104802487Y-67574350D01*
X104788105Y-67560845D01*
X104788103Y-67560843D01*
X104782321Y-67555414D01*
X104775375Y-67551595D01*
X104775372Y-67551593D01*
X104764566Y-67545652D01*
X104748047Y-67534801D01*
X104747583Y-67534441D01*
X104732041Y-67522386D01*
X104724772Y-67519241D01*
X104724768Y-67519238D01*
X104691463Y-67504826D01*
X104680813Y-67499609D01*
X104642060Y-67478305D01*
X104622437Y-67473267D01*
X104603734Y-67466863D01*
X104592420Y-67461967D01*
X104592419Y-67461967D01*
X104585145Y-67458819D01*
X104577322Y-67457580D01*
X104577312Y-67457577D01*
X104541476Y-67451901D01*
X104529856Y-67449495D01*
X104494711Y-67440472D01*
X104494710Y-67440472D01*
X104487030Y-67438500D01*
X104466776Y-67438500D01*
X104447065Y-67436949D01*
X104434886Y-67435020D01*
X104427057Y-67433780D01*
X104419165Y-67434526D01*
X104383039Y-67437941D01*
X104371181Y-67438500D01*
X103384805Y-67438500D01*
X103316684Y-67418498D01*
X103279013Y-67380940D01*
X103190822Y-67244617D01*
X103190820Y-67244614D01*
X103188014Y-67240277D01*
X103037670Y-67075051D01*
X103033619Y-67071852D01*
X103033615Y-67071848D01*
X102866414Y-66939800D01*
X102866410Y-66939798D01*
X102862359Y-66936598D01*
X102666789Y-66828638D01*
X102661920Y-66826914D01*
X102661916Y-66826912D01*
X102565509Y-66792773D01*
X102507973Y-66751179D01*
X102482057Y-66685081D01*
X102495991Y-66615465D01*
X102545350Y-66564434D01*
X102607569Y-66548000D01*
X112980672Y-66548000D01*
X113000057Y-66549500D01*
X113014858Y-66551805D01*
X113014861Y-66551805D01*
X113023730Y-66553186D01*
X113032631Y-66552022D01*
X113032635Y-66552022D01*
X113042411Y-66550743D01*
X113065342Y-66549852D01*
X113342003Y-66564351D01*
X113355119Y-66565729D01*
X113657193Y-66613573D01*
X113670093Y-66616315D01*
X113952299Y-66691932D01*
X113965510Y-66695472D01*
X113978053Y-66699548D01*
X114263565Y-66809145D01*
X114275614Y-66814509D01*
X114548120Y-66953358D01*
X114559536Y-66959949D01*
X114816042Y-67126526D01*
X114826702Y-67134272D01*
X114962967Y-67244617D01*
X115064379Y-67326739D01*
X115074180Y-67335564D01*
X115290436Y-67551820D01*
X115299261Y-67561621D01*
X115490519Y-67797804D01*
X115491726Y-67799295D01*
X115499474Y-67809958D01*
X115651366Y-68043851D01*
X115666048Y-68066459D01*
X115672642Y-68077880D01*
X115811491Y-68350386D01*
X115816855Y-68362435D01*
X115926452Y-68647947D01*
X115930528Y-68660489D01*
X115942588Y-68705500D01*
X116009685Y-68955907D01*
X116012427Y-68968807D01*
X116046721Y-69185327D01*
X116060271Y-69270881D01*
X116061649Y-69283997D01*
X116074306Y-69525500D01*
X116075764Y-69553330D01*
X116074436Y-69579312D01*
X116074195Y-69580856D01*
X116074195Y-69580860D01*
X116072814Y-69589730D01*
X116073978Y-69598632D01*
X116073978Y-69598635D01*
X116076936Y-69621251D01*
X116078000Y-69637589D01*
X116078000Y-73767081D01*
X116057998Y-73835202D01*
X116004342Y-73881695D01*
X115934068Y-73891799D01*
X115905164Y-73882161D01*
X115904705Y-73883385D01*
X115768316Y-73832255D01*
X115706134Y-73825500D01*
X113909866Y-73825500D01*
X113847684Y-73832255D01*
X113711295Y-73883385D01*
X113594739Y-73970739D01*
X113507385Y-74087295D01*
X113456255Y-74223684D01*
X113449500Y-74285866D01*
X113449500Y-74424500D01*
X113429498Y-74492621D01*
X113375842Y-74539114D01*
X113323500Y-74550500D01*
X110296767Y-74550500D01*
X110285584Y-74549973D01*
X110278091Y-74548298D01*
X110270165Y-74548547D01*
X110270164Y-74548547D01*
X110210014Y-74550438D01*
X110206055Y-74550500D01*
X110178144Y-74550500D01*
X110174210Y-74550997D01*
X110174209Y-74550997D01*
X110174144Y-74551005D01*
X110162307Y-74551938D01*
X110130490Y-74552938D01*
X110126029Y-74553078D01*
X110118110Y-74553327D01*
X110100454Y-74558456D01*
X110098658Y-74558978D01*
X110079306Y-74562986D01*
X110072235Y-74563880D01*
X110059203Y-74565526D01*
X110051834Y-74568443D01*
X110051832Y-74568444D01*
X110018097Y-74581800D01*
X110006869Y-74585645D01*
X109964407Y-74597982D01*
X109957584Y-74602017D01*
X109957582Y-74602018D01*
X109946972Y-74608293D01*
X109929224Y-74616988D01*
X109910383Y-74624448D01*
X109903967Y-74629110D01*
X109903966Y-74629110D01*
X109874613Y-74650436D01*
X109864693Y-74656952D01*
X109833465Y-74675420D01*
X109833462Y-74675422D01*
X109826638Y-74679458D01*
X109812317Y-74693779D01*
X109797284Y-74706619D01*
X109780893Y-74718528D01*
X109775843Y-74724632D01*
X109775838Y-74724637D01*
X109752707Y-74752598D01*
X109744717Y-74761379D01*
X108827742Y-75678353D01*
X108819463Y-75685887D01*
X108812982Y-75690000D01*
X108775915Y-75729473D01*
X108766357Y-75739651D01*
X108763602Y-75742493D01*
X108743865Y-75762230D01*
X108741385Y-75765427D01*
X108733682Y-75774447D01*
X108703414Y-75806679D01*
X108699595Y-75813625D01*
X108699593Y-75813628D01*
X108693652Y-75824434D01*
X108682801Y-75840953D01*
X108670386Y-75856959D01*
X108668082Y-75862283D01*
X108616881Y-75910091D01*
X108560319Y-75923500D01*
X108159594Y-75923500D01*
X108091473Y-75903498D01*
X108070499Y-75886595D01*
X106517405Y-74333500D01*
X104943652Y-72759747D01*
X104936112Y-72751461D01*
X104932000Y-72744982D01*
X104882348Y-72698356D01*
X104879507Y-72695602D01*
X104859770Y-72675865D01*
X104856573Y-72673385D01*
X104847551Y-72665680D01*
X104821100Y-72640841D01*
X104815321Y-72635414D01*
X104808375Y-72631595D01*
X104808372Y-72631593D01*
X104797566Y-72625652D01*
X104781047Y-72614801D01*
X104780583Y-72614441D01*
X104765041Y-72602386D01*
X104757772Y-72599241D01*
X104757768Y-72599238D01*
X104724463Y-72584826D01*
X104713813Y-72579609D01*
X104675060Y-72558305D01*
X104655437Y-72553267D01*
X104636734Y-72546863D01*
X104625420Y-72541967D01*
X104625419Y-72541967D01*
X104618145Y-72538819D01*
X104610322Y-72537580D01*
X104610312Y-72537577D01*
X104574476Y-72531901D01*
X104562856Y-72529495D01*
X104527711Y-72520472D01*
X104527710Y-72520472D01*
X104520030Y-72518500D01*
X104499776Y-72518500D01*
X104480065Y-72516949D01*
X104467886Y-72515020D01*
X104460057Y-72513780D01*
X104452165Y-72514526D01*
X104416039Y-72517941D01*
X104404181Y-72518500D01*
X103384805Y-72518500D01*
X103316684Y-72498498D01*
X103279013Y-72460940D01*
X103190822Y-72324617D01*
X103190820Y-72324614D01*
X103188014Y-72320277D01*
X103037670Y-72155051D01*
X103033619Y-72151852D01*
X103033615Y-72151848D01*
X102866414Y-72019800D01*
X102866410Y-72019798D01*
X102862359Y-72016598D01*
X102820569Y-71993529D01*
X102770598Y-71943097D01*
X102755826Y-71873654D01*
X102780942Y-71807248D01*
X102808294Y-71780641D01*
X102983328Y-71655792D01*
X102991200Y-71649139D01*
X103142052Y-71498812D01*
X103148730Y-71490965D01*
X103273003Y-71318020D01*
X103278313Y-71309183D01*
X103372670Y-71118267D01*
X103376469Y-71108672D01*
X103438377Y-70904910D01*
X103440555Y-70894837D01*
X103441986Y-70883962D01*
X103439775Y-70869778D01*
X103426617Y-70866000D01*
X100791225Y-70866000D01*
X100777694Y-70869973D01*
X100776257Y-70879966D01*
X100806565Y-71014446D01*
X100809645Y-71024275D01*
X100889770Y-71221603D01*
X100894413Y-71230794D01*
X101005694Y-71412388D01*
X101011777Y-71420699D01*
X101151213Y-71581667D01*
X101158580Y-71588883D01*
X101322434Y-71724916D01*
X101330881Y-71730831D01*
X101399969Y-71771203D01*
X101448693Y-71822842D01*
X101461764Y-71892625D01*
X101435033Y-71958396D01*
X101394584Y-71991752D01*
X101381607Y-71998507D01*
X101377474Y-72001610D01*
X101377471Y-72001612D01*
X101353247Y-72019800D01*
X101202965Y-72132635D01*
X101048629Y-72294138D01*
X100922743Y-72478680D01*
X100884011Y-72562121D01*
X100847471Y-72640841D01*
X100828688Y-72681305D01*
X100768989Y-72896570D01*
X100745251Y-73118695D01*
X100758110Y-73341715D01*
X100759247Y-73346761D01*
X100759248Y-73346767D01*
X100783304Y-73453508D01*
X100807222Y-73559639D01*
X100891266Y-73766616D01*
X101007987Y-73957088D01*
X101154250Y-74125938D01*
X101158230Y-74129242D01*
X101162981Y-74133187D01*
X101202616Y-74192090D01*
X101204113Y-74263071D01*
X101166997Y-74323593D01*
X101126724Y-74348112D01*
X101011295Y-74391385D01*
X100894739Y-74478739D01*
X100807385Y-74595295D01*
X100756255Y-74731684D01*
X100749500Y-74793866D01*
X100749500Y-76590134D01*
X100756255Y-76652316D01*
X100807385Y-76788705D01*
X100894739Y-76905261D01*
X101011295Y-76992615D01*
X101147684Y-77043745D01*
X101209866Y-77050500D01*
X103006134Y-77050500D01*
X103068316Y-77043745D01*
X103204705Y-76992615D01*
X103321261Y-76905261D01*
X103408615Y-76788705D01*
X103459745Y-76652316D01*
X103466500Y-76590134D01*
X103466500Y-76451500D01*
X103486502Y-76383379D01*
X103540158Y-76336886D01*
X103592500Y-76325500D01*
X103843821Y-76325500D01*
X103911942Y-76345502D01*
X103958435Y-76399158D01*
X103963344Y-76411623D01*
X103980924Y-76464315D01*
X103983244Y-76471268D01*
X104073248Y-76616713D01*
X104078430Y-76621886D01*
X104082977Y-76627623D01*
X104081170Y-76629055D01*
X104109902Y-76681575D01*
X104104892Y-76752395D01*
X104081501Y-76788853D01*
X104082552Y-76789683D01*
X104069002Y-76806840D01*
X103986996Y-76939880D01*
X103980849Y-76953061D01*
X103931509Y-77101814D01*
X103928642Y-77115190D01*
X103919328Y-77206097D01*
X103919071Y-77211126D01*
X103923475Y-77226124D01*
X103924865Y-77227329D01*
X103932548Y-77229000D01*
X105866885Y-77229000D01*
X105882124Y-77224525D01*
X105883329Y-77223135D01*
X105885000Y-77215452D01*
X105885000Y-77212562D01*
X105884663Y-77206047D01*
X105875106Y-77113943D01*
X105872212Y-77100544D01*
X105822619Y-76951893D01*
X105816445Y-76938714D01*
X105734212Y-76805827D01*
X105720629Y-76788689D01*
X105722559Y-76787159D01*
X105694097Y-76735120D01*
X105699113Y-76664301D01*
X105722799Y-76627383D01*
X105721843Y-76626628D01*
X105726381Y-76620882D01*
X105731552Y-76615702D01*
X105735393Y-76609471D01*
X105817462Y-76476331D01*
X105817463Y-76476329D01*
X105821302Y-76470101D01*
X105875149Y-76307757D01*
X105877185Y-76287891D01*
X105885172Y-76209930D01*
X105885500Y-76206732D01*
X105885500Y-75797594D01*
X105905502Y-75729473D01*
X105959158Y-75682980D01*
X106029432Y-75672876D01*
X106094012Y-75702370D01*
X106100593Y-75708497D01*
X106764062Y-76371967D01*
X107424595Y-77032500D01*
X107458621Y-77094812D01*
X107461500Y-77121595D01*
X107461500Y-77580134D01*
X107468255Y-77642316D01*
X107519385Y-77778705D01*
X107606739Y-77895261D01*
X107723295Y-77982615D01*
X107859684Y-78033745D01*
X107921866Y-78040500D01*
X107962383Y-78040500D01*
X108030504Y-78060502D01*
X108076997Y-78114158D01*
X108087101Y-78184432D01*
X108057607Y-78249012D01*
X108051482Y-78255592D01*
X107973244Y-78333829D01*
X107906064Y-78401009D01*
X107858648Y-78427491D01*
X107859684Y-78430255D01*
X107723295Y-78481385D01*
X107606739Y-78568739D01*
X107519385Y-78685295D01*
X107468255Y-78821684D01*
X107461500Y-78883866D01*
X107461500Y-80080134D01*
X107468255Y-80142316D01*
X107519385Y-80278705D01*
X107540326Y-80306646D01*
X107606739Y-80395261D01*
X107605135Y-80396463D01*
X107633621Y-80448630D01*
X107636500Y-80475413D01*
X107636500Y-81153405D01*
X107616498Y-81221526D01*
X107599595Y-81242500D01*
X104676500Y-84165595D01*
X104614188Y-84199621D01*
X104587405Y-84202500D01*
X103384805Y-84202500D01*
X103316684Y-84182498D01*
X103279013Y-84144940D01*
X103190822Y-84008617D01*
X103190820Y-84008614D01*
X103188014Y-84004277D01*
X103037670Y-83839051D01*
X103033619Y-83835852D01*
X103033615Y-83835848D01*
X102866414Y-83703800D01*
X102866410Y-83703798D01*
X102862359Y-83700598D01*
X102820569Y-83677529D01*
X102770598Y-83627097D01*
X102755826Y-83557654D01*
X102780942Y-83491248D01*
X102808294Y-83464641D01*
X102983328Y-83339792D01*
X102991200Y-83333139D01*
X103142052Y-83182812D01*
X103148730Y-83174965D01*
X103273003Y-83002020D01*
X103278313Y-82993183D01*
X103372670Y-82802267D01*
X103376469Y-82792672D01*
X103438377Y-82588910D01*
X103440555Y-82578837D01*
X103441986Y-82567962D01*
X103439775Y-82553778D01*
X103426617Y-82550000D01*
X100791225Y-82550000D01*
X100777694Y-82553973D01*
X100776257Y-82563966D01*
X100806565Y-82698446D01*
X100809645Y-82708275D01*
X100889770Y-82905603D01*
X100894413Y-82914794D01*
X101005694Y-83096388D01*
X101011777Y-83104699D01*
X101151213Y-83265667D01*
X101158580Y-83272883D01*
X101322434Y-83408916D01*
X101330881Y-83414831D01*
X101399969Y-83455203D01*
X101448693Y-83506842D01*
X101461764Y-83576625D01*
X101435033Y-83642396D01*
X101394584Y-83675752D01*
X101381607Y-83682507D01*
X101377474Y-83685610D01*
X101377471Y-83685612D01*
X101353247Y-83703800D01*
X101202965Y-83816635D01*
X101048629Y-83978138D01*
X100922743Y-84162680D01*
X100828688Y-84365305D01*
X100768989Y-84580570D01*
X100745251Y-84802695D01*
X100758110Y-85025715D01*
X100759247Y-85030761D01*
X100759248Y-85030767D01*
X100783304Y-85137508D01*
X100807222Y-85243639D01*
X100867014Y-85390890D01*
X100884662Y-85434351D01*
X100891266Y-85450616D01*
X101007987Y-85641088D01*
X101154250Y-85809938D01*
X101158230Y-85813242D01*
X101162981Y-85817187D01*
X101202616Y-85876090D01*
X101204113Y-85947071D01*
X101166997Y-86007593D01*
X101126724Y-86032112D01*
X101011295Y-86075385D01*
X100894739Y-86162739D01*
X100807385Y-86279295D01*
X100756255Y-86415684D01*
X100749500Y-86477866D01*
X100749500Y-87786405D01*
X100729498Y-87854526D01*
X100712595Y-87875500D01*
X100541236Y-88046859D01*
X100532950Y-88054399D01*
X100526471Y-88058511D01*
X100521046Y-88064288D01*
X100479846Y-88108162D01*
X100477091Y-88111004D01*
X100457354Y-88130741D01*
X100454874Y-88133938D01*
X100447171Y-88142958D01*
X100416903Y-88175190D01*
X100413084Y-88182136D01*
X100413082Y-88182139D01*
X100407141Y-88192945D01*
X100396290Y-88209464D01*
X100383875Y-88225470D01*
X100380730Y-88232739D01*
X100380727Y-88232743D01*
X100366315Y-88266048D01*
X100361098Y-88276698D01*
X100339794Y-88315451D01*
X100337823Y-88323126D01*
X100337823Y-88323127D01*
X100334756Y-88335073D01*
X100328352Y-88353777D01*
X100320308Y-88372366D01*
X100319069Y-88380189D01*
X100319066Y-88380199D01*
X100313390Y-88416035D01*
X100310984Y-88427655D01*
X100301961Y-88462800D01*
X100299989Y-88470481D01*
X100299989Y-88490735D01*
X100298438Y-88510445D01*
X100295269Y-88530454D01*
X100296015Y-88538346D01*
X100299430Y-88574472D01*
X100299989Y-88586330D01*
X100299989Y-97552722D01*
X100299462Y-97563905D01*
X100297787Y-97571398D01*
X100298036Y-97579324D01*
X100298036Y-97579325D01*
X100299927Y-97639475D01*
X100299989Y-97643434D01*
X100299989Y-97671345D01*
X100300486Y-97675279D01*
X100300486Y-97675280D01*
X100300494Y-97675345D01*
X100301427Y-97687182D01*
X100302816Y-97731378D01*
X100308467Y-97750828D01*
X100312476Y-97770189D01*
X100315015Y-97790286D01*
X100317934Y-97797657D01*
X100317934Y-97797659D01*
X100331293Y-97831401D01*
X100335138Y-97842631D01*
X100345260Y-97877472D01*
X100347471Y-97885082D01*
X100351504Y-97891901D01*
X100351506Y-97891906D01*
X100357782Y-97902517D01*
X100366477Y-97920265D01*
X100373937Y-97939106D01*
X100378599Y-97945522D01*
X100378599Y-97945523D01*
X100399925Y-97974876D01*
X100406441Y-97984796D01*
X100412139Y-97994430D01*
X100428947Y-98022851D01*
X100443268Y-98037172D01*
X100456108Y-98052205D01*
X100468017Y-98068596D01*
X100474123Y-98073647D01*
X100502094Y-98096787D01*
X100510873Y-98104777D01*
X100712595Y-98306499D01*
X100746621Y-98368811D01*
X100749500Y-98395594D01*
X100749500Y-99704134D01*
X100756255Y-99766316D01*
X100807385Y-99902705D01*
X100894739Y-100019261D01*
X101011295Y-100106615D01*
X101147684Y-100157745D01*
X101209866Y-100164500D01*
X103006134Y-100164500D01*
X103068316Y-100157745D01*
X103204705Y-100106615D01*
X103321261Y-100019261D01*
X103408615Y-99902705D01*
X103459745Y-99766316D01*
X103466500Y-99704134D01*
X103466500Y-99565500D01*
X103486502Y-99497379D01*
X103540158Y-99450886D01*
X103592500Y-99439500D01*
X103983924Y-99439500D01*
X104052045Y-99459502D01*
X104072214Y-99477765D01*
X104073256Y-99476721D01*
X104075828Y-99479289D01*
X104077724Y-99482754D01*
X104082662Y-99487226D01*
X104082968Y-99487612D01*
X104081164Y-99489042D01*
X104109902Y-99541575D01*
X104104892Y-99612395D01*
X104081501Y-99648853D01*
X104082552Y-99649683D01*
X104069002Y-99666840D01*
X103986996Y-99799880D01*
X103980849Y-99813061D01*
X103931509Y-99961814D01*
X103928642Y-99975190D01*
X103919328Y-100066097D01*
X103919071Y-100071126D01*
X103923475Y-100086124D01*
X103924865Y-100087329D01*
X103932548Y-100089000D01*
X105866885Y-100089000D01*
X105882124Y-100084525D01*
X105883329Y-100083135D01*
X105885000Y-100075452D01*
X105885000Y-100072562D01*
X105884663Y-100066047D01*
X105875106Y-99973943D01*
X105872212Y-99960544D01*
X105822619Y-99811893D01*
X105816445Y-99798714D01*
X105734212Y-99665827D01*
X105720629Y-99648689D01*
X105722559Y-99647159D01*
X105694097Y-99595120D01*
X105699113Y-99524301D01*
X105722799Y-99487383D01*
X105721843Y-99486628D01*
X105726381Y-99480882D01*
X105731552Y-99475702D01*
X105821302Y-99330101D01*
X105875149Y-99167757D01*
X105885500Y-99066732D01*
X105885500Y-98519268D01*
X105874887Y-98416981D01*
X105858335Y-98367370D01*
X105823073Y-98261676D01*
X105823072Y-98261674D01*
X105820756Y-98254732D01*
X105730752Y-98109287D01*
X105609702Y-97988448D01*
X105600797Y-97982959D01*
X105470331Y-97902538D01*
X105470329Y-97902537D01*
X105464101Y-97898698D01*
X105301757Y-97844851D01*
X105294920Y-97844151D01*
X105294918Y-97844150D01*
X105244944Y-97839030D01*
X105200732Y-97834500D01*
X104603268Y-97834500D01*
X104600022Y-97834837D01*
X104600018Y-97834837D01*
X104566789Y-97838285D01*
X104500981Y-97845113D01*
X104494440Y-97847295D01*
X104494441Y-97847295D01*
X104345676Y-97896927D01*
X104345674Y-97896928D01*
X104338732Y-97899244D01*
X104332508Y-97903096D01*
X104332507Y-97903096D01*
X104274316Y-97939106D01*
X104193287Y-97989248D01*
X104072448Y-98110298D01*
X104068607Y-98116529D01*
X104064070Y-98122274D01*
X104062056Y-98120683D01*
X104018241Y-98160112D01*
X103963759Y-98172500D01*
X103592500Y-98172500D01*
X103524379Y-98152498D01*
X103477886Y-98098842D01*
X103466500Y-98046500D01*
X103466500Y-97907866D01*
X103459745Y-97845684D01*
X103408615Y-97709295D01*
X103321261Y-97592739D01*
X103204705Y-97505385D01*
X103192132Y-97500672D01*
X103086203Y-97460960D01*
X103029439Y-97418318D01*
X103004739Y-97351756D01*
X103019947Y-97282408D01*
X103041493Y-97253727D01*
X103142435Y-97153137D01*
X103146096Y-97149489D01*
X103276453Y-96968077D01*
X103278746Y-96963437D01*
X103280446Y-96960608D01*
X103332674Y-96912518D01*
X103388451Y-96899500D01*
X106111406Y-96899500D01*
X106179527Y-96919502D01*
X106200501Y-96936405D01*
X107562951Y-98298856D01*
X107596976Y-98361166D01*
X107591911Y-98431981D01*
X107574681Y-98463513D01*
X107519385Y-98537295D01*
X107468255Y-98673684D01*
X107461500Y-98735866D01*
X107461500Y-99932134D01*
X107468255Y-99994316D01*
X107519385Y-100130705D01*
X107606739Y-100247261D01*
X107723295Y-100334615D01*
X107731703Y-100337767D01*
X107859684Y-100385745D01*
X107858652Y-100388497D01*
X107906065Y-100414992D01*
X107954986Y-100463912D01*
X107985979Y-100494905D01*
X108020003Y-100557216D01*
X108014939Y-100628032D01*
X107985978Y-100673095D01*
X107906066Y-100753007D01*
X107858651Y-100779499D01*
X107859684Y-100782255D01*
X107723295Y-100833385D01*
X107606739Y-100920739D01*
X107519385Y-101037295D01*
X107468255Y-101173684D01*
X107461500Y-101235866D01*
X107461500Y-102432134D01*
X107468255Y-102494316D01*
X107519385Y-102630705D01*
X107581682Y-102713827D01*
X107606739Y-102747261D01*
X107605135Y-102748463D01*
X107633621Y-102800630D01*
X107636500Y-102827413D01*
X107636500Y-105283406D01*
X107616498Y-105351527D01*
X107599595Y-105372501D01*
X105956500Y-107015595D01*
X105894188Y-107049621D01*
X105867405Y-107052500D01*
X103384805Y-107052500D01*
X103316684Y-107032498D01*
X103279013Y-106994940D01*
X103190822Y-106858617D01*
X103190820Y-106858614D01*
X103188014Y-106854277D01*
X103037670Y-106689051D01*
X103033619Y-106685852D01*
X103033615Y-106685848D01*
X102866414Y-106553800D01*
X102866410Y-106553798D01*
X102862359Y-106550598D01*
X102820569Y-106527529D01*
X102770598Y-106477097D01*
X102755826Y-106407654D01*
X102780942Y-106341248D01*
X102808294Y-106314641D01*
X102983328Y-106189792D01*
X102991200Y-106183139D01*
X103142052Y-106032812D01*
X103148730Y-106024965D01*
X103273003Y-105852020D01*
X103278313Y-105843183D01*
X103372670Y-105652267D01*
X103376469Y-105642672D01*
X103438377Y-105438910D01*
X103440555Y-105428837D01*
X103441986Y-105417962D01*
X103439775Y-105403778D01*
X103426617Y-105400000D01*
X100791225Y-105400000D01*
X100777694Y-105403973D01*
X100776257Y-105413966D01*
X100806565Y-105548446D01*
X100809645Y-105558275D01*
X100889770Y-105755603D01*
X100894413Y-105764794D01*
X101005694Y-105946388D01*
X101011777Y-105954699D01*
X101151213Y-106115667D01*
X101158580Y-106122883D01*
X101322434Y-106258916D01*
X101330881Y-106264831D01*
X101399969Y-106305203D01*
X101448693Y-106356842D01*
X101461764Y-106426625D01*
X101435033Y-106492396D01*
X101394584Y-106525752D01*
X101381607Y-106532507D01*
X101377474Y-106535610D01*
X101377471Y-106535612D01*
X101221507Y-106652713D01*
X101202965Y-106666635D01*
X101048629Y-106828138D01*
X100922743Y-107012680D01*
X100828688Y-107215305D01*
X100768989Y-107430570D01*
X100745251Y-107652695D01*
X100745548Y-107657848D01*
X100745548Y-107657851D01*
X100757812Y-107870547D01*
X100758110Y-107875715D01*
X100759247Y-107880761D01*
X100759248Y-107880767D01*
X100783304Y-107987508D01*
X100807222Y-108093639D01*
X100867014Y-108240890D01*
X100884662Y-108284351D01*
X100891266Y-108300616D01*
X100909017Y-108329583D01*
X100995395Y-108470539D01*
X101007987Y-108491088D01*
X101154250Y-108659938D01*
X101158230Y-108663242D01*
X101162981Y-108667187D01*
X101202616Y-108726090D01*
X101204113Y-108797071D01*
X101166997Y-108857593D01*
X101126725Y-108882112D01*
X101058235Y-108907788D01*
X101011295Y-108925385D01*
X100894739Y-109012739D01*
X100807385Y-109129295D01*
X100756255Y-109265684D01*
X100749500Y-109327866D01*
X100749500Y-111124134D01*
X100756255Y-111186316D01*
X100807385Y-111322705D01*
X100807941Y-111323447D01*
X100822245Y-111388848D01*
X100797509Y-111455396D01*
X100740720Y-111498006D01*
X100696556Y-111506000D01*
X99694000Y-111506000D01*
X99625879Y-111485998D01*
X99579386Y-111432342D01*
X99568000Y-111380000D01*
X99568000Y-102572695D01*
X100745251Y-102572695D01*
X100745548Y-102577848D01*
X100745548Y-102577851D01*
X100755626Y-102752642D01*
X100758110Y-102795715D01*
X100759247Y-102800761D01*
X100759248Y-102800767D01*
X100778487Y-102886135D01*
X100807222Y-103013639D01*
X100837907Y-103089207D01*
X100884662Y-103204351D01*
X100891266Y-103220616D01*
X101007987Y-103411088D01*
X101154250Y-103579938D01*
X101326126Y-103722632D01*
X101399955Y-103765774D01*
X101448679Y-103817412D01*
X101461750Y-103887195D01*
X101435019Y-103952967D01*
X101394562Y-103986327D01*
X101386457Y-103990546D01*
X101377738Y-103996036D01*
X101207433Y-104123905D01*
X101199726Y-104130748D01*
X101052590Y-104284717D01*
X101046104Y-104292727D01*
X100926098Y-104468649D01*
X100921000Y-104477623D01*
X100831338Y-104670783D01*
X100827775Y-104680470D01*
X100772389Y-104880183D01*
X100773912Y-104888607D01*
X100786292Y-104892000D01*
X103426344Y-104892000D01*
X103439875Y-104888027D01*
X103441180Y-104878947D01*
X103399214Y-104711875D01*
X103395894Y-104702124D01*
X103310972Y-104506814D01*
X103306105Y-104497739D01*
X103190426Y-104318926D01*
X103184136Y-104310757D01*
X103040806Y-104153240D01*
X103033273Y-104146215D01*
X102866139Y-104014222D01*
X102857556Y-104008520D01*
X102820602Y-103988120D01*
X102770631Y-103937687D01*
X102755859Y-103868245D01*
X102780975Y-103801839D01*
X102808327Y-103775232D01*
X102831797Y-103758491D01*
X102967861Y-103661438D01*
X103919000Y-103661438D01*
X103919337Y-103667953D01*
X103928894Y-103760057D01*
X103931788Y-103773456D01*
X103981381Y-103922107D01*
X103987555Y-103935286D01*
X104069788Y-104068173D01*
X104078824Y-104079574D01*
X104189429Y-104189986D01*
X104200840Y-104198998D01*
X104333880Y-104281004D01*
X104347061Y-104287151D01*
X104495814Y-104336491D01*
X104509190Y-104339358D01*
X104600097Y-104348672D01*
X104606513Y-104349000D01*
X104629885Y-104349000D01*
X104645124Y-104344525D01*
X104646329Y-104343135D01*
X104648000Y-104335452D01*
X104648000Y-104330885D01*
X105156000Y-104330885D01*
X105160475Y-104346124D01*
X105161865Y-104347329D01*
X105169548Y-104349000D01*
X105197438Y-104349000D01*
X105203953Y-104348663D01*
X105296057Y-104339106D01*
X105309456Y-104336212D01*
X105458107Y-104286619D01*
X105471286Y-104280445D01*
X105604173Y-104198212D01*
X105615574Y-104189176D01*
X105725986Y-104078571D01*
X105734998Y-104067160D01*
X105817004Y-103934120D01*
X105823151Y-103920939D01*
X105872491Y-103772186D01*
X105875358Y-103758810D01*
X105884672Y-103667903D01*
X105884929Y-103662874D01*
X105880525Y-103647876D01*
X105879135Y-103646671D01*
X105871452Y-103645000D01*
X105174115Y-103645000D01*
X105158876Y-103649475D01*
X105157671Y-103650865D01*
X105156000Y-103658548D01*
X105156000Y-104330885D01*
X104648000Y-104330885D01*
X104648000Y-103663115D01*
X104643525Y-103647876D01*
X104642135Y-103646671D01*
X104634452Y-103645000D01*
X103937115Y-103645000D01*
X103921876Y-103649475D01*
X103920671Y-103650865D01*
X103919000Y-103658548D01*
X103919000Y-103661438D01*
X102967861Y-103661438D01*
X102987860Y-103647173D01*
X103146096Y-103489489D01*
X103205594Y-103406689D01*
X103273435Y-103312277D01*
X103276453Y-103308077D01*
X103278746Y-103303437D01*
X103280446Y-103300608D01*
X103332674Y-103252518D01*
X103388451Y-103239500D01*
X104058233Y-103239500D01*
X104069416Y-103240027D01*
X104076909Y-103241702D01*
X104084835Y-103241453D01*
X104084836Y-103241453D01*
X104144986Y-103239562D01*
X104148945Y-103239500D01*
X104176856Y-103239500D01*
X104180791Y-103239003D01*
X104180856Y-103238995D01*
X104192693Y-103238062D01*
X104224951Y-103237048D01*
X104228970Y-103236922D01*
X104236889Y-103236673D01*
X104256343Y-103231021D01*
X104275700Y-103227013D01*
X104287930Y-103225468D01*
X104287931Y-103225468D01*
X104295797Y-103224474D01*
X104303168Y-103221555D01*
X104303170Y-103221555D01*
X104336912Y-103208196D01*
X104348142Y-103204351D01*
X104382983Y-103194229D01*
X104382984Y-103194229D01*
X104390593Y-103192018D01*
X104397412Y-103187985D01*
X104397417Y-103187983D01*
X104408028Y-103181707D01*
X104425776Y-103173012D01*
X104444617Y-103165552D01*
X104451035Y-103160889D01*
X104457979Y-103157072D01*
X104458751Y-103158477D01*
X104524856Y-103137000D01*
X105866885Y-103137000D01*
X105882124Y-103132525D01*
X105883329Y-103131135D01*
X105885000Y-103123452D01*
X105885000Y-103120562D01*
X105884663Y-103114047D01*
X105875106Y-103021943D01*
X105872212Y-103008544D01*
X105822619Y-102859893D01*
X105816445Y-102846714D01*
X105734212Y-102713827D01*
X105720629Y-102696689D01*
X105722559Y-102695159D01*
X105694097Y-102643120D01*
X105699113Y-102572301D01*
X105722799Y-102535383D01*
X105721843Y-102534628D01*
X105726381Y-102528882D01*
X105731552Y-102523702D01*
X105749666Y-102494316D01*
X105817462Y-102384331D01*
X105817463Y-102384329D01*
X105821302Y-102378101D01*
X105875149Y-102215757D01*
X105885500Y-102114732D01*
X105885500Y-101567268D01*
X105874887Y-101464981D01*
X105841576Y-101365137D01*
X105823073Y-101309676D01*
X105823072Y-101309674D01*
X105820756Y-101302732D01*
X105731162Y-101157949D01*
X105712324Y-101089498D01*
X105732150Y-101026003D01*
X105731157Y-101025391D01*
X105817004Y-100886120D01*
X105823151Y-100872939D01*
X105872491Y-100724186D01*
X105875358Y-100710810D01*
X105884672Y-100619903D01*
X105884929Y-100614874D01*
X105880525Y-100599876D01*
X105879135Y-100598671D01*
X105871452Y-100597000D01*
X103937115Y-100597000D01*
X103921876Y-100601475D01*
X103920671Y-100602865D01*
X103919000Y-100610548D01*
X103919000Y-100613438D01*
X103919337Y-100619953D01*
X103928894Y-100712057D01*
X103931788Y-100725456D01*
X103981381Y-100874107D01*
X103987555Y-100887286D01*
X104072885Y-101025178D01*
X104091723Y-101093630D01*
X104071679Y-101157824D01*
X104072448Y-101158298D01*
X104070390Y-101161636D01*
X104070389Y-101161638D01*
X103987255Y-101296507D01*
X103982698Y-101303899D01*
X103928851Y-101466243D01*
X103928151Y-101473080D01*
X103928150Y-101473082D01*
X103923917Y-101514401D01*
X103918500Y-101567268D01*
X103918500Y-101846500D01*
X103898498Y-101914621D01*
X103844842Y-101961114D01*
X103792500Y-101972500D01*
X103384805Y-101972500D01*
X103316684Y-101952498D01*
X103279013Y-101914940D01*
X103190822Y-101778617D01*
X103190820Y-101778614D01*
X103188014Y-101774277D01*
X103037670Y-101609051D01*
X103033619Y-101605852D01*
X103033615Y-101605848D01*
X102866414Y-101473800D01*
X102866410Y-101473798D01*
X102862359Y-101470598D01*
X102666789Y-101362638D01*
X102661920Y-101360914D01*
X102661916Y-101360912D01*
X102461087Y-101289795D01*
X102461083Y-101289794D01*
X102456212Y-101288069D01*
X102451119Y-101287162D01*
X102451116Y-101287161D01*
X102241373Y-101249800D01*
X102241367Y-101249799D01*
X102236284Y-101248894D01*
X102162452Y-101247992D01*
X102018081Y-101246228D01*
X102018079Y-101246228D01*
X102012911Y-101246165D01*
X101792091Y-101279955D01*
X101579756Y-101349357D01*
X101381607Y-101452507D01*
X101377474Y-101455610D01*
X101377471Y-101455612D01*
X101207100Y-101583530D01*
X101202965Y-101586635D01*
X101048629Y-101748138D01*
X100922743Y-101932680D01*
X100875716Y-102033992D01*
X100838238Y-102114732D01*
X100828688Y-102135305D01*
X100768989Y-102350570D01*
X100745251Y-102572695D01*
X99568000Y-102572695D01*
X99568000Y-79722695D01*
X100745251Y-79722695D01*
X100745548Y-79727848D01*
X100745548Y-79727851D01*
X100749620Y-79798470D01*
X100758110Y-79945715D01*
X100759247Y-79950761D01*
X100759248Y-79950767D01*
X100769934Y-79998183D01*
X100807222Y-80163639D01*
X100891266Y-80370616D01*
X100907105Y-80396463D01*
X100992684Y-80536115D01*
X101007987Y-80561088D01*
X101154250Y-80729938D01*
X101326126Y-80872632D01*
X101357142Y-80890756D01*
X101399955Y-80915774D01*
X101448679Y-80967412D01*
X101461750Y-81037195D01*
X101435019Y-81102967D01*
X101394562Y-81136327D01*
X101386457Y-81140546D01*
X101377738Y-81146036D01*
X101207433Y-81273905D01*
X101199726Y-81280748D01*
X101052590Y-81434717D01*
X101046104Y-81442727D01*
X100926098Y-81618649D01*
X100921000Y-81627623D01*
X100831338Y-81820783D01*
X100827775Y-81830470D01*
X100772389Y-82030183D01*
X100773912Y-82038607D01*
X100786292Y-82042000D01*
X103426344Y-82042000D01*
X103439875Y-82038027D01*
X103441180Y-82028947D01*
X103399214Y-81861875D01*
X103395894Y-81852124D01*
X103380812Y-81817438D01*
X103919000Y-81817438D01*
X103919337Y-81823953D01*
X103928894Y-81916057D01*
X103931788Y-81929456D01*
X103981381Y-82078107D01*
X103987555Y-82091286D01*
X104069788Y-82224173D01*
X104078824Y-82235574D01*
X104189429Y-82345986D01*
X104200840Y-82354998D01*
X104333880Y-82437004D01*
X104347061Y-82443151D01*
X104495814Y-82492491D01*
X104509190Y-82495358D01*
X104600097Y-82504672D01*
X104606513Y-82505000D01*
X104629885Y-82505000D01*
X104645124Y-82500525D01*
X104646329Y-82499135D01*
X104648000Y-82491452D01*
X104648000Y-82486885D01*
X105156000Y-82486885D01*
X105160475Y-82502124D01*
X105161865Y-82503329D01*
X105169548Y-82505000D01*
X105197438Y-82505000D01*
X105203953Y-82504663D01*
X105296057Y-82495106D01*
X105309456Y-82492212D01*
X105458107Y-82442619D01*
X105471286Y-82436445D01*
X105604173Y-82354212D01*
X105615574Y-82345176D01*
X105725986Y-82234571D01*
X105734998Y-82223160D01*
X105817004Y-82090120D01*
X105823151Y-82076939D01*
X105872491Y-81928186D01*
X105875358Y-81914810D01*
X105884672Y-81823903D01*
X105884929Y-81818874D01*
X105880525Y-81803876D01*
X105879135Y-81802671D01*
X105871452Y-81801000D01*
X105174115Y-81801000D01*
X105158876Y-81805475D01*
X105157671Y-81806865D01*
X105156000Y-81814548D01*
X105156000Y-82486885D01*
X104648000Y-82486885D01*
X104648000Y-81819115D01*
X104643525Y-81803876D01*
X104642135Y-81802671D01*
X104634452Y-81801000D01*
X103937115Y-81801000D01*
X103921876Y-81805475D01*
X103920671Y-81806865D01*
X103919000Y-81814548D01*
X103919000Y-81817438D01*
X103380812Y-81817438D01*
X103310972Y-81656814D01*
X103306105Y-81647739D01*
X103190426Y-81468926D01*
X103184136Y-81460757D01*
X103040806Y-81303240D01*
X103033273Y-81296215D01*
X102866139Y-81164222D01*
X102857556Y-81158520D01*
X102820602Y-81138120D01*
X102770631Y-81087687D01*
X102755859Y-81018245D01*
X102780975Y-80951839D01*
X102808327Y-80925232D01*
X102867823Y-80882794D01*
X102987860Y-80797173D01*
X103146096Y-80639489D01*
X103205594Y-80556689D01*
X103273435Y-80462277D01*
X103276453Y-80458077D01*
X103278746Y-80453437D01*
X103280446Y-80450608D01*
X103332674Y-80402518D01*
X103388451Y-80389500D01*
X103843821Y-80389500D01*
X103911942Y-80409502D01*
X103958435Y-80463158D01*
X103963344Y-80475623D01*
X103980924Y-80528315D01*
X103983244Y-80535268D01*
X104073248Y-80680713D01*
X104078430Y-80685886D01*
X104082977Y-80691623D01*
X104081170Y-80693055D01*
X104109902Y-80745575D01*
X104104892Y-80816395D01*
X104081501Y-80852853D01*
X104082552Y-80853683D01*
X104069002Y-80870840D01*
X103986996Y-81003880D01*
X103980849Y-81017061D01*
X103931509Y-81165814D01*
X103928642Y-81179190D01*
X103919328Y-81270097D01*
X103919071Y-81275126D01*
X103923475Y-81290124D01*
X103924865Y-81291329D01*
X103932548Y-81293000D01*
X105866885Y-81293000D01*
X105882124Y-81288525D01*
X105883329Y-81287135D01*
X105885000Y-81279452D01*
X105885000Y-81276562D01*
X105884663Y-81270047D01*
X105875106Y-81177943D01*
X105872212Y-81164544D01*
X105822619Y-81015893D01*
X105816445Y-81002714D01*
X105734212Y-80869827D01*
X105720629Y-80852689D01*
X105722559Y-80851159D01*
X105694097Y-80799120D01*
X105699113Y-80728301D01*
X105722799Y-80691383D01*
X105721843Y-80690628D01*
X105726381Y-80684882D01*
X105731552Y-80679702D01*
X105821302Y-80534101D01*
X105875149Y-80371757D01*
X105885500Y-80270732D01*
X105885500Y-79723268D01*
X105874887Y-79620981D01*
X105836428Y-79505707D01*
X105823073Y-79465676D01*
X105823072Y-79465674D01*
X105820756Y-79458732D01*
X105809684Y-79440839D01*
X105734606Y-79319515D01*
X105730752Y-79313287D01*
X105609702Y-79192448D01*
X105511998Y-79132222D01*
X105470331Y-79106538D01*
X105470329Y-79106537D01*
X105464101Y-79102698D01*
X105301757Y-79048851D01*
X105294920Y-79048151D01*
X105294918Y-79048150D01*
X105253599Y-79043917D01*
X105200732Y-79038500D01*
X104603268Y-79038500D01*
X104600022Y-79038837D01*
X104600018Y-79038837D01*
X104565917Y-79042375D01*
X104500981Y-79049113D01*
X104476238Y-79057368D01*
X104345676Y-79100927D01*
X104345674Y-79100928D01*
X104338732Y-79103244D01*
X104332508Y-79107096D01*
X104325879Y-79110201D01*
X104324600Y-79107471D01*
X104271783Y-79122500D01*
X103384805Y-79122500D01*
X103316684Y-79102498D01*
X103279013Y-79064940D01*
X103190822Y-78928617D01*
X103190820Y-78928614D01*
X103188014Y-78924277D01*
X103037670Y-78759051D01*
X103033619Y-78755852D01*
X103033615Y-78755848D01*
X102866414Y-78623800D01*
X102866410Y-78623798D01*
X102862359Y-78620598D01*
X102845221Y-78611137D01*
X102758668Y-78563358D01*
X102666789Y-78512638D01*
X102661920Y-78510914D01*
X102661916Y-78510912D01*
X102461087Y-78439795D01*
X102461083Y-78439794D01*
X102456212Y-78438069D01*
X102451119Y-78437162D01*
X102451116Y-78437161D01*
X102241373Y-78399800D01*
X102241367Y-78399799D01*
X102236284Y-78398894D01*
X102162452Y-78397992D01*
X102018081Y-78396228D01*
X102018079Y-78396228D01*
X102012911Y-78396165D01*
X101792091Y-78429955D01*
X101579756Y-78499357D01*
X101549443Y-78515137D01*
X101387668Y-78599352D01*
X101381607Y-78602507D01*
X101377474Y-78605610D01*
X101377471Y-78605612D01*
X101207100Y-78733530D01*
X101202965Y-78736635D01*
X101137346Y-78805301D01*
X101062356Y-78883774D01*
X101048629Y-78898138D01*
X101045715Y-78902410D01*
X101045714Y-78902411D01*
X101033404Y-78920457D01*
X100922743Y-79082680D01*
X100875716Y-79183992D01*
X100835217Y-79271240D01*
X100828688Y-79285305D01*
X100768989Y-79500570D01*
X100745251Y-79722695D01*
X99568000Y-79722695D01*
X99568000Y-77753438D01*
X103919000Y-77753438D01*
X103919337Y-77759953D01*
X103928894Y-77852057D01*
X103931788Y-77865456D01*
X103981381Y-78014107D01*
X103987555Y-78027286D01*
X104069788Y-78160173D01*
X104078824Y-78171574D01*
X104189429Y-78281986D01*
X104200840Y-78290998D01*
X104333880Y-78373004D01*
X104347061Y-78379151D01*
X104495814Y-78428491D01*
X104509190Y-78431358D01*
X104600097Y-78440672D01*
X104606513Y-78441000D01*
X104629885Y-78441000D01*
X104645124Y-78436525D01*
X104646329Y-78435135D01*
X104648000Y-78427452D01*
X104648000Y-78422885D01*
X105156000Y-78422885D01*
X105160475Y-78438124D01*
X105161865Y-78439329D01*
X105169548Y-78441000D01*
X105197438Y-78441000D01*
X105203953Y-78440663D01*
X105296057Y-78431106D01*
X105309456Y-78428212D01*
X105458107Y-78378619D01*
X105471286Y-78372445D01*
X105604173Y-78290212D01*
X105615574Y-78281176D01*
X105725986Y-78170571D01*
X105734998Y-78159160D01*
X105817004Y-78026120D01*
X105823151Y-78012939D01*
X105872491Y-77864186D01*
X105875358Y-77850810D01*
X105884672Y-77759903D01*
X105884929Y-77754874D01*
X105880525Y-77739876D01*
X105879135Y-77738671D01*
X105871452Y-77737000D01*
X105174115Y-77737000D01*
X105158876Y-77741475D01*
X105157671Y-77742865D01*
X105156000Y-77750548D01*
X105156000Y-78422885D01*
X104648000Y-78422885D01*
X104648000Y-77755115D01*
X104643525Y-77739876D01*
X104642135Y-77738671D01*
X104634452Y-77737000D01*
X103937115Y-77737000D01*
X103921876Y-77741475D01*
X103920671Y-77742865D01*
X103919000Y-77750548D01*
X103919000Y-77753438D01*
X99568000Y-77753438D01*
X99568000Y-70387438D01*
X103919000Y-70387438D01*
X103919337Y-70393953D01*
X103928894Y-70486057D01*
X103931788Y-70499456D01*
X103981381Y-70648107D01*
X103987555Y-70661286D01*
X104069788Y-70794173D01*
X104078824Y-70805574D01*
X104189429Y-70915986D01*
X104200840Y-70924998D01*
X104333880Y-71007004D01*
X104347061Y-71013151D01*
X104495814Y-71062491D01*
X104509190Y-71065358D01*
X104600097Y-71074672D01*
X104606513Y-71075000D01*
X104629885Y-71075000D01*
X104645124Y-71070525D01*
X104646329Y-71069135D01*
X104648000Y-71061452D01*
X104648000Y-71056885D01*
X105156000Y-71056885D01*
X105160475Y-71072124D01*
X105161865Y-71073329D01*
X105169548Y-71075000D01*
X105197438Y-71075000D01*
X105203953Y-71074663D01*
X105296057Y-71065106D01*
X105309456Y-71062212D01*
X105458107Y-71012619D01*
X105471286Y-71006445D01*
X105604173Y-70924212D01*
X105615574Y-70915176D01*
X105725986Y-70804571D01*
X105734998Y-70793160D01*
X105817004Y-70660120D01*
X105823151Y-70646939D01*
X105872491Y-70498186D01*
X105875358Y-70484810D01*
X105884672Y-70393903D01*
X105884929Y-70388874D01*
X105880525Y-70373876D01*
X105879135Y-70372671D01*
X105871452Y-70371000D01*
X105174115Y-70371000D01*
X105158876Y-70375475D01*
X105157671Y-70376865D01*
X105156000Y-70384548D01*
X105156000Y-71056885D01*
X104648000Y-71056885D01*
X104648000Y-70389115D01*
X104643525Y-70373876D01*
X104642135Y-70372671D01*
X104634452Y-70371000D01*
X103937115Y-70371000D01*
X103921876Y-70375475D01*
X103920671Y-70376865D01*
X103919000Y-70384548D01*
X103919000Y-70387438D01*
X99568000Y-70387438D01*
X99568000Y-66674000D01*
X99588002Y-66605879D01*
X99641658Y-66559386D01*
X99694000Y-66548000D01*
X101606672Y-66548000D01*
X101674793Y-66568002D01*
G37*
%TD.AperFunction*%
%TA.AperFunction,Conductor*%
G36*
X113391621Y-75837502D02*
G01*
X113438114Y-75891158D01*
X113449500Y-75943500D01*
X113449500Y-76082134D01*
X113456255Y-76144316D01*
X113507385Y-76280705D01*
X113594739Y-76397261D01*
X113711295Y-76484615D01*
X113719704Y-76487767D01*
X113719705Y-76487768D01*
X113828451Y-76528535D01*
X113885216Y-76571176D01*
X113909916Y-76637738D01*
X113894709Y-76707087D01*
X113875316Y-76733568D01*
X113754325Y-76860178D01*
X113748629Y-76866138D01*
X113622743Y-77050680D01*
X113575716Y-77151992D01*
X113540746Y-77227329D01*
X113528688Y-77253305D01*
X113468989Y-77468570D01*
X113445251Y-77690695D01*
X113445548Y-77695848D01*
X113445548Y-77695851D01*
X113450385Y-77779742D01*
X113458110Y-77913715D01*
X113459247Y-77918761D01*
X113459248Y-77918767D01*
X113474348Y-77985767D01*
X113507222Y-78131639D01*
X113591266Y-78338616D01*
X113629500Y-78401008D01*
X113678755Y-78481385D01*
X113707987Y-78529088D01*
X113854250Y-78697938D01*
X114026126Y-78840632D01*
X114094299Y-78880469D01*
X114099955Y-78883774D01*
X114148679Y-78935412D01*
X114161750Y-79005195D01*
X114135019Y-79070967D01*
X114094562Y-79104327D01*
X114086457Y-79108546D01*
X114077738Y-79114036D01*
X113907433Y-79241905D01*
X113899726Y-79248748D01*
X113752590Y-79402717D01*
X113746104Y-79410727D01*
X113626098Y-79586649D01*
X113621000Y-79595623D01*
X113531338Y-79788783D01*
X113527775Y-79798470D01*
X113472389Y-79998183D01*
X113473912Y-80006607D01*
X113486292Y-80010000D01*
X114936000Y-80010000D01*
X115004121Y-80030002D01*
X115050614Y-80083658D01*
X115062000Y-80136000D01*
X115062000Y-81582517D01*
X115066064Y-81596359D01*
X115079478Y-81598393D01*
X115086184Y-81597534D01*
X115096262Y-81595392D01*
X115300255Y-81534191D01*
X115309842Y-81530433D01*
X115501095Y-81436739D01*
X115509945Y-81431464D01*
X115683328Y-81307792D01*
X115691200Y-81301139D01*
X115842052Y-81150812D01*
X115848727Y-81142967D01*
X115849677Y-81141646D01*
X115850197Y-81141241D01*
X115852081Y-81139027D01*
X115852538Y-81139416D01*
X115905671Y-81097998D01*
X115976374Y-81091551D01*
X116039339Y-81124353D01*
X116074574Y-81185989D01*
X116078000Y-81215171D01*
X116078000Y-108408672D01*
X116076500Y-108428056D01*
X116072814Y-108451730D01*
X116073978Y-108460631D01*
X116073978Y-108460635D01*
X116075257Y-108470411D01*
X116076148Y-108493342D01*
X116066695Y-108673727D01*
X116061649Y-108770002D01*
X116060271Y-108783119D01*
X116012427Y-109085193D01*
X116009685Y-109098093D01*
X115948341Y-109327033D01*
X115930528Y-109393510D01*
X115926452Y-109406052D01*
X115907611Y-109455135D01*
X115816855Y-109691565D01*
X115811491Y-109703614D01*
X115672642Y-109976120D01*
X115666051Y-109987536D01*
X115499474Y-110244042D01*
X115491728Y-110254702D01*
X115383209Y-110388712D01*
X115299261Y-110492379D01*
X115290436Y-110502180D01*
X115074180Y-110718436D01*
X115064379Y-110727261D01*
X114839058Y-110909723D01*
X114826705Y-110919726D01*
X114816042Y-110927474D01*
X114559536Y-111094051D01*
X114548120Y-111100642D01*
X114275614Y-111239491D01*
X114263565Y-111244855D01*
X113978053Y-111354452D01*
X113965511Y-111358528D01*
X113708217Y-111427470D01*
X113670093Y-111437685D01*
X113657193Y-111440427D01*
X113355119Y-111488271D01*
X113342003Y-111489649D01*
X113072666Y-111503764D01*
X113046688Y-111502436D01*
X113045144Y-111502195D01*
X113045140Y-111502195D01*
X113036270Y-111500814D01*
X113027368Y-111501978D01*
X113027365Y-111501978D01*
X113004749Y-111504936D01*
X112988411Y-111506000D01*
X105757500Y-111506000D01*
X105689379Y-111485998D01*
X105642886Y-111432342D01*
X105631500Y-111380000D01*
X105631500Y-110991268D01*
X105620887Y-110888981D01*
X105566756Y-110726732D01*
X105476752Y-110581287D01*
X105471570Y-110576114D01*
X105467023Y-110570377D01*
X105468830Y-110568945D01*
X105440098Y-110516425D01*
X105445108Y-110445605D01*
X105468499Y-110409147D01*
X105467448Y-110408317D01*
X105480998Y-110391160D01*
X105563004Y-110258120D01*
X105569151Y-110244939D01*
X105618491Y-110096186D01*
X105621358Y-110082810D01*
X105630672Y-109991903D01*
X105630929Y-109986874D01*
X105626525Y-109971876D01*
X105625135Y-109970671D01*
X105617452Y-109969000D01*
X104520000Y-109969000D01*
X104451879Y-109948998D01*
X104405386Y-109895342D01*
X104394000Y-109843000D01*
X104394000Y-109442885D01*
X104902000Y-109442885D01*
X104906475Y-109458124D01*
X104907865Y-109459329D01*
X104915548Y-109461000D01*
X105612885Y-109461000D01*
X105628124Y-109456525D01*
X105629329Y-109455135D01*
X105631000Y-109447452D01*
X105631000Y-109444562D01*
X105630663Y-109438047D01*
X105621106Y-109345943D01*
X105618212Y-109332544D01*
X105568619Y-109183893D01*
X105562445Y-109170714D01*
X105480212Y-109037827D01*
X105471176Y-109026426D01*
X105360571Y-108916014D01*
X105349160Y-108907002D01*
X105216120Y-108824996D01*
X105202939Y-108818849D01*
X105054186Y-108769509D01*
X105040810Y-108766642D01*
X104949903Y-108757328D01*
X104943486Y-108757000D01*
X104920115Y-108757000D01*
X104904876Y-108761475D01*
X104903671Y-108762865D01*
X104902000Y-108770548D01*
X104902000Y-109442885D01*
X104394000Y-109442885D01*
X104394000Y-108775115D01*
X104389525Y-108759876D01*
X104388135Y-108758671D01*
X104380452Y-108757000D01*
X104352562Y-108757000D01*
X104346047Y-108757337D01*
X104253943Y-108766894D01*
X104240544Y-108769788D01*
X104091893Y-108819381D01*
X104078714Y-108825555D01*
X103945827Y-108907788D01*
X103934426Y-108916824D01*
X103824014Y-109027429D01*
X103815002Y-109038840D01*
X103732996Y-109171880D01*
X103726848Y-109185063D01*
X103699116Y-109268673D01*
X103658685Y-109327033D01*
X103593121Y-109354270D01*
X103523240Y-109341737D01*
X103471228Y-109293412D01*
X103459959Y-109265604D01*
X103459745Y-109265684D01*
X103437204Y-109205556D01*
X103408615Y-109129295D01*
X103321261Y-109012739D01*
X103204705Y-108925385D01*
X103179708Y-108916014D01*
X103086203Y-108880960D01*
X103029439Y-108838318D01*
X103004739Y-108771756D01*
X103019947Y-108702408D01*
X103041493Y-108673727D01*
X103059251Y-108656031D01*
X103124808Y-108590703D01*
X110920743Y-108590703D01*
X110921302Y-108594947D01*
X110921302Y-108594951D01*
X110929858Y-108659938D01*
X110958268Y-108875734D01*
X111034129Y-109153036D01*
X111035813Y-109156984D01*
X111142051Y-109406053D01*
X111146923Y-109417476D01*
X111171972Y-109459329D01*
X111275496Y-109632305D01*
X111294561Y-109664161D01*
X111474313Y-109888528D01*
X111538035Y-109948998D01*
X111679044Y-110082810D01*
X111682851Y-110086423D01*
X111916317Y-110254186D01*
X111920112Y-110256195D01*
X111920113Y-110256196D01*
X111941869Y-110267715D01*
X112170392Y-110388712D01*
X112440373Y-110487511D01*
X112721264Y-110548755D01*
X112749841Y-110551004D01*
X112944282Y-110566307D01*
X112944291Y-110566307D01*
X112946739Y-110566500D01*
X113102271Y-110566500D01*
X113104407Y-110566354D01*
X113104418Y-110566354D01*
X113312548Y-110552165D01*
X113312554Y-110552164D01*
X113316825Y-110551873D01*
X113321020Y-110551004D01*
X113321022Y-110551004D01*
X113487998Y-110516425D01*
X113598342Y-110493574D01*
X113869343Y-110397607D01*
X114124812Y-110265750D01*
X114128313Y-110263289D01*
X114128317Y-110263287D01*
X114242417Y-110183096D01*
X114360023Y-110100441D01*
X114481518Y-109987541D01*
X114567479Y-109907661D01*
X114567481Y-109907658D01*
X114570622Y-109904740D01*
X114752713Y-109682268D01*
X114902927Y-109437142D01*
X114951262Y-109327033D01*
X115016757Y-109177830D01*
X115018483Y-109173898D01*
X115028794Y-109137703D01*
X115094287Y-108907788D01*
X115097244Y-108897406D01*
X115137751Y-108612784D01*
X115137845Y-108594951D01*
X115139235Y-108329583D01*
X115139235Y-108329576D01*
X115139257Y-108325297D01*
X115138568Y-108320059D01*
X115116986Y-108156131D01*
X115101732Y-108040266D01*
X115025871Y-107762964D01*
X114913077Y-107498524D01*
X114765439Y-107251839D01*
X114585687Y-107027472D01*
X114407751Y-106858617D01*
X114380258Y-106832527D01*
X114380255Y-106832525D01*
X114377149Y-106829577D01*
X114143683Y-106661814D01*
X114121843Y-106650250D01*
X113939680Y-106553800D01*
X113889608Y-106527288D01*
X113619627Y-106428489D01*
X113338736Y-106367245D01*
X113307685Y-106364801D01*
X113115718Y-106349693D01*
X113115709Y-106349693D01*
X113113261Y-106349500D01*
X112957729Y-106349500D01*
X112955593Y-106349646D01*
X112955582Y-106349646D01*
X112747452Y-106363835D01*
X112747446Y-106363836D01*
X112743175Y-106364127D01*
X112738980Y-106364996D01*
X112738978Y-106364996D01*
X112602416Y-106393277D01*
X112461658Y-106422426D01*
X112190657Y-106518393D01*
X111935188Y-106650250D01*
X111931687Y-106652711D01*
X111931683Y-106652713D01*
X111874546Y-106692870D01*
X111699977Y-106815559D01*
X111489378Y-107011260D01*
X111307287Y-107233732D01*
X111157073Y-107478858D01*
X111041517Y-107742102D01*
X110962756Y-108018594D01*
X110952076Y-108093639D01*
X110928157Y-108261707D01*
X110922249Y-108303216D01*
X110922227Y-108307505D01*
X110922226Y-108307512D01*
X110921253Y-108493343D01*
X110920743Y-108590703D01*
X103124808Y-108590703D01*
X103146096Y-108569489D01*
X103205594Y-108486689D01*
X103273435Y-108392277D01*
X103276453Y-108388077D01*
X103278746Y-108383437D01*
X103280446Y-108380608D01*
X103332674Y-108332518D01*
X103388451Y-108319500D01*
X106103233Y-108319500D01*
X106114416Y-108320027D01*
X106121909Y-108321702D01*
X106129835Y-108321453D01*
X106129836Y-108321453D01*
X106189986Y-108319562D01*
X106193945Y-108319500D01*
X106221856Y-108319500D01*
X106225791Y-108319003D01*
X106225856Y-108318995D01*
X106237693Y-108318062D01*
X106269951Y-108317048D01*
X106273970Y-108316922D01*
X106281889Y-108316673D01*
X106301343Y-108311021D01*
X106320700Y-108307013D01*
X106332930Y-108305468D01*
X106332931Y-108305468D01*
X106340797Y-108304474D01*
X106348168Y-108301555D01*
X106348170Y-108301555D01*
X106381912Y-108288196D01*
X106393142Y-108284351D01*
X106427983Y-108274229D01*
X106427984Y-108274229D01*
X106435593Y-108272018D01*
X106442412Y-108267985D01*
X106442417Y-108267983D01*
X106453028Y-108261707D01*
X106470776Y-108253012D01*
X106489617Y-108245552D01*
X106525387Y-108219564D01*
X106535307Y-108213048D01*
X106566535Y-108194580D01*
X106566538Y-108194578D01*
X106573362Y-108190542D01*
X106587683Y-108176221D01*
X106602717Y-108163380D01*
X106612694Y-108156131D01*
X106619107Y-108151472D01*
X106647298Y-108117395D01*
X106655288Y-108108616D01*
X108662253Y-106101652D01*
X108670539Y-106094112D01*
X108677018Y-106090000D01*
X108723644Y-106040348D01*
X108726398Y-106037507D01*
X108746135Y-106017770D01*
X108748615Y-106014573D01*
X108756320Y-106005551D01*
X108781159Y-105979100D01*
X108786586Y-105973321D01*
X108790405Y-105966375D01*
X108790407Y-105966372D01*
X108796348Y-105955566D01*
X108807199Y-105939047D01*
X108814758Y-105929301D01*
X108819614Y-105923041D01*
X108822759Y-105915772D01*
X108822762Y-105915768D01*
X108837174Y-105882463D01*
X108842391Y-105871813D01*
X108863695Y-105833060D01*
X108868733Y-105813437D01*
X108875137Y-105794734D01*
X108880033Y-105783420D01*
X108880033Y-105783419D01*
X108883181Y-105776145D01*
X108884420Y-105768322D01*
X108884423Y-105768312D01*
X108890099Y-105732476D01*
X108892505Y-105720856D01*
X108901528Y-105685711D01*
X108901528Y-105685710D01*
X108903500Y-105678030D01*
X108903500Y-105657776D01*
X108905051Y-105638065D01*
X108906980Y-105625886D01*
X108908220Y-105618057D01*
X108904059Y-105574038D01*
X108903500Y-105562181D01*
X108903500Y-102999355D01*
X108923502Y-102931234D01*
X108940286Y-102916691D01*
X108938896Y-102915486D01*
X108964329Y-102886135D01*
X108966000Y-102878452D01*
X108966000Y-102745553D01*
X108986002Y-102677432D01*
X108991174Y-102669988D01*
X109015229Y-102637891D01*
X109020615Y-102630705D01*
X109071745Y-102494316D01*
X109078500Y-102432134D01*
X109078500Y-101718989D01*
X109098502Y-101650868D01*
X109152158Y-101604375D01*
X109204500Y-101592989D01*
X109235500Y-101592989D01*
X109303621Y-101612991D01*
X109350114Y-101666647D01*
X109361500Y-101718989D01*
X109361500Y-102432134D01*
X109368255Y-102494316D01*
X109419385Y-102630705D01*
X109424771Y-102637891D01*
X109448826Y-102669988D01*
X109473674Y-102736494D01*
X109474000Y-102745553D01*
X109474000Y-102873884D01*
X109478475Y-102889123D01*
X109479865Y-102890328D01*
X109487548Y-102891999D01*
X109564669Y-102891999D01*
X109571490Y-102891629D01*
X109622352Y-102886105D01*
X109637603Y-102882479D01*
X109650058Y-102877810D01*
X109720865Y-102872627D01*
X109738512Y-102877808D01*
X109759684Y-102885745D01*
X109821866Y-102892500D01*
X110518134Y-102892500D01*
X110580316Y-102885745D01*
X110716705Y-102834615D01*
X110833261Y-102747261D01*
X110920615Y-102630705D01*
X110971745Y-102494316D01*
X110978500Y-102432134D01*
X110978500Y-101973594D01*
X110998502Y-101905473D01*
X111015405Y-101884499D01*
X112406253Y-100493652D01*
X112414539Y-100486112D01*
X112421018Y-100482000D01*
X112467644Y-100432348D01*
X112470398Y-100429507D01*
X112490135Y-100409770D01*
X112492615Y-100406573D01*
X112500320Y-100397551D01*
X112525159Y-100371100D01*
X112530586Y-100365321D01*
X112534405Y-100358375D01*
X112534407Y-100358372D01*
X112540348Y-100347566D01*
X112551199Y-100331047D01*
X112558758Y-100321301D01*
X112563614Y-100315041D01*
X112566759Y-100307772D01*
X112566762Y-100307768D01*
X112581174Y-100274463D01*
X112586391Y-100263813D01*
X112607695Y-100225060D01*
X112612733Y-100205437D01*
X112619137Y-100186734D01*
X112624033Y-100175420D01*
X112624033Y-100175419D01*
X112627181Y-100168145D01*
X112628420Y-100160322D01*
X112628423Y-100160312D01*
X112634099Y-100124476D01*
X112636505Y-100112856D01*
X112645528Y-100077711D01*
X112645528Y-100077710D01*
X112647500Y-100070030D01*
X112647500Y-100049776D01*
X112649051Y-100030065D01*
X112650980Y-100017886D01*
X112652220Y-100010057D01*
X112648059Y-99966038D01*
X112647500Y-99954181D01*
X112647500Y-98622594D01*
X112667502Y-98554473D01*
X112684405Y-98533499D01*
X113336549Y-97881355D01*
X113398861Y-97847329D01*
X113450762Y-97846979D01*
X113630597Y-97883567D01*
X113635772Y-97883757D01*
X113635774Y-97883757D01*
X113848673Y-97891564D01*
X113848677Y-97891564D01*
X113853837Y-97891753D01*
X113858957Y-97891097D01*
X113858959Y-97891097D01*
X114070288Y-97864025D01*
X114070289Y-97864025D01*
X114075416Y-97863368D01*
X114080366Y-97861883D01*
X114284429Y-97800661D01*
X114284434Y-97800659D01*
X114289384Y-97799174D01*
X114489994Y-97700896D01*
X114671860Y-97571173D01*
X114732474Y-97510771D01*
X114826435Y-97417137D01*
X114830096Y-97413489D01*
X114874456Y-97351756D01*
X114957435Y-97236277D01*
X114960453Y-97232077D01*
X114999468Y-97153137D01*
X115057136Y-97036453D01*
X115057137Y-97036451D01*
X115059430Y-97031811D01*
X115124370Y-96818069D01*
X115153529Y-96596590D01*
X115155156Y-96530000D01*
X115136852Y-96307361D01*
X115082431Y-96090702D01*
X114993354Y-95885840D01*
X114886871Y-95721242D01*
X114874822Y-95702617D01*
X114874820Y-95702614D01*
X114872014Y-95698277D01*
X114721670Y-95533051D01*
X114717619Y-95529852D01*
X114717615Y-95529848D01*
X114550414Y-95397800D01*
X114550410Y-95397798D01*
X114546359Y-95394598D01*
X114505053Y-95371796D01*
X114455084Y-95321364D01*
X114440312Y-95251921D01*
X114465428Y-95185516D01*
X114492780Y-95158909D01*
X114536603Y-95127650D01*
X114671860Y-95031173D01*
X114693753Y-95009357D01*
X114794567Y-94908894D01*
X114830096Y-94873489D01*
X114960453Y-94692077D01*
X115059430Y-94491811D01*
X115124370Y-94278069D01*
X115153529Y-94056590D01*
X115154696Y-94008837D01*
X115155074Y-93993365D01*
X115155074Y-93993361D01*
X115155156Y-93990000D01*
X115136852Y-93767361D01*
X115082431Y-93550702D01*
X114993354Y-93345840D01*
X114878644Y-93168525D01*
X114874822Y-93162617D01*
X114874820Y-93162614D01*
X114872014Y-93158277D01*
X114721670Y-92993051D01*
X114717619Y-92989852D01*
X114717615Y-92989848D01*
X114550414Y-92857800D01*
X114550410Y-92857798D01*
X114546359Y-92854598D01*
X114505053Y-92831796D01*
X114455084Y-92781364D01*
X114440312Y-92711921D01*
X114465428Y-92645516D01*
X114492780Y-92618909D01*
X114543389Y-92582810D01*
X114671860Y-92491173D01*
X114830096Y-92333489D01*
X114881038Y-92262596D01*
X114957435Y-92156277D01*
X114960453Y-92152077D01*
X114999468Y-92073137D01*
X115057136Y-91956453D01*
X115057137Y-91956451D01*
X115059430Y-91951811D01*
X115124370Y-91738069D01*
X115153529Y-91516590D01*
X115154447Y-91479023D01*
X115155074Y-91453365D01*
X115155074Y-91453361D01*
X115155156Y-91450000D01*
X115136852Y-91227361D01*
X115082431Y-91010702D01*
X114993354Y-90805840D01*
X114872014Y-90618277D01*
X114802462Y-90541840D01*
X114724798Y-90456488D01*
X114693746Y-90392642D01*
X114702141Y-90322143D01*
X114747317Y-90267375D01*
X114773761Y-90253706D01*
X114880297Y-90213767D01*
X114888705Y-90210615D01*
X115005261Y-90123261D01*
X115092615Y-90006705D01*
X115143745Y-89870316D01*
X115150500Y-89808134D01*
X115150500Y-88011866D01*
X115143745Y-87949684D01*
X115092615Y-87813295D01*
X115005261Y-87696739D01*
X114888705Y-87609385D01*
X114752316Y-87558255D01*
X114690134Y-87551500D01*
X113381595Y-87551500D01*
X113313474Y-87531498D01*
X113292499Y-87514595D01*
X112430404Y-86652499D01*
X112396379Y-86590187D01*
X112393500Y-86563404D01*
X112393500Y-80531966D01*
X113476257Y-80531966D01*
X113506565Y-80666446D01*
X113509645Y-80676275D01*
X113589770Y-80873603D01*
X113594413Y-80882794D01*
X113705694Y-81064388D01*
X113711777Y-81072699D01*
X113851213Y-81233667D01*
X113858580Y-81240883D01*
X114022434Y-81376916D01*
X114030881Y-81382831D01*
X114214756Y-81490279D01*
X114224042Y-81494729D01*
X114423001Y-81570703D01*
X114432899Y-81573579D01*
X114536250Y-81594606D01*
X114550299Y-81593410D01*
X114554000Y-81583065D01*
X114554000Y-80536115D01*
X114549525Y-80520876D01*
X114548135Y-80519671D01*
X114540452Y-80518000D01*
X113491225Y-80518000D01*
X113477694Y-80521973D01*
X113476257Y-80531966D01*
X112393500Y-80531966D01*
X112393500Y-77802763D01*
X112394027Y-77791579D01*
X112395701Y-77784091D01*
X112393562Y-77716032D01*
X112393500Y-77712075D01*
X112393500Y-77684144D01*
X112392994Y-77680138D01*
X112392061Y-77668292D01*
X112391478Y-77649715D01*
X112390673Y-77624110D01*
X112385022Y-77604658D01*
X112381014Y-77585306D01*
X112379468Y-77573068D01*
X112379467Y-77573066D01*
X112378474Y-77565203D01*
X112362194Y-77524086D01*
X112358359Y-77512885D01*
X112346018Y-77470406D01*
X112341985Y-77463587D01*
X112341983Y-77463582D01*
X112335707Y-77452971D01*
X112327010Y-77435221D01*
X112319552Y-77416383D01*
X112293571Y-77380623D01*
X112287053Y-77370701D01*
X112268578Y-77339460D01*
X112268574Y-77339455D01*
X112264542Y-77332637D01*
X112250218Y-77318313D01*
X112237376Y-77303278D01*
X112225472Y-77286893D01*
X112191406Y-77258711D01*
X112182627Y-77250722D01*
X111521652Y-76589747D01*
X111514112Y-76581461D01*
X111510000Y-76574982D01*
X111460348Y-76528356D01*
X111457507Y-76525602D01*
X111437770Y-76505865D01*
X111434573Y-76503385D01*
X111425551Y-76495680D01*
X111417126Y-76487768D01*
X111393321Y-76465414D01*
X111386375Y-76461595D01*
X111386372Y-76461593D01*
X111375566Y-76455652D01*
X111359047Y-76444801D01*
X111358583Y-76444441D01*
X111343041Y-76432386D01*
X111335772Y-76429241D01*
X111335768Y-76429238D01*
X111302463Y-76414826D01*
X111291813Y-76409609D01*
X111253060Y-76388305D01*
X111233437Y-76383267D01*
X111214734Y-76376863D01*
X111203420Y-76371967D01*
X111203419Y-76371967D01*
X111196145Y-76368819D01*
X111188322Y-76367580D01*
X111188312Y-76367577D01*
X111152476Y-76361901D01*
X111140856Y-76359495D01*
X111105711Y-76350472D01*
X111105710Y-76350472D01*
X111098030Y-76348500D01*
X111077776Y-76348500D01*
X111058059Y-76346948D01*
X111048863Y-76345491D01*
X110984711Y-76315075D01*
X110950598Y-76265273D01*
X110923767Y-76193703D01*
X110920615Y-76185295D01*
X110833261Y-76068739D01*
X110800687Y-76044326D01*
X110758172Y-75987467D01*
X110753146Y-75916648D01*
X110787206Y-75854355D01*
X110849538Y-75820365D01*
X110876252Y-75817500D01*
X113323500Y-75817500D01*
X113391621Y-75837502D01*
G37*
%TD.AperFunction*%
%TA.AperFunction,Conductor*%
G36*
X109303621Y-79260991D02*
G01*
X109350114Y-79314647D01*
X109361500Y-79366989D01*
X109361500Y-80080134D01*
X109368255Y-80142316D01*
X109419385Y-80278705D01*
X109424771Y-80285891D01*
X109448826Y-80317988D01*
X109473674Y-80384494D01*
X109474000Y-80393553D01*
X109474000Y-80521884D01*
X109478475Y-80537123D01*
X109493013Y-80549721D01*
X109531396Y-80609447D01*
X109536500Y-80644945D01*
X109536500Y-87749233D01*
X109535973Y-87760416D01*
X109534298Y-87767909D01*
X109534547Y-87775835D01*
X109534547Y-87775836D01*
X109536438Y-87835986D01*
X109536500Y-87839945D01*
X109536500Y-87867856D01*
X109536997Y-87871790D01*
X109536997Y-87871791D01*
X109537005Y-87871856D01*
X109537938Y-87883693D01*
X109539327Y-87927889D01*
X109544978Y-87947339D01*
X109548987Y-87966700D01*
X109551526Y-87986797D01*
X109554445Y-87994168D01*
X109554445Y-87994170D01*
X109567804Y-88027912D01*
X109571649Y-88039142D01*
X109581771Y-88073983D01*
X109583982Y-88081593D01*
X109588015Y-88088412D01*
X109588017Y-88088417D01*
X109594293Y-88099028D01*
X109602988Y-88116776D01*
X109610448Y-88135617D01*
X109615110Y-88142033D01*
X109615110Y-88142034D01*
X109636436Y-88171387D01*
X109642952Y-88181307D01*
X109665458Y-88219362D01*
X109679779Y-88233683D01*
X109692619Y-88248716D01*
X109704528Y-88265107D01*
X109719546Y-88277531D01*
X109738605Y-88293298D01*
X109747384Y-88301288D01*
X112441778Y-90995682D01*
X112475804Y-91057994D01*
X112474100Y-91118448D01*
X112452989Y-91194570D01*
X112452441Y-91199700D01*
X112452440Y-91199704D01*
X112446434Y-91255908D01*
X112429251Y-91416695D01*
X112429548Y-91421848D01*
X112429548Y-91421851D01*
X112441812Y-91634547D01*
X112442110Y-91639715D01*
X112443247Y-91644761D01*
X112443248Y-91644767D01*
X112463119Y-91732939D01*
X112491222Y-91857639D01*
X112575266Y-92064616D01*
X112577965Y-92069020D01*
X112674881Y-92227173D01*
X112691987Y-92255088D01*
X112838250Y-92423938D01*
X113010126Y-92566632D01*
X113047583Y-92588520D01*
X113083445Y-92609476D01*
X113132169Y-92661114D01*
X113145240Y-92730897D01*
X113118509Y-92796669D01*
X113078055Y-92830027D01*
X113065607Y-92836507D01*
X113061474Y-92839610D01*
X113061471Y-92839612D01*
X112976282Y-92903574D01*
X112886965Y-92970635D01*
X112732629Y-93132138D01*
X112729715Y-93136410D01*
X112729714Y-93136411D01*
X112617379Y-93301088D01*
X112562468Y-93346091D01*
X112517249Y-93356022D01*
X112511262Y-93356210D01*
X112504013Y-93356438D01*
X112500055Y-93356500D01*
X112472144Y-93356500D01*
X112468210Y-93356997D01*
X112468209Y-93356997D01*
X112468144Y-93357005D01*
X112456307Y-93357938D01*
X112424490Y-93358938D01*
X112420029Y-93359078D01*
X112412110Y-93359327D01*
X112394454Y-93364456D01*
X112392658Y-93364978D01*
X112373306Y-93368986D01*
X112366235Y-93369880D01*
X112353203Y-93371526D01*
X112345834Y-93374443D01*
X112345832Y-93374444D01*
X112312097Y-93387800D01*
X112300869Y-93391645D01*
X112258407Y-93403982D01*
X112251585Y-93408016D01*
X112251579Y-93408019D01*
X112240968Y-93414294D01*
X112223218Y-93422990D01*
X112211756Y-93427528D01*
X112211751Y-93427531D01*
X112204383Y-93430448D01*
X112197968Y-93435109D01*
X112168625Y-93456427D01*
X112158707Y-93462943D01*
X112150111Y-93468027D01*
X112120637Y-93485458D01*
X112106313Y-93499782D01*
X112091281Y-93512621D01*
X112074893Y-93524528D01*
X112057168Y-93545954D01*
X112046712Y-93558593D01*
X112038722Y-93567373D01*
X110068595Y-95537500D01*
X110006283Y-95571526D01*
X109935468Y-95566461D01*
X109878632Y-95523914D01*
X109853821Y-95457394D01*
X109853500Y-95448405D01*
X109853500Y-92026767D01*
X109854027Y-92015584D01*
X109855702Y-92008091D01*
X109853562Y-91940014D01*
X109853500Y-91936055D01*
X109853500Y-91908144D01*
X109852995Y-91904144D01*
X109852062Y-91892301D01*
X109852062Y-91892277D01*
X109850673Y-91848111D01*
X109845021Y-91828657D01*
X109841013Y-91809300D01*
X109839468Y-91797070D01*
X109839468Y-91797069D01*
X109838474Y-91789203D01*
X109835555Y-91781830D01*
X109822196Y-91748088D01*
X109818351Y-91736858D01*
X109808229Y-91702017D01*
X109808229Y-91702016D01*
X109806018Y-91694407D01*
X109801985Y-91687588D01*
X109801983Y-91687583D01*
X109795707Y-91676972D01*
X109787012Y-91659224D01*
X109779552Y-91640383D01*
X109753564Y-91604613D01*
X109747048Y-91594693D01*
X109728580Y-91563465D01*
X109728578Y-91563462D01*
X109724542Y-91556638D01*
X109710221Y-91542317D01*
X109697380Y-91527283D01*
X109690131Y-91517306D01*
X109685472Y-91510893D01*
X109651395Y-91482702D01*
X109642616Y-91474712D01*
X108440652Y-90272747D01*
X108433112Y-90264461D01*
X108429000Y-90257982D01*
X108379348Y-90211356D01*
X108376507Y-90208602D01*
X108356770Y-90188865D01*
X108353573Y-90186385D01*
X108344551Y-90178680D01*
X108318100Y-90153841D01*
X108312321Y-90148414D01*
X108305375Y-90144595D01*
X108305372Y-90144593D01*
X108294566Y-90138652D01*
X108278047Y-90127801D01*
X108277583Y-90127441D01*
X108262041Y-90115386D01*
X108254772Y-90112241D01*
X108254768Y-90112238D01*
X108221463Y-90097826D01*
X108210813Y-90092609D01*
X108172060Y-90071305D01*
X108152437Y-90066267D01*
X108133734Y-90059863D01*
X108122420Y-90054967D01*
X108122419Y-90054967D01*
X108115145Y-90051819D01*
X108107322Y-90050580D01*
X108107312Y-90050577D01*
X108071476Y-90044901D01*
X108059856Y-90042495D01*
X108024711Y-90033472D01*
X108024710Y-90033472D01*
X108017030Y-90031500D01*
X107996776Y-90031500D01*
X107977065Y-90029949D01*
X107964886Y-90028020D01*
X107957057Y-90026780D01*
X107949165Y-90027526D01*
X107913039Y-90030941D01*
X107901181Y-90031500D01*
X107147200Y-90031500D01*
X107079079Y-90011498D01*
X107059853Y-89995157D01*
X107059580Y-89995460D01*
X107054668Y-89991037D01*
X107050253Y-89986134D01*
X106981254Y-89936003D01*
X106901094Y-89877763D01*
X106901093Y-89877762D01*
X106895752Y-89873882D01*
X106889724Y-89871198D01*
X106889722Y-89871197D01*
X106727319Y-89798891D01*
X106727318Y-89798891D01*
X106721288Y-89796206D01*
X106603852Y-89771244D01*
X106540944Y-89757872D01*
X106540939Y-89757872D01*
X106534487Y-89756500D01*
X106343513Y-89756500D01*
X106337061Y-89757872D01*
X106337056Y-89757872D01*
X106274148Y-89771244D01*
X106156712Y-89796206D01*
X106150685Y-89798889D01*
X106150677Y-89798892D01*
X105985204Y-89872565D01*
X105914837Y-89881999D01*
X105850540Y-89851892D01*
X105812727Y-89791803D01*
X105813403Y-89720810D01*
X105819762Y-89704205D01*
X105823152Y-89696935D01*
X105872491Y-89548186D01*
X105875358Y-89534810D01*
X105884672Y-89443903D01*
X105884929Y-89438874D01*
X105880525Y-89423876D01*
X105879135Y-89422671D01*
X105871452Y-89421000D01*
X103937115Y-89421000D01*
X103921876Y-89425475D01*
X103920671Y-89426865D01*
X103919000Y-89434548D01*
X103919000Y-89437438D01*
X103919337Y-89443953D01*
X103928894Y-89536057D01*
X103931788Y-89549456D01*
X103981381Y-89698107D01*
X103987555Y-89711286D01*
X104072885Y-89849178D01*
X104091723Y-89917630D01*
X104071679Y-89981824D01*
X104072448Y-89982298D01*
X104070390Y-89985636D01*
X104070389Y-89985638D01*
X103992352Y-90112238D01*
X103982698Y-90127899D01*
X103928851Y-90290243D01*
X103928151Y-90297080D01*
X103928150Y-90297082D01*
X103923917Y-90338401D01*
X103918500Y-90391268D01*
X103918500Y-90938732D01*
X103929113Y-91041019D01*
X103931295Y-91047559D01*
X103978606Y-91189365D01*
X103983244Y-91203268D01*
X103987096Y-91209492D01*
X103987096Y-91209493D01*
X104042175Y-91298500D01*
X104073248Y-91348713D01*
X104078430Y-91353886D01*
X104082977Y-91359623D01*
X104081170Y-91361055D01*
X104109902Y-91413575D01*
X104104892Y-91484395D01*
X104081501Y-91520853D01*
X104082552Y-91521683D01*
X104069002Y-91538840D01*
X103986996Y-91671880D01*
X103980849Y-91685061D01*
X103931509Y-91833814D01*
X103928642Y-91847190D01*
X103919328Y-91938097D01*
X103919071Y-91943126D01*
X103923475Y-91958124D01*
X103924865Y-91959329D01*
X103932548Y-91961000D01*
X105866885Y-91961000D01*
X105882124Y-91956525D01*
X105883329Y-91955135D01*
X105885000Y-91947452D01*
X105885000Y-91944562D01*
X105884663Y-91938047D01*
X105875106Y-91845943D01*
X105872212Y-91832544D01*
X105822619Y-91683893D01*
X105816445Y-91670714D01*
X105776907Y-91606821D01*
X105758069Y-91538369D01*
X105779230Y-91470599D01*
X105833671Y-91425028D01*
X105904107Y-91416124D01*
X105958112Y-91438582D01*
X105982248Y-91456118D01*
X105988276Y-91458802D01*
X105988278Y-91458803D01*
X106129510Y-91521683D01*
X106156712Y-91533794D01*
X106250113Y-91553647D01*
X106337056Y-91572128D01*
X106337061Y-91572128D01*
X106343513Y-91573500D01*
X106534487Y-91573500D01*
X106540939Y-91572128D01*
X106540944Y-91572128D01*
X106627887Y-91553647D01*
X106721288Y-91533794D01*
X106748490Y-91521683D01*
X106889722Y-91458803D01*
X106889724Y-91458802D01*
X106895752Y-91456118D01*
X107050253Y-91343866D01*
X107054668Y-91338963D01*
X107059580Y-91334540D01*
X107060705Y-91335789D01*
X107114014Y-91302949D01*
X107147200Y-91298500D01*
X107622405Y-91298500D01*
X107690526Y-91318502D01*
X107711501Y-91335405D01*
X108549596Y-92173501D01*
X108583621Y-92235813D01*
X108586500Y-92262596D01*
X108586500Y-97226406D01*
X108566498Y-97294527D01*
X108512842Y-97341020D01*
X108442568Y-97351124D01*
X108377988Y-97321630D01*
X108371405Y-97315501D01*
X107702499Y-96646594D01*
X106929652Y-95873747D01*
X106922112Y-95865461D01*
X106918000Y-95858982D01*
X106868348Y-95812356D01*
X106865507Y-95809602D01*
X106845770Y-95789865D01*
X106842573Y-95787385D01*
X106833551Y-95779680D01*
X106807100Y-95754841D01*
X106801321Y-95749414D01*
X106794375Y-95745595D01*
X106794372Y-95745593D01*
X106783566Y-95739652D01*
X106767047Y-95728801D01*
X106766583Y-95728441D01*
X106751041Y-95716386D01*
X106743772Y-95713241D01*
X106743768Y-95713238D01*
X106710463Y-95698826D01*
X106699813Y-95693609D01*
X106661060Y-95672305D01*
X106641437Y-95667267D01*
X106622734Y-95660863D01*
X106611420Y-95655967D01*
X106611419Y-95655967D01*
X106604145Y-95652819D01*
X106596322Y-95651580D01*
X106596312Y-95651577D01*
X106560476Y-95645901D01*
X106548856Y-95643495D01*
X106513711Y-95634472D01*
X106513710Y-95634472D01*
X106506030Y-95632500D01*
X106485776Y-95632500D01*
X106466065Y-95630949D01*
X106453886Y-95629020D01*
X106446057Y-95627780D01*
X106438165Y-95628526D01*
X106402039Y-95631941D01*
X106390181Y-95632500D01*
X103384805Y-95632500D01*
X103316684Y-95612498D01*
X103279013Y-95574940D01*
X103190822Y-95438617D01*
X103190820Y-95438614D01*
X103188014Y-95434277D01*
X103037670Y-95269051D01*
X103033619Y-95265852D01*
X103033615Y-95265848D01*
X102866414Y-95133800D01*
X102866410Y-95133798D01*
X102862359Y-95130598D01*
X102820569Y-95107529D01*
X102770598Y-95057097D01*
X102755826Y-94987654D01*
X102780942Y-94921248D01*
X102808294Y-94894641D01*
X102983328Y-94769792D01*
X102991200Y-94763139D01*
X103142052Y-94612812D01*
X103148730Y-94604965D01*
X103273003Y-94432020D01*
X103278313Y-94423183D01*
X103372670Y-94232267D01*
X103376469Y-94222672D01*
X103438377Y-94018910D01*
X103440555Y-94008837D01*
X103441986Y-93997962D01*
X103439775Y-93983778D01*
X103426617Y-93980000D01*
X101980000Y-93980000D01*
X101911879Y-93959998D01*
X101865386Y-93906342D01*
X101854000Y-93854000D01*
X101854000Y-93598000D01*
X101874002Y-93529879D01*
X101927658Y-93483386D01*
X101980000Y-93472000D01*
X103426344Y-93472000D01*
X103439875Y-93468027D01*
X103441180Y-93458947D01*
X103399214Y-93291875D01*
X103395894Y-93282124D01*
X103310972Y-93086814D01*
X103306105Y-93077739D01*
X103190426Y-92898926D01*
X103184136Y-92890757D01*
X103040806Y-92733240D01*
X103033273Y-92726215D01*
X102866139Y-92594222D01*
X102857556Y-92588520D01*
X102820602Y-92568120D01*
X102770631Y-92517687D01*
X102763771Y-92485438D01*
X103919000Y-92485438D01*
X103919337Y-92491953D01*
X103928894Y-92584057D01*
X103931788Y-92597456D01*
X103981381Y-92746107D01*
X103987555Y-92759286D01*
X104069788Y-92892173D01*
X104078824Y-92903574D01*
X104189429Y-93013986D01*
X104200840Y-93022998D01*
X104333880Y-93105004D01*
X104347061Y-93111151D01*
X104495814Y-93160491D01*
X104509190Y-93163358D01*
X104600097Y-93172672D01*
X104606513Y-93173000D01*
X104629885Y-93173000D01*
X104645124Y-93168525D01*
X104646329Y-93167135D01*
X104648000Y-93159452D01*
X104648000Y-93154885D01*
X105156000Y-93154885D01*
X105160475Y-93170124D01*
X105161865Y-93171329D01*
X105169548Y-93173000D01*
X105197438Y-93173000D01*
X105203953Y-93172663D01*
X105296057Y-93163106D01*
X105309456Y-93160212D01*
X105458107Y-93110619D01*
X105471286Y-93104445D01*
X105604173Y-93022212D01*
X105615574Y-93013176D01*
X105725986Y-92902571D01*
X105734998Y-92891160D01*
X105817004Y-92758120D01*
X105823151Y-92744939D01*
X105872491Y-92596186D01*
X105875358Y-92582810D01*
X105884672Y-92491903D01*
X105884929Y-92486874D01*
X105880525Y-92471876D01*
X105879135Y-92470671D01*
X105871452Y-92469000D01*
X105174115Y-92469000D01*
X105158876Y-92473475D01*
X105157671Y-92474865D01*
X105156000Y-92482548D01*
X105156000Y-93154885D01*
X104648000Y-93154885D01*
X104648000Y-92487115D01*
X104643525Y-92471876D01*
X104642135Y-92470671D01*
X104634452Y-92469000D01*
X103937115Y-92469000D01*
X103921876Y-92473475D01*
X103920671Y-92474865D01*
X103919000Y-92482548D01*
X103919000Y-92485438D01*
X102763771Y-92485438D01*
X102755859Y-92448245D01*
X102780975Y-92381839D01*
X102808327Y-92355232D01*
X102938198Y-92262596D01*
X102987860Y-92227173D01*
X103146096Y-92069489D01*
X103153038Y-92059829D01*
X103273435Y-91892277D01*
X103276453Y-91888077D01*
X103291497Y-91857639D01*
X103373136Y-91692453D01*
X103373137Y-91692451D01*
X103375430Y-91687811D01*
X103440370Y-91474069D01*
X103469529Y-91252590D01*
X103470019Y-91232522D01*
X103471074Y-91189365D01*
X103471074Y-91189361D01*
X103471156Y-91186000D01*
X103452852Y-90963361D01*
X103398431Y-90746702D01*
X103309354Y-90541840D01*
X103214026Y-90394485D01*
X103190822Y-90358617D01*
X103190820Y-90358614D01*
X103188014Y-90354277D01*
X103037670Y-90189051D01*
X103033619Y-90185852D01*
X103033615Y-90185848D01*
X102866414Y-90053800D01*
X102866410Y-90053798D01*
X102862359Y-90050598D01*
X102847681Y-90042495D01*
X102791529Y-90011498D01*
X102666789Y-89942638D01*
X102661920Y-89940914D01*
X102661916Y-89940912D01*
X102461087Y-89869795D01*
X102461083Y-89869794D01*
X102456212Y-89868069D01*
X102451119Y-89867162D01*
X102451116Y-89867161D01*
X102241373Y-89829800D01*
X102241367Y-89829799D01*
X102236284Y-89828894D01*
X102162452Y-89827992D01*
X102018081Y-89826228D01*
X102018079Y-89826228D01*
X102012911Y-89826165D01*
X101792091Y-89859955D01*
X101737754Y-89877715D01*
X101732134Y-89879552D01*
X101661170Y-89881703D01*
X101600308Y-89845147D01*
X101568872Y-89781490D01*
X101566989Y-89759787D01*
X101566989Y-88865105D01*
X101586991Y-88796984D01*
X101603894Y-88776010D01*
X101608499Y-88771405D01*
X101670811Y-88737379D01*
X101697594Y-88734500D01*
X103006134Y-88734500D01*
X103068316Y-88727745D01*
X103204705Y-88676615D01*
X103321261Y-88589261D01*
X103408615Y-88472705D01*
X103459745Y-88336316D01*
X103466500Y-88274134D01*
X103466500Y-88135500D01*
X103486502Y-88067379D01*
X103540158Y-88020886D01*
X103592500Y-88009500D01*
X103843821Y-88009500D01*
X103911942Y-88029502D01*
X103958435Y-88083158D01*
X103963344Y-88095623D01*
X103980924Y-88148315D01*
X103983244Y-88155268D01*
X104073248Y-88300713D01*
X104078430Y-88305886D01*
X104082977Y-88311623D01*
X104081170Y-88313055D01*
X104109902Y-88365575D01*
X104104892Y-88436395D01*
X104081501Y-88472853D01*
X104082552Y-88473683D01*
X104069002Y-88490840D01*
X103986996Y-88623880D01*
X103980849Y-88637061D01*
X103931509Y-88785814D01*
X103928642Y-88799190D01*
X103919328Y-88890097D01*
X103919071Y-88895126D01*
X103923475Y-88910124D01*
X103924865Y-88911329D01*
X103932548Y-88913000D01*
X105866885Y-88913000D01*
X105882124Y-88908525D01*
X105883329Y-88907135D01*
X105885000Y-88899452D01*
X105885000Y-88896562D01*
X105884663Y-88890047D01*
X105875106Y-88797943D01*
X105872212Y-88784544D01*
X105822619Y-88635893D01*
X105816445Y-88622714D01*
X105734212Y-88489827D01*
X105720629Y-88472689D01*
X105722559Y-88471159D01*
X105694097Y-88419120D01*
X105699113Y-88348301D01*
X105722799Y-88311383D01*
X105721843Y-88310628D01*
X105726381Y-88304882D01*
X105731552Y-88299702D01*
X105735393Y-88293471D01*
X105817462Y-88160331D01*
X105817463Y-88160329D01*
X105821302Y-88154101D01*
X105875149Y-87991757D01*
X105878725Y-87956861D01*
X105885172Y-87893930D01*
X105885500Y-87890732D01*
X105885500Y-87343268D01*
X105874887Y-87240981D01*
X105820756Y-87078732D01*
X105799369Y-87044170D01*
X105734606Y-86939515D01*
X105730752Y-86933287D01*
X105609702Y-86812448D01*
X105602580Y-86808058D01*
X105470331Y-86726538D01*
X105470329Y-86726537D01*
X105464101Y-86722698D01*
X105301757Y-86668851D01*
X105294920Y-86668151D01*
X105294918Y-86668150D01*
X105253599Y-86663917D01*
X105200732Y-86658500D01*
X104603268Y-86658500D01*
X104600022Y-86658837D01*
X104600018Y-86658837D01*
X104565917Y-86662375D01*
X104500981Y-86669113D01*
X104494440Y-86671295D01*
X104494441Y-86671295D01*
X104345676Y-86720927D01*
X104345674Y-86720928D01*
X104338732Y-86723244D01*
X104332508Y-86727096D01*
X104325879Y-86730201D01*
X104324600Y-86727471D01*
X104271783Y-86742500D01*
X103592500Y-86742500D01*
X103524379Y-86722498D01*
X103477886Y-86668842D01*
X103466500Y-86616500D01*
X103466500Y-86477866D01*
X103459745Y-86415684D01*
X103408615Y-86279295D01*
X103321261Y-86162739D01*
X103204705Y-86075385D01*
X103192132Y-86070672D01*
X103086203Y-86030960D01*
X103029439Y-85988318D01*
X103004739Y-85921756D01*
X103019947Y-85852408D01*
X103041493Y-85823727D01*
X103142435Y-85723137D01*
X103146096Y-85719489D01*
X103205594Y-85636689D01*
X103273435Y-85542277D01*
X103276453Y-85538077D01*
X103278746Y-85533437D01*
X103280446Y-85530608D01*
X103332674Y-85482518D01*
X103388451Y-85469500D01*
X104823233Y-85469500D01*
X104834416Y-85470027D01*
X104841909Y-85471702D01*
X104849835Y-85471453D01*
X104849836Y-85471453D01*
X104909986Y-85469562D01*
X104913945Y-85469500D01*
X104941856Y-85469500D01*
X104945791Y-85469003D01*
X104945856Y-85468995D01*
X104957693Y-85468062D01*
X104989951Y-85467048D01*
X104993970Y-85466922D01*
X105001889Y-85466673D01*
X105021343Y-85461021D01*
X105040700Y-85457013D01*
X105052930Y-85455468D01*
X105052931Y-85455468D01*
X105060797Y-85454474D01*
X105068168Y-85451555D01*
X105068170Y-85451555D01*
X105101912Y-85438196D01*
X105113142Y-85434351D01*
X105147983Y-85424229D01*
X105147984Y-85424229D01*
X105155593Y-85422018D01*
X105162412Y-85417985D01*
X105162417Y-85417983D01*
X105173028Y-85411707D01*
X105190776Y-85403012D01*
X105209617Y-85395552D01*
X105245387Y-85369564D01*
X105255307Y-85363048D01*
X105286535Y-85344580D01*
X105286538Y-85344578D01*
X105293362Y-85340542D01*
X105307683Y-85326221D01*
X105322717Y-85313380D01*
X105332694Y-85306131D01*
X105339107Y-85301472D01*
X105367298Y-85267395D01*
X105375288Y-85258616D01*
X108662247Y-81971657D01*
X108670537Y-81964113D01*
X108677018Y-81960000D01*
X108705701Y-81929456D01*
X108723658Y-81910333D01*
X108726413Y-81907491D01*
X108746134Y-81887770D01*
X108748612Y-81884575D01*
X108756318Y-81875553D01*
X108758775Y-81872937D01*
X108786586Y-81843321D01*
X108796346Y-81825568D01*
X108807199Y-81809045D01*
X108814753Y-81799306D01*
X108819613Y-81793041D01*
X108837176Y-81752457D01*
X108842383Y-81741827D01*
X108863695Y-81703060D01*
X108865666Y-81695383D01*
X108865668Y-81695378D01*
X108868732Y-81683442D01*
X108875138Y-81664730D01*
X108880033Y-81653419D01*
X108883181Y-81646145D01*
X108884421Y-81638317D01*
X108884423Y-81638310D01*
X108890099Y-81602476D01*
X108892505Y-81590856D01*
X108901528Y-81555711D01*
X108901528Y-81555710D01*
X108903500Y-81548030D01*
X108903500Y-81527776D01*
X108905051Y-81508065D01*
X108906980Y-81495886D01*
X108908220Y-81488057D01*
X108904059Y-81444038D01*
X108903500Y-81432181D01*
X108903500Y-80647355D01*
X108923502Y-80579234D01*
X108940286Y-80564691D01*
X108938896Y-80563486D01*
X108964329Y-80534135D01*
X108966000Y-80526452D01*
X108966000Y-80393553D01*
X108986002Y-80325432D01*
X108991174Y-80317988D01*
X109015229Y-80285891D01*
X109020615Y-80278705D01*
X109071745Y-80142316D01*
X109078500Y-80080134D01*
X109078500Y-79366989D01*
X109098502Y-79298868D01*
X109152158Y-79252375D01*
X109204500Y-79240989D01*
X109235500Y-79240989D01*
X109303621Y-79260991D01*
G37*
%TD.AperFunction*%
%TD*%
M02*
