%TF.GenerationSoftware,KiCad,Pcbnew,(6.0.0)*%
%TF.CreationDate,2022-03-13T19:19:56-04:00*%
%TF.ProjectId,4 GC port esd board (for wii mini),34204743-2070-46f7-9274-206573642062,rev?*%
%TF.SameCoordinates,Original*%
%TF.FileFunction,Copper,L2,Bot*%
%TF.FilePolarity,Positive*%
%FSLAX46Y46*%
G04 Gerber Fmt 4.6, Leading zero omitted, Abs format (unit mm)*
G04 Created by KiCad (PCBNEW (6.0.0)) date 2022-03-13 19:19:56*
%MOMM*%
%LPD*%
G01*
G04 APERTURE LIST*
%TA.AperFunction,ComponentPad*%
%ADD10R,1.700000X1.700000*%
%TD*%
%TA.AperFunction,ComponentPad*%
%ADD11O,1.700000X1.700000*%
%TD*%
%TA.AperFunction,ViaPad*%
%ADD12C,0.800000*%
%TD*%
%TA.AperFunction,Conductor*%
%ADD13C,0.250000*%
%TD*%
G04 APERTURE END LIST*
D10*
%TO.P,J3,1,Pin_1*%
%TO.N,+3V3*%
X102108000Y-87376000D03*
D11*
%TO.P,J3,2,Pin_2*%
%TO.N,Net-(D1-Pad1)*%
X102108000Y-84836000D03*
%TO.P,J3,3,Pin_3*%
%TO.N,GND*%
X102108000Y-82296000D03*
%TO.P,J3,4,Pin_4*%
%TO.N,+5V*%
X102108000Y-79756000D03*
%TD*%
D10*
%TO.P,J6,1,Pin_1*%
%TO.N,Net-(D1-Pad4)*%
X113792000Y-88910000D03*
D11*
%TO.P,J6,2,Pin_2*%
%TO.N,Net-(D1-Pad1)*%
X113792000Y-91450000D03*
%TO.P,J6,3,Pin_3*%
%TO.N,Net-(D2-Pad4)*%
X113792000Y-93990000D03*
%TO.P,J6,4,Pin_4*%
%TO.N,Net-(D2-Pad1)*%
X113792000Y-96530000D03*
%TD*%
D10*
%TO.P,J1,1,Pin_1*%
%TO.N,+3V3*%
X102108000Y-110226000D03*
D11*
%TO.P,J1,2,Pin_2*%
%TO.N,Net-(D2-Pad1)*%
X102108000Y-107686000D03*
%TO.P,J1,3,Pin_3*%
%TO.N,GND*%
X102108000Y-105146000D03*
%TO.P,J1,4,Pin_4*%
%TO.N,+5V*%
X102108000Y-102606000D03*
%TD*%
D10*
%TO.P,J5,1,Pin_1*%
%TO.N,+5V*%
X114808000Y-75184000D03*
D11*
%TO.P,J5,2,Pin_2*%
%TO.N,+3V3*%
X114808000Y-77724000D03*
%TO.P,J5,3,Pin_3*%
%TO.N,GND*%
X114808000Y-80264000D03*
%TD*%
D10*
%TO.P,J4,1,Pin_1*%
%TO.N,+3V3*%
X102108000Y-98806000D03*
D11*
%TO.P,J4,2,Pin_2*%
%TO.N,Net-(D2-Pad4)*%
X102108000Y-96266000D03*
%TO.P,J4,3,Pin_3*%
%TO.N,GND*%
X102108000Y-93726000D03*
%TO.P,J4,4,Pin_4*%
%TO.N,+5V*%
X102108000Y-91186000D03*
%TD*%
D10*
%TO.P,J2,1,Pin_1*%
%TO.N,+3V3*%
X102108000Y-75692000D03*
D11*
%TO.P,J2,2,Pin_2*%
%TO.N,Net-(D1-Pad4)*%
X102108000Y-73152000D03*
%TO.P,J2,3,Pin_3*%
%TO.N,GND*%
X102108000Y-70612000D03*
%TO.P,J2,4,Pin_4*%
%TO.N,+5V*%
X102108000Y-68072000D03*
%TD*%
D12*
%TO.N,+5V*%
X106439000Y-90665000D03*
%TD*%
D13*
%TO.N,+5V*%
X113030000Y-75184000D02*
X105918000Y-68072000D01*
X100933489Y-92360511D02*
X102108000Y-91186000D01*
X102108000Y-91186000D02*
X100483969Y-89561969D01*
X114808000Y-75184000D02*
X113030000Y-75184000D01*
X100483969Y-89561969D02*
X100483969Y-81252313D01*
X102108000Y-91186000D02*
X105918000Y-91186000D01*
X102108000Y-102606000D02*
X100933489Y-101431489D01*
X100483969Y-81252313D02*
X101980282Y-79756000D01*
X101980282Y-79756000D02*
X102108000Y-79756000D01*
X102108000Y-79756000D02*
X100483969Y-78131969D01*
X101854000Y-68072000D02*
X102108000Y-68072000D01*
X100483969Y-69442031D02*
X101854000Y-68072000D01*
X100483969Y-78131969D02*
X100483969Y-69442031D01*
X100933489Y-101431489D02*
X100933489Y-92360511D01*
X105918000Y-91186000D02*
X106439000Y-90665000D01*
X105918000Y-68072000D02*
X102108000Y-68072000D01*
%TO.N,+3V3*%
X102721489Y-103780511D02*
X103378000Y-103124000D01*
X114808000Y-77724000D02*
X106330511Y-69246511D01*
X103378000Y-103124000D02*
X103378000Y-100076000D01*
X100933489Y-69754511D02*
X100933489Y-74517489D01*
X103378000Y-100076000D02*
X102108000Y-98806000D01*
X101346000Y-81026000D02*
X103124000Y-81026000D01*
X102108000Y-110226000D02*
X100933489Y-109051489D01*
X100933489Y-81438511D02*
X101346000Y-81026000D01*
X100933489Y-74517489D02*
X102108000Y-75692000D01*
X100933489Y-104298511D02*
X101451489Y-103780511D01*
X106330511Y-69246511D02*
X101441489Y-69246511D01*
X103124000Y-81026000D02*
X103632000Y-80518000D01*
X103632000Y-77216000D02*
X102108000Y-75692000D01*
X101441489Y-69246511D02*
X100933489Y-69754511D01*
X100933489Y-109051489D02*
X100933489Y-104298511D01*
X103632000Y-80518000D02*
X103632000Y-77216000D01*
X101451489Y-103780511D02*
X102721489Y-103780511D01*
X100933489Y-86201489D02*
X100933489Y-81438511D01*
X102108000Y-87376000D02*
X100933489Y-86201489D01*
%TD*%
%TA.AperFunction,Conductor*%
%TO.N,GND*%
G36*
X106084038Y-69900013D02*
G01*
X106105012Y-69916916D01*
X113457777Y-77269682D01*
X113491803Y-77331994D01*
X113490100Y-77392446D01*
X113468989Y-77468570D01*
X113445251Y-77690695D01*
X113458110Y-77913715D01*
X113459247Y-77918761D01*
X113459248Y-77918767D01*
X113483304Y-78025508D01*
X113507222Y-78131639D01*
X113591266Y-78338616D01*
X113630719Y-78402997D01*
X113700276Y-78516504D01*
X113707987Y-78529088D01*
X113854250Y-78697938D01*
X114026126Y-78840632D01*
X114099955Y-78883774D01*
X114148679Y-78935412D01*
X114161750Y-79005195D01*
X114135019Y-79070967D01*
X114094562Y-79104327D01*
X114086457Y-79108546D01*
X114077738Y-79114036D01*
X113907433Y-79241905D01*
X113899726Y-79248748D01*
X113752590Y-79402717D01*
X113746104Y-79410727D01*
X113626098Y-79586649D01*
X113621000Y-79595623D01*
X113531338Y-79788783D01*
X113527775Y-79798470D01*
X113472389Y-79998183D01*
X113473912Y-80006607D01*
X113486292Y-80010000D01*
X114936000Y-80010000D01*
X115004121Y-80030002D01*
X115050614Y-80083658D01*
X115062000Y-80136000D01*
X115062000Y-81582517D01*
X115066064Y-81596359D01*
X115079478Y-81598393D01*
X115086184Y-81597534D01*
X115096262Y-81595392D01*
X115300255Y-81534191D01*
X115309842Y-81530433D01*
X115501095Y-81436739D01*
X115509945Y-81431464D01*
X115683328Y-81307792D01*
X115691200Y-81301139D01*
X115842052Y-81150812D01*
X115848727Y-81142967D01*
X115849677Y-81141646D01*
X115850197Y-81141241D01*
X115852081Y-81139027D01*
X115852538Y-81139416D01*
X115905671Y-81097998D01*
X115976374Y-81091551D01*
X116039339Y-81124353D01*
X116074574Y-81185989D01*
X116078000Y-81215171D01*
X116078000Y-108408672D01*
X116076500Y-108428056D01*
X116072814Y-108451730D01*
X116073978Y-108460631D01*
X116073978Y-108460635D01*
X116075257Y-108470411D01*
X116076148Y-108493342D01*
X116066695Y-108673727D01*
X116061649Y-108770002D01*
X116060271Y-108783119D01*
X116012427Y-109085193D01*
X116009685Y-109098093D01*
X115939747Y-109359106D01*
X115930528Y-109393510D01*
X115926452Y-109406052D01*
X115882495Y-109520566D01*
X115816855Y-109691565D01*
X115811491Y-109703614D01*
X115672642Y-109976120D01*
X115666051Y-109987536D01*
X115499474Y-110244042D01*
X115491728Y-110254702D01*
X115383209Y-110388712D01*
X115299261Y-110492379D01*
X115290436Y-110502180D01*
X115074180Y-110718436D01*
X115064379Y-110727261D01*
X114839058Y-110909723D01*
X114826705Y-110919726D01*
X114816042Y-110927474D01*
X114559536Y-111094051D01*
X114548120Y-111100642D01*
X114275614Y-111239491D01*
X114263565Y-111244855D01*
X113978053Y-111354452D01*
X113965511Y-111358528D01*
X113708217Y-111427470D01*
X113670093Y-111437685D01*
X113657193Y-111440427D01*
X113355119Y-111488271D01*
X113342003Y-111489649D01*
X113072666Y-111503764D01*
X113046688Y-111502436D01*
X113045144Y-111502195D01*
X113045140Y-111502195D01*
X113036270Y-111500814D01*
X113027368Y-111501978D01*
X113027365Y-111501978D01*
X113004749Y-111504936D01*
X112988411Y-111506000D01*
X103519444Y-111506000D01*
X103451323Y-111485998D01*
X103404830Y-111432342D01*
X103394726Y-111362068D01*
X103407241Y-111324539D01*
X103408615Y-111322705D01*
X103459745Y-111186316D01*
X103466500Y-111124134D01*
X103466500Y-109327866D01*
X103459745Y-109265684D01*
X103408615Y-109129295D01*
X103321261Y-109012739D01*
X103204705Y-108925385D01*
X103141083Y-108901534D01*
X103086203Y-108880960D01*
X103029439Y-108838318D01*
X103004739Y-108771756D01*
X103019947Y-108702408D01*
X103041493Y-108673727D01*
X103124808Y-108590703D01*
X110920743Y-108590703D01*
X110958268Y-108875734D01*
X111034129Y-109153036D01*
X111035813Y-109156984D01*
X111142051Y-109406053D01*
X111146923Y-109417476D01*
X111294561Y-109664161D01*
X111474313Y-109888528D01*
X111682851Y-110086423D01*
X111916317Y-110254186D01*
X111920112Y-110256195D01*
X111920113Y-110256196D01*
X111941869Y-110267715D01*
X112170392Y-110388712D01*
X112440373Y-110487511D01*
X112721264Y-110548755D01*
X112749841Y-110551004D01*
X112944282Y-110566307D01*
X112944291Y-110566307D01*
X112946739Y-110566500D01*
X113102271Y-110566500D01*
X113104407Y-110566354D01*
X113104418Y-110566354D01*
X113312548Y-110552165D01*
X113312554Y-110552164D01*
X113316825Y-110551873D01*
X113321020Y-110551004D01*
X113321022Y-110551004D01*
X113457584Y-110522723D01*
X113598342Y-110493574D01*
X113869343Y-110397607D01*
X114124812Y-110265750D01*
X114128313Y-110263289D01*
X114128317Y-110263287D01*
X114242417Y-110183096D01*
X114360023Y-110100441D01*
X114481518Y-109987541D01*
X114567479Y-109907661D01*
X114567481Y-109907658D01*
X114570622Y-109904740D01*
X114752713Y-109682268D01*
X114902927Y-109437142D01*
X114921481Y-109394876D01*
X115016757Y-109177830D01*
X115018483Y-109173898D01*
X115028794Y-109137703D01*
X115096068Y-108901534D01*
X115097244Y-108897406D01*
X115137751Y-108612784D01*
X115137845Y-108594951D01*
X115139235Y-108329583D01*
X115139235Y-108329576D01*
X115139257Y-108325297D01*
X115101732Y-108040266D01*
X115025871Y-107762964D01*
X114913077Y-107498524D01*
X114765439Y-107251839D01*
X114585687Y-107027472D01*
X114407751Y-106858617D01*
X114380258Y-106832527D01*
X114380255Y-106832525D01*
X114377149Y-106829577D01*
X114143683Y-106661814D01*
X114121843Y-106650250D01*
X113939680Y-106553800D01*
X113889608Y-106527288D01*
X113619627Y-106428489D01*
X113338736Y-106367245D01*
X113307685Y-106364801D01*
X113115718Y-106349693D01*
X113115709Y-106349693D01*
X113113261Y-106349500D01*
X112957729Y-106349500D01*
X112955593Y-106349646D01*
X112955582Y-106349646D01*
X112747452Y-106363835D01*
X112747446Y-106363836D01*
X112743175Y-106364127D01*
X112738980Y-106364996D01*
X112738978Y-106364996D01*
X112602416Y-106393277D01*
X112461658Y-106422426D01*
X112190657Y-106518393D01*
X111935188Y-106650250D01*
X111931687Y-106652711D01*
X111931683Y-106652713D01*
X111874546Y-106692870D01*
X111699977Y-106815559D01*
X111489378Y-107011260D01*
X111307287Y-107233732D01*
X111157073Y-107478858D01*
X111041517Y-107742102D01*
X110962756Y-108018594D01*
X110922249Y-108303216D01*
X110922227Y-108307505D01*
X110922226Y-108307512D01*
X110921645Y-108418423D01*
X110920743Y-108590703D01*
X103124808Y-108590703D01*
X103146096Y-108569489D01*
X103276453Y-108388077D01*
X103305363Y-108329583D01*
X103373136Y-108192453D01*
X103373137Y-108192451D01*
X103375430Y-108187811D01*
X103426842Y-108018594D01*
X103438865Y-107979023D01*
X103438865Y-107979021D01*
X103440370Y-107974069D01*
X103469529Y-107752590D01*
X103469611Y-107749240D01*
X103471074Y-107689365D01*
X103471074Y-107689361D01*
X103471156Y-107686000D01*
X103452852Y-107463361D01*
X103398431Y-107246702D01*
X103309354Y-107041840D01*
X103188014Y-106854277D01*
X103037670Y-106689051D01*
X103033619Y-106685852D01*
X103033615Y-106685848D01*
X102866414Y-106553800D01*
X102866410Y-106553798D01*
X102862359Y-106550598D01*
X102820569Y-106527529D01*
X102770598Y-106477097D01*
X102755826Y-106407654D01*
X102780942Y-106341248D01*
X102808294Y-106314641D01*
X102983328Y-106189792D01*
X102991200Y-106183139D01*
X103142052Y-106032812D01*
X103148730Y-106024965D01*
X103273003Y-105852020D01*
X103278313Y-105843183D01*
X103372670Y-105652267D01*
X103376469Y-105642672D01*
X103438377Y-105438910D01*
X103440555Y-105428837D01*
X103441986Y-105417962D01*
X103439775Y-105403778D01*
X103426617Y-105400000D01*
X101980000Y-105400000D01*
X101911879Y-105379998D01*
X101865386Y-105326342D01*
X101854000Y-105274000D01*
X101854000Y-105018000D01*
X101874002Y-104949879D01*
X101927658Y-104903386D01*
X101980000Y-104892000D01*
X103426344Y-104892000D01*
X103439875Y-104888027D01*
X103441180Y-104878947D01*
X103399214Y-104711875D01*
X103395894Y-104702124D01*
X103310972Y-104506814D01*
X103306106Y-104497739D01*
X103201971Y-104336772D01*
X103181764Y-104268712D01*
X103201560Y-104200531D01*
X103218668Y-104179236D01*
X103770258Y-103627647D01*
X103778537Y-103620113D01*
X103785018Y-103616000D01*
X103831644Y-103566348D01*
X103834398Y-103563507D01*
X103854135Y-103543770D01*
X103856615Y-103540573D01*
X103864320Y-103531551D01*
X103889159Y-103505100D01*
X103894586Y-103499321D01*
X103898405Y-103492375D01*
X103898407Y-103492372D01*
X103904348Y-103481566D01*
X103915199Y-103465047D01*
X103922758Y-103455301D01*
X103927614Y-103449041D01*
X103930759Y-103441772D01*
X103930762Y-103441768D01*
X103945174Y-103408463D01*
X103950391Y-103397813D01*
X103971695Y-103359060D01*
X103976733Y-103339437D01*
X103983137Y-103320734D01*
X103988033Y-103309420D01*
X103988033Y-103309419D01*
X103991181Y-103302145D01*
X103992420Y-103294322D01*
X103992423Y-103294312D01*
X103998099Y-103258476D01*
X104000505Y-103246856D01*
X104009528Y-103211711D01*
X104009528Y-103211710D01*
X104011500Y-103204030D01*
X104011500Y-103183776D01*
X104013051Y-103164065D01*
X104014980Y-103151886D01*
X104016220Y-103144057D01*
X104012059Y-103100038D01*
X104011500Y-103088181D01*
X104011500Y-100154767D01*
X104012027Y-100143584D01*
X104013702Y-100136091D01*
X104011562Y-100068014D01*
X104011500Y-100064055D01*
X104011500Y-100036144D01*
X104010995Y-100032144D01*
X104010062Y-100020301D01*
X104008922Y-99984029D01*
X104008673Y-99976110D01*
X104003022Y-99956658D01*
X103999014Y-99937306D01*
X103997467Y-99925063D01*
X103996474Y-99917203D01*
X103993556Y-99909832D01*
X103980200Y-99876097D01*
X103976355Y-99864870D01*
X103975721Y-99862687D01*
X103964018Y-99822407D01*
X103959984Y-99815585D01*
X103959981Y-99815579D01*
X103953706Y-99804968D01*
X103945010Y-99787218D01*
X103940472Y-99775756D01*
X103940469Y-99775751D01*
X103937552Y-99768383D01*
X103911573Y-99732625D01*
X103905057Y-99722707D01*
X103886575Y-99691457D01*
X103882542Y-99684637D01*
X103868218Y-99670313D01*
X103855376Y-99655278D01*
X103843472Y-99638893D01*
X103809406Y-99610711D01*
X103800627Y-99602722D01*
X103503405Y-99305500D01*
X103469379Y-99243188D01*
X103466500Y-99216405D01*
X103466500Y-97907866D01*
X103459745Y-97845684D01*
X103408615Y-97709295D01*
X103321261Y-97592739D01*
X103204705Y-97505385D01*
X103190423Y-97500031D01*
X103086203Y-97460960D01*
X103029439Y-97418318D01*
X103004739Y-97351756D01*
X103019947Y-97282408D01*
X103041493Y-97253727D01*
X103142435Y-97153137D01*
X103146096Y-97149489D01*
X103153038Y-97139829D01*
X103273435Y-96972277D01*
X103276453Y-96968077D01*
X103291497Y-96937639D01*
X103373136Y-96772453D01*
X103373137Y-96772451D01*
X103375430Y-96767811D01*
X103440370Y-96554069D01*
X103447924Y-96496695D01*
X112429251Y-96496695D01*
X112429548Y-96501848D01*
X112429548Y-96501851D01*
X112435011Y-96596590D01*
X112442110Y-96719715D01*
X112443247Y-96724761D01*
X112443248Y-96724767D01*
X112452949Y-96767811D01*
X112491222Y-96937639D01*
X112575266Y-97144616D01*
X112577965Y-97149020D01*
X112674881Y-97307173D01*
X112691987Y-97335088D01*
X112838250Y-97503938D01*
X113010126Y-97646632D01*
X113203000Y-97759338D01*
X113411692Y-97839030D01*
X113416760Y-97840061D01*
X113416763Y-97840062D01*
X113483010Y-97853540D01*
X113630597Y-97883567D01*
X113635772Y-97883757D01*
X113635774Y-97883757D01*
X113848673Y-97891564D01*
X113848677Y-97891564D01*
X113853837Y-97891753D01*
X113858957Y-97891097D01*
X113858959Y-97891097D01*
X114070288Y-97864025D01*
X114070289Y-97864025D01*
X114075416Y-97863368D01*
X114080366Y-97861883D01*
X114284429Y-97800661D01*
X114284434Y-97800659D01*
X114289384Y-97799174D01*
X114489994Y-97700896D01*
X114671860Y-97571173D01*
X114732474Y-97510771D01*
X114826435Y-97417137D01*
X114830096Y-97413489D01*
X114874456Y-97351756D01*
X114957435Y-97236277D01*
X114960453Y-97232077D01*
X114999468Y-97153137D01*
X115057136Y-97036453D01*
X115057137Y-97036451D01*
X115059430Y-97031811D01*
X115124370Y-96818069D01*
X115153529Y-96596590D01*
X115155156Y-96530000D01*
X115136852Y-96307361D01*
X115082431Y-96090702D01*
X114993354Y-95885840D01*
X114872014Y-95698277D01*
X114721670Y-95533051D01*
X114717619Y-95529852D01*
X114717615Y-95529848D01*
X114550414Y-95397800D01*
X114550410Y-95397798D01*
X114546359Y-95394598D01*
X114505053Y-95371796D01*
X114455084Y-95321364D01*
X114440312Y-95251921D01*
X114465428Y-95185516D01*
X114492780Y-95158909D01*
X114536603Y-95127650D01*
X114671860Y-95031173D01*
X114693753Y-95009357D01*
X114794567Y-94908894D01*
X114830096Y-94873489D01*
X114889594Y-94790689D01*
X114957435Y-94696277D01*
X114960453Y-94692077D01*
X115059430Y-94491811D01*
X115124370Y-94278069D01*
X115153529Y-94056590D01*
X115154696Y-94008837D01*
X115155074Y-93993365D01*
X115155074Y-93993361D01*
X115155156Y-93990000D01*
X115136852Y-93767361D01*
X115082431Y-93550702D01*
X114993354Y-93345840D01*
X114872014Y-93158277D01*
X114721670Y-92993051D01*
X114717619Y-92989852D01*
X114717615Y-92989848D01*
X114550414Y-92857800D01*
X114550410Y-92857798D01*
X114546359Y-92854598D01*
X114505053Y-92831796D01*
X114455084Y-92781364D01*
X114440312Y-92711921D01*
X114465428Y-92645516D01*
X114492780Y-92618909D01*
X114536603Y-92587650D01*
X114671860Y-92491173D01*
X114830096Y-92333489D01*
X114889594Y-92250689D01*
X114957435Y-92156277D01*
X114960453Y-92152077D01*
X114973613Y-92125451D01*
X115057136Y-91956453D01*
X115057137Y-91956451D01*
X115059430Y-91951811D01*
X115102205Y-91811022D01*
X115122865Y-91743023D01*
X115122865Y-91743021D01*
X115124370Y-91738069D01*
X115153529Y-91516590D01*
X115155156Y-91450000D01*
X115136852Y-91227361D01*
X115082431Y-91010702D01*
X114993354Y-90805840D01*
X114906488Y-90671565D01*
X114874822Y-90622617D01*
X114874820Y-90622614D01*
X114872014Y-90618277D01*
X114868532Y-90614450D01*
X114724798Y-90456488D01*
X114693746Y-90392642D01*
X114702141Y-90322143D01*
X114747317Y-90267375D01*
X114773761Y-90253706D01*
X114880297Y-90213767D01*
X114888705Y-90210615D01*
X115005261Y-90123261D01*
X115092615Y-90006705D01*
X115143745Y-89870316D01*
X115150500Y-89808134D01*
X115150500Y-88011866D01*
X115143745Y-87949684D01*
X115092615Y-87813295D01*
X115005261Y-87696739D01*
X114888705Y-87609385D01*
X114752316Y-87558255D01*
X114690134Y-87551500D01*
X112893866Y-87551500D01*
X112831684Y-87558255D01*
X112695295Y-87609385D01*
X112578739Y-87696739D01*
X112491385Y-87813295D01*
X112440255Y-87949684D01*
X112433500Y-88011866D01*
X112433500Y-89808134D01*
X112440255Y-89870316D01*
X112491385Y-90006705D01*
X112578739Y-90123261D01*
X112695295Y-90210615D01*
X112703704Y-90213767D01*
X112703705Y-90213768D01*
X112812451Y-90254535D01*
X112869216Y-90297176D01*
X112893916Y-90363738D01*
X112878709Y-90433087D01*
X112859316Y-90459568D01*
X112771293Y-90551679D01*
X112732629Y-90592138D01*
X112606743Y-90776680D01*
X112512688Y-90979305D01*
X112452989Y-91194570D01*
X112429251Y-91416695D01*
X112429548Y-91421848D01*
X112429548Y-91421851D01*
X112435011Y-91516590D01*
X112442110Y-91639715D01*
X112443247Y-91644761D01*
X112443248Y-91644767D01*
X112459318Y-91716073D01*
X112491222Y-91857639D01*
X112575266Y-92064616D01*
X112624570Y-92145073D01*
X112674881Y-92227173D01*
X112691987Y-92255088D01*
X112838250Y-92423938D01*
X113010126Y-92566632D01*
X113047583Y-92588520D01*
X113083445Y-92609476D01*
X113132169Y-92661114D01*
X113145240Y-92730897D01*
X113118509Y-92796669D01*
X113078055Y-92830027D01*
X113065607Y-92836507D01*
X113061474Y-92839610D01*
X113061471Y-92839612D01*
X112891100Y-92967530D01*
X112886965Y-92970635D01*
X112732629Y-93132138D01*
X112606743Y-93316680D01*
X112512688Y-93519305D01*
X112452989Y-93734570D01*
X112429251Y-93956695D01*
X112429548Y-93961848D01*
X112429548Y-93961851D01*
X112435011Y-94056590D01*
X112442110Y-94179715D01*
X112443247Y-94184761D01*
X112443248Y-94184767D01*
X112451791Y-94222672D01*
X112491222Y-94397639D01*
X112575266Y-94604616D01*
X112626019Y-94687438D01*
X112676486Y-94769792D01*
X112691987Y-94795088D01*
X112838250Y-94963938D01*
X113010126Y-95106632D01*
X113046866Y-95128101D01*
X113083445Y-95149476D01*
X113132169Y-95201114D01*
X113145240Y-95270897D01*
X113118509Y-95336669D01*
X113078055Y-95370027D01*
X113065607Y-95376507D01*
X113061474Y-95379610D01*
X113061471Y-95379612D01*
X113037247Y-95397800D01*
X112886965Y-95510635D01*
X112732629Y-95672138D01*
X112606743Y-95856680D01*
X112591003Y-95890590D01*
X112522419Y-96038342D01*
X112512688Y-96059305D01*
X112452989Y-96274570D01*
X112429251Y-96496695D01*
X103447924Y-96496695D01*
X103469529Y-96332590D01*
X103470019Y-96312522D01*
X103471074Y-96269365D01*
X103471074Y-96269361D01*
X103471156Y-96266000D01*
X103452852Y-96043361D01*
X103398431Y-95826702D01*
X103309354Y-95621840D01*
X103249842Y-95529848D01*
X103190822Y-95438617D01*
X103190820Y-95438614D01*
X103188014Y-95434277D01*
X103037670Y-95269051D01*
X103033619Y-95265852D01*
X103033615Y-95265848D01*
X102866414Y-95133800D01*
X102866410Y-95133798D01*
X102862359Y-95130598D01*
X102820569Y-95107529D01*
X102770598Y-95057097D01*
X102755826Y-94987654D01*
X102780942Y-94921248D01*
X102808294Y-94894641D01*
X102983328Y-94769792D01*
X102991200Y-94763139D01*
X103142052Y-94612812D01*
X103148730Y-94604965D01*
X103273003Y-94432020D01*
X103278313Y-94423183D01*
X103372670Y-94232267D01*
X103376469Y-94222672D01*
X103438377Y-94018910D01*
X103440555Y-94008837D01*
X103441986Y-93997962D01*
X103439775Y-93983778D01*
X103426617Y-93980000D01*
X101980000Y-93980000D01*
X101911879Y-93959998D01*
X101865386Y-93906342D01*
X101854000Y-93854000D01*
X101854000Y-93598000D01*
X101874002Y-93529879D01*
X101927658Y-93483386D01*
X101980000Y-93472000D01*
X103426344Y-93472000D01*
X103439875Y-93468027D01*
X103441180Y-93458947D01*
X103399214Y-93291875D01*
X103395894Y-93282124D01*
X103310972Y-93086814D01*
X103306105Y-93077739D01*
X103190426Y-92898926D01*
X103184136Y-92890757D01*
X103040806Y-92733240D01*
X103033273Y-92726215D01*
X102866139Y-92594222D01*
X102857556Y-92588520D01*
X102820602Y-92568120D01*
X102770631Y-92517687D01*
X102755859Y-92448245D01*
X102780975Y-92381839D01*
X102808327Y-92355232D01*
X102857095Y-92320446D01*
X102987860Y-92227173D01*
X103024964Y-92190199D01*
X103142435Y-92073137D01*
X103146096Y-92069489D01*
X103153038Y-92059829D01*
X103273435Y-91892277D01*
X103276453Y-91888077D01*
X103278746Y-91883437D01*
X103280446Y-91880608D01*
X103332674Y-91832518D01*
X103388451Y-91819500D01*
X105839233Y-91819500D01*
X105850416Y-91820027D01*
X105857909Y-91821702D01*
X105865835Y-91821453D01*
X105865836Y-91821453D01*
X105925986Y-91819562D01*
X105929945Y-91819500D01*
X105957856Y-91819500D01*
X105961791Y-91819003D01*
X105961856Y-91818995D01*
X105973693Y-91818062D01*
X106005951Y-91817048D01*
X106009970Y-91816922D01*
X106017889Y-91816673D01*
X106037343Y-91811021D01*
X106056700Y-91807013D01*
X106068930Y-91805468D01*
X106068931Y-91805468D01*
X106076797Y-91804474D01*
X106084168Y-91801555D01*
X106084170Y-91801555D01*
X106117912Y-91788196D01*
X106129142Y-91784351D01*
X106163983Y-91774229D01*
X106163984Y-91774229D01*
X106171593Y-91772018D01*
X106178412Y-91767985D01*
X106178417Y-91767983D01*
X106189028Y-91761707D01*
X106206776Y-91753012D01*
X106225617Y-91745552D01*
X106261387Y-91719564D01*
X106271307Y-91713048D01*
X106302535Y-91694580D01*
X106302538Y-91694578D01*
X106309362Y-91690542D01*
X106323683Y-91676221D01*
X106338717Y-91663380D01*
X106348694Y-91656131D01*
X106355107Y-91651472D01*
X106381818Y-91619184D01*
X106440652Y-91579446D01*
X106478903Y-91573500D01*
X106534487Y-91573500D01*
X106540939Y-91572128D01*
X106540944Y-91572128D01*
X106627887Y-91553647D01*
X106721288Y-91533794D01*
X106727319Y-91531109D01*
X106889722Y-91458803D01*
X106889724Y-91458802D01*
X106895752Y-91456118D01*
X107050253Y-91343866D01*
X107054675Y-91338955D01*
X107173621Y-91206852D01*
X107173622Y-91206851D01*
X107178040Y-91201944D01*
X107273527Y-91036556D01*
X107332542Y-90854928D01*
X107340035Y-90783641D01*
X107351814Y-90671565D01*
X107352504Y-90665000D01*
X107332542Y-90475072D01*
X107273527Y-90293444D01*
X107178040Y-90128056D01*
X107094484Y-90035257D01*
X107054675Y-89991045D01*
X107054674Y-89991044D01*
X107050253Y-89986134D01*
X106895752Y-89873882D01*
X106889724Y-89871198D01*
X106889722Y-89871197D01*
X106727319Y-89798891D01*
X106727318Y-89798891D01*
X106721288Y-89796206D01*
X106627888Y-89776353D01*
X106540944Y-89757872D01*
X106540939Y-89757872D01*
X106534487Y-89756500D01*
X106343513Y-89756500D01*
X106337061Y-89757872D01*
X106337056Y-89757872D01*
X106250112Y-89776353D01*
X106156712Y-89796206D01*
X106150682Y-89798891D01*
X106150681Y-89798891D01*
X105988278Y-89871197D01*
X105988276Y-89871198D01*
X105982248Y-89873882D01*
X105827747Y-89986134D01*
X105823326Y-89991044D01*
X105823325Y-89991045D01*
X105783517Y-90035257D01*
X105699960Y-90128056D01*
X105604473Y-90293444D01*
X105602431Y-90299729D01*
X105548589Y-90465436D01*
X105508515Y-90524042D01*
X105443119Y-90551679D01*
X105428756Y-90552500D01*
X103384805Y-90552500D01*
X103316684Y-90532498D01*
X103279013Y-90494940D01*
X103190822Y-90358617D01*
X103190820Y-90358614D01*
X103188014Y-90354277D01*
X103037670Y-90189051D01*
X103033619Y-90185852D01*
X103033615Y-90185848D01*
X102866414Y-90053800D01*
X102866410Y-90053798D01*
X102862359Y-90050598D01*
X102826941Y-90031046D01*
X102795864Y-90013891D01*
X102666789Y-89942638D01*
X102661920Y-89940914D01*
X102661916Y-89940912D01*
X102461087Y-89869795D01*
X102461083Y-89869794D01*
X102456212Y-89868069D01*
X102451119Y-89867162D01*
X102451116Y-89867161D01*
X102241373Y-89829800D01*
X102241367Y-89829799D01*
X102236284Y-89828894D01*
X102162452Y-89827992D01*
X102018081Y-89826228D01*
X102018079Y-89826228D01*
X102012911Y-89826165D01*
X101792091Y-89859955D01*
X101779532Y-89864060D01*
X101708568Y-89866210D01*
X101651294Y-89833389D01*
X101154374Y-89336469D01*
X101120348Y-89274157D01*
X101117469Y-89247374D01*
X101117469Y-88860500D01*
X101137471Y-88792379D01*
X101191127Y-88745886D01*
X101243469Y-88734500D01*
X103006134Y-88734500D01*
X103068316Y-88727745D01*
X103204705Y-88676615D01*
X103321261Y-88589261D01*
X103408615Y-88472705D01*
X103459745Y-88336316D01*
X103466500Y-88274134D01*
X103466500Y-86477866D01*
X103459745Y-86415684D01*
X103408615Y-86279295D01*
X103321261Y-86162739D01*
X103204705Y-86075385D01*
X103192132Y-86070672D01*
X103086203Y-86030960D01*
X103029439Y-85988318D01*
X103004739Y-85921756D01*
X103019947Y-85852408D01*
X103041493Y-85823727D01*
X103142435Y-85723137D01*
X103146096Y-85719489D01*
X103276453Y-85538077D01*
X103375430Y-85337811D01*
X103440370Y-85124069D01*
X103469529Y-84902590D01*
X103471156Y-84836000D01*
X103452852Y-84613361D01*
X103398431Y-84396702D01*
X103309354Y-84191840D01*
X103188014Y-84004277D01*
X103037670Y-83839051D01*
X103033619Y-83835852D01*
X103033615Y-83835848D01*
X102866414Y-83703800D01*
X102866410Y-83703798D01*
X102862359Y-83700598D01*
X102820569Y-83677529D01*
X102770598Y-83627097D01*
X102755826Y-83557654D01*
X102780942Y-83491248D01*
X102808294Y-83464641D01*
X102983328Y-83339792D01*
X102991200Y-83333139D01*
X103142052Y-83182812D01*
X103148730Y-83174965D01*
X103273003Y-83002020D01*
X103278313Y-82993183D01*
X103372670Y-82802267D01*
X103376469Y-82792672D01*
X103438377Y-82588910D01*
X103440555Y-82578837D01*
X103441986Y-82567962D01*
X103439775Y-82553778D01*
X103426617Y-82550000D01*
X101980000Y-82550000D01*
X101911879Y-82529998D01*
X101865386Y-82476342D01*
X101854000Y-82424000D01*
X101854000Y-82168000D01*
X101874002Y-82099879D01*
X101927658Y-82053386D01*
X101980000Y-82042000D01*
X103426344Y-82042000D01*
X103439875Y-82038027D01*
X103441180Y-82028947D01*
X103399214Y-81861875D01*
X103395894Y-81852124D01*
X103354192Y-81756215D01*
X103345372Y-81685769D01*
X103376039Y-81621737D01*
X103417598Y-81592828D01*
X103417301Y-81592287D01*
X103422426Y-81589470D01*
X103423356Y-81588822D01*
X103431617Y-81585552D01*
X103467387Y-81559564D01*
X103477307Y-81553048D01*
X103508535Y-81534580D01*
X103508538Y-81534578D01*
X103515362Y-81530542D01*
X103529683Y-81516221D01*
X103544717Y-81503380D01*
X103554694Y-81496131D01*
X103561107Y-81491472D01*
X103589298Y-81457395D01*
X103597288Y-81448616D01*
X104024247Y-81021657D01*
X104032537Y-81014113D01*
X104039018Y-81010000D01*
X104085659Y-80960332D01*
X104088413Y-80957491D01*
X104108134Y-80937770D01*
X104110612Y-80934575D01*
X104118318Y-80925553D01*
X104143158Y-80899101D01*
X104148586Y-80893321D01*
X104158346Y-80875568D01*
X104169199Y-80859045D01*
X104176753Y-80849306D01*
X104181613Y-80843041D01*
X104199176Y-80802457D01*
X104204383Y-80791827D01*
X104225695Y-80753060D01*
X104227666Y-80745383D01*
X104227668Y-80745378D01*
X104230732Y-80733442D01*
X104237138Y-80714730D01*
X104242034Y-80703417D01*
X104245181Y-80696145D01*
X104252097Y-80652481D01*
X104254504Y-80640860D01*
X104263528Y-80605711D01*
X104263528Y-80605710D01*
X104265500Y-80598030D01*
X104265500Y-80577769D01*
X104267051Y-80558058D01*
X104268979Y-80545885D01*
X104270219Y-80538057D01*
X104269643Y-80531966D01*
X113476257Y-80531966D01*
X113506565Y-80666446D01*
X113509645Y-80676275D01*
X113589770Y-80873603D01*
X113594413Y-80882794D01*
X113705694Y-81064388D01*
X113711777Y-81072699D01*
X113851213Y-81233667D01*
X113858580Y-81240883D01*
X114022434Y-81376916D01*
X114030881Y-81382831D01*
X114214756Y-81490279D01*
X114224042Y-81494729D01*
X114423001Y-81570703D01*
X114432899Y-81573579D01*
X114536250Y-81594606D01*
X114550299Y-81593410D01*
X114554000Y-81583065D01*
X114554000Y-80536115D01*
X114549525Y-80520876D01*
X114548135Y-80519671D01*
X114540452Y-80518000D01*
X113491225Y-80518000D01*
X113477694Y-80521973D01*
X113476257Y-80531966D01*
X104269643Y-80531966D01*
X104266059Y-80494046D01*
X104265500Y-80482189D01*
X104265500Y-77294763D01*
X104266027Y-77283579D01*
X104267701Y-77276091D01*
X104265562Y-77208032D01*
X104265500Y-77204075D01*
X104265500Y-77176144D01*
X104264994Y-77172138D01*
X104264061Y-77160292D01*
X104262922Y-77124037D01*
X104262673Y-77116110D01*
X104257022Y-77096658D01*
X104253014Y-77077306D01*
X104251468Y-77065068D01*
X104251467Y-77065066D01*
X104250474Y-77057203D01*
X104234194Y-77016086D01*
X104230359Y-77004885D01*
X104218018Y-76962406D01*
X104213985Y-76955587D01*
X104213983Y-76955582D01*
X104207707Y-76944971D01*
X104199010Y-76927221D01*
X104191552Y-76908383D01*
X104165571Y-76872623D01*
X104159053Y-76862701D01*
X104140578Y-76831460D01*
X104140574Y-76831455D01*
X104136542Y-76824637D01*
X104122218Y-76810313D01*
X104109376Y-76795278D01*
X104097472Y-76778893D01*
X104063406Y-76750711D01*
X104054627Y-76742722D01*
X103503405Y-76191500D01*
X103469379Y-76129188D01*
X103466500Y-76102405D01*
X103466500Y-74793866D01*
X103459745Y-74731684D01*
X103408615Y-74595295D01*
X103321261Y-74478739D01*
X103204705Y-74391385D01*
X103192132Y-74386672D01*
X103086203Y-74346960D01*
X103029439Y-74304318D01*
X103004739Y-74237756D01*
X103019947Y-74168408D01*
X103041493Y-74139727D01*
X103085671Y-74095703D01*
X103146096Y-74035489D01*
X103276453Y-73854077D01*
X103375430Y-73653811D01*
X103440370Y-73440069D01*
X103469529Y-73218590D01*
X103471156Y-73152000D01*
X103452852Y-72929361D01*
X103398431Y-72712702D01*
X103309354Y-72507840D01*
X103188014Y-72320277D01*
X103037670Y-72155051D01*
X103033619Y-72151852D01*
X103033615Y-72151848D01*
X102866414Y-72019800D01*
X102866410Y-72019798D01*
X102862359Y-72016598D01*
X102820569Y-71993529D01*
X102770598Y-71943097D01*
X102755826Y-71873654D01*
X102780942Y-71807248D01*
X102808294Y-71780641D01*
X102983328Y-71655792D01*
X102991200Y-71649139D01*
X103142052Y-71498812D01*
X103148730Y-71490965D01*
X103273003Y-71318020D01*
X103278313Y-71309183D01*
X103372670Y-71118267D01*
X103376469Y-71108672D01*
X103438377Y-70904910D01*
X103440555Y-70894837D01*
X103441986Y-70883962D01*
X103439775Y-70869778D01*
X103426617Y-70866000D01*
X101980000Y-70866000D01*
X101911879Y-70845998D01*
X101865386Y-70792342D01*
X101854000Y-70740000D01*
X101854000Y-70484000D01*
X101874002Y-70415879D01*
X101927658Y-70369386D01*
X101980000Y-70358000D01*
X103426344Y-70358000D01*
X103439875Y-70354027D01*
X103441180Y-70344947D01*
X103399214Y-70177875D01*
X103395894Y-70168124D01*
X103347252Y-70056253D01*
X103338433Y-69985806D01*
X103369099Y-69921775D01*
X103429516Y-69884487D01*
X103462802Y-69880011D01*
X106015917Y-69880011D01*
X106084038Y-69900013D01*
G37*
%TD.AperFunction*%
%TD*%
M02*
