%TF.GenerationSoftware,KiCad,Pcbnew,(6.0.0)*%
%TF.CreationDate,2022-03-13T19:19:56-04:00*%
%TF.ProjectId,4 GC port esd board (for wii mini),34204743-2070-46f7-9274-206573642062,rev?*%
%TF.SameCoordinates,Original*%
%TF.FileFunction,Legend,Top*%
%TF.FilePolarity,Positive*%
%FSLAX46Y46*%
G04 Gerber Fmt 4.6, Leading zero omitted, Abs format (unit mm)*
G04 Created by KiCad (PCBNEW (6.0.0)) date 2022-03-13 19:19:56*
%MOMM*%
%LPD*%
G01*
G04 APERTURE LIST*
G04 Aperture macros list*
%AMRoundRect*
0 Rectangle with rounded corners*
0 $1 Rounding radius*
0 $2 $3 $4 $5 $6 $7 $8 $9 X,Y pos of 4 corners*
0 Add a 4 corners polygon primitive as box body*
4,1,4,$2,$3,$4,$5,$6,$7,$8,$9,$2,$3,0*
0 Add four circle primitives for the rounded corners*
1,1,$1+$1,$2,$3*
1,1,$1+$1,$4,$5*
1,1,$1+$1,$6,$7*
1,1,$1+$1,$8,$9*
0 Add four rect primitives between the rounded corners*
20,1,$1+$1,$2,$3,$4,$5,0*
20,1,$1+$1,$4,$5,$6,$7,0*
20,1,$1+$1,$6,$7,$8,$9,0*
20,1,$1+$1,$8,$9,$2,$3,0*%
G04 Aperture macros list end*
%ADD10C,0.150000*%
%ADD11C,0.100000*%
%ADD12C,0.120000*%
%ADD13C,0.127000*%
%ADD14RoundRect,0.225000X-0.250000X0.225000X-0.250000X-0.225000X0.250000X-0.225000X0.250000X0.225000X0*%
%ADD15R,1.700000X1.700000*%
%ADD16O,1.700000X1.700000*%
%ADD17C,3.200000*%
%ADD18RoundRect,0.225000X0.250000X-0.225000X0.250000X0.225000X-0.250000X0.225000X-0.250000X-0.225000X0*%
%ADD19R,0.600000X1.100000*%
G04 APERTURE END LIST*
D10*
X111212380Y-94313333D02*
X111212380Y-93694285D01*
X111593333Y-94027619D01*
X111593333Y-93884761D01*
X111640952Y-93789523D01*
X111688571Y-93741904D01*
X111783809Y-93694285D01*
X112021904Y-93694285D01*
X112117142Y-93741904D01*
X112164761Y-93789523D01*
X112212380Y-93884761D01*
X112212380Y-94170476D01*
X112164761Y-94265714D01*
X112117142Y-94313333D01*
D11*
X112072000Y-80168000D02*
X112005333Y-80134666D01*
X111905333Y-80134666D01*
X111805333Y-80168000D01*
X111738666Y-80234666D01*
X111705333Y-80301333D01*
X111672000Y-80434666D01*
X111672000Y-80534666D01*
X111705333Y-80668000D01*
X111738666Y-80734666D01*
X111805333Y-80801333D01*
X111905333Y-80834666D01*
X111972000Y-80834666D01*
X112072000Y-80801333D01*
X112105333Y-80768000D01*
X112105333Y-80534666D01*
X111972000Y-80534666D01*
X112405333Y-80368000D02*
X112405333Y-80834666D01*
X112405333Y-80434666D02*
X112438666Y-80401333D01*
X112505333Y-80368000D01*
X112605333Y-80368000D01*
X112672000Y-80401333D01*
X112705333Y-80468000D01*
X112705333Y-80834666D01*
X113338666Y-80834666D02*
X113338666Y-80134666D01*
X113338666Y-80801333D02*
X113272000Y-80834666D01*
X113138666Y-80834666D01*
X113072000Y-80801333D01*
X113038666Y-80768000D01*
X113005333Y-80701333D01*
X113005333Y-80501333D01*
X113038666Y-80434666D01*
X113072000Y-80401333D01*
X113138666Y-80368000D01*
X113272000Y-80368000D01*
X113338666Y-80401333D01*
D10*
X111545714Y-96329523D02*
X112212380Y-96329523D01*
X111164761Y-96567619D02*
X111879047Y-96805714D01*
X111879047Y-96186666D01*
D11*
X111688666Y-77594666D02*
X112122000Y-77594666D01*
X111888666Y-77861333D01*
X111988666Y-77861333D01*
X112055333Y-77894666D01*
X112088666Y-77928000D01*
X112122000Y-77994666D01*
X112122000Y-78161333D01*
X112088666Y-78228000D01*
X112055333Y-78261333D01*
X111988666Y-78294666D01*
X111788666Y-78294666D01*
X111722000Y-78261333D01*
X111688666Y-78228000D01*
X112355333Y-77828000D02*
X112522000Y-78294666D01*
X112688666Y-77828000D01*
X112888666Y-77594666D02*
X113322000Y-77594666D01*
X113088666Y-77861333D01*
X113188666Y-77861333D01*
X113255333Y-77894666D01*
X113288666Y-77928000D01*
X113322000Y-77994666D01*
X113322000Y-78161333D01*
X113288666Y-78228000D01*
X113255333Y-78261333D01*
X113188666Y-78294666D01*
X112988666Y-78294666D01*
X112922000Y-78261333D01*
X112888666Y-78228000D01*
D10*
X111307619Y-91725714D02*
X111260000Y-91678095D01*
X111212380Y-91582857D01*
X111212380Y-91344761D01*
X111260000Y-91249523D01*
X111307619Y-91201904D01*
X111402857Y-91154285D01*
X111498095Y-91154285D01*
X111640952Y-91201904D01*
X112212380Y-91773333D01*
X112212380Y-91154285D01*
D11*
X112422000Y-75054666D02*
X112088666Y-75054666D01*
X112055333Y-75388000D01*
X112088666Y-75354666D01*
X112155333Y-75321333D01*
X112322000Y-75321333D01*
X112388666Y-75354666D01*
X112422000Y-75388000D01*
X112455333Y-75454666D01*
X112455333Y-75621333D01*
X112422000Y-75688000D01*
X112388666Y-75721333D01*
X112322000Y-75754666D01*
X112155333Y-75754666D01*
X112088666Y-75721333D01*
X112055333Y-75688000D01*
X112688666Y-75288000D02*
X112855333Y-75754666D01*
X113022000Y-75288000D01*
D10*
X112212380Y-88624285D02*
X112212380Y-89195714D01*
X112212380Y-88910000D02*
X111212380Y-88910000D01*
X111355238Y-89005238D01*
X111450476Y-89100476D01*
X111498095Y-89195714D01*
%TO.C,C3*%
X106689142Y-80938666D02*
X106736761Y-80986285D01*
X106784380Y-81129142D01*
X106784380Y-81224380D01*
X106736761Y-81367238D01*
X106641523Y-81462476D01*
X106546285Y-81510095D01*
X106355809Y-81557714D01*
X106212952Y-81557714D01*
X106022476Y-81510095D01*
X105927238Y-81462476D01*
X105832000Y-81367238D01*
X105784380Y-81224380D01*
X105784380Y-81129142D01*
X105832000Y-80986285D01*
X105879619Y-80938666D01*
X105784380Y-80605333D02*
X105784380Y-79986285D01*
X106165333Y-80319619D01*
X106165333Y-80176761D01*
X106212952Y-80081523D01*
X106260571Y-80033904D01*
X106355809Y-79986285D01*
X106593904Y-79986285D01*
X106689142Y-80033904D01*
X106736761Y-80081523D01*
X106784380Y-80176761D01*
X106784380Y-80462476D01*
X106736761Y-80557714D01*
X106689142Y-80605333D01*
%TO.C,J3*%
X99607714Y-85939047D02*
X100607714Y-85939047D01*
X99655333Y-85939047D02*
X99607714Y-85843809D01*
X99607714Y-85653333D01*
X99655333Y-85558095D01*
X99702952Y-85510476D01*
X99798190Y-85462857D01*
X100083904Y-85462857D01*
X100179142Y-85510476D01*
X100226761Y-85558095D01*
X100274380Y-85653333D01*
X100274380Y-85843809D01*
X100226761Y-85939047D01*
X100274380Y-84891428D02*
X100226761Y-84986666D01*
X100179142Y-85034285D01*
X100083904Y-85081904D01*
X99798190Y-85081904D01*
X99702952Y-85034285D01*
X99655333Y-84986666D01*
X99607714Y-84891428D01*
X99607714Y-84748571D01*
X99655333Y-84653333D01*
X99702952Y-84605714D01*
X99798190Y-84558095D01*
X100083904Y-84558095D01*
X100179142Y-84605714D01*
X100226761Y-84653333D01*
X100274380Y-84748571D01*
X100274380Y-84891428D01*
X100274380Y-84129523D02*
X99607714Y-84129523D01*
X99798190Y-84129523D02*
X99702952Y-84081904D01*
X99655333Y-84034285D01*
X99607714Y-83939047D01*
X99607714Y-83843809D01*
X99607714Y-83653333D02*
X99607714Y-83272380D01*
X99274380Y-83510476D02*
X100131523Y-83510476D01*
X100226761Y-83462857D01*
X100274380Y-83367619D01*
X100274380Y-83272380D01*
X99369619Y-82224761D02*
X99322000Y-82177142D01*
X99274380Y-82081904D01*
X99274380Y-81843809D01*
X99322000Y-81748571D01*
X99369619Y-81700952D01*
X99464857Y-81653333D01*
X99560095Y-81653333D01*
X99702952Y-81700952D01*
X100274380Y-82272380D01*
X100274380Y-81653333D01*
%TO.C,C6*%
X106706942Y-99125066D02*
X106754561Y-99172685D01*
X106802180Y-99315542D01*
X106802180Y-99410780D01*
X106754561Y-99553638D01*
X106659323Y-99648876D01*
X106564085Y-99696495D01*
X106373609Y-99744114D01*
X106230752Y-99744114D01*
X106040276Y-99696495D01*
X105945038Y-99648876D01*
X105849800Y-99553638D01*
X105802180Y-99410780D01*
X105802180Y-99315542D01*
X105849800Y-99172685D01*
X105897419Y-99125066D01*
X105802180Y-98267923D02*
X105802180Y-98458400D01*
X105849800Y-98553638D01*
X105897419Y-98601257D01*
X106040276Y-98696495D01*
X106230752Y-98744114D01*
X106611704Y-98744114D01*
X106706942Y-98696495D01*
X106754561Y-98648876D01*
X106802180Y-98553638D01*
X106802180Y-98363161D01*
X106754561Y-98267923D01*
X106706942Y-98220304D01*
X106611704Y-98172685D01*
X106373609Y-98172685D01*
X106278371Y-98220304D01*
X106230752Y-98267923D01*
X106183133Y-98363161D01*
X106183133Y-98553638D01*
X106230752Y-98648876D01*
X106278371Y-98696495D01*
X106373609Y-98744114D01*
%TO.C,C8*%
X106529142Y-110797246D02*
X106576761Y-110844865D01*
X106624380Y-110987722D01*
X106624380Y-111082960D01*
X106576761Y-111225818D01*
X106481523Y-111321056D01*
X106386285Y-111368675D01*
X106195809Y-111416294D01*
X106052952Y-111416294D01*
X105862476Y-111368675D01*
X105767238Y-111321056D01*
X105672000Y-111225818D01*
X105624380Y-111082960D01*
X105624380Y-110987722D01*
X105672000Y-110844865D01*
X105719619Y-110797246D01*
X106052952Y-110225818D02*
X106005333Y-110321056D01*
X105957714Y-110368675D01*
X105862476Y-110416294D01*
X105814857Y-110416294D01*
X105719619Y-110368675D01*
X105672000Y-110321056D01*
X105624380Y-110225818D01*
X105624380Y-110035341D01*
X105672000Y-109940103D01*
X105719619Y-109892484D01*
X105814857Y-109844865D01*
X105862476Y-109844865D01*
X105957714Y-109892484D01*
X106005333Y-109940103D01*
X106052952Y-110035341D01*
X106052952Y-110225818D01*
X106100571Y-110321056D01*
X106148190Y-110368675D01*
X106243428Y-110416294D01*
X106433904Y-110416294D01*
X106529142Y-110368675D01*
X106576761Y-110321056D01*
X106624380Y-110225818D01*
X106624380Y-110035341D01*
X106576761Y-109940103D01*
X106529142Y-109892484D01*
X106433904Y-109844865D01*
X106243428Y-109844865D01*
X106148190Y-109892484D01*
X106100571Y-109940103D01*
X106052952Y-110035341D01*
%TO.C,J6*%
X110259761Y-96701904D02*
X110307380Y-96797142D01*
X110307380Y-96987619D01*
X110259761Y-97082857D01*
X110212142Y-97130476D01*
X110116904Y-97178095D01*
X109831190Y-97178095D01*
X109735952Y-97130476D01*
X109688333Y-97082857D01*
X109640714Y-96987619D01*
X109640714Y-96797142D01*
X109688333Y-96701904D01*
X110307380Y-96130476D02*
X110259761Y-96225714D01*
X110212142Y-96273333D01*
X110116904Y-96320952D01*
X109831190Y-96320952D01*
X109735952Y-96273333D01*
X109688333Y-96225714D01*
X109640714Y-96130476D01*
X109640714Y-95987619D01*
X109688333Y-95892380D01*
X109735952Y-95844761D01*
X109831190Y-95797142D01*
X110116904Y-95797142D01*
X110212142Y-95844761D01*
X110259761Y-95892380D01*
X110307380Y-95987619D01*
X110307380Y-96130476D01*
X109640714Y-95368571D02*
X110307380Y-95368571D01*
X109735952Y-95368571D02*
X109688333Y-95320952D01*
X109640714Y-95225714D01*
X109640714Y-95082857D01*
X109688333Y-94987619D01*
X109783571Y-94940000D01*
X110307380Y-94940000D01*
X109640714Y-94606666D02*
X109640714Y-94225714D01*
X109307380Y-94463809D02*
X110164523Y-94463809D01*
X110259761Y-94416190D01*
X110307380Y-94320952D01*
X110307380Y-94225714D01*
X110307380Y-93892380D02*
X109640714Y-93892380D01*
X109831190Y-93892380D02*
X109735952Y-93844761D01*
X109688333Y-93797142D01*
X109640714Y-93701904D01*
X109640714Y-93606666D01*
X110307380Y-93130476D02*
X110259761Y-93225714D01*
X110212142Y-93273333D01*
X110116904Y-93320952D01*
X109831190Y-93320952D01*
X109735952Y-93273333D01*
X109688333Y-93225714D01*
X109640714Y-93130476D01*
X109640714Y-92987619D01*
X109688333Y-92892380D01*
X109735952Y-92844761D01*
X109831190Y-92797142D01*
X110116904Y-92797142D01*
X110212142Y-92844761D01*
X110259761Y-92892380D01*
X110307380Y-92987619D01*
X110307380Y-93130476D01*
X110307380Y-92225714D02*
X110259761Y-92320952D01*
X110164523Y-92368571D01*
X109307380Y-92368571D01*
X110307380Y-91701904D02*
X110259761Y-91797142D01*
X110164523Y-91844761D01*
X109307380Y-91844761D01*
X110259761Y-90940000D02*
X110307380Y-91035238D01*
X110307380Y-91225714D01*
X110259761Y-91320952D01*
X110164523Y-91368571D01*
X109783571Y-91368571D01*
X109688333Y-91320952D01*
X109640714Y-91225714D01*
X109640714Y-91035238D01*
X109688333Y-90940000D01*
X109783571Y-90892380D01*
X109878809Y-90892380D01*
X109974047Y-91368571D01*
X110307380Y-90463809D02*
X109640714Y-90463809D01*
X109831190Y-90463809D02*
X109735952Y-90416190D01*
X109688333Y-90368571D01*
X109640714Y-90273333D01*
X109640714Y-90178095D01*
X109640714Y-89082857D02*
X110640714Y-89082857D01*
X109688333Y-89082857D02*
X109640714Y-88987619D01*
X109640714Y-88797142D01*
X109688333Y-88701904D01*
X109735952Y-88654285D01*
X109831190Y-88606666D01*
X110116904Y-88606666D01*
X110212142Y-88654285D01*
X110259761Y-88701904D01*
X110307380Y-88797142D01*
X110307380Y-88987619D01*
X110259761Y-89082857D01*
X110307380Y-88035238D02*
X110259761Y-88130476D01*
X110212142Y-88178095D01*
X110116904Y-88225714D01*
X109831190Y-88225714D01*
X109735952Y-88178095D01*
X109688333Y-88130476D01*
X109640714Y-88035238D01*
X109640714Y-87892380D01*
X109688333Y-87797142D01*
X109735952Y-87749523D01*
X109831190Y-87701904D01*
X110116904Y-87701904D01*
X110212142Y-87749523D01*
X110259761Y-87797142D01*
X110307380Y-87892380D01*
X110307380Y-88035238D01*
X110307380Y-87273333D02*
X109640714Y-87273333D01*
X109831190Y-87273333D02*
X109735952Y-87225714D01*
X109688333Y-87178095D01*
X109640714Y-87082857D01*
X109640714Y-86987619D01*
X109640714Y-86797142D02*
X109640714Y-86416190D01*
X109307380Y-86654285D02*
X110164523Y-86654285D01*
X110259761Y-86606666D01*
X110307380Y-86511428D01*
X110307380Y-86416190D01*
X110259761Y-86130476D02*
X110307380Y-86035238D01*
X110307380Y-85844761D01*
X110259761Y-85749523D01*
X110164523Y-85701904D01*
X110116904Y-85701904D01*
X110021666Y-85749523D01*
X109974047Y-85844761D01*
X109974047Y-85987619D01*
X109926428Y-86082857D01*
X109831190Y-86130476D01*
X109783571Y-86130476D01*
X109688333Y-86082857D01*
X109640714Y-85987619D01*
X109640714Y-85844761D01*
X109688333Y-85749523D01*
%TO.C,C7*%
X106689142Y-102782666D02*
X106736761Y-102830285D01*
X106784380Y-102973142D01*
X106784380Y-103068380D01*
X106736761Y-103211238D01*
X106641523Y-103306476D01*
X106546285Y-103354095D01*
X106355809Y-103401714D01*
X106212952Y-103401714D01*
X106022476Y-103354095D01*
X105927238Y-103306476D01*
X105832000Y-103211238D01*
X105784380Y-103068380D01*
X105784380Y-102973142D01*
X105832000Y-102830285D01*
X105879619Y-102782666D01*
X105784380Y-102449333D02*
X105784380Y-101782666D01*
X106784380Y-102211238D01*
%TO.C,C2*%
X106689142Y-76874666D02*
X106736761Y-76922285D01*
X106784380Y-77065142D01*
X106784380Y-77160380D01*
X106736761Y-77303238D01*
X106641523Y-77398476D01*
X106546285Y-77446095D01*
X106355809Y-77493714D01*
X106212952Y-77493714D01*
X106022476Y-77446095D01*
X105927238Y-77398476D01*
X105832000Y-77303238D01*
X105784380Y-77160380D01*
X105784380Y-77065142D01*
X105832000Y-76922285D01*
X105879619Y-76874666D01*
X105879619Y-76493714D02*
X105832000Y-76446095D01*
X105784380Y-76350857D01*
X105784380Y-76112761D01*
X105832000Y-76017523D01*
X105879619Y-75969904D01*
X105974857Y-75922285D01*
X106070095Y-75922285D01*
X106212952Y-75969904D01*
X106784380Y-76541333D01*
X106784380Y-75922285D01*
%TO.C,J1*%
X99607714Y-108799047D02*
X100607714Y-108799047D01*
X99655333Y-108799047D02*
X99607714Y-108703809D01*
X99607714Y-108513333D01*
X99655333Y-108418095D01*
X99702952Y-108370476D01*
X99798190Y-108322857D01*
X100083904Y-108322857D01*
X100179142Y-108370476D01*
X100226761Y-108418095D01*
X100274380Y-108513333D01*
X100274380Y-108703809D01*
X100226761Y-108799047D01*
X100274380Y-107751428D02*
X100226761Y-107846666D01*
X100179142Y-107894285D01*
X100083904Y-107941904D01*
X99798190Y-107941904D01*
X99702952Y-107894285D01*
X99655333Y-107846666D01*
X99607714Y-107751428D01*
X99607714Y-107608571D01*
X99655333Y-107513333D01*
X99702952Y-107465714D01*
X99798190Y-107418095D01*
X100083904Y-107418095D01*
X100179142Y-107465714D01*
X100226761Y-107513333D01*
X100274380Y-107608571D01*
X100274380Y-107751428D01*
X100274380Y-106989523D02*
X99607714Y-106989523D01*
X99798190Y-106989523D02*
X99702952Y-106941904D01*
X99655333Y-106894285D01*
X99607714Y-106799047D01*
X99607714Y-106703809D01*
X99607714Y-106513333D02*
X99607714Y-106132380D01*
X99274380Y-106370476D02*
X100131523Y-106370476D01*
X100226761Y-106322857D01*
X100274380Y-106227619D01*
X100274380Y-106132380D01*
X99607714Y-104608571D02*
X100274380Y-104608571D01*
X99226761Y-104846666D02*
X99941047Y-105084761D01*
X99941047Y-104465714D01*
%TO.C,J4*%
X99607714Y-96683247D02*
X100607714Y-96683247D01*
X99655333Y-96683247D02*
X99607714Y-96588009D01*
X99607714Y-96397533D01*
X99655333Y-96302295D01*
X99702952Y-96254676D01*
X99798190Y-96207057D01*
X100083904Y-96207057D01*
X100179142Y-96254676D01*
X100226761Y-96302295D01*
X100274380Y-96397533D01*
X100274380Y-96588009D01*
X100226761Y-96683247D01*
X100274380Y-95635628D02*
X100226761Y-95730866D01*
X100179142Y-95778485D01*
X100083904Y-95826104D01*
X99798190Y-95826104D01*
X99702952Y-95778485D01*
X99655333Y-95730866D01*
X99607714Y-95635628D01*
X99607714Y-95492771D01*
X99655333Y-95397533D01*
X99702952Y-95349914D01*
X99798190Y-95302295D01*
X100083904Y-95302295D01*
X100179142Y-95349914D01*
X100226761Y-95397533D01*
X100274380Y-95492771D01*
X100274380Y-95635628D01*
X100274380Y-94873723D02*
X99607714Y-94873723D01*
X99798190Y-94873723D02*
X99702952Y-94826104D01*
X99655333Y-94778485D01*
X99607714Y-94683247D01*
X99607714Y-94588009D01*
X99607714Y-94397533D02*
X99607714Y-94016580D01*
X99274380Y-94254676D02*
X100131523Y-94254676D01*
X100226761Y-94207057D01*
X100274380Y-94111819D01*
X100274380Y-94016580D01*
X99274380Y-93016580D02*
X99274380Y-92397533D01*
X99655333Y-92730866D01*
X99655333Y-92588009D01*
X99702952Y-92492771D01*
X99750571Y-92445152D01*
X99845809Y-92397533D01*
X100083904Y-92397533D01*
X100179142Y-92445152D01*
X100226761Y-92492771D01*
X100274380Y-92588009D01*
X100274380Y-92873723D01*
X100226761Y-92968961D01*
X100179142Y-93016580D01*
%TO.C,J2*%
X99607714Y-74509047D02*
X100607714Y-74509047D01*
X99655333Y-74509047D02*
X99607714Y-74413809D01*
X99607714Y-74223333D01*
X99655333Y-74128095D01*
X99702952Y-74080476D01*
X99798190Y-74032857D01*
X100083904Y-74032857D01*
X100179142Y-74080476D01*
X100226761Y-74128095D01*
X100274380Y-74223333D01*
X100274380Y-74413809D01*
X100226761Y-74509047D01*
X100274380Y-73461428D02*
X100226761Y-73556666D01*
X100179142Y-73604285D01*
X100083904Y-73651904D01*
X99798190Y-73651904D01*
X99702952Y-73604285D01*
X99655333Y-73556666D01*
X99607714Y-73461428D01*
X99607714Y-73318571D01*
X99655333Y-73223333D01*
X99702952Y-73175714D01*
X99798190Y-73128095D01*
X100083904Y-73128095D01*
X100179142Y-73175714D01*
X100226761Y-73223333D01*
X100274380Y-73318571D01*
X100274380Y-73461428D01*
X100274380Y-72699523D02*
X99607714Y-72699523D01*
X99798190Y-72699523D02*
X99702952Y-72651904D01*
X99655333Y-72604285D01*
X99607714Y-72509047D01*
X99607714Y-72413809D01*
X99607714Y-72223333D02*
X99607714Y-71842380D01*
X99274380Y-72080476D02*
X100131523Y-72080476D01*
X100226761Y-72032857D01*
X100274380Y-71937619D01*
X100274380Y-71842380D01*
X100274380Y-70223333D02*
X100274380Y-70794761D01*
X100274380Y-70509047D02*
X99274380Y-70509047D01*
X99417238Y-70604285D01*
X99512476Y-70699523D01*
X99560095Y-70794761D01*
%TO.C,C5*%
X106689142Y-91606666D02*
X106736761Y-91654285D01*
X106784380Y-91797142D01*
X106784380Y-91892380D01*
X106736761Y-92035238D01*
X106641523Y-92130476D01*
X106546285Y-92178095D01*
X106355809Y-92225714D01*
X106212952Y-92225714D01*
X106022476Y-92178095D01*
X105927238Y-92130476D01*
X105832000Y-92035238D01*
X105784380Y-91892380D01*
X105784380Y-91797142D01*
X105832000Y-91654285D01*
X105879619Y-91606666D01*
X105784380Y-90701904D02*
X105784380Y-91178095D01*
X106260571Y-91225714D01*
X106212952Y-91178095D01*
X106165333Y-91082857D01*
X106165333Y-90844761D01*
X106212952Y-90749523D01*
X106260571Y-90701904D01*
X106355809Y-90654285D01*
X106593904Y-90654285D01*
X106689142Y-90701904D01*
X106736761Y-90749523D01*
X106784380Y-90844761D01*
X106784380Y-91082857D01*
X106736761Y-91178095D01*
X106689142Y-91225714D01*
D12*
%TO.C,D2*%
X106408914Y-100852142D02*
X106408914Y-100372142D01*
X106523200Y-100372142D01*
X106591771Y-100395000D01*
X106637485Y-100440714D01*
X106660342Y-100486428D01*
X106683200Y-100577857D01*
X106683200Y-100646428D01*
X106660342Y-100737857D01*
X106637485Y-100783571D01*
X106591771Y-100829285D01*
X106523200Y-100852142D01*
X106408914Y-100852142D01*
X106866057Y-100417857D02*
X106888914Y-100395000D01*
X106934628Y-100372142D01*
X107048914Y-100372142D01*
X107094628Y-100395000D01*
X107117485Y-100417857D01*
X107140342Y-100463571D01*
X107140342Y-100509285D01*
X107117485Y-100577857D01*
X106843200Y-100852142D01*
X107140342Y-100852142D01*
D10*
%TO.C,C4*%
X106689142Y-88558666D02*
X106736761Y-88606285D01*
X106784380Y-88749142D01*
X106784380Y-88844380D01*
X106736761Y-88987238D01*
X106641523Y-89082476D01*
X106546285Y-89130095D01*
X106355809Y-89177714D01*
X106212952Y-89177714D01*
X106022476Y-89130095D01*
X105927238Y-89082476D01*
X105832000Y-88987238D01*
X105784380Y-88844380D01*
X105784380Y-88749142D01*
X105832000Y-88606285D01*
X105879619Y-88558666D01*
X106117714Y-87701523D02*
X106784380Y-87701523D01*
X105736761Y-87939619D02*
X106451047Y-88177714D01*
X106451047Y-87558666D01*
D12*
%TO.C,D1*%
X106408914Y-78500142D02*
X106408914Y-78020142D01*
X106523200Y-78020142D01*
X106591771Y-78043000D01*
X106637485Y-78088714D01*
X106660342Y-78134428D01*
X106683200Y-78225857D01*
X106683200Y-78294428D01*
X106660342Y-78385857D01*
X106637485Y-78431571D01*
X106591771Y-78477285D01*
X106523200Y-78500142D01*
X106408914Y-78500142D01*
X107140342Y-78500142D02*
X106866057Y-78500142D01*
X107003200Y-78500142D02*
X107003200Y-78020142D01*
X106957485Y-78088714D01*
X106911771Y-78134428D01*
X106866057Y-78157285D01*
D10*
%TO.C,C1*%
X106689142Y-69508666D02*
X106736761Y-69556285D01*
X106784380Y-69699142D01*
X106784380Y-69794380D01*
X106736761Y-69937238D01*
X106641523Y-70032476D01*
X106546285Y-70080095D01*
X106355809Y-70127714D01*
X106212952Y-70127714D01*
X106022476Y-70080095D01*
X105927238Y-70032476D01*
X105832000Y-69937238D01*
X105784380Y-69794380D01*
X105784380Y-69699142D01*
X105832000Y-69556285D01*
X105879619Y-69508666D01*
X106784380Y-68556285D02*
X106784380Y-69127714D01*
X106784380Y-68842000D02*
X105784380Y-68842000D01*
X105927238Y-68937238D01*
X106022476Y-69032476D01*
X106070095Y-69127714D01*
D12*
%TO.C,C3*%
X104392000Y-80631420D02*
X104392000Y-80912580D01*
X105412000Y-80631420D02*
X105412000Y-80912580D01*
%TO.C,J3*%
X103438000Y-86106000D02*
X103438000Y-78426000D01*
X100778000Y-86106000D02*
X100778000Y-78426000D01*
X103438000Y-88706000D02*
X102108000Y-88706000D01*
X103438000Y-87376000D02*
X103438000Y-88706000D01*
X103438000Y-78426000D02*
X100778000Y-78426000D01*
X103438000Y-86106000D02*
X100778000Y-86106000D01*
%TO.C,C6*%
X105412000Y-99427420D02*
X105412000Y-99708580D01*
X104392000Y-99427420D02*
X104392000Y-99708580D01*
%TO.C,C8*%
X104138000Y-110630580D02*
X104138000Y-110349420D01*
X105158000Y-110630580D02*
X105158000Y-110349420D01*
%TO.C,J6*%
X112462000Y-88910000D02*
X112462000Y-87580000D01*
X112462000Y-90180000D02*
X112462000Y-97860000D01*
X115122000Y-90180000D02*
X115122000Y-97860000D01*
X112462000Y-87580000D02*
X113792000Y-87580000D01*
X112462000Y-97860000D02*
X115122000Y-97860000D01*
X112462000Y-90180000D02*
X115122000Y-90180000D01*
%TO.C,C7*%
X105412000Y-102475420D02*
X105412000Y-102756580D01*
X104392000Y-102475420D02*
X104392000Y-102756580D01*
%TO.C,C2*%
X105412000Y-76567420D02*
X105412000Y-76848580D01*
X104392000Y-76567420D02*
X104392000Y-76848580D01*
%TO.C,J1*%
X103438000Y-111556000D02*
X102108000Y-111556000D01*
X103438000Y-101276000D02*
X100778000Y-101276000D01*
X100778000Y-108956000D02*
X100778000Y-101276000D01*
X103438000Y-108956000D02*
X100778000Y-108956000D01*
X103438000Y-108956000D02*
X103438000Y-101276000D01*
X103438000Y-110226000D02*
X103438000Y-111556000D01*
%TO.C,J5*%
X116138000Y-76454000D02*
X116138000Y-81594000D01*
X113478000Y-73854000D02*
X114808000Y-73854000D01*
X113478000Y-81594000D02*
X116138000Y-81594000D01*
X113478000Y-76454000D02*
X113478000Y-81594000D01*
X113478000Y-76454000D02*
X116138000Y-76454000D01*
X113478000Y-75184000D02*
X113478000Y-73854000D01*
%TO.C,J4*%
X103438000Y-89856000D02*
X100778000Y-89856000D01*
X103438000Y-97536000D02*
X103438000Y-89856000D01*
X103438000Y-100136000D02*
X102108000Y-100136000D01*
X103438000Y-98806000D02*
X103438000Y-100136000D01*
X100778000Y-97536000D02*
X100778000Y-89856000D01*
X103438000Y-97536000D02*
X100778000Y-97536000D01*
%TO.C,J2*%
X100778000Y-74422000D02*
X100778000Y-66742000D01*
X103438000Y-75692000D02*
X103438000Y-77022000D01*
X103438000Y-66742000D02*
X100778000Y-66742000D01*
X103438000Y-74422000D02*
X100778000Y-74422000D01*
X103438000Y-77022000D02*
X102108000Y-77022000D01*
X103438000Y-74422000D02*
X103438000Y-66742000D01*
%TO.C,C5*%
X104392000Y-91299420D02*
X104392000Y-91580580D01*
X105412000Y-91299420D02*
X105412000Y-91580580D01*
D13*
%TO.C,D2*%
X107770000Y-99784000D02*
X107770000Y-101384000D01*
X110670000Y-101384000D02*
X110670000Y-99784000D01*
X108030000Y-101154000D02*
G75*
G03*
X108030000Y-101154000I-20000J0D01*
G01*
D12*
%TO.C,C4*%
X104392000Y-88251420D02*
X104392000Y-88532580D01*
X105412000Y-88251420D02*
X105412000Y-88532580D01*
D13*
%TO.C,D1*%
X107770000Y-77432000D02*
X107770000Y-79032000D01*
X110670000Y-79032000D02*
X110670000Y-77432000D01*
X108030000Y-78802000D02*
G75*
G03*
X108030000Y-78802000I-20000J0D01*
G01*
D12*
%TO.C,C1*%
X105412000Y-69201420D02*
X105412000Y-69482580D01*
X104392000Y-69201420D02*
X104392000Y-69482580D01*
%TD*%
%LPC*%
D14*
%TO.C,C3*%
X104902000Y-79997000D03*
X104902000Y-81547000D03*
%TD*%
D15*
%TO.C,J3*%
X102108000Y-87376000D03*
D16*
X102108000Y-84836000D03*
X102108000Y-82296000D03*
X102108000Y-79756000D03*
%TD*%
D14*
%TO.C,C6*%
X104902000Y-98793000D03*
X104902000Y-100343000D03*
%TD*%
D17*
%TO.C,REF\u002A\u002A*%
X113030000Y-108458000D03*
%TD*%
D18*
%TO.C,C8*%
X104648000Y-111265000D03*
X104648000Y-109715000D03*
%TD*%
D15*
%TO.C,J6*%
X113792000Y-88910000D03*
D16*
X113792000Y-91450000D03*
X113792000Y-93990000D03*
X113792000Y-96530000D03*
%TD*%
D17*
%TO.C,REF\u002A\u002A*%
X113030000Y-69596000D03*
%TD*%
D14*
%TO.C,C7*%
X104902000Y-101841000D03*
X104902000Y-103391000D03*
%TD*%
%TO.C,C2*%
X104902000Y-75933000D03*
X104902000Y-77483000D03*
%TD*%
D15*
%TO.C,J1*%
X102108000Y-110226000D03*
D16*
X102108000Y-107686000D03*
X102108000Y-105146000D03*
X102108000Y-102606000D03*
%TD*%
D15*
%TO.C,J5*%
X114808000Y-75184000D03*
D16*
X114808000Y-77724000D03*
X114808000Y-80264000D03*
%TD*%
D15*
%TO.C,J4*%
X102108000Y-98806000D03*
D16*
X102108000Y-96266000D03*
X102108000Y-93726000D03*
X102108000Y-91186000D03*
%TD*%
D15*
%TO.C,J2*%
X102108000Y-75692000D03*
D16*
X102108000Y-73152000D03*
X102108000Y-70612000D03*
X102108000Y-68072000D03*
%TD*%
D14*
%TO.C,C5*%
X104902000Y-90665000D03*
X104902000Y-92215000D03*
%TD*%
D19*
%TO.C,D2*%
X108270000Y-101834000D03*
X109220000Y-101834000D03*
X110170000Y-101834000D03*
X110170000Y-99334000D03*
X109220000Y-99334000D03*
X108270000Y-99334000D03*
%TD*%
D14*
%TO.C,C4*%
X104902000Y-87617000D03*
X104902000Y-89167000D03*
%TD*%
D19*
%TO.C,D1*%
X108270000Y-79482000D03*
X109220000Y-79482000D03*
X110170000Y-79482000D03*
X110170000Y-76982000D03*
X109220000Y-76982000D03*
X108270000Y-76982000D03*
%TD*%
D14*
%TO.C,C1*%
X104902000Y-68567000D03*
X104902000Y-70117000D03*
%TD*%
M02*
